<?xml version="1.0" encoding="UTF-8" standalone="no"?>
<!-- Generator: Adobe Illustrator 19.0.0, SVG Export Plug-In . SVG Version: 6.00 Build 0)  -->

<svg
   xmlns:dc="http://purl.org/dc/elements/1.1/"
   xmlns:cc="http://creativecommons.org/ns#"
   xmlns:rdf="http://www.w3.org/1999/02/22-rdf-syntax-ns#"
   xmlns:svg="http://www.w3.org/2000/svg"
   xmlns="http://www.w3.org/2000/svg"
   xmlns:sodipodi="http://sodipodi.sourceforge.net/DTD/sodipodi-0.dtd"
   xmlns:inkscape="http://www.inkscape.org/namespaces/inkscape"
   version="1.1"
   id="Ebene_1"
   x="0px"
   y="0px"
   viewBox="148 -89 395.3 278"
   style="enable-background:new 148 -89 395.3 278;"
   xml:space="preserve"
   inkscape:version="0.91 r13725"
   sodipodi:docname="about_serlo_en.svg"><metadata
     id="metadata61"><rdf:RDF><cc:Work
         rdf:about=""><dc:format>image/svg+xml</dc:format><dc:type
           rdf:resource="http://purl.org/dc/dcmitype/StillImage" /><dc:title></dc:title></cc:Work></rdf:RDF></metadata><defs
     id="defs59" /><sodipodi:namedview
     pagecolor="#ffffff"
     bordercolor="#666666"
     borderopacity="1"
     objecttolerance="10"
     gridtolerance="10"
     guidetolerance="10"
     inkscape:pageopacity="0"
     inkscape:pageshadow="2"
     inkscape:window-width="1920"
     inkscape:window-height="1001"
     id="namedview57"
     showgrid="false"
     inkscape:zoom="2.4011108"
     inkscape:cx="230.65667"
     inkscape:cy="124.25613"
     inkscape:window-x="-9"
     inkscape:window-y="-9"
     inkscape:window-maximized="1"
     inkscape:current-layer="layer2" /><style
     type="text/css"
     id="style3">
	.st0{fill:#FFFFFF;}
	.st1{font-family:'OpenSans';}
	.st2{font-size:12px;}
	.st3{fill:#007DC2;}
</style><g
     inkscape:groupmode="layer"
     id="layer2"
     inkscape:label="Hilfsebene 1" /><g
     inkscape:groupmode="layer"
     id="layer1"
     inkscape:label="Hilfsebene" /><g
     id="g5"><path
       id="XMLID_100_"
       class="st0"
       d="M293.1,49.9c0,29.6,24,53.6,53.6,53.6s53.6-24,53.6-53.6s-24-53.6-53.6-53.6   S293.1,20.3,293.1,49.9" /><path
       class="st0"
       d="M353-60.4c-7.1-3.3-15.5-0.2-18.7,6.9c-3.3,7.1-0.2,15.5,6.9,18.7c1.1,0.5,2.3,0.9,3.4,1.1   c0.6,1.4,1.4,3.2,2.4,5.4c0,0,0.2,0.4,0.3,0.4s1.3-2.9,2.8-5.9c4.2-0.9,7.8-3.7,9.8-7.9C363.2-48.8,360.1-57.2,353-60.4z    M344.9-41.7c-1,0-2.1-0.1-3-0.4l-3,1.5c-0.2,0.1-0.4,0.1-0.3-0.2l0.7-2.6c-1.2-1-2-2.1-2-3.5c0-2.2,2-4,4.7-4.8   c-0.2,0.5-0.3,1.1-0.3,1.6c0,3.6,3.9,6.4,8.7,6.4c0.1,0,0.2,0,0.4,0C349.4-42.5,347.3-41.7,344.9-41.7z M356-47l0.8,2.6   c0.1,0.2-0.1,0.3-0.3,0.2l-2.9-1.5c-0.9,0.3-1.9,0.4-3,0.4c-4.1,0-7.3-2.3-7.3-5.1s3.3-5.1,7.3-5.1c4.1,0,7.3,2.3,7.3,5.1   C357.9-49,357.1-47.9,356-47z"
       id="path8" /><path
       class="st0"
       d="M353,133.9c-1.1-0.5-2.3-0.9-3.4-1.1c-0.6-1.4-1.4-3.2-2.4-5.4c0,0-0.2-0.4-0.3-0.4s-1.3,2.9-2.8,5.9   c-4.2,0.9-7.8,3.7-9.8,7.9c-3.3,7.1-0.2,15.5,6.9,18.7c7.1,3.3,15.5,0.2,18.7-6.9C363.2,145.5,360.1,137.1,353,133.9z M350.4,154.8   l-2.2-5.5c1-0.4,1.7-1.4,1.7-2.5c0-1.5-1.2-2.7-2.7-2.7s-2.7,1.2-2.7,2.7c0,1.1,0.7,2.1,1.7,2.5l-2.2,5.5c-3.2-1.3-5.5-4.4-5.5-8.1   c0-4.8,3.9-8.7,8.7-8.7c4.8,0,8.7,3.9,8.7,8.7C355.9,150.3,353.6,153.4,350.4,154.8z"
       id="path10" /><path
       class="st0"
       d="M272.6,87.8c0-0.1-0.5-0.1-0.5-0.1c-2.4,0.1-4.3,0.2-5.9,0.3c-0.7-1-1.5-1.8-2.5-2.6c-6.1-4.9-15-3.8-19.8,2.3   c-4.8,6.2-3.7,15.1,2.3,19.9c6.1,4.9,15,3.8,19.8-2.3c2.9-3.6,3.7-8.2,2.6-12.3C270.7,90.3,272.6,87.9,272.6,87.8z M263.7,99.7   c0,0.9-0.8,0.9-0.8,0.9h-3v2.8h-1v-2.8h-7.7v2.8h-1v-2.8h-3c-0.8,0-0.8-0.9-0.8-0.9V91c0-0.9,0.8-0.9,0.8-0.9h15.7   c0.8,0,0.8,0.9,0.8,0.9V99.7z"
       id="path12" /><g
       id="g14"><path
         class="st0"
         d="M257.5-12.6c-0.9,0.4-1.5,1.1-2.1,1.8c0.5,0,1,0.1,1.4,0c0.6-0.1,1.7-0.1,2.1-0.5    C259.3-11.9,258.5-13.1,257.5-12.6z"
         id="path16" /><path
         class="st0"
         d="M270.5,5.5c-1.2-2-2.3-3.7-3.1-5c0.5-1,0.8-2.2,1-3.4c1.2-7.7-4-14.9-11.7-16.2c-7.7-1.2-14.9,4-16.3,11.6    c-1.2,7.7,4,14.9,11.7,16.2c4.5,0.7,8.9-0.8,12-3.7c3.4,0.5,6.5,1.1,6.5,1C270.7,5.9,270.5,5.5,270.5,5.5z M254.1,1.1h-5.6    c-0.4,0-0.7-0.3-0.7-0.7v-6.8h6.3V1.1z M261.5,0.4c0,0.4-0.3,0.7-0.7,0.7h-5.6v-7.5h6.3V0.4z M262.1-7h-6.9v-3.4    c-0.2,0.1-0.3,0.1-0.5,0.1s-0.4,0.1-0.7,0.1v3.3h-6.9v-2.7c0-0.4,0.3-0.8,0.8-0.8h3.1c-0.8-0.2-1.5-0.5-1.5-1.2    c0-0.8,0.9-2.1,2.2-1.8s2.3,1.3,3,2.2c0.7-0.9,1.7-2.1,3.1-2.3c1.2-0.1,2.1,1,2,1.8c-0.1,0.7-0.8,1-1.6,1.2h3.1    c0.4,0,0.8,0.3,0.8,0.8L262.1-7L262.1-7z"
         id="path18" /><path
         class="st0"
         d="M251.8-12.6c-0.6-0.3-1,0-1.3,0.5c-0.1,0.2-0.3,0.5-0.1,0.8c0.6,0.6,2.3,0.6,3.5,0.5    C253.4-11.5,252.7-12.2,251.8-12.6z"
         id="path20" /></g><path
       class="st0"
       d="M454.3-7.5c-1.3-7.6-8.6-12.8-16.3-11.6c-7.7,1.3-12.9,8.5-11.7,16.2c0.2,1.2,0.5,2.4,1,3.4   c-0.8,1.3-1.9,3-3.1,5c0,0-0.2,0.4-0.1,0.5c0,0.1,3.1-0.5,6.5-1c3.1,2.9,7.5,4.4,12,3.7C450.3,7.4,455.5,0.2,454.3-7.5z M440.6,3.3   c-3.4-4.7-8.1-7.3-8.1-10.2c0-3.8,5.4-6.6,8.1-2.4c2.9-4.2,8.1-1.4,8.1,2.4C448.7-4,444-1.4,440.6,3.3z"
       id="path22" /><g
       id="g24"><g
         id="g26"><g
           transform="matrix(1 0 0 1 276.6721 -73.0562)"
           style="font-size:12px;font-family:OpenSans;fill:#ffffff"
           id="text28"><path
             d="m 5.4023437,-0.86132813 -0.052734,0 Q 4.6757812,0.1171875 3.3339844,0.1171875 q -1.2597656,0 -1.9628907,-0.86132812 -0.69726558,-0.86132808 -0.69726558,-2.44921878 0,-1.5878906 0.70312498,-2.4667968 0.703125,-0.8789063 1.9570313,-0.8789063 1.3066406,0 2.0039062,0.9492188 l 0.076172,0 -0.041016,-0.4628907 -0.023437,-0.4511718 0,-2.6132813 0.9726562,0 L 6.3222656,0 5.53125,0 5.4023437,-0.86132813 Z m -1.9453124,0.16406251 q 0.9960937,0 1.4414062,-0.53906248 0.4511719,-0.5449219 0.4511719,-1.7519532 l 0,-0.2050781 q 0,-1.3652343 -0.4570313,-1.9453125 -0.4511719,-0.5859375 -1.4472656,-0.5859375 -0.8554687,0 -1.3125,0.6679688 -0.4511719,0.6621094 -0.4511719,1.875 0,1.2304687 0.4511719,1.8574219 0.4511719,0.62695308 1.3242188,0.62695308 z"
             style="font-size:12px;font-family:OpenSans;fill:#ffffff"
             id="path4209" /><path
             d="m 11.103516,0.1171875 q -1.4238285,0 -2.2500004,-0.8671875 -0.8203125,-0.8671875 -0.8203125,-2.4082031 0,-1.5527344 0.7617188,-2.4667969 0.7675781,-0.9140625 2.0566411,-0.9140625 1.207031,0 1.910156,0.796875 0.703125,0.7910156 0.703125,2.0917969 l 0,0.6152343 -4.4238284,0 q 0.029297,1.1308594 0.5683594,1.7167969 0.544922,0.58593753 1.529297,0.58593753 1.037109,0 2.050781,-0.43359373 l 0,0.86718747 Q 12.673828,-0.07617187 12.210938,0.01757813 11.753906,0.1171875 11.103516,0.1171875 Z m -0.263672,-5.8417969 q -0.773438,0 -1.2363284,0.5039063 -0.4570312,0.5039062 -0.5390625,1.3945312 l 3.3574219,0 q 0,-0.9199218 -0.410156,-1.40625 -0.410156,-0.4921875 -1.171875,-0.4921875 z"
             style="font-size:12px;font-family:OpenSans;fill:#ffffff"
             id="path4211" /><path
             d="m 23.302734,0 0,-4.1777344 q 0,-0.7675781 -0.328125,-1.1484375 -0.328125,-0.3867187 -1.019531,-0.3867187 -0.908203,0 -1.341797,0.5214844 -0.433594,0.5214843 -0.433594,1.6054687 l 0,3.5859375 -0.972656,0 0,-4.1777344 q 0,-0.7675781 -0.328125,-1.1484375 -0.328125,-0.3867187 -1.02539,-0.3867187 -0.914063,0 -1.341797,0.5507812 -0.421875,0.5449219 -0.421875,1.7929688 l 0,3.3691406 -0.972656,0 0,-6.421875 0.791015,0 0.158203,0.8789063 0.04687,0 q 0.275391,-0.46875 0.773438,-0.7324219 0.503906,-0.2636719 1.125,-0.2636719 1.505859,0 1.96875,1.0898438 l 0.04687,0 q 0.287109,-0.5039063 0.832031,-0.796875 0.544922,-0.2929688 1.242187,-0.2929688 1.089844,0 1.628907,0.5625 0.544922,0.5566406 0.544922,1.7871094 l 0,4.1894531 -0.972657,0 z"
             style="font-size:12px;font-family:OpenSans;fill:#ffffff"
             id="path4213" /><path
             d="m 31.816406,-3.2167969 q 0,1.5703125 -0.791015,2.45507815 -0.791016,0.87890625 -2.185547,0.87890625 -0.861328,0 -1.529297,-0.40429688 -0.667969,-0.40429687 -1.03125,-1.16015622 -0.363281,-0.7558594 -0.363281,-1.7695313 0,-1.5703125 0.785156,-2.4433593 0.785156,-0.8789063 2.179687,-0.8789063 1.347657,0 2.138672,0.8964844 0.796875,0.8964844 0.796875,2.4257812 z m -4.892578,0 q 0,1.2304688 0.492188,1.875 0.492187,0.64453128 1.447265,0.64453128 0.955078,0 1.447266,-0.63867188 0.498047,-0.6445312 0.498047,-1.8808594 0,-1.2246093 -0.498047,-1.8574218 -0.492188,-0.6386719 -1.458985,-0.6386719 -0.955078,0 -1.441406,0.6269531 -0.486328,0.6269531 -0.486328,1.8691406 z"
             style="font-size:12px;font-family:OpenSans;fill:#ffffff"
             id="path4215" /><path
             d="m 36.082031,0.1171875 q -1.394531,0 -2.162109,-0.85546875 -0.761719,-0.86132815 -0.761719,-2.43164065 0,-1.6113281 0.773438,-2.4902343 0.779296,-0.8789063 2.214843,-0.8789063 0.462891,0 0.925782,0.099609 0.46289,0.099609 0.726562,0.234375 L 37.5,-5.3789062 q -0.322266,-0.1289063 -0.703125,-0.2109375 -0.380859,-0.087891 -0.673828,-0.087891 -1.957031,0 -1.957031,2.4960938 0,1.1835937 0.474609,1.8164062 0.480469,0.63281253 1.417969,0.63281253 0.802734,0 1.646484,-0.34570313 l 0,0.86132812 Q 37.060547,0.1171875 36.082031,0.1171875 Z"
             style="font-size:12px;font-family:OpenSans;fill:#ffffff"
             id="path4217" /><path
             d="m 42.164062,-6.5390625 q 0.427735,0 0.767579,0.070312 l -0.134766,0.9023438 q -0.398438,-0.087891 -0.703125,-0.087891 -0.779297,0 -1.335938,0.6328125 -0.550781,0.6328125 -0.550781,1.5761719 l 0,3.4453125 -0.972656,0 0,-6.421875 0.802734,0 0.111328,1.1894531 0.04687,0 q 0.357422,-0.6269531 0.861329,-0.9667968 0.503906,-0.3398438 1.107421,-0.3398438 z"
             style="font-size:12px;font-family:OpenSans;fill:#ffffff"
             id="path4219" /><path
             d="m 48.082031,0 -0.193359,-0.9140625 -0.04687,0 q -0.480469,0.60351562 -0.960938,0.8203125 -0.474609,0.2109375 -1.189453,0.2109375 -0.955078,0 -1.5,-0.4921875 -0.539062,-0.4921875 -0.539062,-1.4003906 0,-1.9453125 3.111328,-2.0390625 l 1.089844,-0.035156 0,-0.3984375 q 0,-0.7558593 -0.328125,-1.1132812 -0.322266,-0.3632813 -1.03711,-0.3632813 -0.802734,0 -1.816406,0.4921875 l -0.298828,-0.7441406 q 0.474609,-0.2578125 1.037109,-0.4042969 0.56836,-0.1464843 1.136719,-0.1464843 1.148437,0 1.699219,0.5097656 0.55664,0.5097656 0.55664,1.6347656 l 0,4.3828125 -0.720703,0 z m -2.197265,-0.68554687 q 0.908203,0 1.423828,-0.49804683 0.521484,-0.4980469 0.521484,-1.3945313 l 0,-0.5800781 -0.972656,0.041016 q -1.160156,0.041016 -1.675781,0.3632812 -0.509766,0.3164063 -0.509766,0.9902344 0,0.5273438 0.316406,0.8027344 0.322266,0.27539063 0.896485,0.27539063 z"
             style="font-size:12px;font-family:OpenSans;fill:#ffffff"
             id="path4221" /><path
             d="m 52.886719,-0.68554687 q 0.257812,0 0.498047,-0.0351563 0.240234,-0.0410156 0.380859,-0.0820313 l 0,0.74414063 q -0.158203,0.07617188 -0.46875,0.12304687 -0.304688,0.05273438 -0.550781,0.05273438 -1.863282,0 -1.863282,-1.9628906 l 0,-3.8203125 -0.919921,0 0,-0.46875 0.919921,-0.4042969 0.410157,-1.3710937 0.5625,0 0,1.4882812 1.863281,0 0,0.7558594 -1.863281,0 0,3.7792969 q 0,0.5800781 0.27539,0.89062495 0.275391,0.31054688 0.75586,0.31054688 z"
             style="font-size:12px;font-family:OpenSans;fill:#ffffff"
             id="path4223" /><path
             d="m 56.027344,0 -0.972657,0 0,-6.421875 0.972657,0 0,6.421875 z m -1.054688,-8.1621094 q 0,-0.3339844 0.164063,-0.4863281 0.164062,-0.1582031 0.410156,-0.1582031 0.234375,0 0.404297,0.1582031 0.169922,0.1582031 0.169922,0.4863281 0,0.328125 -0.169922,0.4921875 -0.169922,0.1582032 -0.404297,0.1582032 -0.246094,0 -0.410156,-0.1582032 -0.164063,-0.1640625 -0.164063,-0.4921875 z"
             style="font-size:12px;font-family:OpenSans;fill:#ffffff"
             id="path4225" /><path
             d="m 60.667969,0.1171875 q -1.394532,0 -2.16211,-0.85546875 -0.761718,-0.86132815 -0.761718,-2.43164065 0,-1.6113281 0.773437,-2.4902343 0.779297,-0.8789063 2.214844,-0.8789063 0.46289,0 0.925781,0.099609 0.462891,0.099609 0.726563,0.234375 l -0.298829,0.8261719 q -0.322265,-0.1289063 -0.703125,-0.2109375 -0.380859,-0.087891 -0.673828,-0.087891 -1.957031,0 -1.957031,2.4960938 0,1.1835937 0.474609,1.8164062 0.480469,0.63281253 1.417969,0.63281253 0.802735,0 1.646485,-0.34570313 l 0,0.86132812 Q 61.646484,0.1171875 60.667969,0.1171875 Z"
             style="font-size:12px;font-family:OpenSans;fill:#ffffff"
             id="path4227" /><path
             d="m 67.769531,0 -0.193359,-0.9140625 -0.04687,0 q -0.480469,0.60351562 -0.960938,0.8203125 -0.474609,0.2109375 -1.189453,0.2109375 -0.955078,0 -1.5,-0.4921875 -0.539062,-0.4921875 -0.539062,-1.4003906 0,-1.9453125 3.111328,-2.0390625 l 1.089844,-0.035156 0,-0.3984375 q 0,-0.7558593 -0.328125,-1.1132812 -0.322266,-0.3632813 -1.03711,-0.3632813 -0.802734,0 -1.816406,0.4921875 l -0.298828,-0.7441406 q 0.474609,-0.2578125 1.037109,-0.4042969 0.56836,-0.1464843 1.136719,-0.1464843 1.148437,0 1.699219,0.5097656 0.55664,0.5097656 0.55664,1.6347656 l 0,4.3828125 -0.720703,0 z m -2.197265,-0.68554687 q 0.908203,0 1.423828,-0.49804683 0.521484,-0.4980469 0.521484,-1.3945313 l 0,-0.5800781 -0.972656,0.041016 q -1.160156,0.041016 -1.675781,0.3632812 -0.509766,0.3164063 -0.509766,0.9902344 0,0.5273438 0.316406,0.8027344 0.322266,0.27539063 0.896485,0.27539063 z"
             style="font-size:12px;font-family:OpenSans;fill:#ffffff"
             id="path4229" /><path
             d="M 71.472656,0 70.5,0 l 0,-9.1171875 0.972656,0 0,9.1171875 z"
             style="font-size:12px;font-family:OpenSans;fill:#ffffff"
             id="path4231" /><path
             d="m 74.519531,0 -0.972656,0 0,-9.1171875 0.972656,0 0,9.1171875 z"
             style="font-size:12px;font-family:OpenSans;fill:#ffffff"
             id="path4233" /><path
             d="m 75.574219,-6.421875 1.042968,0 1.40625,3.6621094 q 0.462891,1.2539062 0.574219,1.81054685 l 0.04687,0 q 0.07617,-0.29882815 0.316406,-1.01953125 0.246094,-0.7265625 1.59375,-4.453125 l 1.042969,0 -2.759765,7.3125 q -0.410157,1.0839844 -0.960938,1.5351563 -0.544922,0.4570312 -1.341797,0.4570312 -0.445312,0 -0.878906,-0.099609 l 0,-0.7792968 q 0.322266,0.070312 0.720703,0.070312 1.001953,0 1.429688,-1.12500005 L 78.164062,0.03515625 75.574219,-6.421875 Z"
             style="font-size:12px;font-family:OpenSans;fill:#ffffff"
             id="path4235" /><path
             d="m 89.900391,-1.7519531 q 0,0.89648435 -0.667969,1.38281247 -0.667969,0.48632813 -1.875,0.48632813 -1.277344,0 -1.992188,-0.40429688 l 0,-0.90234372 q 0.462891,0.23437497 0.990235,0.3691406 0.533203,0.13476563 1.02539,0.13476563 0.761719,0 1.171875,-0.24023438 0.410157,-0.24609375 0.410157,-0.74414065 0,-0.375 -0.328125,-0.6386719 -0.322266,-0.2695312 -1.265625,-0.6328125 -0.896485,-0.3339843 -1.277344,-0.5800781 -0.375,-0.2519531 -0.5625,-0.5683593 -0.181641,-0.3164063 -0.181641,-0.7558594 0,-0.7851563 0.638672,-1.2363281 0.638672,-0.4570313 1.751953,-0.4570313 1.03711,0 2.027344,0.421875 l -0.345703,0.7910156 q -0.966797,-0.3984375 -1.751953,-0.3984375 -0.691407,0 -1.042969,0.2167969 -0.351563,0.2167969 -0.351563,0.5976563 0,0.2578125 0.128907,0.4394531 0.134765,0.1816406 0.427734,0.3457031 0.292969,0.1640625 1.125,0.4746094 1.142578,0.4160156 1.541016,0.8378906 0.404297,0.421875 0.404297,1.0605469 z"
             style="font-size:12px;font-family:OpenSans;fill:#ffffff"
             id="path4237" /><path
             d="m 93.550781,-0.68554687 q 0.257813,0 0.498047,-0.0351563 0.240234,-0.0410156 0.380859,-0.0820313 l 0,0.74414063 q -0.158203,0.07617188 -0.46875,0.12304687 -0.304687,0.05273438 -0.550781,0.05273438 -1.863281,0 -1.863281,-1.9628906 l 0,-3.8203125 -0.919922,0 0,-0.46875 0.919922,-0.4042969 0.410156,-1.3710937 0.5625,0 0,1.4882812 1.863281,0 0,0.7558594 -1.863281,0 0,3.7792969 q 0,0.5800781 0.275391,0.89062495 0.27539,0.31054688 0.755859,0.31054688 z"
             style="font-size:12px;font-family:OpenSans;fill:#ffffff"
             id="path4239" /><path
             d="m 98.648437,-6.5390625 q 0.427735,0 0.767579,0.070312 l -0.134766,0.9023438 q -0.398438,-0.087891 -0.703125,-0.087891 -0.779297,0 -1.335938,0.6328125 -0.550781,0.6328125 -0.550781,1.5761719 l 0,3.4453125 -0.972656,0 0,-6.421875 0.802734,0 0.111328,1.1894531 0.04687,0 q 0.357422,-0.6269531 0.861329,-0.9667968 0.503906,-0.3398438 1.107421,-0.3398438 z"
             style="font-size:12px;font-family:OpenSans;fill:#ffffff"
             id="path4241" /><path
             d="m 101.53125,-6.421875 0,4.1660156 q 0,0.7851563 0.35742,1.171875 0.35742,0.38671878 1.11914,0.38671878 1.00782,0 1.47071,-0.55078128 0.46875,-0.5507812 0.46875,-1.7988281 l 0,-3.375 0.97265,0 0,6.421875 -0.80273,0 -0.14063,-0.86132813 -0.0527,0 q -0.29883,0.47460938 -0.83203,0.72656251 -0.52735,0.25195312 -1.20703,0.25195312 -1.17188,0 -1.75782,-0.55664063 -0.58007,-0.55664062 -0.58007,-1.78124997 l 0,-4.2011719 0.98437,0 z"
             style="font-size:12px;font-family:OpenSans;fill:#ffffff"
             id="path4243" /><path
             d="m 110.54297,0.1171875 q -1.39453,0 -2.16211,-0.85546875 -0.76172,-0.86132815 -0.76172,-2.43164065 0,-1.6113281 0.77344,-2.4902343 0.7793,-0.8789063 2.21484,-0.8789063 0.46289,0 0.92578,0.099609 0.46289,0.099609 0.72657,0.234375 l -0.29883,0.8261719 q -0.32227,-0.1289063 -0.70313,-0.2109375 -0.38086,-0.087891 -0.67383,-0.087891 -1.95703,0 -1.95703,2.4960938 0,1.1835937 0.47461,1.8164062 0.48047,0.63281253 1.41797,0.63281253 0.80274,0 1.64649,-0.34570313 l 0,0.86132812 q -0.64454,0.33398438 -1.62305,0.33398438 z"
             style="font-size:12px;font-family:OpenSans;fill:#ffffff"
             id="path4245" /><path
             d="m 115.76953,-0.68554687 q 0.25781,0 0.49805,-0.0351563 0.24023,-0.0410156 0.38086,-0.0820313 l 0,0.74414063 q -0.15821,0.07617188 -0.46875,0.12304687 -0.30469,0.05273438 -0.55078,0.05273438 -1.86328,0 -1.86328,-1.9628906 l 0,-3.8203125 -0.91993,0 0,-0.46875 0.91993,-0.4042969 0.41015,-1.3710937 0.5625,0 0,1.4882812 1.86328,0 0,0.7558594 -1.86328,0 0,3.7792969 q 0,0.5800781 0.27539,0.89062495 0.27539,0.31054688 0.75586,0.31054688 z"
             style="font-size:12px;font-family:OpenSans;fill:#ffffff"
             id="path4247" /><path
             d="m 118.85156,-6.421875 0,4.1660156 q 0,0.7851563 0.35742,1.171875 0.35743,0.38671878 1.11915,0.38671878 1.00781,0 1.4707,-0.55078128 0.46875,-0.5507812 0.46875,-1.7988281 l 0,-3.375 0.97265,0 0,6.421875 -0.80273,0 -0.14062,-0.86132813 -0.0527,0 q -0.29883,0.47460938 -0.83203,0.72656251 -0.52734,0.25195312 -1.20703,0.25195312 -1.17188,0 -1.75781,-0.55664063 -0.58008,-0.55664062 -0.58008,-1.78124997 l 0,-4.2011719 0.98437,0 z"
             style="font-size:12px;font-family:OpenSans;fill:#ffffff"
             id="path4249" /><path
             d="m 128.22656,-6.5390625 q 0.42774,0 0.76758,0.070312 l -0.13477,0.9023438 q -0.39843,-0.087891 -0.70312,-0.087891 -0.7793,0 -1.33594,0.6328125 -0.55078,0.6328125 -0.55078,1.5761719 l 0,3.4453125 -0.97265,0 0,-6.421875 0.80273,0 0.11133,1.1894531 0.0469,0 q 0.35742,-0.6269531 0.86133,-0.9667968 0.50391,-0.3398438 1.10742,-0.3398438 z"
             style="font-size:12px;font-family:OpenSans;fill:#ffffff"
             id="path4251" /><path
             d="m 132.9082,0.1171875 q -1.42383,0 -2.25,-0.8671875 -0.82031,-0.8671875 -0.82031,-2.4082031 0,-1.5527344 0.76172,-2.4667969 0.76758,-0.9140625 2.05664,-0.9140625 1.20703,0 1.91016,0.796875 0.70312,0.7910156 0.70312,2.0917969 l 0,0.6152343 -4.42383,0 q 0.0293,1.1308594 0.56836,1.7167969 0.54492,0.58593753 1.5293,0.58593753 1.03711,0 2.05078,-0.43359373 l 0,0.86718747 q -0.51562,0.22265626 -0.97852,0.31640626 -0.45703,0.09960937 -1.10742,0.09960937 z m -0.26367,-5.8417969 q -0.77344,0 -1.23633,0.5039063 -0.45703,0.5039062 -0.53906,1.3945312 l 3.35742,0 q 0,-0.9199218 -0.41015,-1.40625 -0.41016,-0.4921875 -1.17188,-0.4921875 z"
             style="font-size:12px;font-family:OpenSans;fill:#ffffff"
             id="path4253" /><path
             d="m 141.29297,-0.86132813 -0.0527,0 q -0.67382,0.97851563 -2.01562,0.97851563 -1.25977,0 -1.96289,-0.86132812 -0.69727,-0.86132808 -0.69727,-2.44921878 0,-1.5878906 0.70313,-2.4667968 0.70312,-0.8789063 1.95703,-0.8789063 1.30664,0 2.00391,0.9492188 l 0.0762,0 -0.041,-0.4628907 -0.0234,-0.4511718 0,-2.6132813 0.97266,0 0,9.1171875 -0.79102,0 -0.1289,-0.86132813 z m -1.94531,0.16406251 q 0.99609,0 1.4414,-0.53906248 0.45117,-0.5449219 0.45117,-1.7519532 l 0,-0.2050781 q 0,-1.3652343 -0.45703,-1.9453125 -0.45117,-0.5859375 -1.44726,-0.5859375 -0.85547,0 -1.3125,0.6679688 -0.45117,0.6621094 -0.45117,1.875 0,1.2304687 0.45117,1.8574219 0.45117,0.62695308 1.32422,0.62695308 z"
             style="font-size:12px;font-family:OpenSans;fill:#ffffff"
             id="path4255" /></g></g><g
         id="g30"><g
           transform="matrix(1 0 0 1 463.6721 -2.3062)"
           style="font-size:12px;font-family:OpenSans;fill:#ffffff"
           id="text32"><path
             d="m 5.4257812,0 0,-4.1542969 q 0,-0.7851562 -0.3574218,-1.171875 -0.3574219,-0.3867187 -1.1191406,-0.3867187 -1.0078125,0 -1.4765625,0.5449219 -0.46875,0.5449218 -0.46875,1.7988281 L 2.0039063,0 1.03125,0 l 0,-6.421875 0.7910156,0 0.1582031,0.8789063 0.046875,0 q 0.2988281,-0.4746094 0.8378906,-0.7324219 0.5390625,-0.2636719 1.2011718,-0.2636719 1.1601563,0 1.7460938,0.5625 0.5859375,0.5566406 0.5859375,1.7871094 L 6.3984375,0 5.4257812,0 Z"
             style="font-size:12px;font-family:OpenSans;fill:#ffffff"
             id="path4190" /><path
             d="m 13.933594,-3.2167969 q 0,1.5703125 -0.791016,2.45507815 -0.791015,0.87890625 -2.185547,0.87890625 -0.861328,0 -1.5292966,-0.40429688 -0.6679688,-0.40429687 -1.03125,-1.16015622 -0.3632813,-0.7558594 -0.3632813,-1.7695313 0,-1.5703125 0.7851563,-2.4433593 0.7851562,-0.8789063 2.1796876,-0.8789063 1.347656,0 2.138672,0.8964844 0.796875,0.8964844 0.796875,2.4257812 z m -4.8925784,0 q 0,1.2304688 0.4921875,1.875 0.4921879,0.64453128 1.4472659,0.64453128 0.955078,0 1.447265,-0.63867188 0.498047,-0.6445312 0.498047,-1.8808594 0,-1.2246093 -0.498047,-1.8574218 -0.492187,-0.6386719 -1.458984,-0.6386719 -0.955078,0 -1.4414062,0.6269531 -0.4863282,0.6269531 -0.4863282,1.8691406 z"
             style="font-size:12px;font-family:OpenSans;fill:#ffffff"
             id="path4192" /><path
             d="m 20.027344,0 0,-4.1542969 q 0,-0.7851562 -0.357422,-1.171875 -0.357422,-0.3867187 -1.119141,-0.3867187 -1.007812,0 -1.476562,0.5449219 -0.46875,0.5449218 -0.46875,1.7988281 l 0,3.3691406 -0.972656,0 0,-6.421875 0.791015,0 0.158203,0.8789063 0.04687,0 q 0.298828,-0.4746094 0.837891,-0.7324219 0.539062,-0.2636719 1.201172,-0.2636719 1.160156,0 1.746093,0.5625 Q 21,-5.4199219 21,-4.1894531 L 21,0 20.027344,0 Z"
             style="font-size:12px;font-family:OpenSans;fill:#ffffff"
             id="path4194" /><path
             d="m 22.453125,-2.7714844 0,-0.890625 2.876953,0 0,0.890625 -2.876953,0 z"
             style="font-size:12px;font-family:OpenSans;fill:#ffffff"
             id="path4196" /><path
             d="m 29.847656,0.1171875 q -0.626953,0 -1.148437,-0.22851562 -0.515625,-0.23437501 -0.867188,-0.71484376 l -0.07031,0 q 0.07031,0.5625 0.07031,1.06640626 l 0,2.64257812 -0.972656,0 0,-9.3046875 0.791016,0 0.134765,0.8789063 0.04687,0 q 0.375,-0.5273438 0.873047,-0.7617188 0.498047,-0.234375 1.142578,-0.234375 1.277344,0 1.96875,0.8730469 0.697266,0.8730469 0.697266,2.4492187 0,1.5820313 -0.708985,2.46093753 -0.703125,0.87304687 -1.957031,0.87304687 z m -0.140625,-5.8300781 q -0.984375,0 -1.423828,0.5449219 -0.439453,0.5449218 -0.451172,1.7343749 l 0,0.2167969 q 0,1.3535157 0.451172,1.9394532 0.451172,0.58007808 1.447266,0.58007808 0.832031,0 1.300781,-0.67382808 0.474609,-0.6738282 0.474609,-1.8574219 0,-1.2011719 -0.474609,-1.8398438 -0.46875,-0.6445312 -1.324219,-0.6445312 z"
             style="font-size:12px;font-family:OpenSans;fill:#ffffff"
             id="path4198" /><path
             d="m 37.148437,-6.5390625 q 0.427735,0 0.767579,0.070312 l -0.134766,0.9023438 q -0.398438,-0.087891 -0.703125,-0.087891 -0.779297,0 -1.335938,0.6328125 -0.550781,0.6328125 -0.550781,1.5761719 l 0,3.4453125 -0.972656,0 0,-6.421875 0.802734,0 0.111328,1.1894531 0.04687,0 q 0.357422,-0.6269531 0.861329,-0.9667968 0.503906,-0.3398438 1.107421,-0.3398438 z"
             style="font-size:12px;font-family:OpenSans;fill:#ffffff"
             id="path4200" /><path
             d="m 44.660156,-3.2167969 q 0,1.5703125 -0.791015,2.45507815 -0.791016,0.87890625 -2.185547,0.87890625 -0.861328,0 -1.529297,-0.40429688 -0.667969,-0.40429687 -1.03125,-1.16015622 -0.363281,-0.7558594 -0.363281,-1.7695313 0,-1.5703125 0.785156,-2.4433593 0.785156,-0.8789063 2.179687,-0.8789063 1.347657,0 2.138672,0.8964844 0.796875,0.8964844 0.796875,2.4257812 z m -4.892578,0 q 0,1.2304688 0.492188,1.875 0.492187,0.64453128 1.447265,0.64453128 0.955078,0 1.447266,-0.63867188 0.498047,-0.6445312 0.498047,-1.8808594 0,-1.2246093 -0.498047,-1.8574218 -0.492188,-0.6386719 -1.458985,-0.6386719 -0.955078,0 -1.441406,0.6269531 -0.486328,0.6269531 -0.486328,1.8691406 z"
             style="font-size:12px;font-family:OpenSans;fill:#ffffff"
             id="path4202" /><path
             d="m 49.253906,-5.6660156 -1.634765,0 0,5.6660156 -0.972657,0 0,-5.6660156 -1.148437,0 0,-0.4394531 1.148437,-0.3515625 0,-0.3574219 q 0,-2.3671875 2.06836,-2.3671875 0.509765,0 1.195312,0.2050781 l -0.251953,0.7792969 q -0.5625,-0.1816407 -0.960937,-0.1816407 -0.550782,0 -0.814454,0.3691407 -0.263671,0.3632812 -0.263671,1.171875 l 0,0.4160156 1.634765,0 0,0.7558594 z M 51.398437,0 l -0.972656,0 0,-6.421875 0.972656,0 0,6.421875 z M 50.34375,-8.1621094 q 0,-0.3339844 0.164062,-0.4863281 0.164063,-0.1582031 0.410157,-0.1582031 0.234375,0 0.404297,0.1582031 0.169921,0.1582031 0.169921,0.4863281 0,0.328125 -0.169921,0.4921875 -0.169922,0.1582032 -0.404297,0.1582032 -0.246094,0 -0.410157,-0.1582032 -0.164062,-0.1640625 -0.164062,-0.4921875 z"
             style="font-size:12px;font-family:OpenSans;fill:#ffffff"
             id="path4204" /><path
             d="m 55.535156,-0.68554687 q 0.257813,0 0.498047,-0.0351563 0.240234,-0.0410156 0.380859,-0.0820313 l 0,0.74414063 q -0.158203,0.07617188 -0.46875,0.12304687 -0.304687,0.05273438 -0.550781,0.05273438 -1.863281,0 -1.863281,-1.9628906 l 0,-3.8203125 -0.919922,0 0,-0.46875 0.919922,-0.4042969 0.410156,-1.3710937 0.5625,0 0,1.4882812 1.863281,0 0,0.7558594 -1.863281,0 0,3.7792969 q 0,0.5800781 0.275391,0.89062495 0.27539,0.31054688 0.755859,0.31054688 z"
             style="font-size:12px;font-family:OpenSans;fill:#ffffff"
             id="path4206" /></g></g><g
         id="g34"><g
           transform="matrix(1 0 0 1 463.5054 101.9438)"
           style="font-size:12px;font-family:OpenSans;fill:#ffffff"
           id="text36"><path
             d="m 3.1054688,-0.68554687 q 0.2578125,0 0.4980468,-0.0351563 0.2402344,-0.0410156 0.3808594,-0.0820313 l 0,0.74414063 Q 3.8261719,0.01757813 3.515625,0.06445312 3.2109375,0.1171875 2.9648438,0.1171875 q -1.8632813,0 -1.8632813,-1.9628906 l 0,-3.8203125 -0.91992188,0 0,-0.46875 0.91992188,-0.4042969 0.4101562,-1.3710937 0.5625001,0 0,1.4882812 1.8632812,0 0,0.7558594 -1.8632812,0 0,3.7792969 q 0,0.5800781 0.2753906,0.89062495 0.2753906,0.31054688 0.7558594,0.31054688 z"
             style="font-size:12px;font-family:OpenSans;fill:#ffffff"
             id="path4167" /><path
             d="m 8.203125,-6.5390625 q 0.4277344,0 0.7675781,0.070312 l -0.1347656,0.9023438 q -0.3984375,-0.087891 -0.703125,-0.087891 -0.7792969,0 -1.3359375,0.6328125 -0.5507813,0.6328125 -0.5507813,1.5761719 l 0,3.4453125 -0.9726562,0 0,-6.421875 0.8027344,0 0.1113281,1.1894531 0.046875,0 Q 6.5917969,-5.859375 7.0957031,-6.1992187 7.5996094,-6.5390625 8.203125,-6.5390625 Z"
             style="font-size:12px;font-family:OpenSans;fill:#ffffff"
             id="path4169" /><path
             d="m 14.121094,0 -0.19336,-0.9140625 -0.04687,0 q -0.480468,0.60351562 -0.960937,0.8203125 -0.474609,0.2109375 -1.189453,0.2109375 -0.955078,0 -1.5,-0.4921875 -0.5390627,-0.4921875 -0.5390627,-1.4003906 0,-1.9453125 3.1113277,-2.0390625 l 1.089844,-0.035156 0,-0.3984375 q 0,-0.7558593 -0.328125,-1.1132812 -0.322265,-0.3632813 -1.037109,-0.3632813 -0.802735,0 -1.816406,0.4921875 l -0.298829,-0.7441406 q 0.47461,-0.2578125 1.03711,-0.4042969 0.568359,-0.1464843 1.136719,-0.1464843 1.148437,0 1.699218,0.5097656 0.556641,0.5097656 0.556641,1.6347656 l 0,4.3828125 -0.720703,0 z m -2.197266,-0.68554687 q 0.908203,0 1.423828,-0.49804683 0.521485,-0.4980469 0.521485,-1.3945313 l 0,-0.5800781 -0.972657,0.041016 q -1.160156,0.041016 -1.675781,0.3632812 -0.509765,0.3164063 -0.509765,0.9902344 0,0.5273438 0.316406,0.8027344 0.322265,0.27539063 0.896484,0.27539063 z"
             style="font-size:12px;font-family:OpenSans;fill:#ffffff"
             id="path4171" /><path
             d="m 21.246094,0 0,-4.1542969 q 0,-0.7851562 -0.357422,-1.171875 -0.357422,-0.3867187 -1.119141,-0.3867187 -1.007812,0 -1.476562,0.5449219 -0.46875,0.5449218 -0.46875,1.7988281 l 0,3.3691406 -0.972657,0 0,-6.421875 0.791016,0 0.158203,0.8789063 0.04687,0 q 0.298828,-0.4746094 0.837891,-0.7324219 0.539062,-0.2636719 1.201172,-0.2636719 1.160156,0 1.746093,0.5625 0.585938,0.5566406 0.585938,1.7871094 L 22.21875,0 21.246094,0 Z"
             style="font-size:12px;font-family:OpenSans;fill:#ffffff"
             id="path4173" /><path
             d="m 28.353516,-1.7519531 q 0,0.89648435 -0.667969,1.38281247 -0.667969,0.48632813 -1.875,0.48632813 -1.277344,0 -1.992188,-0.40429688 l 0,-0.90234372 q 0.462891,0.23437497 0.990235,0.3691406 0.533203,0.13476563 1.02539,0.13476563 0.761719,0 1.171875,-0.24023438 0.410157,-0.24609375 0.410157,-0.74414065 0,-0.375 -0.328125,-0.6386719 -0.322266,-0.2695312 -1.265625,-0.6328125 -0.896485,-0.3339843 -1.277344,-0.5800781 -0.375,-0.2519531 -0.5625,-0.5683593 -0.181641,-0.3164063 -0.181641,-0.7558594 0,-0.7851563 0.638672,-1.2363281 0.638672,-0.4570313 1.751953,-0.4570313 1.03711,0 2.027344,0.421875 l -0.345703,0.7910156 q -0.966797,-0.3984375 -1.751953,-0.3984375 -0.691407,0 -1.042969,0.2167969 -0.351563,0.2167969 -0.351563,0.5976563 0,0.2578125 0.128907,0.4394531 0.134765,0.1816406 0.427734,0.3457031 0.292969,0.1640625 1.125,0.4746094 1.142578,0.4160156 1.541016,0.8378906 0.404297,0.421875 0.404297,1.0605469 z"
             style="font-size:12px;font-family:OpenSans;fill:#ffffff"
             id="path4175" /><path
             d="m 32.917969,0.1171875 q -0.626953,0 -1.148438,-0.22851562 -0.515625,-0.23437501 -0.867187,-0.71484376 l -0.07031,0 q 0.07031,0.5625 0.07031,1.06640626 l 0,2.64257812 -0.972657,0 0,-9.3046875 0.791016,0 0.134766,0.8789063 0.04687,0 q 0.375,-0.5273438 0.873047,-0.7617188 0.498046,-0.234375 1.142578,-0.234375 1.277343,0 1.96875,0.8730469 0.697265,0.8730469 0.697265,2.4492187 0,1.5820313 -0.708984,2.46093753 -0.703125,0.87304687 -1.957031,0.87304687 z m -0.140625,-5.8300781 q -0.984375,0 -1.423828,0.5449219 -0.439454,0.5449218 -0.451172,1.7343749 l 0,0.2167969 q 0,1.3535157 0.451172,1.9394532 0.451171,0.58007808 1.447265,0.58007808 0.832031,0 1.300781,-0.67382808 0.47461,-0.6738282 0.47461,-1.8574219 0,-1.2011719 -0.47461,-1.8398438 -0.46875,-0.6445312 -1.324218,-0.6445312 z"
             style="font-size:12px;font-family:OpenSans;fill:#ffffff"
             id="path4177" /><path
             d="m 41.238281,0 -0.193359,-0.9140625 -0.04687,0 q -0.480469,0.60351562 -0.960938,0.8203125 -0.474609,0.2109375 -1.189453,0.2109375 -0.955078,0 -1.5,-0.4921875 -0.539062,-0.4921875 -0.539062,-1.4003906 0,-1.9453125 3.111328,-2.0390625 l 1.089844,-0.035156 0,-0.3984375 q 0,-0.7558593 -0.328125,-1.1132812 -0.322266,-0.3632813 -1.03711,-0.3632813 -0.802734,0 -1.816406,0.4921875 l -0.298828,-0.7441406 q 0.474609,-0.2578125 1.037109,-0.4042969 0.56836,-0.1464843 1.136719,-0.1464843 1.148437,0 1.699219,0.5097656 0.55664,0.5097656 0.55664,1.6347656 l 0,4.3828125 -0.720703,0 z m -2.197265,-0.68554687 q 0.908203,0 1.423828,-0.49804683 0.521484,-0.4980469 0.521484,-1.3945313 l 0,-0.5800781 -0.972656,0.041016 q -1.160156,0.041016 -1.675781,0.3632812 -0.509766,0.3164063 -0.509766,0.9902344 0,0.5273438 0.316406,0.8027344 0.322266,0.27539063 0.896485,0.27539063 z"
             style="font-size:12px;font-family:OpenSans;fill:#ffffff"
             id="path4179" /><path
             d="m 46.898437,-6.5390625 q 0.427735,0 0.767579,0.070312 l -0.134766,0.9023438 q -0.398438,-0.087891 -0.703125,-0.087891 -0.779297,0 -1.335938,0.6328125 -0.550781,0.6328125 -0.550781,1.5761719 l 0,3.4453125 -0.972656,0 0,-6.421875 0.802734,0 0.111328,1.1894531 0.04687,0 q 0.357422,-0.6269531 0.861329,-0.9667968 0.503906,-0.3398438 1.107421,-0.3398438 z"
             style="font-size:12px;font-family:OpenSans;fill:#ffffff"
             id="path4181" /><path
             d="m 51.580078,0.1171875 q -1.423828,0 -2.25,-0.8671875 -0.820312,-0.8671875 -0.820312,-2.4082031 0,-1.5527344 0.761718,-2.4667969 0.767578,-0.9140625 2.056641,-0.9140625 1.207031,0 1.910156,0.796875 0.703125,0.7910156 0.703125,2.0917969 l 0,0.6152343 -4.423828,0 q 0.0293,1.1308594 0.568359,1.7167969 0.544922,0.58593753 1.529297,0.58593753 1.03711,0 2.050782,-0.43359373 l 0,0.86718747 Q 53.150391,-0.07617187 52.6875,0.01757813 52.230469,0.1171875 51.580078,0.1171875 Z m -0.263672,-5.8417969 q -0.773437,0 -1.236328,0.5039063 -0.457031,0.5039062 -0.539062,1.3945312 l 3.357421,0 q 0,-0.9199218 -0.410156,-1.40625 -0.410156,-0.4921875 -1.171875,-0.4921875 z"
             style="font-size:12px;font-family:OpenSans;fill:#ffffff"
             id="path4183" /><path
             d="m 59.988281,0 0,-4.1542969 q 0,-0.7851562 -0.357422,-1.171875 -0.357422,-0.3867187 -1.11914,-0.3867187 -1.007813,0 -1.476563,0.5449219 -0.46875,0.5449218 -0.46875,1.7988281 l 0,3.3691406 -0.972656,0 0,-6.421875 0.791016,0 0.158203,0.8789063 0.04687,0 q 0.298828,-0.4746094 0.83789,-0.7324219 0.539063,-0.2636719 1.201172,-0.2636719 1.160156,0 1.746094,0.5625 0.585937,0.5566406 0.585937,1.7871094 l 0,4.1894531 -0.972656,0 z"
             style="font-size:12px;font-family:OpenSans;fill:#ffffff"
             id="path4185" /><path
             d="m 65.027344,-0.68554687 q 0.257812,0 0.498047,-0.0351563 0.240234,-0.0410156 0.380859,-0.0820313 l 0,0.74414063 Q 65.748047,0.01757813 65.4375,0.06445312 65.132812,0.1171875 64.886719,0.1171875 q -1.863282,0 -1.863282,-1.9628906 l 0,-3.8203125 -0.919921,0 0,-0.46875 0.919921,-0.4042969 0.410157,-1.3710937 0.5625,0 0,1.4882812 1.863281,0 0,0.7558594 -1.863281,0 0,3.7792969 q 0,0.5800781 0.27539,0.89062495 0.275391,0.31054688 0.75586,0.31054688 z"
             style="font-size:12px;font-family:OpenSans;fill:#ffffff"
             id="path4187" /></g></g><g
         id="g38"><g
           transform="matrix(1 0 0 1 304.2105 180.1104)"
           style="font-size:12px;font-family:OpenSans;fill:#ffffff"
           id="text40"><path
             d="m 6.5742187,-3.2167969 q 0,1.5703125 -0.7910156,2.45507815 -0.7910156,0.87890625 -2.1855468,0.87890625 -0.8613282,0 -1.5292969,-0.40429688 -0.6679688,-0.40429687 -1.03125,-1.16015622 -0.36328128,-0.7558594 -0.36328128,-1.7695313 0,-1.5703125 0.78515628,-2.4433593 0.7851562,-0.8789063 2.1796875,-0.8789063 1.3476562,0 2.1386718,0.8964844 0.796875,0.8964844 0.796875,2.4257812 z m -4.8925781,0 q 0,1.2304688 0.4921875,1.875 0.4921875,0.64453128 1.4472657,0.64453128 0.9550781,0 1.4472656,-0.63867188 0.4980468,-0.6445312 0.4980468,-1.8808594 0,-1.2246093 -0.4980468,-1.8574218 -0.4921875,-0.6386719 -1.4589844,-0.6386719 -0.9550781,0 -1.4414062,0.6269531 -0.4863282,0.6269531 -0.4863282,1.8691406 z"
             style="font-size:12px;font-family:OpenSans;fill:#ffffff"
             id="path4298" /><path
             d="m 11.261719,0.1171875 q -0.626953,0 -1.148438,-0.22851562 -0.5156247,-0.23437501 -0.8671872,-0.71484376 l -0.070312,0 q 0.070312,0.5625 0.070312,1.06640626 l 0,2.64257812 -0.9726563,0 0,-9.3046875 0.7910156,0 0.1347657,0.8789063 0.046875,0 q 0.375,-0.5273438 0.8730472,-0.7617188 0.498047,-0.234375 1.142578,-0.234375 1.277344,0 1.96875,0.8730469 0.697265,0.8730469 0.697265,2.4492187 0,1.5820313 -0.708984,2.46093753 -0.703125,0.87304687 -1.957031,0.87304687 z m -0.140625,-5.8300781 q -0.984375,0 -1.4238284,0.5449219 -0.4394531,0.5449218 -0.4511718,1.7343749 l 0,0.2167969 q 0,1.3535157 0.4511718,1.9394532 0.4511724,0.58007808 1.4472654,0.58007808 0.832032,0 1.300782,-0.67382808 0.474609,-0.6738282 0.474609,-1.8574219 0,-1.2011719 -0.474609,-1.8398438 -0.46875,-0.6445312 -1.324219,-0.6445312 z"
             style="font-size:12px;font-family:OpenSans;fill:#ffffff"
             id="path4300" /><path
             d="m 18.345703,0.1171875 q -1.423828,0 -2.25,-0.8671875 -0.820312,-0.8671875 -0.820312,-2.4082031 0,-1.5527344 0.761718,-2.4667969 0.767578,-0.9140625 2.056641,-0.9140625 1.207031,0 1.910156,0.796875 0.703125,0.7910156 0.703125,2.0917969 l 0,0.6152343 -4.423828,0 q 0.0293,1.1308594 0.568359,1.7167969 0.544922,0.58593753 1.529297,0.58593753 1.03711,0 2.050782,-0.43359373 l 0,0.86718747 Q 19.916016,-0.07617187 19.453125,0.01757813 18.996094,0.1171875 18.345703,0.1171875 Z m -0.263672,-5.8417969 q -0.773437,0 -1.236328,0.5039063 -0.457031,0.5039062 -0.539062,1.3945312 l 3.357421,0 q 0,-0.9199218 -0.410156,-1.40625 -0.410156,-0.4921875 -1.171875,-0.4921875 z"
             style="font-size:12px;font-family:OpenSans;fill:#ffffff"
             id="path4302" /><path
             d="m 26.753906,0 0,-4.1542969 q 0,-0.7851562 -0.357422,-1.171875 -0.357422,-0.3867187 -1.11914,-0.3867187 -1.007813,0 -1.476563,0.5449219 -0.46875,0.5449218 -0.46875,1.7988281 l 0,3.3691406 -0.972656,0 0,-6.421875 0.791016,0 0.158203,0.8789063 0.04687,0 q 0.298828,-0.4746094 0.83789,-0.7324219 0.539063,-0.2636719 1.201172,-0.2636719 1.160156,0 1.746094,0.5625 0.585937,0.5566406 0.585937,1.7871094 l 0,4.1894531 -0.972656,0 z"
             style="font-size:12px;font-family:OpenSans;fill:#ffffff"
             id="path4304" /><path
             d="m 30.691406,0 -0.972656,0 0,-9.1171875 0.972656,0 0,9.1171875 z"
             style="font-size:12px;font-family:OpenSans;fill:#ffffff"
             id="path4306" /><path
             d="m 31.746094,-6.421875 1.042968,0 1.40625,3.6621094 q 0.462891,1.2539062 0.574219,1.81054685 l 0.04687,0 q 0.07617,-0.29882815 0.316406,-1.01953125 0.246094,-0.7265625 1.59375,-4.453125 l 1.042969,0 -2.759765,7.3125 q -0.410157,1.0839844 -0.960938,1.5351563 -0.544922,0.4570312 -1.341797,0.4570312 -0.445312,0 -0.878906,-0.099609 l 0,-0.7792968 q 0.322266,0.070312 0.720703,0.070312 1.001953,0 1.429688,-1.12500005 L 34.335937,0.03515625 31.746094,-6.421875 Z"
             style="font-size:12px;font-family:OpenSans;fill:#ffffff"
             id="path4308" /><path
             d="m 42.902344,0 -0.972657,0 0,-9.1171875 0.972657,0 0,9.1171875 z"
             style="font-size:12px;font-family:OpenSans;fill:#ffffff"
             id="path4310" /><path
             d="m 45.949219,0 -0.972657,0 0,-6.421875 0.972657,0 0,6.421875 z m -1.054688,-8.1621094 q 0,-0.3339844 0.164063,-0.4863281 0.164062,-0.1582031 0.410156,-0.1582031 0.234375,0 0.404297,0.1582031 0.169922,0.1582031 0.169922,0.4863281 0,0.328125 -0.169922,0.4921875 -0.169922,0.1582032 -0.404297,0.1582032 -0.246094,0 -0.410156,-0.1582032 -0.164063,-0.1640625 -0.164063,-0.4921875 z"
             style="font-size:12px;font-family:OpenSans;fill:#ffffff"
             id="path4312" /><path
             d="m 50.589844,0.1171875 q -1.394532,0 -2.16211,-0.85546875 -0.761718,-0.86132815 -0.761718,-2.43164065 0,-1.6113281 0.773437,-2.4902343 0.779297,-0.8789063 2.214844,-0.8789063 0.46289,0 0.925781,0.099609 0.462891,0.099609 0.726563,0.234375 l -0.298829,0.8261719 q -0.322265,-0.1289063 -0.703125,-0.2109375 -0.380859,-0.087891 -0.673828,-0.087891 -1.957031,0 -1.957031,2.4960938 0,1.1835937 0.474609,1.8164062 0.480469,0.63281253 1.417969,0.63281253 0.802735,0 1.646485,-0.34570313 l 0,0.86132812 Q 51.568359,0.1171875 50.589844,0.1171875 Z"
             style="font-size:12px;font-family:OpenSans;fill:#ffffff"
             id="path4314" /><path
             d="m 56.455078,0.1171875 q -1.423828,0 -2.25,-0.8671875 -0.820312,-0.8671875 -0.820312,-2.4082031 0,-1.5527344 0.761718,-2.4667969 0.767578,-0.9140625 2.056641,-0.9140625 1.207031,0 1.910156,0.796875 0.703125,0.7910156 0.703125,2.0917969 l 0,0.6152343 -4.423828,0 q 0.0293,1.1308594 0.568359,1.7167969 0.544922,0.58593753 1.529297,0.58593753 1.03711,0 2.050782,-0.43359373 l 0,0.86718747 Q 58.025391,-0.07617187 57.5625,0.01757813 57.105469,0.1171875 56.455078,0.1171875 Z m -0.263672,-5.8417969 q -0.773437,0 -1.236328,0.5039063 -0.457031,0.5039062 -0.539062,1.3945312 l 3.357421,0 q 0,-0.9199218 -0.410156,-1.40625 -0.410156,-0.4921875 -1.171875,-0.4921875 z"
             style="font-size:12px;font-family:OpenSans;fill:#ffffff"
             id="path4316" /><path
             d="m 64.863281,0 0,-4.1542969 q 0,-0.7851562 -0.357422,-1.171875 -0.357422,-0.3867187 -1.11914,-0.3867187 -1.007813,0 -1.476563,0.5449219 -0.46875,0.5449218 -0.46875,1.7988281 l 0,3.3691406 -0.972656,0 0,-6.421875 0.791016,0 0.158203,0.8789063 0.04687,0 q 0.298828,-0.4746094 0.83789,-0.7324219 0.539063,-0.2636719 1.201172,-0.2636719 1.160156,0 1.746094,0.5625 0.585937,0.5566406 0.585937,1.7871094 l 0,4.1894531 -0.972656,0 z"
             style="font-size:12px;font-family:OpenSans;fill:#ffffff"
             id="path4318" /><path
             d="m 71.970703,-1.7519531 q 0,0.89648435 -0.667969,1.38281247 -0.667968,0.48632813 -1.875,0.48632813 -1.277343,0 -1.992187,-0.40429688 l 0,-0.90234372 q 0.46289,0.23437497 0.990234,0.3691406 0.533203,0.13476563 1.025391,0.13476563 0.761719,0 1.171875,-0.24023438 0.410156,-0.24609375 0.410156,-0.74414065 0,-0.375 -0.328125,-0.6386719 -0.322266,-0.2695312 -1.265625,-0.6328125 -0.896484,-0.3339843 -1.277344,-0.5800781 -0.375,-0.2519531 -0.5625,-0.5683593 -0.18164,-0.3164063 -0.18164,-0.7558594 0,-0.7851563 0.638672,-1.2363281 0.638671,-0.4570313 1.751953,-0.4570313 1.037109,0 2.027343,0.421875 l -0.345703,0.7910156 q -0.966797,-0.3984375 -1.751953,-0.3984375 -0.691406,0 -1.042969,0.2167969 -0.351562,0.2167969 -0.351562,0.5976563 0,0.2578125 0.128906,0.4394531 0.134766,0.1816406 0.427735,0.3457031 0.292968,0.1640625 1.125,0.4746094 1.142578,0.4160156 1.541015,0.8378906 0.404297,0.421875 0.404297,1.0605469 z"
             style="font-size:12px;font-family:OpenSans;fill:#ffffff"
             id="path4320" /><path
             d="m 76.259766,0.1171875 q -1.423829,0 -2.25,-0.8671875 -0.820313,-0.8671875 -0.820313,-2.4082031 0,-1.5527344 0.761719,-2.4667969 0.767578,-0.9140625 2.05664,-0.9140625 1.207032,0 1.910157,0.796875 0.703125,0.7910156 0.703125,2.0917969 l 0,0.6152343 -4.423828,0 q 0.0293,1.1308594 0.568359,1.7167969 0.544922,0.58593753 1.529297,0.58593753 1.037109,0 2.050781,-0.43359373 l 0,0.86718747 Q 77.830078,-0.07617187 77.367187,0.01757813 76.910156,0.1171875 76.259766,0.1171875 Z m -0.263672,-5.8417969 q -0.773438,0 -1.236328,0.5039063 -0.457032,0.5039062 -0.539063,1.3945312 l 3.357422,0 q 0,-0.9199218 -0.410156,-1.40625 -0.410157,-0.4921875 -1.171875,-0.4921875 z"
             style="font-size:12px;font-family:OpenSans;fill:#ffffff"
             id="path4322" /><path
             d="m 84.644531,-0.86132813 -0.05273,0 q -0.673828,0.97851563 -2.015625,0.97851563 -1.259766,0 -1.962891,-0.86132812 -0.697265,-0.86132808 -0.697265,-2.44921878 0,-1.5878906 0.703125,-2.4667968 0.703125,-0.8789063 1.957031,-0.8789063 1.30664,0 2.003906,0.9492188 l 0.07617,0 -0.04102,-0.4628907 -0.02344,-0.4511718 0,-2.6132813 0.972656,0 0,9.1171875 -0.791016,0 -0.128906,-0.86132813 z m -1.945312,0.16406251 q 0.996093,0 1.441406,-0.53906248 0.451172,-0.5449219 0.451172,-1.7519532 l 0,-0.2050781 q 0,-1.3652343 -0.457031,-1.9453125 -0.451172,-0.5859375 -1.447266,-0.5859375 -0.855469,0 -1.3125,0.6679688 -0.451172,0.6621094 -0.451172,1.875 0,1.2304687 0.451172,1.8574219 0.451172,0.62695308 1.324219,0.62695308 z"
             style="font-size:12px;font-family:OpenSans;fill:#ffffff"
             id="path4324" /></g></g><g
         id="g42"><g
           transform="matrix(1 0 0 1 189.9585 101.7771)"
           style="font-size:12px;font-family:OpenSans;fill:#ffffff"
           id="text44"><path
             d="m 4.9804687,0 -0.1933593,-0.9140625 -0.046875,0 Q 4.2597656,-0.31054688 3.7792969,-0.09375 3.3046875,0.1171875 2.5898438,0.1171875 q -0.9550782,0 -1.5000001,-0.4921875 -0.53906245,-0.4921875 -0.53906245,-1.4003906 0,-1.9453125 3.11132815,-2.0390625 l 1.0898437,-0.035156 0,-0.3984375 q 0,-0.7558593 -0.328125,-1.1132812 -0.3222656,-0.3632813 -1.0371093,-0.3632813 -0.8027344,0 -1.8164063,0.4921875 L 1.2714844,-5.9765625 q 0.4746093,-0.2578125 1.0371094,-0.4042969 0.5683593,-0.1464843 1.1367187,-0.1464843 1.1484375,0 1.6992187,0.5097656 0.5566407,0.5097656 0.5566407,1.6347656 L 5.7011719,0 4.9804687,0 Z M 2.7832031,-0.68554687 q 0.9082032,0 1.4238281,-0.49804683 0.5214844,-0.4980469 0.5214844,-1.3945313 l 0,-0.5800781 -0.9726562,0.041016 q -1.1601563,0.041016 -1.6757813,0.3632812 -0.5097656,0.3164063 -0.5097656,0.9902344 0,0.5273438 0.3164062,0.8027344 0.3222657,0.27539063 0.8964844,0.27539063 z"
             style="font-size:12px;font-family:OpenSans;fill:#ffffff"
             id="path4283" /><path
             d="m 12.082031,-0.86132813 -0.05273,0 q -0.673828,0.97851563 -2.015625,0.97851563 -1.2597657,0 -1.9628907,-0.86132812 -0.6972657,-0.86132808 -0.6972657,-2.44921878 0,-1.5878906 0.703125,-2.4667968 0.703125,-0.8789063 1.9570314,-0.8789063 1.306641,0 2.003906,0.9492188 l 0.07617,0 -0.04102,-0.4628907 -0.02344,-0.4511718 0,-2.6132813 0.972656,0 0,9.1171875 -0.791015,0 -0.128907,-0.86132813 z m -1.945312,0.16406251 q 0.996094,0 1.441406,-0.53906248 0.451172,-0.5449219 0.451172,-1.7519532 l 0,-0.2050781 q 0,-1.3652343 -0.457031,-1.9453125 -0.451172,-0.5859375 -1.447266,-0.5859375 -0.8554687,0 -1.3125,0.6679688 -0.4511719,0.6621094 -0.4511719,1.875 0,1.2304687 0.4511719,1.8574219 0.4511719,0.62695308 1.324219,0.62695308 z"
             style="font-size:12px;font-family:OpenSans;fill:#ffffff"
             id="path4285" /><path
             d="m 14.53125,-2.7714844 0,-0.890625 2.876953,0 0,0.890625 -2.876953,0 z"
             style="font-size:12px;font-family:OpenSans;fill:#ffffff"
             id="path4287" /><path
             d="m 21.832031,-5.6660156 -1.634765,0 0,5.6660156 -0.972657,0 0,-5.6660156 -1.148437,0 0,-0.4394531 1.148437,-0.3515625 0,-0.3574219 q 0,-2.3671875 2.06836,-2.3671875 0.509765,0 1.195312,0.2050781 l -0.251953,0.7792969 q -0.5625,-0.1816407 -0.960937,-0.1816407 -0.550782,0 -0.814454,0.3691407 -0.263671,0.3632812 -0.263671,1.171875 l 0,0.4160156 1.634765,0 0,0.7558594 z"
             style="font-size:12px;font-family:OpenSans;fill:#ffffff"
             id="path4289" /><path
             d="m 25.945312,-6.5390625 q 0.427735,0 0.767579,0.070312 l -0.134766,0.9023438 q -0.398438,-0.087891 -0.703125,-0.087891 -0.779297,0 -1.335938,0.6328125 -0.550781,0.6328125 -0.550781,1.5761719 l 0,3.4453125 -0.972656,0 0,-6.421875 0.802734,0 0.111328,1.1894531 0.04687,0 q 0.357422,-0.6269531 0.861329,-0.9667968 0.503906,-0.3398438 1.107421,-0.3398438 z"
             style="font-size:12px;font-family:OpenSans;fill:#ffffff"
             id="path4291" /><path
             d="m 30.626953,0.1171875 q -1.423828,0 -2.25,-0.8671875 -0.820312,-0.8671875 -0.820312,-2.4082031 0,-1.5527344 0.761718,-2.4667969 0.767578,-0.9140625 2.056641,-0.9140625 1.207031,0 1.910156,0.796875 0.703125,0.7910156 0.703125,2.0917969 l 0,0.6152343 -4.423828,0 q 0.0293,1.1308594 0.568359,1.7167969 0.544922,0.58593753 1.529297,0.58593753 1.03711,0 2.050782,-0.43359373 l 0,0.86718747 Q 32.197266,-0.07617187 31.734375,0.01757813 31.277344,0.1171875 30.626953,0.1171875 Z m -0.263672,-5.8417969 q -0.773437,0 -1.236328,0.5039063 -0.457031,0.5039062 -0.539062,1.3945312 l 3.357421,0 q 0,-0.9199218 -0.410156,-1.40625 Q 31.125,-5.7246094 30.363281,-5.7246094 Z"
             style="font-size:12px;font-family:OpenSans;fill:#ffffff"
             id="path4293" /><path
             d="m 37.353516,0.1171875 q -1.423829,0 -2.25,-0.8671875 -0.820313,-0.8671875 -0.820313,-2.4082031 0,-1.5527344 0.761719,-2.4667969 0.767578,-0.9140625 2.05664,-0.9140625 1.207032,0 1.910157,0.796875 0.703125,0.7910156 0.703125,2.0917969 l 0,0.6152343 -4.423828,0 q 0.0293,1.1308594 0.568359,1.7167969 0.544922,0.58593753 1.529297,0.58593753 1.037109,0 2.050781,-0.43359373 l 0,0.86718747 Q 38.923828,-0.07617187 38.460937,0.01757813 38.003906,0.1171875 37.353516,0.1171875 Z m -0.263672,-5.8417969 q -0.773438,0 -1.236328,0.5039063 -0.457032,0.5039062 -0.539063,1.3945312 l 3.357422,0 q 0,-0.9199218 -0.410156,-1.40625 -0.410157,-0.4921875 -1.171875,-0.4921875 z"
             style="font-size:12px;font-family:OpenSans;fill:#ffffff"
             id="path4295" /></g></g><g
         id="g46"><g
           transform="matrix(1 0 0 1 152.2912 -2.3895)"
           style="font-size:12px;font-family:OpenSans;fill:#ffffff"
           id="text48"><path
             d="m 3.9257813,-5.6660156 -1.6347657,0 0,5.6660156 -0.9726562,0 0,-5.6660156 -1.14843753,0 0,-0.4394531 1.14843753,-0.3515625 0,-0.3574219 q 0,-2.3671875 2.0683594,-2.3671875 0.5097656,0 1.1953124,0.2050781 l -0.2519531,0.7792969 q -0.5625,-0.1816407 -0.9609375,-0.1816407 -0.5507812,0 -0.8144531,0.3691407 -0.2636719,0.3632812 -0.2636719,1.171875 l 0,0.4160156 1.6347657,0 0,0.7558594 z"
             style="font-size:12px;font-family:OpenSans;fill:#ffffff"
             id="path4258" /><path
             d="m 8.0390625,-6.5390625 q 0.4277344,0 0.7675781,0.070312 L 8.671875,-5.5664062 q -0.3984375,-0.087891 -0.703125,-0.087891 -0.7792969,0 -1.3359375,0.6328125 -0.5507813,0.6328125 -0.5507813,1.5761719 l 0,3.4453125 -0.9726562,0 0,-6.421875 0.8027344,0 0.1113281,1.1894531 0.046875,0 Q 6.4277344,-5.859375 6.9316406,-6.1992187 7.4355469,-6.5390625 8.0390625,-6.5390625 Z"
             style="font-size:12px;font-family:OpenSans;fill:#ffffff"
             id="path4260" /><path
             d="m 12.720703,0.1171875 q -1.423828,0 -2.25,-0.8671875 -0.8203124,-0.8671875 -0.8203124,-2.4082031 0,-1.5527344 0.7617184,-2.4667969 0.767579,-0.9140625 2.056641,-0.9140625 1.207031,0 1.910156,0.796875 0.703125,0.7910156 0.703125,2.0917969 l 0,0.6152343 -4.423828,0 q 0.0293,1.1308594 0.56836,1.7167969 0.544921,0.58593753 1.529296,0.58593753 1.03711,0 2.050782,-0.43359373 l 0,0.86718747 Q 14.291016,-0.07617187 13.828125,0.01757813 13.371094,0.1171875 12.720703,0.1171875 Z m -0.263672,-5.8417969 q -0.773437,0 -1.236328,0.5039063 -0.457031,0.5039062 -0.539062,1.3945312 l 3.357422,0 q 0,-0.9199218 -0.410157,-1.40625 -0.410156,-0.4921875 -1.171875,-0.4921875 z"
             style="font-size:12px;font-family:OpenSans;fill:#ffffff"
             id="path4262" /><path
             d="m 19.447266,0.1171875 q -1.423829,0 -2.25,-0.8671875 -0.820313,-0.8671875 -0.820313,-2.4082031 0,-1.5527344 0.761719,-2.4667969 0.767578,-0.9140625 2.05664,-0.9140625 1.207032,0 1.910157,0.796875 0.703125,0.7910156 0.703125,2.0917969 l 0,0.6152343 -4.423828,0 q 0.0293,1.1308594 0.568359,1.7167969 0.544922,0.58593753 1.529297,0.58593753 1.037109,0 2.050781,-0.43359373 l 0,0.86718747 Q 21.017578,-0.07617187 20.554687,0.01757813 20.097656,0.1171875 19.447266,0.1171875 Z m -0.263672,-5.8417969 q -0.773438,0 -1.236328,0.5039063 -0.457032,0.5039062 -0.539063,1.3945312 l 3.357422,0 q 0,-0.9199218 -0.410156,-1.40625 -0.410157,-0.4921875 -1.171875,-0.4921875 z"
             style="font-size:12px;font-family:OpenSans;fill:#ffffff"
             id="path4264" /><path
             d="m 32.121094,-3.2167969 q 0,1.5703125 -0.791016,2.45507815 -0.791016,0.87890625 -2.185547,0.87890625 -0.861328,0 -1.529297,-0.40429688 -0.667968,-0.40429687 -1.03125,-1.16015622 -0.363281,-0.7558594 -0.363281,-1.7695313 0,-1.5703125 0.785156,-2.4433593 0.785157,-0.8789063 2.179688,-0.8789063 1.347656,0 2.138672,0.8964844 0.796875,0.8964844 0.796875,2.4257812 z m -4.892578,0 q 0,1.2304688 0.492187,1.875 0.492188,0.64453128 1.447266,0.64453128 0.955078,0 1.447265,-0.63867188 0.498047,-0.6445312 0.498047,-1.8808594 0,-1.2246093 -0.498047,-1.8574218 -0.492187,-0.6386719 -1.458984,-0.6386719 -0.955078,0 -1.441406,0.6269531 -0.486328,0.6269531 -0.486328,1.8691406 z"
             style="font-size:12px;font-family:OpenSans;fill:#ffffff"
             id="path4266" /><path
             d="m 36.714844,-5.6660156 -1.634766,0 0,5.6660156 -0.972656,0 0,-5.6660156 -1.148438,0 0,-0.4394531 1.148438,-0.3515625 0,-0.3574219 q 0,-2.3671875 2.068359,-2.3671875 0.509766,0 1.195313,0.2050781 l -0.251953,0.7792969 q -0.5625,-0.1816407 -0.960938,-0.1816407 -0.550781,0 -0.814453,0.3691407 -0.263672,0.3632812 -0.263672,1.171875 l 0,0.4160156 1.634766,0 0,0.7558594 z"
             style="font-size:12px;font-family:OpenSans;fill:#ffffff"
             id="path4268" /><path
             d="m 43.582031,0.1171875 q -1.394531,0 -2.162109,-0.85546875 -0.761719,-0.86132815 -0.761719,-2.43164065 0,-1.6113281 0.773438,-2.4902343 0.779296,-0.8789063 2.214843,-0.8789063 0.462891,0 0.925782,0.099609 0.46289,0.099609 0.726562,0.234375 L 45,-5.3789062 q -0.322266,-0.1289063 -0.703125,-0.2109375 -0.380859,-0.087891 -0.673828,-0.087891 -1.957031,0 -1.957031,2.4960938 0,1.1835937 0.474609,1.8164062 0.480469,0.63281253 1.417969,0.63281253 0.802734,0 1.646484,-0.34570313 l 0,0.86132812 Q 44.560547,0.1171875 43.582031,0.1171875 Z"
             style="font-size:12px;font-family:OpenSans;fill:#ffffff"
             id="path4270" /><path
             d="m 51.128906,0 0,-4.1542969 q 0,-0.7851562 -0.357422,-1.171875 -0.357422,-0.3867187 -1.11914,-0.3867187 -1.013672,0 -1.482422,0.5507812 -0.462891,0.5507813 -0.462891,1.8046875 l 0,3.3574219 -0.972656,0 0,-9.1171875 0.972656,0 0,2.7597656 q 0,0.4980469 -0.04687,0.8261719 l 0.05859,0 q 0.287109,-0.4628906 0.814453,-0.7265625 0.533203,-0.2695312 1.212891,-0.2695312 1.177734,0 1.763672,0.5625 0.591796,0.5566406 0.591796,1.7753906 l 0,4.1894531 -0.972656,0 z"
             style="font-size:12px;font-family:OpenSans;fill:#ffffff"
             id="path4272" /><path
             d="m 58.042969,0 -0.19336,-0.9140625 -0.04687,0 q -0.480468,0.60351562 -0.960937,0.8203125 -0.47461,0.2109375 -1.189453,0.2109375 -0.955078,0 -1.5,-0.4921875 -0.539063,-0.4921875 -0.539063,-1.4003906 0,-1.9453125 3.111328,-2.0390625 l 1.089844,-0.035156 0,-0.3984375 q 0,-0.7558593 -0.328125,-1.1132812 -0.322266,-0.3632813 -1.037109,-0.3632813 -0.802735,0 -1.816407,0.4921875 l -0.298828,-0.7441406 q 0.47461,-0.2578125 1.03711,-0.4042969 0.568359,-0.1464843 1.136718,-0.1464843 1.148438,0 1.699219,0.5097656 0.556641,0.5097656 0.556641,1.6347656 l 0,4.3828125 -0.720703,0 z m -2.197266,-0.68554687 q 0.908203,0 1.423828,-0.49804683 0.521485,-0.4980469 0.521485,-1.3945313 l 0,-0.5800781 -0.972657,0.041016 q -1.160156,0.041016 -1.675781,0.3632812 -0.509766,0.3164063 -0.509766,0.9902344 0,0.5273438 0.316407,0.8027344 0.322265,0.27539063 0.896484,0.27539063 z"
             style="font-size:12px;font-family:OpenSans;fill:#ffffff"
             id="path4274" /><path
             d="m 63.703125,-6.5390625 q 0.427734,0 0.767578,0.070312 l -0.134766,0.9023438 q -0.398437,-0.087891 -0.703125,-0.087891 -0.779296,0 -1.335937,0.6328125 -0.550781,0.6328125 -0.550781,1.5761719 l 0,3.4453125 -0.972657,0 0,-6.421875 0.802735,0 0.111328,1.1894531 0.04687,0 q 0.357422,-0.6269531 0.861328,-0.9667968 0.503906,-0.3398438 1.107422,-0.3398438 z"
             style="font-size:12px;font-family:OpenSans;fill:#ffffff"
             id="path4276" /><path
             d="m 70.927734,-6.421875 0,0.6152344 -1.189453,0.140625 q 0.164063,0.2050781 0.292969,0.5390625 0.128906,0.328125 0.128906,0.7441406 0,0.9433594 -0.644531,1.5058594 -0.644531,0.5625 -1.769531,0.5625 -0.28711,0 -0.539063,-0.046875 -0.621094,0.328125 -0.621094,0.8261719 0,0.2636718 0.216797,0.3925781 0.216797,0.1230469 0.744141,0.1230469 l 1.136719,0 q 1.042968,0 1.599609,0.43945308 0.5625,0.43945312 0.5625,1.27734374 0,1.06640628 -0.855469,1.62304688 -0.855468,0.5625 -2.496093,0.5625 -1.259766,0 -1.945313,-0.46875 -0.679687,-0.46875 -0.679687,-1.3242188 0,-0.58593745 0.375,-1.01367183 0.375,-0.42773437 1.054687,-0.58007812 -0.246094,-0.11132812 -0.416016,-0.34570313 -0.164062,-0.23437502 -0.164062,-0.54492182 0,-0.3515625 0.1875,-0.6152344 0.1875,-0.2636719 0.591797,-0.5097657 Q 66,-2.7246094 65.683594,-3.2167969 q -0.310547,-0.4921875 -0.310547,-1.125 0,-1.0546875 0.632812,-1.6230468 0.632813,-0.5742188 1.792969,-0.5742188 0.503906,0 0.908203,0.1171875 l 2.220703,0 z m -5.121093,7.5 q 0,0.5214844 0.439453,0.7910156 0.439453,0.2695313 1.259765,0.2695313 1.22461,0 1.810547,-0.3691407 0.591797,-0.3632812 0.591797,-0.99023433 0,-0.52148437 -0.322266,-0.7265625 -0.322265,-0.19921874 -1.21289,-0.19921874 l -1.166016,0 q -0.662109,0 -1.03125,0.31640624 -0.36914,0.31640626 -0.36914,0.90820313 z m 0.527343,-5.4433594 q 0,0.6738281 0.38086,1.0195313 Q 67.095703,-3 67.775391,-3 q 1.423828,0 1.423828,-1.3828125 0,-1.4472656 -1.441407,-1.4472656 -0.685546,0 -1.054687,0.3691406 -0.369141,0.3691406 -0.369141,1.0957031 z"
             style="font-size:12px;font-family:OpenSans;fill:#ffffff"
             id="path4278" /><path
             d="m 74.970703,0.1171875 q -1.423828,0 -2.25,-0.8671875 -0.820312,-0.8671875 -0.820312,-2.4082031 0,-1.5527344 0.761718,-2.4667969 0.767578,-0.9140625 2.056641,-0.9140625 1.207031,0 1.910156,0.796875 0.703125,0.7910156 0.703125,2.0917969 l 0,0.6152343 -4.423828,0 q 0.0293,1.1308594 0.568359,1.7167969 0.544922,0.58593753 1.529297,0.58593753 1.03711,0 2.050782,-0.43359373 l 0,0.86718747 Q 76.541016,-0.07617187 76.078125,0.01757813 75.621094,0.1171875 74.970703,0.1171875 Z m -0.263672,-5.8417969 q -0.773437,0 -1.236328,0.5039063 -0.457031,0.5039062 -0.539062,1.3945312 l 3.357421,0 q 0,-0.9199218 -0.410156,-1.40625 -0.410156,-0.4921875 -1.171875,-0.4921875 z"
             style="font-size:12px;font-family:OpenSans;fill:#ffffff"
             id="path4280" /></g></g></g><path
       id="XMLID_6_"
       class="st3"
       d="M361.2,52.3L361.2,52.3c-0.1-0.1-0.2-0.3-0.3-0.6c-0.6-1.8-1.9-4.4-3.1-6.1   c-0.9-1.2-3-3.4-4.4-4.5c-2.1-1.7-4.7-3.4-8.6-5.6c-3-1.7-5.6-3.6-7.7-5.4c-2.3-2-3.6-3.5-4.7-5.5c-1.6-2.9-2.5-5.6-2.6-7.4   c0-0.4,0-0.6,0-0.7c0.1-0.1,0.2,0.1,0.4,0.5c0.8,1.4,2.1,2.9,3.4,4.1c2.3,2.1,5,3.9,8.6,5.7c2.9,1.5,7.2,3.8,8.5,4.6   c3.3,1.9,6.6,4.6,9.2,7.2c0.5,0.6,1.6,1.8,1.7,1.9l0,0c0,0.1-0.2,0.2-0.5,0.4c-1,0.6-1.9,1.4-2.4,2c0,0.1-0.1,0.1-0.1,0.1   s0.2-0.1,0.3-0.3c0.6-0.6,1.6-1.2,2.6-1.7l0.4-0.2l0,0l0.5,0.7c0.8,1,1.2,1.7,1.6,2.3c0.1,0.3,0.3,0.6,0.3,0.6s-0.1,0.1-0.2,0.1   c-0.4,0.1-1.5,0.7-2,1.1c-0.5,0.4-0.9,0.8-0.9,0.9l0,0c0,0,0.2-0.1,0.5-0.1c0.7-0.3,1.5-0.4,2.3-0.4c0.4,0,0.8,0,1.1,0.1   c0.4,0.1,1.2,0.4,1.2,0.5c0,0-0.4,0.2-0.6,0.3c-1,0.5-2.2,1.4-2.9,2.1c-0.9,0.9-1.5,1.8-1.7,2.7C361.3,52.2,361.3,52.3,361.2,52.3" /><path
       id="XMLID_5_"
       class="st3"
       d="M360.5,56.6c-0.5-3.6-1.7-6.5-2.7-8.3c-1-1.9-2-3-2-3c-1.1-1.3-2.9-3-4.7-4.4   c-3.5-2.7-7.6-5.1-7.6-5.1c-0.5-0.3-1.7-1-2.6-1.6c0,0-0.5-0.3-0.7-0.5c-1.7-1.2-3.9-3.1-3.9-3.1l0,0c-1.8-1.7-3.3-3.5-4.3-5.2   c-0.5-0.9-1-1.8-1.3-2.7c-0.5-1.2-0.9-2.5-1.1-3.7c-0.1-0.6-0.2-1.2-0.2-2.1l-0.1-1.3c-0.2,0-1.2,2-1.6,3c-0.8,2.1-1.1,4-1,6.2   c0.1,2.9,1,5.5,2.7,8.1c0.3,0.4,0.5,0.7,0.5,0.7c0,0.1,0.7,1,1.2,1.6c0.7,0.8,3.1,3,4.1,3.8c2.1,1.6,3.7,2.6,7,4.3l1.2,0.6l0,0   l0.5-0.1c1.2-0.2,2.4-0.4,3.7-0.4c0.9,0,1.7,0.1,2.4,0.2c0.4,0.1,0.6,0.1,0.6,0.1l0,0h-0.1c-0.3,0-0.8-0.1-1.3-0.1   c-0.9,0-1.9,0.1-2.8,0.2c-0.8,0.1-2,0.4-2,0.5c0,0,0.4,0.3,0.7,0.4c0.9,0.5,2,1.1,2.6,1.5l0.5,0.3l0,0l0.5-0.1   c0.7-0.2,1.3-0.3,1.9-0.3c0.1,0,0.1,0,0.2,0c0.8,0,0.9,0.1,0.9,0.1s-0.1,0.1-0.6,0.1c-0.8,0.1-1.6,0.3-2.1,0.5l-0.2,0.1l0,0   l0.2,0.2c0.8,0.8,1.3,1.9,1.3,2.8l-0.1,0.5l0,0h0.9c0.1,0,0.3,0,0.5,0c0.4,0,0.7,0,0.9,0c0.6,0.1,1.6,0.4,2.1,0.6   c1.5,0.7,3.3,2.3,4.3,3.9l0,0c0.2,0.2,0.3,0.5,0.4,0.5l0,0c0.2,1.3,0.3,2.6,0.2,4l1.5,3.4l0,0L360.5,56.6z" /><path
       id="XMLID_4_"
       class="st3"
       d="M359.7,63.2L359.7,63.2c-1.7-0.1-5.2-0.4-9.4-1.1c-5.1-0.8-9.6-2.1-13.6-3.6   c-1.6-0.6-4-1.6-6-2.8c-2.5-1.5-3.9-2.9-4.1-4.3c-0.1-0.8,0.2-1.4,1-1.9c1.1-0.8,2.8-1.3,5.4-1.6c0,0,3.2-0.2,5.6-0.5   c1.3-0.1,2.3-0.3,3-0.5c0.1,0,0.3-0.1,0.5-0.2c0.2-0.1,0.3-0.2,0.3-0.3s0-0.2-0.1-0.3c-1.2-1-4-1.7-6.6-2.5   c-0.2-0.1-0.3-0.1-0.5-0.1c-2.8-0.8-6.1-1.6-8.1-2.1c-0.7-0.2-1.3-0.3-1.6-0.4l0,0c0,0,3.8,0.6,7.9,1.4c2.4,0.5,4.4,1.1,6,1.6   c2,0.7,3.3,1.4,4,2c0.2,0.2,0.2,0.4,0.2,0.6c-0.1,0.3-0.4,0.5-0.9,0.7l0,0l0,0c-1.4,0.5-4.1,1-7.8,1.4c0,0-1.4,0.1-2.8,0.4   c-1.3,0.3-2.9,0.9-2.9,1.9s1.3,2.4,3.6,3.7c2.4,1.4,5.7,2.7,9.4,3.8c4.8,1.4,10.2,2.1,16.1,2.1l0,0l0,0L359.7,63.2z" /><path
       id="XMLID_3_"
       class="st3"
       d="M372.8,58.6c-0.7,0-1.4-0.6-1.4-1.3c0-0.8,0.6-1.4,1.3-1.4c0,0,0,0,0.1,0c0.8,0,1.4,0.6,1.4,1.3   c0,0.4-0.1,0.7-0.4,1C373.6,58.4,373.3,58.6,372.8,58.6C372.9,58.6,372.9,58.6,372.8,58.6" /><path
       id="XMLID_2_"
       class="st3"
       d="M358.8,74.6c-0.3,0-0.6,0-0.9,0c-3.2-0.1-6.7-0.7-10-2c-4.4-1.6-7.2-3-10.4-4.9   c-3.2-1.9-6.8-3.8-9.4-4.9c-2.6-1.1-5.1-1.9-7.4-2.5s-4.4-0.8-6.3-0.8c-0.2,0-0.5,0-0.7,0c-1.7,0.1-3.1,0.3-4.3,0.8   c-0.2,0.1-0.4,0.1-0.4,0.1l0,0l0,0c0-0.1,0.3-0.4,0.7-0.7c1.2-0.9,3.1-1.6,5.2-1.9c0.7-0.1,1.6-0.1,2.7-0.1c1.4,0,2.8,0.1,3.7,0.2   c2.4,0.4,5.6,1.4,9.6,3c1.5,0.6,4.9,2.1,6.2,2.8c1.5,0.7,3.3,1.5,4.5,2c2,0.7,6.6,2.3,8.4,2.8c1.9,0.5,3.9,0.8,6.2,0.9   c0.2,0,0.4,0,0.7,0c1.8,0,4.3-0.2,5.3-0.4c1.5-0.3,2-0.5,3.2-0.9c2-0.7,3.4-1.4,5.9-3.1c2.3-1.5,3.2-2.2,4.8-3.7   c0.6-0.6,0.9-0.8,1.6-1.2c0.6-0.4,1.3-0.7,1.9-0.9l0.4-0.1l-0.2-0.2c-1.1-0.6-2-1.6-2.8-2.8c-0.4-0.7-1.3-1.5-1.9-1.8   c-0.9-0.5-1.6-0.7-2.6-0.7c-0.1,0-0.3,0-0.4,0c-1.4,0.1-2.4,0.4-4.1,1.2c-0.5,0.3-0.8,0.4-0.9,0.4l0,0c0-0.1,0.2-0.3,0.8-0.8   c0.4-0.4,0.9-0.8,1.2-1c0.7-0.5,1.8-1.1,2.6-1.3c0.6-0.2,0.7-0.2,1.7-0.2c0.3,0,0.6,0,0.7,0c0.4,0,0.6,0,0.9,0.1   c1.5,0.3,2.6,1.1,3.9,2.5c1.7,1.9,3.3,3.2,4.5,3.5c0.1,0,0.4,0.1,0.4,0.1s-0.3,0.2-0.5,0.3c-0.8,0.4-2.4,1.4-3.2,1.9   c-1.7,1.3-3.2,2.8-4.7,5c-1.4,2-3.5,4-5.6,5.4c-2.9,1.9-5.9,3.1-9.4,3.6C359.8,74.6,359.5,74.6,358.8,74.6" /><path
       class="st0"
       d="M451.5,87.7c-4.8-6.1-13.7-7.2-19.8-2.3c-1,0.8-1.8,1.6-2.5,2.6c-1.6-0.1-3.5-0.2-5.9-0.3c0,0-0.5,0-0.5,0.1   s1.9,2.5,4,5.2c-1.1,4.1-0.3,8.7,2.6,12.3c4.8,6.1,13.7,7.2,19.8,2.3C455.3,102.8,456.4,93.9,451.5,87.7z M450.3,93.7l-2.1,0.6   c-0.2-0.7-0.4-1.3-0.8-1.9l1.9-1.1C449.7,92.1,450.1,92.9,450.3,93.7z M440.6,86.3c0.9,0,1.7,0.1,2.5,0.3l-0.5,2.2   c-0.6-0.2-1.3-0.3-2-0.3V86.3z M438,86.7l0.6,2.1c-0.7,0.2-1.3,0.5-1.9,0.8l-1.1-1.9C436.4,87.3,437.2,86.9,438,86.7z M433.5,89.3   l1.5,1.5c-0.4,0.6-0.8,1.1-1.2,1.7l-1.9-1.1C432.3,90.6,432.9,90,433.5,89.3z M430.9,93.8l2.1,0.6c-0.2,0.7-0.3,1.3-0.3,2h-2.1   C430.6,95.5,430.7,94.7,430.9,93.8z M431,99l2.1-0.6c0.2,0.7,0.4,1.3,0.8,1.9l-1.9,1.1C431.6,100.6,431.2,99.8,431,99z M435.6,105   c-0.8-0.4-1.4-1-2.1-1.6l1.5-1.5c0.5,0.5,1,0.9,1.6,1.2L435.6,105z M440.6,106.4c-0.9,0-1.7-0.1-2.6-0.3l0.6-2.1   c0.7,0.2,1.3,0.3,2,0.3V106.4z M443.2,106l-0.6-2.1c0.7-0.2,1.3-0.4,1.9-0.8l1.1,1.9C444.8,105.5,444,105.8,443.2,106z M444.5,89.6   l1.1-1.9c0.8,0.4,1.4,1,2.1,1.6l-1.6,1.5C445.6,90.3,445.1,89.9,444.5,89.6z M447.7,103.4l-1.5-1.5c0.5-0.5,0.9-1,1.2-1.6l1.9,1.1   C448.8,102.1,448.3,102.8,447.7,103.4z M450.2,99l-2.1-0.6c0.2-0.7,0.3-1.3,0.3-2h1.7h0.5C450.6,97.3,450.5,98.1,450.2,99z"
       id="path55" /></g></svg>