<?xml version="1.0" encoding="utf-8"?>
<!-- Generator: Adobe Illustrator 19.0.0, SVG Export Plug-In . SVG Version: 6.00 Build 0)  -->
<svg version="1.1" id="Ebene_1" xmlns="http://www.w3.org/2000/svg" xmlns:xlink="http://www.w3.org/1999/xlink" x="0px" y="0px"
	 viewBox="148 -89 395.3 278" style="enable-background:new 148 -89 395.3 278;" xml:space="preserve">
<style type="text/css">
	.st0{fill:#FFFFFF;}
	.st1{enable-background:new    ;}
	.st2{fill:#007DC2;}
</style>
<g>
	<path id="XMLID_100_" class="st0" d="M283.8,50.9c0,29.6,24,53.6,53.6,53.6s53.6-24,53.6-53.6S367-2.7,337.4-2.7
		S283.8,21.3,283.8,50.9"/>
	<path class="st0" d="M343.7-59.4c-7.1-3.3-15.5-0.2-18.7,6.9c-3.3,7.1-0.2,15.5,6.9,18.7c1.1,0.5,2.3,0.9,3.4,1.1
		c0.6,1.4,1.4,3.2,2.4,5.4c0,0,0.2,0.4,0.3,0.4s1.3-2.9,2.8-5.9c4.2-0.9,7.8-3.7,9.8-7.9C353.9-47.8,350.8-56.2,343.7-59.4z
		 M335.6-40.7c-1,0-2.1-0.1-3-0.4l-3,1.5c-0.2,0.1-0.4,0.1-0.3-0.2l0.7-2.6c-1.2-1-2-2.1-2-3.5c0-2.2,2-4,4.7-4.8
		c-0.2,0.5-0.3,1.1-0.3,1.6c0,3.6,3.9,6.4,8.7,6.4c0.1,0,0.2,0,0.4,0C340.1-41.5,338-40.7,335.6-40.7z M346.7-46l0.8,2.6
		c0.1,0.2-0.1,0.3-0.3,0.2l-2.9-1.5c-0.9,0.3-1.9,0.4-3,0.4c-4.1,0-7.3-2.3-7.3-5.1s3.3-5.1,7.3-5.1c4.1,0,7.3,2.3,7.3,5.1
		C348.6-48,347.8-46.9,346.7-46z"/>
	<path class="st0" d="M343.7,134.9c-1.1-0.5-2.3-0.9-3.4-1.1c-0.6-1.4-1.4-3.2-2.4-5.4c0,0-0.2-0.4-0.3-0.4s-1.3,2.9-2.8,5.9
		c-4.2,0.9-7.8,3.7-9.8,7.9c-3.3,7.1-0.2,15.5,6.9,18.7c7.1,3.3,15.5,0.2,18.7-6.9C353.9,146.5,350.8,138.1,343.7,134.9z
		 M341.1,155.9l-2.2-5.5c1-0.4,1.7-1.4,1.7-2.5c0-1.5-1.2-2.7-2.7-2.7s-2.7,1.2-2.7,2.7c0,1.1,0.7,2.1,1.7,2.5l-2.2,5.5
		c-3.2-1.3-5.5-4.4-5.5-8.1c0-4.8,3.9-8.7,8.7-8.7c4.8,0,8.7,3.9,8.7,8.7C346.6,151.4,344.3,154.4,341.1,155.9z"/>
	<path class="st0" d="M263.3,88.8c0-0.1-0.5-0.1-0.5-0.1c-2.4,0.1-4.3,0.2-5.9,0.3c-0.7-1-1.5-1.8-2.5-2.6c-6.1-4.9-15-3.8-19.8,2.3
		c-4.8,6.2-3.7,15.1,2.3,19.9c6.1,4.9,15,3.8,19.8-2.3c2.9-3.6,3.7-8.2,2.6-12.3C261.4,91.3,263.3,88.9,263.3,88.8z M254.4,100.7
		c0,0.9-0.8,0.9-0.8,0.9h-3v2.8h-1v-2.8h-7.7v2.8h-1v-2.8h-3c-0.8,0-0.8-0.9-0.8-0.9V92c0-0.9,0.8-0.9,0.8-0.9h15.7
		c0.8,0,0.8,0.9,0.8,0.9V100.7z"/>
	<g>
		<path class="st0" d="M248.2-11.6c-0.9,0.4-1.5,1.1-2.1,1.8c0.5,0,1,0.1,1.4,0c0.6-0.1,1.7-0.1,2.1-0.5
			C250-10.9,249.2-12.1,248.2-11.6z"/>
		<path class="st0" d="M261.2,6.5c-1.2-2-2.3-3.7-3.1-5c0.5-1,0.8-2.2,1-3.4c1.2-7.7-4-14.9-11.7-16.2c-7.7-1.2-14.9,4-16.3,11.6
			c-1.2,7.7,4,14.9,11.7,16.2c4.5,0.7,8.9-0.8,12-3.7c3.4,0.5,6.5,1.1,6.5,1C261.4,6.9,261.2,6.5,261.2,6.5z M244.8,2.1h-5.6
			c-0.4,0-0.7-0.3-0.7-0.7v-6.8h6.3V2.1z M252.2,1.4c0,0.4-0.3,0.7-0.7,0.7h-5.6v-7.5h6.3V1.4z M252.8-6h-6.9v-3.4
			c-0.2,0.1-0.3,0.1-0.5,0.1c-0.2,0-0.4,0.1-0.7,0.1v3.3h-6.9v-2.7c0-0.4,0.3-0.8,0.8-0.8h3.1c-0.8-0.2-1.5-0.5-1.5-1.2
			c0-0.8,0.9-2.1,2.2-1.8c1.3,0.3,2.3,1.3,3,2.2c0.7-0.9,1.7-2.1,3.1-2.3c1.2-0.1,2.1,1,2,1.8c-0.1,0.7-0.8,1-1.6,1.2h3.1
			c0.4,0,0.8,0.3,0.8,0.8L252.8-6L252.8-6z"/>
		<path class="st0" d="M242.5-11.6c-0.6-0.3-1,0-1.3,0.5c-0.1,0.2-0.3,0.5-0.1,0.8c0.6,0.6,2.3,0.6,3.5,0.5
			C244.1-10.5,243.4-11.2,242.5-11.6z"/>
	</g>
	<path class="st0" d="M445-6.5c-1.3-7.6-8.6-12.8-16.3-11.6C421-16.8,415.8-9.6,417-1.9c0.2,1.2,0.5,2.4,1,3.4c-0.8,1.3-1.9,3-3.1,5
		c0,0-0.2,0.4-0.1,0.5c0,0.1,3.1-0.5,6.5-1c3.1,2.9,7.5,4.4,12,3.7C441,8.4,446.2,1.2,445-6.5z M431.3,4.3
		c-3.4-4.7-8.1-7.3-8.1-10.2c0-3.8,5.4-6.6,8.1-2.4c2.9-4.2,8.1-1.4,8.1,2.4C439.4-3,434.7-0.4,431.3,4.3z"/>
	<g>
		<g class="st1">
			<path class="st0" d="M273.8-72.9L273.8-72.9c-0.5,0.7-1.2,1-2.1,1c-0.8,0-1.5-0.3-2-0.9s-0.7-1.4-0.7-2.4s0.2-1.9,0.7-2.5
				s1.1-0.9,2-0.9s1.5,0.3,2,0.9h0.1v-0.5v-0.5v-2.6h1v9.1H274L273.8-72.9z M271.8-72.8c0.7,0,1.1-0.2,1.4-0.5s0.4-0.9,0.4-1.7v-0.2
				c0-0.9-0.2-1.6-0.5-1.9s-0.8-0.6-1.5-0.6c-0.6,0-1,0.2-1.3,0.7s-0.5,1.1-0.5,1.9s0.2,1.4,0.5,1.9S271.2-72.8,271.8-72.8z"/>
			<path class="st0" d="M279.5-71.9c-0.9,0-1.7-0.3-2.2-0.9s-0.8-1.4-0.8-2.4s0.3-1.9,0.8-2.5s1.2-0.9,2.1-0.9
				c0.8,0,1.4,0.3,1.9,0.8s0.7,1.2,0.7,2.1v0.6h-4.4c0,0.8,0.2,1.3,0.6,1.7s0.9,0.6,1.5,0.6c0.7,0,1.4-0.1,2.1-0.4v0.9
				c-0.3,0.1-0.7,0.3-1,0.3S279.9-71.9,279.5-71.9z M279.2-77.8c-0.5,0-0.9,0.2-1.2,0.5s-0.5,0.8-0.5,1.4h3.4c0-0.6-0.1-1.1-0.4-1.4
				S279.7-77.8,279.2-77.8z"/>
			<path class="st0" d="M291.7-72.1v-4.2c0-0.5-0.1-0.9-0.3-1.2s-0.6-0.4-1-0.4c-0.6,0-1.1,0.2-1.3,0.5s-0.4,0.9-0.4,1.6v3.6h-1
				v-4.2c0-0.5-0.1-0.9-0.3-1.2s-0.6-0.4-1-0.4c-0.6,0-1.1,0.2-1.3,0.5s-0.4,1-0.4,1.8v3.4h-1v-6.4h0.8l0.2,0.9l0,0
				c0.2-0.3,0.4-0.6,0.8-0.7s0.7-0.3,1.1-0.3c1,0,1.7,0.4,2,1.1l0,0c0.2-0.3,0.5-0.6,0.8-0.8s0.8-0.3,1.2-0.3c0.7,0,1.3,0.2,1.6,0.6
				s0.5,1,0.5,1.8v4.2L291.7-72.1L291.7-72.1z"/>
			<path class="st0" d="M300.2-75.3c0,1-0.3,1.9-0.8,2.5s-1.3,0.9-2.2,0.9c-0.6,0-1.1-0.1-1.5-0.4s-0.8-0.7-1-1.2s-0.4-1.1-0.4-1.8
				c0-1,0.3-1.9,0.8-2.4s1.2-0.9,2.2-0.9c0.9,0,1.6,0.3,2.1,0.9S300.2-76.3,300.2-75.3z M295.3-75.3c0,0.8,0.2,1.4,0.5,1.9
				s0.8,0.6,1.4,0.6s1.1-0.2,1.5-0.6s0.5-1.1,0.5-1.9s-0.2-1.4-0.5-1.9s-0.8-0.6-1.5-0.6c-0.6,0-1.1,0.2-1.4,0.6
				S295.3-76.1,295.3-75.3z"/>
			<path class="st0" d="M302.9-75.3c0.2-0.2,0.4-0.6,0.8-0.9l2.1-2.2h1.2l-2.6,2.7l2.8,3.7H306l-2.3-3l-0.7,0.6v2.4h-1v-9.1h1v4.8
				C302.9-76.1,302.8-75.8,302.9-75.3L302.9-75.3z"/>
			<path class="st0" d="M311.1-78.6c0.3,0,0.5,0,0.8,0.1l-0.1,0.9c-0.3-0.1-0.5-0.1-0.7-0.1c-0.5,0-1,0.2-1.3,0.6s-0.6,0.9-0.6,1.6
				v3.4h-1v-6.4h0.8l0.1,1.2l0,0c0.2-0.4,0.5-0.7,0.9-1S310.7-78.6,311.1-78.6z"/>
			<path class="st0" d="M317-72.1l-0.2-0.9l0,0c-0.3,0.4-0.6,0.7-1,0.8s-0.7,0.2-1.2,0.2c-0.6,0-1.1-0.2-1.5-0.5s-0.5-0.8-0.5-1.4
				c0-1.3,1-2,3.1-2h1.1v-0.4c0-0.5-0.1-0.9-0.3-1.1s-0.6-0.4-1-0.4c-0.5,0-1.1,0.2-1.8,0.5l-0.3-0.7c0.3-0.2,0.7-0.3,1-0.4
				s0.8-0.1,1.1-0.1c0.8,0,1.3,0.2,1.7,0.5s0.6,0.9,0.6,1.6v4.4L317-72.1L317-72.1z M314.8-72.7c0.6,0,1.1-0.2,1.4-0.5
				s0.5-0.8,0.5-1.4v-0.6h-1c-0.8,0-1.3,0.1-1.7,0.4s-0.5,0.5-0.5,1c0,0.4,0.1,0.6,0.3,0.8S314.5-72.7,314.8-72.7z"/>
			<path class="st0" d="M321.8-72.7c0.2,0,0.3,0,0.5,0s0.3-0.1,0.4-0.1v0.7c-0.1,0.1-0.3,0.1-0.5,0.1s-0.4,0-0.6,0
				c-1.2,0-1.9-0.7-1.9-2v-3.8h-0.9v-0.5l0.9-0.4l0.4-1.4h0.6v1.5h1.9v0.8h-1.9v3.8c0,0.4,0.1,0.7,0.3,0.9S321.5-72.7,321.8-72.7z"
				/>
			<path class="st0" d="M323.9-80.2c0-0.2,0.1-0.4,0.2-0.5s0.2-0.2,0.4-0.2c0.2,0,0.3,0.1,0.4,0.2s0.2,0.3,0.2,0.5s-0.1,0.4-0.2,0.5
				s-0.2,0.2-0.4,0.2c-0.2,0-0.3-0.1-0.4-0.2S323.9-80,323.9-80.2z M325-72.1h-1v-6.4h1V-72.1z"/>
			<path class="st0" d="M331.2-73.8c0,0.6-0.2,1.1-0.7,1.4s-1.1,0.5-1.9,0.5c-0.9,0-1.5-0.1-2-0.4v-0.9c0.3,0.2,0.6,0.3,1,0.4
				s0.7,0.1,1,0.1c0.5,0,0.9-0.1,1.2-0.2s0.4-0.4,0.4-0.7c0-0.2-0.1-0.5-0.3-0.6s-0.6-0.4-1.3-0.6c-0.6-0.2-1-0.4-1.3-0.6
				s-0.4-0.4-0.6-0.6s-0.2-0.5-0.2-0.8c0-0.5,0.2-0.9,0.6-1.2s1-0.5,1.8-0.5c0.7,0,1.4,0.1,2,0.4l-0.3,0.8c-0.6-0.3-1.2-0.4-1.8-0.4
				c-0.5,0-0.8,0.1-1,0.2s-0.4,0.3-0.4,0.6c0,0.2,0,0.3,0.1,0.4s0.2,0.2,0.4,0.3s0.6,0.3,1.1,0.5c0.8,0.3,1.3,0.6,1.5,0.8
				S331.2-74.2,331.2-73.8z"/>
			<path class="st0" d="M335.3-71.9c-0.9,0-1.6-0.3-2.2-0.9s-0.8-1.4-0.8-2.4c0-1.1,0.3-1.9,0.8-2.5s1.3-0.9,2.2-0.9
				c0.3,0,0.6,0,0.9,0.1s0.6,0.1,0.7,0.2l-0.3,0.8c-0.2-0.1-0.4-0.2-0.7-0.2s-0.5-0.1-0.7-0.1c-1.3,0-2,0.8-2,2.5
				c0,0.8,0.2,1.4,0.5,1.8s0.8,0.6,1.4,0.6c0.5,0,1.1-0.1,1.6-0.3v0.9C336.5-72,336-71.9,335.3-71.9z"/>
			<path class="st0" d="M342.9-72.1v-4.2c0-0.5-0.1-0.9-0.4-1.2s-0.6-0.4-1.1-0.4c-0.7,0-1.2,0.2-1.5,0.6s-0.5,1-0.5,1.8v3.4h-1
				v-9.1h1v2.8c0,0.3,0,0.6,0,0.8h0.1c0.2-0.3,0.5-0.6,0.8-0.7s0.8-0.3,1.2-0.3c0.8,0,1.4,0.2,1.8,0.6s0.6,1,0.6,1.8v4.2h-1V-72.1z"
				/>
			<path class="st0" d="M354.5-75.3c0,1-0.3,1.9-0.8,2.5s-1.3,0.9-2.2,0.9c-0.6,0-1.1-0.1-1.5-0.4s-0.8-0.7-1-1.2s-0.4-1.1-0.4-1.8
				c0-1,0.3-1.9,0.8-2.4s1.2-0.9,2.2-0.9c0.9,0,1.6,0.3,2.1,0.9S354.5-76.3,354.5-75.3z M349.6-75.3c0,0.8,0.2,1.4,0.5,1.9
				s0.8,0.6,1.4,0.6s1.1-0.2,1.5-0.6s0.5-1.1,0.5-1.9s-0.2-1.4-0.5-1.9s-0.8-0.6-1.5-0.6c-0.6,0-1.1,0.2-1.4,0.6
				S349.6-76.1,349.6-75.3z"/>
			<path class="st0" d="M359.1-78.6c0.3,0,0.5,0,0.8,0.1l-0.1,0.9c-0.3-0.1-0.5-0.1-0.7-0.1c-0.5,0-1,0.2-1.3,0.6s-0.6,0.9-0.6,1.6
				v3.4h-1v-6.4h0.8l0.1,1.2l0,0c0.2-0.4,0.5-0.7,0.9-1S358.7-78.6,359.1-78.6z"/>
			<path class="st0" d="M366.4-78.5v0.6l-1.2,0.1c0.1,0.1,0.2,0.3,0.3,0.5s0.1,0.5,0.1,0.7c0,0.6-0.2,1.1-0.6,1.5s-1,0.6-1.8,0.6
				c-0.2,0-0.4,0-0.5,0c-0.4,0.2-0.6,0.5-0.6,0.8c0,0.2,0.1,0.3,0.2,0.4s0.4,0.1,0.7,0.1h1.1c0.7,0,1.2,0.1,1.6,0.4s0.6,0.7,0.6,1.3
				c0,0.7-0.3,1.3-0.9,1.6s-1.4,0.6-2.5,0.6c-0.8,0-1.5-0.2-1.9-0.5s-0.7-0.8-0.7-1.3c0-0.4,0.1-0.7,0.4-1s0.6-0.5,1.1-0.6
				c-0.2-0.1-0.3-0.2-0.4-0.3s-0.2-0.3-0.2-0.5s0.1-0.4,0.2-0.6s0.3-0.3,0.6-0.5c-0.3-0.1-0.6-0.4-0.8-0.7s-0.3-0.7-0.3-1.1
				c0-0.7,0.2-1.2,0.6-1.6s1-0.6,1.8-0.6c0.3,0,0.6,0,0.9,0.1H366.4z M361.2-71c0,0.3,0.1,0.6,0.4,0.8s0.7,0.3,1.3,0.3
				c0.8,0,1.4-0.1,1.8-0.4s0.6-0.6,0.6-1c0-0.3-0.1-0.6-0.3-0.7s-0.6-0.2-1.2-0.2h-1.2c-0.4,0-0.8,0.1-1,0.3S361.2-71.4,361.2-71z
				 M361.8-76.4c0,0.4,0.1,0.8,0.4,1s0.6,0.3,1.1,0.3c0.9,0,1.4-0.5,1.4-1.4c0-1-0.5-1.4-1.4-1.4c-0.5,0-0.8,0.1-1.1,0.4
				S361.8-76.9,361.8-76.4z"/>
			<path class="st0" d="M371.6-72.1l-0.2-0.9l0,0c-0.3,0.4-0.6,0.7-1,0.8s-0.7,0.2-1.2,0.2c-0.6,0-1.1-0.2-1.5-0.5s-0.5-0.8-0.5-1.4
				c0-1.3,1-2,3.1-2h1.1v-0.4c0-0.5-0.1-0.9-0.3-1.1s-0.6-0.4-1-0.4c-0.5,0-1.1,0.2-1.8,0.5L368-78c0.3-0.2,0.7-0.3,1-0.4
				s0.8-0.1,1.1-0.1c0.8,0,1.3,0.2,1.7,0.5s0.6,0.9,0.6,1.6v4.4L371.6-72.1L371.6-72.1z M369.4-72.7c0.6,0,1.1-0.2,1.4-0.5
				s0.5-0.8,0.5-1.4v-0.6h-1c-0.8,0-1.3,0.1-1.7,0.4s-0.5,0.5-0.5,1c0,0.4,0.1,0.6,0.3,0.8S369.1-72.7,369.4-72.7z"/>
			<path class="st0" d="M378.8-72.1v-4.2c0-0.5-0.1-0.9-0.4-1.2s-0.6-0.4-1.1-0.4c-0.7,0-1.2,0.2-1.5,0.5s-0.5,1-0.5,1.8v3.4h-1
				v-6.4h0.8l0.2,0.9l0,0c0.2-0.3,0.5-0.6,0.8-0.7s0.8-0.3,1.2-0.3c0.8,0,1.4,0.2,1.7,0.6s0.6,1,0.6,1.8v4.2
				C379.6-72,378.8-72,378.8-72.1z"/>
			<path class="st0" d="M381.6-80.2c0-0.2,0.1-0.4,0.2-0.5s0.2-0.2,0.4-0.2c0.2,0,0.3,0.1,0.4,0.2s0.2,0.3,0.2,0.5s-0.1,0.4-0.2,0.5
				s-0.2,0.2-0.4,0.2c-0.2,0-0.3-0.1-0.4-0.2S381.6-80,381.6-80.2z M382.7-72.1h-1v-6.4h1V-72.1z"/>
			<path class="st0" d="M388.9-73.8c0,0.6-0.2,1.1-0.7,1.4s-1.1,0.5-1.9,0.5c-0.9,0-1.5-0.1-2-0.4v-0.9c0.3,0.2,0.6,0.3,1,0.4
				s0.7,0.1,1,0.1c0.5,0,0.9-0.1,1.2-0.2s0.4-0.4,0.4-0.7c0-0.2-0.1-0.5-0.3-0.6s-0.6-0.4-1.3-0.6c-0.6-0.2-1-0.4-1.3-0.6
				s-0.4-0.4-0.6-0.6s-0.2-0.5-0.2-0.8c0-0.5,0.2-0.9,0.6-1.2s1-0.5,1.8-0.5c0.7,0,1.4,0.1,2,0.4l-0.3,0.8c-0.6-0.3-1.2-0.4-1.8-0.4
				c-0.5,0-0.8,0.1-1,0.2s-0.4,0.3-0.4,0.6c0,0.2,0,0.3,0.1,0.4s0.2,0.2,0.4,0.3s0.6,0.3,1.1,0.5c0.8,0.3,1.3,0.6,1.5,0.8
				S388.9-74.2,388.9-73.8z"/>
			<path class="st0" d="M390.4-80.2c0-0.2,0.1-0.4,0.2-0.5s0.2-0.2,0.4-0.2c0.2,0,0.3,0.1,0.4,0.2s0.2,0.3,0.2,0.5s-0.1,0.4-0.2,0.5
				s-0.2,0.2-0.4,0.2c-0.2,0-0.3-0.1-0.4-0.2S390.4-80,390.4-80.2z M391.5-72.1h-1v-6.4h1V-72.1z"/>
			<path class="st0" d="M396.2-71.9c-0.9,0-1.7-0.3-2.2-0.9s-0.8-1.4-0.8-2.4s0.3-1.9,0.8-2.5s1.2-0.9,2.1-0.9
				c0.8,0,1.4,0.3,1.9,0.8s0.7,1.2,0.7,2.1v0.6h-4.4c0,0.8,0.2,1.3,0.6,1.7s0.9,0.6,1.5,0.6c0.7,0,1.4-0.1,2.1-0.4v0.9
				c-0.3,0.1-0.7,0.3-1,0.3S396.7-71.9,396.2-71.9z M396-77.8c-0.5,0-0.9,0.2-1.2,0.5s-0.5,0.8-0.5,1.4h3.4c0-0.6-0.1-1.1-0.4-1.4
				S396.5-77.8,396-77.8z"/>
			<path class="st0" d="M403.2-78.6c0.3,0,0.5,0,0.8,0.1l-0.1,0.9c-0.3-0.1-0.5-0.1-0.7-0.1c-0.5,0-1,0.2-1.3,0.6s-0.6,0.9-0.6,1.6
				v3.4h-1v-6.4h0.8l0.1,1.2l0,0c0.2-0.4,0.5-0.7,0.9-1S402.8-78.6,403.2-78.6z"/>
			<path class="st0" d="M407.2-72.7c0.2,0,0.3,0,0.5,0s0.3-0.1,0.4-0.1v0.7c-0.1,0.1-0.3,0.1-0.5,0.1s-0.4,0-0.6,0
				c-1.2,0-1.9-0.7-1.9-2v-3.8h-0.9v-0.5l0.9-0.4l0.4-1.4h0.6v1.5h1.9v0.8h-1.9v3.8c0,0.4,0.1,0.7,0.3,0.9S406.9-72.7,407.2-72.7z"
				/>
		</g>
	</g>
	<g>
		<g class="st1">
			<path class="st0" d="M458.8-1.3v-4.2c0-0.5-0.1-0.9-0.4-1.2S457.8-7,457.3-7c-0.7,0-1.2,0.2-1.5,0.5s-0.5,1-0.5,1.8v3.4h-1v-6.4
				h0.8l0.2,0.9l0,0c0.2-0.3,0.5-0.6,0.8-0.7s0.8-0.3,1.2-0.3c0.8,0,1.4,0.2,1.7,0.6s0.6,1,0.6,1.8v4.2h-0.8V-1.3z"/>
			<path class="st0" d="M467.3-4.5c0,1-0.3,1.9-0.8,2.5s-1.3,0.9-2.2,0.9c-0.6,0-1.1-0.1-1.5-0.4s-0.8-0.7-1-1.2s-0.4-1.1-0.4-1.8
				c0-1,0.3-1.9,0.8-2.4s1.2-0.9,2.2-0.9c0.9,0,1.6,0.3,2.1,0.9S467.3-5.5,467.3-4.5z M462.4-4.5c0,0.8,0.2,1.4,0.5,1.9
				s0.8,0.6,1.5,0.6s1.1-0.2,1.5-0.6s0.5-1.1,0.5-1.9s-0.2-1.4-0.5-1.9S465-7,464.3-7c-0.6,0-1.1,0.2-1.4,0.6S462.4-5.4,462.4-4.5z"
				/>
			<path class="st0" d="M473.4-1.3v-4.2c0-0.5-0.1-0.9-0.4-1.2S472.4-7,471.9-7c-0.7,0-1.2,0.2-1.5,0.5s-0.5,1-0.5,1.8v3.4h-1v-6.4
				h0.8l0.2,0.9l0,0c0.2-0.3,0.5-0.6,0.8-0.7s0.8-0.3,1.2-0.3c0.8,0,1.4,0.2,1.7,0.6s0.6,1,0.6,1.8v4.2h-0.8V-1.3z"/>
			<path class="st0" d="M475.8-4.1V-5h2.9v0.9H475.8z"/>
			<path class="st0" d="M483.2-1.2c-0.4,0-0.8-0.1-1.1-0.2s-0.6-0.4-0.9-0.7h-0.1c0,0.4,0.1,0.7,0.1,1.1v2.6h-1v-9.3h0.8l0.1,0.9
				l0,0c0.2-0.4,0.5-0.6,0.9-0.8s0.7-0.2,1.1-0.2c0.9,0,1.5,0.3,2,0.9s0.7,1.4,0.7,2.4c0,1.1-0.2,1.9-0.7,2.5S484.1-1.2,483.2-1.2z
				 M483.1-7c-0.7,0-1.1,0.2-1.4,0.5s-0.4,0.9-0.5,1.7v0.2c0,0.9,0.2,1.5,0.5,1.9s0.8,0.6,1.4,0.6s1-0.2,1.3-0.7s0.5-1.1,0.5-1.9
				s-0.2-1.4-0.5-1.8S483.7-7,483.1-7z"/>
			<path class="st0" d="M490.5-7.8c0.3,0,0.5,0,0.8,0.1l-0.1,0.9c-0.3-0.1-0.5-0.2-0.7-0.2c-0.5,0-1,0.2-1.3,0.6s-0.6,0.9-0.6,1.6
				v3.4h-1v-6.4h0.8l0.1,1.2l0,0c0.2-0.4,0.5-0.7,0.9-1S490.1-7.8,490.5-7.8z"/>
			<path class="st0" d="M498-4.5c0,1-0.3,1.9-0.8,2.5s-1.3,0.9-2.2,0.9c-0.6,0-1.1-0.1-1.5-0.4s-0.8-0.7-1-1.2s-0.4-1.1-0.4-1.8
				c0-1,0.3-1.9,0.8-2.4s1.2-0.9,2.2-0.9c0.9,0,1.6,0.3,2.1,0.9S498-5.5,498-4.5z M493.1-4.5c0,0.8,0.2,1.4,0.5,1.9S494.4-2,495-2
				s1.1-0.2,1.5-0.6s0.5-1.1,0.5-1.9s-0.2-1.4-0.5-1.9S495.7-7,495.1-7s-1.1,0.2-1.4,0.6S493.1-5.4,493.1-4.5z"/>
			<path class="st0" d="M502.6-7H501v5.7h-1V-7h-1.1v-0.4l1.1-0.4v-0.4c0-1.6,0.7-2.4,2.1-2.4c0.3,0,0.7,0.1,1.2,0.2L503-9.6
				c-0.4-0.1-0.7-0.2-1-0.2c-0.4,0-0.6,0.1-0.8,0.4s-0.3,0.6-0.3,1.2v0.4h1.6L502.6-7L502.6-7z M503.7-9.5c0-0.2,0.1-0.4,0.2-0.5
				s0.2-0.2,0.4-0.2c0.2,0,0.3,0.1,0.4,0.2s0.2,0.3,0.2,0.5s-0.1,0.4-0.2,0.5s-0.2,0.2-0.4,0.2c-0.2,0-0.3-0.1-0.4-0.2
				S503.7-9.2,503.7-9.5z M504.8-1.3h-1v-6.4h1V-1.3z"/>
			<path class="st0" d="M508.9-2c0.2,0,0.3,0,0.5,0s0.3-0.1,0.4-0.1v0.7c-0.1,0.1-0.3,0.1-0.5,0.1s-0.4,0-0.6,0
				c-1.2,0-1.9-0.7-1.9-2V-7h-0.9v-0.5l0.9-0.4l0.4-1.4h0.6v1.5h1.9V-7h-1.9v3.8c0,0.4,0.1,0.7,0.3,0.9S508.6-2,508.9-2z"/>
		</g>
	</g>
	<g>
		<g class="st1">
			<path class="st0" d="M457.3,102.3c0.2,0,0.3,0,0.5,0s0.3-0.1,0.4-0.1v0.7c-0.1,0.1-0.3,0.1-0.5,0.1s-0.4,0-0.6,0
				c-1.2,0-1.9-0.7-1.9-2v-3.8h-0.9v-0.5l0.9-0.4l0.5-1.3h0.6v1.5h1.9v0.8h-1.9v3.8c0,0.4,0.1,0.7,0.3,0.9S457,102.3,457.3,102.3z"
				/>
			<path class="st0" d="M462.4,96.4c0.3,0,0.5,0,0.8,0.1l-0.1,0.9c-0.3-0.1-0.5-0.1-0.7-0.1c-0.5,0-1,0.2-1.3,0.6s-0.6,0.9-0.6,1.6
				v3.4h-1v-6.4h0.8l0.1,1.2l0,0c0.2-0.4,0.5-0.7,0.9-1S462,96.4,462.4,96.4z"/>
			<path class="st0" d="M468.3,102.9l-0.2-0.9l0,0c-0.3,0.4-0.6,0.7-1,0.8s-0.7,0.2-1.2,0.2c-0.6,0-1.1-0.2-1.5-0.5
				s-0.5-0.8-0.5-1.4c0-1.3,1-2,3.1-2h1.1v-0.4c0-0.5-0.1-0.9-0.3-1.1s-0.6-0.4-1-0.4c-0.5,0-1.1,0.2-1.8,0.5l-0.3-0.7
				c0.3-0.2,0.7-0.3,1-0.4s0.8-0.1,1.1-0.1c0.8,0,1.3,0.2,1.7,0.5s0.6,0.9,0.6,1.6v4.4L468.3,102.9L468.3,102.9z M466.1,102.3
				c0.6,0,1.1-0.2,1.4-0.5s0.5-0.8,0.5-1.4v-0.6h-1c-0.8,0-1.3,0.1-1.7,0.4s-0.5,0.5-0.5,1c0,0.4,0.1,0.6,0.3,0.8
				S465.7,102.3,466.1,102.3z"/>
			<path class="st0" d="M475.4,102.9v-4.2c0-0.5-0.1-0.9-0.4-1.2s-0.6-0.4-1.1-0.4c-0.7,0-1.2,0.2-1.5,0.5s-0.5,1-0.5,1.8v3.4h-1
				v-6.4h0.8l0.2,0.9l0,0c0.2-0.3,0.5-0.6,0.8-0.7s0.8-0.3,1.2-0.3c0.8,0,1.4,0.2,1.7,0.6s0.6,1,0.6,1.8v4.2
				C476.2,103,475.4,103,475.4,102.9z"/>
			<path class="st0" d="M482.6,101.2c0,0.6-0.2,1.1-0.7,1.4s-1.1,0.5-1.9,0.5c-0.9,0-1.5-0.1-2-0.4v-0.9c0.3,0.2,0.6,0.3,1,0.4
				s0.7,0.1,1,0.1c0.5,0,0.9-0.1,1.2-0.2s0.4-0.4,0.4-0.7c0-0.2-0.1-0.5-0.3-0.6s-0.6-0.4-1.3-0.6c-0.6-0.2-1-0.4-1.3-0.6
				s-0.4-0.4-0.6-0.6s-0.2-0.5-0.2-0.8c0-0.5,0.2-0.9,0.6-1.2s1-0.5,1.8-0.5c0.7,0,1.4,0.1,2,0.4l-0.3,0.8c-0.6-0.3-1.2-0.4-1.8-0.4
				c-0.5,0-0.8,0.1-1,0.2s-0.4,0.3-0.4,0.6c0,0.2,0,0.3,0.1,0.4s0.2,0.2,0.4,0.3s0.6,0.3,1.1,0.5c0.8,0.3,1.3,0.6,1.5,0.8
				S482.6,100.8,482.6,101.2z"/>
			<path class="st0" d="M487.1,103.1c-0.4,0-0.8-0.1-1.1-0.2s-0.6-0.4-0.9-0.7H485c0,0.4,0.1,0.7,0.1,1.1v2.6h-1v-9.3h0.8l0.1,0.9
				l0,0c0.2-0.4,0.5-0.6,0.9-0.8s0.7-0.2,1.1-0.2c0.9,0,1.5,0.3,2,0.9s0.7,1.4,0.7,2.4c0,1.1-0.2,1.9-0.7,2.5S488,103.1,487.1,103.1
				z M487,97.2c-0.7,0-1.1,0.2-1.4,0.5s-0.4,0.9-0.5,1.7v0.2c0,0.9,0.2,1.5,0.5,1.9s0.8,0.6,1.4,0.6s1-0.2,1.3-0.7s0.5-1.1,0.5-1.9
				s-0.2-1.4-0.5-1.8S487.6,97.2,487,97.2z"/>
			<path class="st0" d="M495.4,102.9l-0.2-0.9l0,0c-0.3,0.4-0.6,0.7-1,0.8s-0.7,0.2-1.2,0.2c-0.6,0-1.1-0.2-1.5-0.5
				s-0.5-0.8-0.5-1.4c0-1.3,1-2,3.1-2h1.1v-0.4c0-0.5-0.1-0.9-0.3-1.1s-0.6-0.4-1-0.4c-0.5,0-1.1,0.2-1.8,0.5l-0.4-0.7
				c0.3-0.2,0.7-0.3,1-0.4s0.8-0.1,1.1-0.1c0.8,0,1.3,0.2,1.7,0.5s0.6,0.9,0.6,1.6v4.4L495.4,102.9L495.4,102.9z M493.2,102.3
				c0.6,0,1.1-0.2,1.4-0.5s0.5-0.8,0.5-1.4v-0.6h-1c-0.8,0-1.3,0.1-1.7,0.4s-0.5,0.5-0.5,1c0,0.4,0.1,0.6,0.3,0.8
				S492.9,102.3,493.2,102.3z"/>
			<path class="st0" d="M501.1,96.4c0.3,0,0.5,0,0.8,0.1l-0.1,0.9c-0.3-0.1-0.5-0.1-0.7-0.1c-0.5,0-1,0.2-1.3,0.6s-0.6,0.9-0.6,1.6
				v3.4h-1v-6.4h0.8l0.1,1.2l0,0c0.2-0.4,0.5-0.7,0.9-1S500.7,96.4,501.1,96.4z"/>
			<path class="st0" d="M505.8,103.1c-0.9,0-1.7-0.3-2.2-0.9s-0.8-1.4-0.8-2.4s0.3-1.9,0.8-2.5s1.2-0.9,2.1-0.9
				c0.8,0,1.4,0.3,1.9,0.8s0.7,1.2,0.7,2.1v0.6h-4.6c0,0.8,0.2,1.3,0.6,1.7s0.9,0.6,1.5,0.6c0.7,0,1.4-0.1,2.1-0.4v0.9
				c-0.3,0.1-0.7,0.3-1,0.3S506.2,103.1,505.8,103.1z M505.5,97.2c-0.5,0-0.9,0.2-1.2,0.5s-0.5,0.8-0.5,1.4h3.4
				c0-0.6-0.1-1.1-0.4-1.4S506,97.2,505.5,97.2z"/>
			<path class="st0" d="M514.2,102.9v-4.2c0-0.5-0.1-0.9-0.4-1.2s-0.6-0.4-1.1-0.4c-0.7,0-1.2,0.2-1.5,0.5s-0.5,1-0.5,1.8v3.4h-1
				v-6.4h0.8l0.2,0.9l0,0c0.2-0.3,0.5-0.6,0.8-0.7s0.8-0.3,1.2-0.3c0.8,0,1.4,0.2,1.7,0.6s0.6,1,0.6,1.8v4.2
				C515,103,514.2,103,514.2,102.9z"/>
			<path class="st0" d="M519.2,102.3c0.2,0,0.3,0,0.5,0s0.3-0.1,0.4-0.1v0.7c-0.1,0.1-0.3,0.1-0.5,0.1s-0.4,0-0.6,0
				c-1.2,0-1.9-0.7-1.9-2v-3.8h-0.9v-0.5l0.9-0.4l0.4-1.4h0.6v1.5h1.9v0.8h-1.9v3.8c0,0.4,0.1,0.7,0.3,0.9S518.9,102.3,519.2,102.3z
				"/>
		</g>
	</g>
	<g>
		<g class="st1">
			<path class="st0" d="M305.1,175.4h-1.6v5.7h-1v-5.7h-1.1V175l1.1-0.4v-0.4c0-1.6,0.7-2.4,2.1-2.4c0.3,0,0.7,0.1,1.2,0.2l-0.3,0.8
				c-0.4-0.1-0.7-0.2-1-0.2c-0.4,0-0.6,0.1-0.8,0.4s-0.3,0.6-0.3,1.2v0.4h1.6L305.1,175.4L305.1,175.4z"/>
			<path class="st0" d="M309.2,174.6c0.3,0,0.5,0,0.8,0.1l-0.1,0.9c-0.3-0.1-0.5-0.1-0.7-0.1c-0.5,0-1,0.2-1.3,0.6
				c-0.3,0.4-0.6,0.9-0.6,1.6v3.4h-1v-6.4h0.8l0.1,1.2l0,0c0.2-0.4,0.5-0.7,0.9-1C308.5,174.6,308.8,174.6,309.2,174.6z"/>
			<path class="st0" d="M313.9,181.2c-0.9,0-1.7-0.3-2.2-0.9c-0.5-0.6-0.8-1.4-0.8-2.4s0.3-1.9,0.8-2.5s1.2-0.9,2.1-0.9
				c0.8,0,1.4,0.3,1.9,0.8s0.7,1.2,0.7,2.1v0.6H312c0,0.8,0.2,1.3,0.6,1.7s0.9,0.6,1.5,0.6c0.7,0,1.4-0.1,2.1-0.4v0.9
				c-0.3,0.1-0.7,0.3-1,0.3S314.3,181.2,313.9,181.2z M313.7,175.4c-0.5,0-0.9,0.2-1.2,0.5c-0.3,0.3-0.5,0.8-0.5,1.4h3.4
				c0-0.6-0.1-1.1-0.4-1.4S314.2,175.4,313.7,175.4z"/>
			<path class="st0" d="M317.9,172.9c0-0.2,0.1-0.4,0.2-0.5s0.2-0.2,0.4-0.2c0.2,0,0.3,0.1,0.4,0.2c0.1,0.1,0.2,0.3,0.2,0.5
				c0,0.2-0.1,0.4-0.2,0.5s-0.2,0.2-0.4,0.2c-0.2,0-0.3-0.1-0.4-0.2C318,173.4,317.9,173.2,317.9,172.9z M318.9,181.1h-1v-6.4h1
				V181.1z"/>
			<path class="st0" d="M325.1,181.1h-1V172h1V181.1z"/>
			<path class="st0" d="M327,172.9c0-0.2,0.1-0.4,0.2-0.5s0.2-0.2,0.4-0.2c0.2,0,0.3,0.1,0.4,0.2c0.1,0.1,0.2,0.3,0.2,0.5
				c0,0.2-0.1,0.4-0.2,0.5s-0.2,0.2-0.4,0.2c-0.2,0-0.3-0.1-0.4-0.2C327.1,173.4,327,173.2,327,172.9z M328.1,181.1h-1v-6.4h1V181.1
				z"/>
			<path class="st0" d="M334.3,181.1h-4.7v-0.7l3.5-5h-3.3v-0.8h4.4v0.8l-3.5,4.9h3.5v0.8H334.3z"/>
			<path class="st0" d="M338.5,181.2c-0.9,0-1.7-0.3-2.2-0.9c-0.5-0.6-0.8-1.4-0.8-2.4s0.3-1.9,0.8-2.5s1.2-0.9,2.1-0.9
				c0.8,0,1.4,0.3,1.9,0.8s0.7,1.2,0.7,2.1v0.6h-4.4c0,0.8,0.2,1.3,0.6,1.7s0.9,0.6,1.5,0.6c0.7,0,1.4-0.1,2.1-0.4v0.9
				c-0.3,0.1-0.7,0.3-1,0.3S338.9,181.2,338.5,181.2z M338.2,175.4c-0.5,0-0.9,0.2-1.2,0.5c-0.3,0.3-0.5,0.8-0.5,1.4h3.4
				c0-0.6-0.1-1.1-0.4-1.4S338.7,175.4,338.2,175.4z"/>
			<path class="st0" d="M346.9,181.1V177c0-0.5-0.1-0.9-0.4-1.2c-0.3-0.3-0.6-0.4-1.1-0.4c-0.7,0-1.2,0.2-1.5,0.5
				c-0.3,0.3-0.5,1-0.5,1.8v3.4h-1v-6.4h0.8l0.2,0.9l0,0c0.2-0.3,0.5-0.6,0.8-0.7c0.3-0.1,0.8-0.3,1.2-0.3c0.8,0,1.4,0.2,1.7,0.6
				c0.3,0.4,0.6,1,0.6,1.8v4.2h-0.8V181.1z"/>
			<path class="st0" d="M354,181.1h-4.7v-0.7l3.5-5h-3.3v-0.8h4.4v0.8l-3.5,4.9h3.5v0.8H354z"/>
			<path class="st0" d="M355.4,172.9c0-0.2,0.1-0.4,0.2-0.5s0.2-0.2,0.4-0.2c0.2,0,0.3,0.1,0.4,0.2c0.1,0.1,0.2,0.3,0.2,0.5
				c0,0.2-0.1,0.4-0.2,0.5s-0.2,0.2-0.4,0.2c-0.2,0-0.3-0.1-0.4-0.2C355.5,173.4,355.4,173.2,355.4,172.9z M356.5,181.1h-1v-6.4h1
				V181.1z"/>
			<path class="st0" d="M361.2,181.2c-0.9,0-1.7-0.3-2.2-0.9c-0.5-0.6-0.8-1.4-0.8-2.4s0.3-1.9,0.8-2.5s1.2-0.9,2.1-0.9
				c0.8,0,1.4,0.3,1.9,0.8s0.7,1.2,0.7,2.1v0.6h-4.4c0,0.8,0.2,1.3,0.6,1.7s0.9,0.6,1.5,0.6c0.7,0,1.4-0.1,2.1-0.4v0.9
				c-0.3,0.1-0.7,0.3-1,0.3S361.7,181.2,361.2,181.2z M361,175.4c-0.5,0-0.9,0.2-1.2,0.5c-0.3,0.3-0.5,0.8-0.5,1.4h3.4
				c0-0.6-0.1-1.1-0.4-1.4S361.5,175.4,361,175.4z"/>
			<path class="st0" d="M368.2,174.6c0.3,0,0.5,0,0.8,0.1l-0.1,0.9c-0.3-0.1-0.5-0.1-0.7-0.1c-0.5,0-1,0.2-1.3,0.6
				c-0.3,0.4-0.6,0.9-0.6,1.6v3.4h-1v-6.4h0.8l0.1,1.2l0,0c0.2-0.4,0.5-0.7,0.9-1C367.5,174.6,367.8,174.6,368.2,174.6z"/>
			<path class="st0" d="M372.2,180.4c0.2,0,0.3,0,0.5,0s0.3-0.1,0.4-0.1v0.7c-0.1,0.1-0.3,0.1-0.5,0.1s-0.4,0-0.6,0
				c-1.2,0-1.9-0.7-1.9-2v-3.8h-0.9V175l0.9-0.4l0.4-1.4h0.6v1.5h1.9v0.8h-1.9v3.8c0,0.4,0.1,0.7,0.3,0.9
				C371.6,180.5,371.9,180.4,372.2,180.4z"/>
		</g>
	</g>
	<g>
		<g class="st1">
			<path class="st0" d="M177.3,102.8l-1.2-3.8c-0.1-0.2-0.2-0.8-0.4-1.6l0,0c-0.2,0.7-0.3,1.2-0.4,1.6l-1.2,3.8H173l-1.8-6.4h1
				c0.4,1.6,0.7,2.8,0.9,3.7c0.2,0.9,0.3,1.4,0.4,1.7l0,0c0-0.2,0.1-0.5,0.2-0.9c0.1-0.4,0.2-0.6,0.2-0.8l1.2-3.7h1.1l1.1,3.7
				c0.2,0.7,0.4,1.2,0.4,1.7l0,0c0-0.1,0.1-0.4,0.1-0.7s0.5-1.9,1.2-4.7h1l-1.8,6.4C178.2,102.8,177.3,102.8,177.3,102.8z"/>
			<path class="st0" d="M184.1,102.9c-0.9,0-1.7-0.3-2.2-0.9s-0.8-1.4-0.8-2.4s0.3-1.9,0.8-2.5s1.2-0.9,2.1-0.9
				c0.8,0,1.4,0.3,1.9,0.8s0.7,1.2,0.7,2.1v0.6h-4.4c0,0.8,0.2,1.3,0.6,1.7c0.4,0.4,0.9,0.6,1.5,0.6c0.7,0,1.4-0.1,2.1-0.4v0.9
				c-0.3,0.1-0.7,0.3-1,0.3C185.1,102.8,184.5,102.9,184.1,102.9z M183.8,97.1c-0.5,0-0.9,0.2-1.2,0.5c-0.3,0.3-0.5,0.8-0.5,1.4h3.4
				c0-0.6-0.1-1.1-0.4-1.4S184.3,97.1,183.8,97.1z"/>
			<path class="st0" d="M191,96.2c0.3,0,0.5,0,0.8,0.1l-0.1,0.9c-0.3-0.1-0.5-0.1-0.7-0.1c-0.5,0-1,0.2-1.3,0.6
				c-0.3,0.4-0.6,0.9-0.6,1.6v3.4h-1v-6.4h0.8l0.1,1.2l0,0c0.2-0.4,0.5-0.7,0.9-1S190.6,96.2,191,96.2z"/>
			<path class="st0" d="M196,96.2c0.8,0,1.5,0.3,2,0.9s0.7,1.4,0.7,2.4s-0.2,1.9-0.7,2.5s-1.1,0.9-2,0.9c-0.4,0-0.8-0.1-1.1-0.2
				c-0.3-0.1-0.6-0.4-0.9-0.7h-0.1l-0.2,0.8H193v-9.1h1V96c0,0.5,0,0.9,0,1.3l0,0C194.4,96.6,195.1,96.2,196,96.2z M195.8,97.1
				c-0.7,0-1.1,0.2-1.4,0.6s-0.4,1-0.4,1.9s0.2,1.5,0.5,1.9c0.3,0.4,0.8,0.6,1.4,0.6s1-0.2,1.3-0.7c0.3-0.5,0.4-1.1,0.4-1.9
				s-0.1-1.5-0.4-1.9S196.4,97.1,195.8,97.1z"/>
			<path class="st0" d="M203,102.9c-0.9,0-1.7-0.3-2.2-0.9s-0.8-1.4-0.8-2.4s0.3-1.9,0.8-2.5s1.2-0.9,2.1-0.9c0.8,0,1.4,0.3,1.9,0.8
				s0.7,1.2,0.7,2.1v0.6h-4.4c0,0.8,0.2,1.3,0.6,1.7c0.4,0.4,0.9,0.6,1.5,0.6c0.7,0,1.4-0.1,2.1-0.4v0.9c-0.3,0.1-0.7,0.3-1,0.3
				C204,102.8,203.5,102.9,203,102.9z M202.8,97.1c-0.5,0-0.9,0.2-1.2,0.5c-0.3,0.3-0.5,0.8-0.5,1.4h3.4c0-0.6-0.1-1.1-0.4-1.4
				S203.3,97.1,202.8,97.1z"/>
			<path class="st0" d="M210,97.1h-1.6v5.7h-1v-5.7h-1.1v-0.4l1.1-0.4V96c0-1.6,0.7-2.4,2.1-2.4c0.3,0,0.7,0.1,1.2,0.2l-0.3,0.8
				c-0.4-0.1-0.7-0.2-1-0.2c-0.4,0-0.6,0.1-0.8,0.4c-0.2,0.3-0.3,0.6-0.3,1.2v0.4h1.6v0.7H210z"/>
			<path class="st0" d="M214.1,96.2c0.3,0,0.5,0,0.8,0.1l-0.1,0.9c-0.3-0.1-0.5-0.1-0.7-0.1c-0.5,0-1,0.2-1.3,0.6
				c-0.3,0.4-0.6,0.9-0.6,1.6v3.4h-1v-6.4h0.8l0.1,1.2l0,0c0.2-0.4,0.5-0.7,0.9-1S213.7,96.2,214.1,96.2z"/>
			<path class="st0" d="M218.7,102.9c-0.9,0-1.7-0.3-2.2-0.9s-0.8-1.4-0.8-2.4s0.3-1.9,0.8-2.5s1.2-0.9,2.1-0.9
				c0.8,0,1.4,0.3,1.9,0.8s0.7,1.2,0.7,2.1v0.6h-4.5c0,0.8,0.2,1.3,0.6,1.7c0.4,0.4,0.9,0.6,1.5,0.6c0.7,0,1.4-0.1,2.1-0.4v0.9
				c-0.3,0.1-0.7,0.3-1,0.3C219.6,102.8,219.2,102.9,218.7,102.9z M218.5,97.1c-0.5,0-0.9,0.2-1.2,0.5c-0.3,0.3-0.5,0.8-0.5,1.4h3.4
				c0-0.6-0.1-1.1-0.4-1.4S219,97.1,218.5,97.1z"/>
			<path class="st0" d="M222.7,94.6c0-0.2,0.1-0.4,0.2-0.5c0.1-0.1,0.2-0.2,0.4-0.2c0.2,0,0.3,0.1,0.4,0.2c0.1,0.1,0.2,0.3,0.2,0.5
				s-0.1,0.4-0.2,0.5c-0.1,0.1-0.2,0.2-0.4,0.2c-0.2,0-0.3-0.1-0.4-0.2C222.8,95,222.7,94.8,222.7,94.6z M223.7,102.8h-1v-6.4h1
				V102.8z"/>
		</g>
	</g>
	<g>
		<g class="st1">
			<path class="st0" d="M172.9-4.7c0.2-0.2,0.4-0.6,0.8-0.9l2.1-2.2h1.2l-2.6,2.7l2.8,3.7H176l-2.3-3L173-3.8v2.4h-1v-9.1h1v4.8
				C172.9-5.5,172.9-5.1,172.9-4.7L172.9-4.7z"/>
			<path class="st0" d="M183.8-4.6c0,1-0.3,1.9-0.8,2.5s-1.3,0.9-2.2,0.9c-0.6,0-1.1-0.1-1.5-0.4s-0.8-0.7-1-1.2
				c-0.2-0.5-0.4-1.1-0.4-1.8c0-1,0.3-1.9,0.8-2.4s1.2-0.9,2.2-0.9c0.9,0,1.6,0.3,2.1,0.9S183.8-5.6,183.8-4.6z M178.9-4.6
				c0,0.8,0.2,1.4,0.5,1.9c0.3,0.5,0.8,0.6,1.4,0.6c0.6,0,1.1-0.2,1.5-0.6s0.5-1.1,0.5-1.9s-0.2-1.4-0.5-1.9
				c-0.3-0.5-0.8-0.6-1.5-0.6c-0.6,0-1.1,0.2-1.4,0.6S178.9-5.4,178.9-4.6z"/>
			<path class="st0" d="M189.6-3.1c0,0.6-0.2,1.1-0.7,1.4s-1.1,0.5-1.9,0.5c-0.9,0-1.5-0.1-2-0.4v-0.9c0.3,0.2,0.6,0.3,1,0.4
				s0.7,0.1,1,0.1c0.5,0,0.9-0.1,1.2-0.2c0.3-0.1,0.4-0.4,0.4-0.7c0-0.2-0.1-0.5-0.3-0.6c-0.2-0.1-0.6-0.4-1.3-0.6
				c-0.6-0.2-1-0.4-1.3-0.6c-0.3-0.2-0.4-0.4-0.6-0.6s-0.2-0.5-0.2-0.8c0-0.5,0.2-0.9,0.6-1.2c0.4-0.3,1-0.5,1.8-0.5
				c0.7,0,1.4,0.1,2,0.4L189-6.6c-0.6-0.3-1.2-0.4-1.8-0.4c-0.5,0-0.8,0.1-1,0.2c-0.2,0.1-0.4,0.3-0.4,0.6c0,0.2,0,0.3,0.1,0.4
				s0.2,0.2,0.4,0.3c0.2,0.1,0.6,0.3,1.1,0.5c0.8,0.3,1.3,0.6,1.5,0.8C189.1-4,189.6-3.6,189.6-3.1z"/>
			<path class="st0" d="M193.3-2.1c0.2,0,0.3,0,0.5,0c0.2,0,0.3-0.1,0.4-0.1v0.7c-0.1,0.1-0.3,0.1-0.5,0.1c-0.2,0-0.4,0-0.6,0
				c-1.2,0-1.9-0.7-1.9-2v-3.8h-0.9v-0.5l0.9-0.4l0.4-1.4h0.6V-8h1.9v0.8h-1.9v3.8c0,0.4,0.1,0.7,0.3,0.9
				C192.7-2.3,193-2.1,193.3-2.1z"/>
			<path class="st0" d="M198.2-1.3c-0.9,0-1.7-0.3-2.2-0.9s-0.8-1.4-0.8-2.4s0.3-1.9,0.8-2.5s1.2-0.9,2.1-0.9c0.8,0,1.4,0.3,1.9,0.8
				s0.7,1.2,0.7,2.1v0.6h-4.4c0,0.8,0.2,1.3,0.6,1.7c0.4,0.4,0.9,0.6,1.5,0.6c0.7,0,1.4-0.1,2.1-0.4v0.9c-0.3,0.1-0.7,0.3-1,0.3
				C199.2-1.4,198.6-1.3,198.2-1.3z M197.9-7.1c-0.5,0-0.9,0.2-1.2,0.5c-0.3,0.3-0.5,0.8-0.5,1.4h3.4c0-0.6-0.1-1.1-0.4-1.4
				S198.4-7.1,197.9-7.1z"/>
			<path class="st0" d="M206.6-1.4v-4.2c0-0.5-0.1-0.9-0.4-1.2s-0.6-0.4-1.1-0.4c-0.7,0-1.2,0.2-1.5,0.5c-0.3,0.3-0.5,1-0.5,1.8v3.4
				h-1v-6.4h0.8l0.2,0.9l0,0c0.2-0.3,0.5-0.6,0.8-0.7c0.3-0.1,0.8-0.3,1.2-0.3c0.8,0,1.4,0.2,1.7,0.6c0.3,0.4,0.6,1,0.6,1.8v4.2
				C207.4-1.4,206.6-1.4,206.6-1.4z"/>
			<path class="st0" d="M210.5-1.4h-1v-9.1h1V-1.4z"/>
			<path class="st0" d="M218.1-4.6c0,1-0.3,1.9-0.8,2.5s-1.3,0.9-2.2,0.9c-0.6,0-1.1-0.1-1.5-0.4s-0.8-0.7-1-1.2
				c-0.2-0.5-0.4-1.1-0.4-1.8c0-1,0.3-1.9,0.8-2.4s1.2-0.9,2.2-0.9c0.9,0,1.6,0.3,2.1,0.9S218.1-5.6,218.1-4.6z M213.2-4.6
				c0,0.8,0.2,1.4,0.5,1.9c0.3,0.5,0.8,0.6,1.4,0.6c0.6,0,1.1-0.2,1.5-0.6s0.5-1.1,0.5-1.9s-0.2-1.4-0.5-1.9
				c-0.3-0.5-0.8-0.6-1.5-0.6c-0.6,0-1.1,0.2-1.4,0.6S213.2-5.4,213.2-4.6z"/>
			<path class="st0" d="M224-3.1c0,0.6-0.2,1.1-0.7,1.4s-1.1,0.5-1.9,0.5c-0.9,0-1.5-0.1-2-0.4v-0.9c0.3,0.2,0.6,0.3,1,0.4
				s0.7,0.1,1,0.1c0.5,0,0.9-0.1,1.2-0.2c0.3-0.1,0.4-0.4,0.4-0.7c0-0.2-0.1-0.5-0.3-0.6c-0.2-0.1-0.6-0.4-1.3-0.6
				c-0.6-0.2-1-0.4-1.3-0.6c-0.3-0.2-0.4-0.4-0.6-0.6s-0.2-0.5-0.2-0.8c0-0.5,0.2-0.9,0.6-1.2c0.4-0.3,1-0.5,1.8-0.5
				c0.7,0,1.4,0.1,2,0.4l-0.3,0.8c-0.6-0.3-1.2-0.4-1.8-0.4c-0.5,0-0.8,0.1-1,0.2c-0.2,0.1-0.4,0.3-0.4,0.6c0,0.2,0,0.3,0.1,0.4
				s0.2,0.2,0.4,0.3c0.2,0.1,0.6,0.3,1.1,0.5c0.8,0.3,1.3,0.6,1.5,0.8C223.5-4,224-3.6,224-3.1z"/>
		</g>
	</g>
	<path id="XMLID_6_" class="st2" d="M351.9,53.3L351.9,53.3c-0.1-0.1-0.2-0.3-0.3-0.6c-0.6-1.8-1.9-4.4-3.1-6.1
		c-0.9-1.2-3-3.4-4.4-4.5c-2.1-1.7-4.7-3.4-8.6-5.6c-3-1.7-5.6-3.6-7.7-5.4c-2.3-2-3.6-3.5-4.7-5.5c-1.6-2.9-2.5-5.6-2.6-7.4
		c0-0.4,0-0.6,0-0.7c0.1-0.1,0.2,0.1,0.4,0.5c0.8,1.4,2.1,2.9,3.4,4.1c2.3,2.1,5,3.9,8.6,5.7c2.9,1.5,7.2,3.8,8.5,4.6
		c3.3,1.9,6.6,4.6,9.2,7.2c0.5,0.6,1.6,1.8,1.7,1.9l0,0c0,0.1-0.2,0.2-0.5,0.4c-1,0.6-1.9,1.4-2.4,2c0,0.1-0.1,0.1-0.1,0.1
		s0.2-0.1,0.3-0.3c0.6-0.6,1.6-1.2,2.6-1.7l0.4-0.2l0,0l0.5,0.7c0.8,1,1.2,1.7,1.6,2.3c0.1,0.3,0.3,0.6,0.3,0.6s-0.1,0.1-0.2,0.1
		c-0.4,0.1-1.5,0.7-2,1.1c-0.5,0.4-0.9,0.8-0.9,0.9l0,0c0,0,0.2-0.1,0.5-0.1c0.7-0.3,1.5-0.4,2.3-0.4c0.4,0,0.8,0,1.1,0.1
		c0.4,0.1,1.2,0.4,1.2,0.5c0,0-0.4,0.2-0.6,0.3c-1,0.5-2.2,1.4-2.9,2.1c-0.9,0.9-1.5,1.8-1.7,2.7C352,53.2,352,53.3,351.9,53.3"/>
	<path id="XMLID_5_" class="st2" d="M351.2,57.6c-0.5-3.6-1.7-6.5-2.7-8.3c-1-1.9-2-3-2-3c-1.1-1.3-2.9-3-4.7-4.4
		c-3.5-2.7-7.6-5.1-7.6-5.1c-0.5-0.3-1.7-1-2.6-1.6c0,0-0.5-0.3-0.7-0.5c-1.7-1.2-3.9-3.1-3.9-3.1l0,0c-1.8-1.7-3.3-3.5-4.3-5.2
		c-0.5-0.9-1-1.8-1.3-2.7c-0.5-1.2-0.9-2.5-1.1-3.7c-0.1-0.6-0.2-1.2-0.2-2.1l-0.1-1.3c-0.2,0-1.2,2-1.6,3c-0.8,2.1-1.1,4-1,6.2
		c0.1,2.9,1,5.5,2.7,8.1c0.3,0.4,0.5,0.7,0.5,0.7c0,0.1,0.7,1,1.2,1.6c0.7,0.8,3.1,3,4.1,3.8c2.1,1.6,3.7,2.6,7,4.3l1.2,0.6l0,0
		l0.5-0.1c1.2-0.2,2.4-0.4,3.7-0.4c0.9,0,1.7,0.1,2.4,0.2c0.4,0.1,0.6,0.1,0.6,0.1l0,0h-0.1c-0.3,0-0.8-0.1-1.3-0.1
		c-0.9,0-1.9,0.1-2.8,0.2c-0.8,0.1-2,0.4-2,0.5c0,0,0.4,0.3,0.7,0.4c0.9,0.5,2,1.1,2.6,1.5l0.5,0.3l0,0l0.5-0.1
		c0.7-0.2,1.3-0.3,1.9-0.3c0.1,0,0.1,0,0.2,0c0.8,0,0.9,0.1,0.9,0.1s-0.1,0.1-0.6,0.1c-0.8,0.1-1.6,0.3-2.1,0.5l-0.2,0.1l0,0
		l0.2,0.2c0.8,0.8,1.3,1.9,1.3,2.8l-0.1,0.5l0,0h0.9c0.1,0,0.3,0,0.5,0c0.4,0,0.7,0,0.9,0c0.6,0.1,1.6,0.4,2.1,0.6
		c1.5,0.7,3.3,2.3,4.3,3.9l0,0c0.2,0.2,0.3,0.5,0.4,0.5l0,0c0.2,1.3,0.3,2.6,0.2,4l1.5,3.4l0,0L351.2,57.6z"/>
	<path id="XMLID_4_" class="st2" d="M350.4,64.2L350.4,64.2c-1.7-0.1-5.2-0.4-9.4-1.1c-5.1-0.8-9.6-2.1-13.6-3.6
		c-1.6-0.6-4-1.6-6-2.8c-2.5-1.5-3.9-2.9-4.1-4.3c-0.1-0.8,0.2-1.4,1-1.9c1.1-0.8,2.8-1.3,5.4-1.6c0,0,3.2-0.2,5.6-0.5
		c1.3-0.1,2.3-0.3,3-0.5c0.1,0,0.3-0.1,0.5-0.2c0.2-0.1,0.3-0.2,0.3-0.3s0-0.2-0.1-0.3c-1.2-1-4-1.7-6.6-2.5
		c-0.2-0.1-0.3-0.1-0.5-0.1c-2.8-0.8-6.1-1.6-8.1-2.1c-0.7-0.2-1.3-0.3-1.6-0.4l0,0c0,0,3.8,0.6,7.9,1.4c2.4,0.5,4.4,1.1,6,1.6
		c2,0.7,3.3,1.4,4,2c0.2,0.2,0.2,0.4,0.2,0.6c-0.1,0.3-0.4,0.5-0.9,0.7l0,0l0,0c-1.4,0.5-4.1,1-7.8,1.4c0,0-1.4,0.1-2.8,0.4
		c-1.3,0.3-2.9,0.9-2.9,1.9s1.3,2.4,3.6,3.7c2.4,1.4,5.7,2.7,9.4,3.8c4.8,1.4,10.2,2.1,16.1,2.1l0,0l0,0L350.4,64.2z"/>
	<path id="XMLID_3_" class="st2" d="M363.5,59.6c-0.7,0-1.4-0.6-1.4-1.3c0-0.8,0.6-1.4,1.3-1.4c0,0,0,0,0.1,0c0.8,0,1.4,0.6,1.4,1.3
		c0,0.4-0.1,0.7-0.4,1C364.3,59.4,364,59.6,363.5,59.6C363.6,59.6,363.6,59.6,363.5,59.6"/>
	<path id="XMLID_2_" class="st2" d="M349.5,75.6c-0.3,0-0.6,0-0.9,0c-3.2-0.1-6.7-0.7-10-2c-4.4-1.6-7.2-3-10.4-4.9
		c-3.2-1.9-6.8-3.8-9.4-4.9c-2.6-1.1-5.1-1.9-7.4-2.5s-4.4-0.8-6.3-0.8c-0.2,0-0.5,0-0.7,0c-1.7,0.1-3.1,0.3-4.3,0.8
		c-0.2,0.1-0.4,0.1-0.4,0.1l0,0l0,0c0-0.1,0.3-0.4,0.7-0.7c1.2-0.9,3.1-1.6,5.2-1.9c0.7-0.1,1.6-0.1,2.7-0.1c1.4,0,2.8,0.1,3.7,0.2
		c2.4,0.4,5.6,1.4,9.6,3c1.5,0.6,4.9,2.1,6.2,2.8c1.5,0.7,3.3,1.5,4.5,2c2,0.7,6.6,2.3,8.4,2.8c1.9,0.5,3.9,0.8,6.2,0.9
		c0.2,0,0.4,0,0.7,0c1.8,0,4.3-0.2,5.3-0.4c1.5-0.3,2-0.5,3.2-0.9c2-0.7,3.4-1.4,5.9-3.1c2.3-1.5,3.2-2.2,4.8-3.7
		c0.6-0.6,0.9-0.8,1.6-1.2c0.6-0.4,1.3-0.7,1.9-0.9l0.4-0.1l-0.2-0.2c-1.1-0.6-2-1.6-2.8-2.8c-0.4-0.7-1.3-1.5-1.9-1.8
		c-0.9-0.5-1.6-0.7-2.6-0.7c-0.1,0-0.3,0-0.4,0c-1.4,0.1-2.4,0.4-4.1,1.2c-0.5,0.3-0.8,0.4-0.9,0.4l0,0c0-0.1,0.2-0.3,0.8-0.8
		c0.4-0.4,0.9-0.8,1.2-1c0.7-0.5,1.8-1.1,2.6-1.3c0.6-0.2,0.7-0.2,1.7-0.2c0.3,0,0.6,0,0.7,0c0.4,0,0.6,0,0.9,0.1
		c1.5,0.3,2.6,1.1,3.9,2.5c1.7,1.9,3.3,3.2,4.5,3.5c0.1,0,0.4,0.1,0.4,0.1s-0.3,0.2-0.5,0.3c-0.8,0.4-2.4,1.4-3.2,1.9
		c-1.7,1.3-3.2,2.8-4.7,5c-1.4,2-3.5,4-5.6,5.4c-2.9,1.9-5.9,3.1-9.4,3.6C350.5,75.6,350.2,75.6,349.5,75.6"/>
	<path class="st0" d="M442.2,88.7c-4.8-6.1-13.7-7.2-19.8-2.3c-1,0.8-1.8,1.6-2.5,2.6c-1.6-0.1-3.5-0.2-5.9-0.3c0,0-0.5,0-0.5,0.1
		s1.9,2.5,4,5.2c-1.1,4.1-0.3,8.7,2.6,12.3c4.8,6.1,13.7,7.2,19.8,2.3C446,103.8,447.1,94.9,442.2,88.7z M441,94.7l-2.1,0.6
		c-0.2-0.7-0.4-1.3-0.8-1.9l1.9-1.1C440.4,93.1,440.8,93.9,441,94.7z M431.3,87.3c0.9,0,1.7,0.1,2.5,0.3l-0.5,2.2
		c-0.6-0.2-1.3-0.3-2-0.3V87.3z M428.7,87.7l0.6,2.1c-0.7,0.2-1.3,0.5-1.9,0.8l-1.1-1.9C427.1,88.3,427.9,87.9,428.7,87.7z
		 M424.2,90.3l1.5,1.5c-0.4,0.6-0.8,1.1-1.2,1.7l-1.9-1.1C423,91.6,423.6,91,424.2,90.3z M421.6,94.8l2.1,0.6
		c-0.2,0.7-0.3,1.3-0.3,2h-2.1C421.3,96.5,421.4,95.7,421.6,94.8z M421.7,100l2.1-0.6c0.2,0.7,0.4,1.3,0.8,1.9l-1.9,1.1
		C422.3,101.6,421.9,100.8,421.7,100z M426.3,106c-0.8-0.4-1.4-1-2.1-1.6l1.5-1.5c0.5,0.5,1,0.9,1.6,1.2L426.3,106z M431.3,107.4
		c-0.9,0-1.7-0.1-2.6-0.3l0.6-2.1c0.7,0.2,1.3,0.3,2,0.3V107.4z M433.9,107l-0.6-2.1c0.7-0.2,1.3-0.4,1.9-0.8l1.1,1.9
		C435.5,106.5,434.7,106.8,433.9,107z M435.2,90.6l1.1-1.9c0.8,0.4,1.4,1,2.1,1.6l-1.6,1.5C436.3,91.3,435.8,90.9,435.2,90.6z
		 M438.4,104.4l-1.5-1.5c0.5-0.5,0.9-1,1.2-1.6l1.9,1.1C439.5,103.1,439,103.8,438.4,104.4z M440.9,100l-2.1-0.6
		c0.2-0.7,0.3-1.3,0.3-2h1.7h0.5C441.3,98.3,441.2,99.1,440.9,100z"/>
</g>
</svg>
