<?xml version="1.0" encoding="utf-8"?>
<!-- Generator: Adobe Illustrator 19.0.0, SVG Export Plug-In . SVG Version: 6.00 Build 0)  -->
<svg version="1.1" id="Ebene_1" xmlns="http://www.w3.org/2000/svg" xmlns:xlink="http://www.w3.org/1999/xlink" x="0px" y="0px"
	 viewBox="148 -89 395.3 278" style="enable-background:new 148 -89 395.3 278;" xml:space="preserve">
<style type="text/css">
	.st0{fill:#FFFFFF;}
	.st1{font-family:'OpenSans-Light';}
	.st2{font-size:12px;}
	.st3{fill:#007DC2;}
</style>
<g>
	<path id="XMLID_100_" class="st0" d="M285.1,49.9c0,29.6,24,53.6,53.6,53.6s53.6-24,53.6-53.6s-24-53.6-53.6-53.6
		S285.1,20.3,285.1,49.9"/>
	<path class="st0" d="M345-60.4c-7.1-3.3-15.5-0.2-18.7,6.9c-3.3,7.1-0.2,15.5,6.9,18.7c1.1,0.5,2.3,0.9,3.4,1.1
		c0.6,1.4,1.4,3.2,2.4,5.4c0,0,0.2,0.4,0.3,0.4s1.3-2.9,2.8-5.9c4.2-0.9,7.8-3.7,9.8-7.9C355.2-48.8,352.1-57.2,345-60.4z
		 M336.9-41.7c-1,0-2.1-0.1-3-0.4l-3,1.5c-0.2,0.1-0.4,0.1-0.3-0.2l0.7-2.6c-1.2-1-2-2.1-2-3.5c0-2.2,2-4,4.7-4.8
		c-0.2,0.5-0.3,1.1-0.3,1.6c0,3.6,3.9,6.4,8.7,6.4c0.1,0,0.2,0,0.4,0C341.4-42.5,339.3-41.7,336.9-41.7z M348-47l0.8,2.6
		c0.1,0.2-0.1,0.3-0.3,0.2l-2.9-1.5c-0.9,0.3-1.9,0.4-3,0.4c-4.1,0-7.3-2.3-7.3-5.1s3.3-5.1,7.3-5.1c4.1,0,7.3,2.3,7.3,5.1
		C349.9-49,349.1-47.9,348-47z"/>
	<path class="st0" d="M345,133.9c-1.1-0.5-2.3-0.9-3.4-1.1c-0.6-1.4-1.4-3.2-2.4-5.4c0,0-0.2-0.4-0.3-0.4s-1.3,2.9-2.8,5.9
		c-4.2,0.9-7.8,3.7-9.8,7.9c-3.3,7.1-0.2,15.5,6.9,18.7c7.1,3.3,15.5,0.2,18.7-6.9C355.2,145.5,352.1,137.1,345,133.9z M342.4,154.8
		l-2.2-5.5c1-0.4,1.7-1.4,1.7-2.5c0-1.5-1.2-2.7-2.7-2.7s-2.7,1.2-2.7,2.7c0,1.1,0.7,2.1,1.7,2.5l-2.2,5.5c-3.2-1.3-5.5-4.4-5.5-8.1
		c0-4.8,3.9-8.7,8.7-8.7c4.8,0,8.7,3.9,8.7,8.7C347.9,150.3,345.6,153.4,342.4,154.8z"/>
	<path class="st0" d="M264.6,87.8c0-0.1-0.5-0.1-0.5-0.1c-2.4,0.1-4.3,0.2-5.9,0.3c-0.7-1-1.5-1.8-2.5-2.6c-6.1-4.9-15-3.8-19.8,2.3
		c-4.8,6.2-3.7,15.1,2.3,19.9c6.1,4.9,15,3.8,19.8-2.3c2.9-3.6,3.7-8.2,2.6-12.3C262.7,90.3,264.6,87.9,264.6,87.8z M255.7,99.7
		c0,0.9-0.8,0.9-0.8,0.9h-3v2.8h-1v-2.8h-7.7v2.8h-1v-2.8h-3c-0.8,0-0.8-0.9-0.8-0.9V91c0-0.9,0.8-0.9,0.8-0.9h15.7
		c0.8,0,0.8,0.9,0.8,0.9V99.7z"/>
	<g>
		<path class="st0" d="M249.5-12.6c-0.9,0.4-1.5,1.1-2.1,1.8c0.5,0,1,0.1,1.4,0c0.6-0.1,1.7-0.1,2.1-0.5
			C251.3-11.9,250.5-13.1,249.5-12.6z"/>
		<path class="st0" d="M262.5,5.5c-1.2-2-2.3-3.7-3.1-5c0.5-1,0.8-2.2,1-3.4c1.2-7.7-4-14.9-11.7-16.2c-7.7-1.2-14.9,4-16.3,11.6
			c-1.2,7.7,4,14.9,11.7,16.2c4.5,0.7,8.9-0.8,12-3.7c3.4,0.5,6.5,1.1,6.5,1C262.7,5.9,262.5,5.5,262.5,5.5z M246.1,1.1h-5.6
			c-0.4,0-0.7-0.3-0.7-0.7v-6.8h6.3V1.1z M253.5,0.4c0,0.4-0.3,0.7-0.7,0.7h-5.6v-7.5h6.3V0.4z M254.1-7h-6.9v-3.4
			c-0.2,0.1-0.3,0.1-0.5,0.1s-0.4,0.1-0.7,0.1v3.3h-6.9v-2.7c0-0.4,0.3-0.8,0.8-0.8h3.1c-0.8-0.2-1.5-0.5-1.5-1.2
			c0-0.8,0.9-2.1,2.2-1.8s2.3,1.3,3,2.2c0.7-0.9,1.7-2.1,3.1-2.3c1.2-0.1,2.1,1,2,1.8c-0.1,0.7-0.8,1-1.6,1.2h3.1
			c0.4,0,0.8,0.3,0.8,0.8L254.1-7L254.1-7z"/>
		<path class="st0" d="M243.8-12.6c-0.6-0.3-1,0-1.3,0.5c-0.1,0.2-0.3,0.5-0.1,0.8c0.6,0.6,2.3,0.6,3.5,0.5
			C245.4-11.5,244.7-12.2,243.8-12.6z"/>
	</g>
	<path class="st0" d="M446.3-7.5c-1.3-7.6-8.6-12.8-16.3-11.6c-7.7,1.3-12.9,8.5-11.7,16.2c0.2,1.2,0.5,2.4,1,3.4
		c-0.8,1.3-1.9,3-3.1,5c0,0-0.2,0.4-0.1,0.5c0,0.1,3.1-0.5,6.5-1c3.1,2.9,7.5,4.4,12,3.7C442.3,7.4,447.5,0.2,446.3-7.5z M432.6,3.3
		c-3.4-4.7-8.1-7.3-8.1-10.2c0-3.8,5.4-6.6,8.1-2.4c2.9-4.2,8.1-1.4,8.1,2.4C440.7-4,436-1.4,432.6,3.3z"/>
	<g>
		<text transform="matrix(1 0 0 1 271.672 -73.0557)" class="st0 st1 st2">demokratisch organisiert</text>
	</g>
	<g>
		<text transform="matrix(1 0 0 1 454.672 -2.3057)" class="st0 st1 st2">non-profit</text>
	</g>
	<g>
		<text transform="matrix(1 0 0 1 455.5053 101.9443)" class="st0 st1 st2">transparent</text>
	</g>
	<g>
		<text transform="matrix(1 0 0 1 305.5053 180.1109)" class="st0 st1 st2">frei lizenziert</text>
	</g>
	<g>
		<text transform="matrix(1 0 0 1 172.2768 101.7776)" class="st0 st1 st2">werbefrei</text>
	</g>
	<g>
		<text transform="matrix(1 0 0 1 172.2267 -2.389)" class="st0 st1 st2">kostenlos</text>
	</g>
	<path id="XMLID_6_" class="st3" d="M353.2,52.3L353.2,52.3c-0.1-0.1-0.2-0.3-0.3-0.6c-0.6-1.8-1.9-4.4-3.1-6.1
		c-0.9-1.2-3-3.4-4.4-4.5c-2.1-1.7-4.7-3.4-8.6-5.6c-3-1.7-5.6-3.6-7.7-5.4c-2.3-2-3.6-3.5-4.7-5.5c-1.6-2.9-2.5-5.6-2.6-7.4
		c0-0.4,0-0.6,0-0.7c0.1-0.1,0.2,0.1,0.4,0.5c0.8,1.4,2.1,2.9,3.4,4.1c2.3,2.1,5,3.9,8.6,5.7c2.9,1.5,7.2,3.8,8.5,4.6
		c3.3,1.9,6.6,4.6,9.2,7.2c0.5,0.6,1.6,1.8,1.7,1.9l0,0c0,0.1-0.2,0.2-0.5,0.4c-1,0.6-1.9,1.4-2.4,2c0,0.1-0.1,0.1-0.1,0.1
		s0.2-0.1,0.3-0.3c0.6-0.6,1.6-1.2,2.6-1.7l0.4-0.2l0,0l0.5,0.7c0.8,1,1.2,1.7,1.6,2.3c0.1,0.3,0.3,0.6,0.3,0.6s-0.1,0.1-0.2,0.1
		c-0.4,0.1-1.5,0.7-2,1.1c-0.5,0.4-0.9,0.8-0.9,0.9l0,0c0,0,0.2-0.1,0.5-0.1c0.7-0.3,1.5-0.4,2.3-0.4c0.4,0,0.8,0,1.1,0.1
		c0.4,0.1,1.2,0.4,1.2,0.5c0,0-0.4,0.2-0.6,0.3c-1,0.5-2.2,1.4-2.9,2.1c-0.9,0.9-1.5,1.8-1.7,2.7C353.3,52.2,353.3,52.3,353.2,52.3"
		/>
	<path id="XMLID_5_" class="st3" d="M352.5,56.6c-0.5-3.6-1.7-6.5-2.7-8.3c-1-1.9-2-3-2-3c-1.1-1.3-2.9-3-4.7-4.4
		c-3.5-2.7-7.6-5.1-7.6-5.1c-0.5-0.3-1.7-1-2.6-1.6c0,0-0.5-0.3-0.7-0.5c-1.7-1.2-3.9-3.1-3.9-3.1l0,0c-1.8-1.7-3.3-3.5-4.3-5.2
		c-0.5-0.9-1-1.8-1.3-2.7c-0.5-1.2-0.9-2.5-1.1-3.7c-0.1-0.6-0.2-1.2-0.2-2.1l-0.1-1.3c-0.2,0-1.2,2-1.6,3c-0.8,2.1-1.1,4-1,6.2
		c0.1,2.9,1,5.5,2.7,8.1c0.3,0.4,0.5,0.7,0.5,0.7c0,0.1,0.7,1,1.2,1.6c0.7,0.8,3.1,3,4.1,3.8c2.1,1.6,3.7,2.6,7,4.3l1.2,0.6l0,0
		l0.5-0.1c1.2-0.2,2.4-0.4,3.7-0.4c0.9,0,1.7,0.1,2.4,0.2c0.4,0.1,0.6,0.1,0.6,0.1l0,0h-0.1c-0.3,0-0.8-0.1-1.3-0.1
		c-0.9,0-1.9,0.1-2.8,0.2c-0.8,0.1-2,0.4-2,0.5c0,0,0.4,0.3,0.7,0.4c0.9,0.5,2,1.1,2.6,1.5l0.5,0.3l0,0l0.5-0.1
		c0.7-0.2,1.3-0.3,1.9-0.3c0.1,0,0.1,0,0.2,0c0.8,0,0.9,0.1,0.9,0.1s-0.1,0.1-0.6,0.1c-0.8,0.1-1.6,0.3-2.1,0.5l-0.2,0.1l0,0
		l0.2,0.2c0.8,0.8,1.3,1.9,1.3,2.8l-0.1,0.5l0,0h0.9c0.1,0,0.3,0,0.5,0c0.4,0,0.7,0,0.9,0c0.6,0.1,1.6,0.4,2.1,0.6
		c1.5,0.7,3.3,2.3,4.3,3.9l0,0c0.2,0.2,0.3,0.5,0.4,0.5l0,0c0.2,1.3,0.3,2.6,0.2,4l1.5,3.4l0,0L352.5,56.6z"/>
	<path id="XMLID_4_" class="st3" d="M351.7,63.2L351.7,63.2c-1.7-0.1-5.2-0.4-9.4-1.1c-5.1-0.8-9.6-2.1-13.6-3.6
		c-1.6-0.6-4-1.6-6-2.8c-2.5-1.5-3.9-2.9-4.1-4.3c-0.1-0.8,0.2-1.4,1-1.9c1.1-0.8,2.8-1.3,5.4-1.6c0,0,3.2-0.2,5.6-0.5
		c1.3-0.1,2.3-0.3,3-0.5c0.1,0,0.3-0.1,0.5-0.2c0.2-0.1,0.3-0.2,0.3-0.3s0-0.2-0.1-0.3c-1.2-1-4-1.7-6.6-2.5
		c-0.2-0.1-0.3-0.1-0.5-0.1c-2.8-0.8-6.1-1.6-8.1-2.1c-0.7-0.2-1.3-0.3-1.6-0.4l0,0c0,0,3.8,0.6,7.9,1.4c2.4,0.5,4.4,1.1,6,1.6
		c2,0.7,3.3,1.4,4,2c0.2,0.2,0.2,0.4,0.2,0.6c-0.1,0.3-0.4,0.5-0.9,0.7l0,0l0,0c-1.4,0.5-4.1,1-7.8,1.4c0,0-1.4,0.1-2.8,0.4
		c-1.3,0.3-2.9,0.9-2.9,1.9s1.3,2.4,3.6,3.7c2.4,1.4,5.7,2.7,9.4,3.8c4.8,1.4,10.2,2.1,16.1,2.1l0,0l0,0L351.7,63.2z"/>
	<path id="XMLID_3_" class="st3" d="M364.8,58.6c-0.7,0-1.4-0.6-1.4-1.3c0-0.8,0.6-1.4,1.3-1.4c0,0,0,0,0.1,0c0.8,0,1.4,0.6,1.4,1.3
		c0,0.4-0.1,0.7-0.4,1C365.6,58.4,365.3,58.6,364.8,58.6C364.9,58.6,364.9,58.6,364.8,58.6"/>
	<path id="XMLID_2_" class="st3" d="M350.8,74.6c-0.3,0-0.6,0-0.9,0c-3.2-0.1-6.7-0.7-10-2c-4.4-1.6-7.2-3-10.4-4.9
		c-3.2-1.9-6.8-3.8-9.4-4.9c-2.6-1.1-5.1-1.9-7.4-2.5s-4.4-0.8-6.3-0.8c-0.2,0-0.5,0-0.7,0c-1.7,0.1-3.1,0.3-4.3,0.8
		c-0.2,0.1-0.4,0.1-0.4,0.1l0,0l0,0c0-0.1,0.3-0.4,0.7-0.7c1.2-0.9,3.1-1.6,5.2-1.9c0.7-0.1,1.6-0.1,2.7-0.1c1.4,0,2.8,0.1,3.7,0.2
		c2.4,0.4,5.6,1.4,9.6,3c1.5,0.6,4.9,2.1,6.2,2.8c1.5,0.7,3.3,1.5,4.5,2c2,0.7,6.6,2.3,8.4,2.8c1.9,0.5,3.9,0.8,6.2,0.9
		c0.2,0,0.4,0,0.7,0c1.8,0,4.3-0.2,5.3-0.4c1.5-0.3,2-0.5,3.2-0.9c2-0.7,3.4-1.4,5.9-3.1c2.3-1.5,3.2-2.2,4.8-3.7
		c0.6-0.6,0.9-0.8,1.6-1.2c0.6-0.4,1.3-0.7,1.9-0.9l0.4-0.1l-0.2-0.2c-1.1-0.6-2-1.6-2.8-2.8c-0.4-0.7-1.3-1.5-1.9-1.8
		c-0.9-0.5-1.6-0.7-2.6-0.7c-0.1,0-0.3,0-0.4,0c-1.4,0.1-2.4,0.4-4.1,1.2c-0.5,0.3-0.8,0.4-0.9,0.4l0,0c0-0.1,0.2-0.3,0.8-0.8
		c0.4-0.4,0.9-0.8,1.2-1c0.7-0.5,1.8-1.1,2.6-1.3c0.6-0.2,0.7-0.2,1.7-0.2c0.3,0,0.6,0,0.7,0c0.4,0,0.6,0,0.9,0.1
		c1.5,0.3,2.6,1.1,3.9,2.5c1.7,1.9,3.3,3.2,4.5,3.5c0.1,0,0.4,0.1,0.4,0.1s-0.3,0.2-0.5,0.3c-0.8,0.4-2.4,1.4-3.2,1.9
		c-1.7,1.3-3.2,2.8-4.7,5c-1.4,2-3.5,4-5.6,5.4c-2.9,1.9-5.9,3.1-9.4,3.6C351.8,74.6,351.5,74.6,350.8,74.6"/>
	<path class="st0" d="M443.5,87.7c-4.8-6.1-13.7-7.2-19.8-2.3c-1,0.8-1.8,1.6-2.5,2.6c-1.6-0.1-3.5-0.2-5.9-0.3c0,0-0.5,0-0.5,0.1
		s1.9,2.5,4,5.2c-1.1,4.1-0.3,8.7,2.6,12.3c4.8,6.1,13.7,7.2,19.8,2.3C447.3,102.8,448.4,93.9,443.5,87.7z M442.3,93.7l-2.1,0.6
		c-0.2-0.7-0.4-1.3-0.8-1.9l1.9-1.1C441.7,92.1,442.1,92.9,442.3,93.7z M432.6,86.3c0.9,0,1.7,0.1,2.5,0.3l-0.5,2.2
		c-0.6-0.2-1.3-0.3-2-0.3V86.3z M430,86.7l0.6,2.1c-0.7,0.2-1.3,0.5-1.9,0.8l-1.1-1.9C428.4,87.3,429.2,86.9,430,86.7z M425.5,89.3
		l1.5,1.5c-0.4,0.6-0.8,1.1-1.2,1.7l-1.9-1.1C424.3,90.6,424.9,90,425.5,89.3z M422.9,93.8l2.1,0.6c-0.2,0.7-0.3,1.3-0.3,2h-2.1
		C422.6,95.5,422.7,94.7,422.9,93.8z M423,99l2.1-0.6c0.2,0.7,0.4,1.3,0.8,1.9l-1.9,1.1C423.6,100.6,423.2,99.8,423,99z M427.6,105
		c-0.8-0.4-1.4-1-2.1-1.6l1.5-1.5c0.5,0.5,1,0.9,1.6,1.2L427.6,105z M432.6,106.4c-0.9,0-1.7-0.1-2.6-0.3l0.6-2.1
		c0.7,0.2,1.3,0.3,2,0.3V106.4z M435.2,106l-0.6-2.1c0.7-0.2,1.3-0.4,1.9-0.8l1.1,1.9C436.8,105.5,436,105.8,435.2,106z M436.5,89.6
		l1.1-1.9c0.8,0.4,1.4,1,2.1,1.6l-1.6,1.5C437.6,90.3,437.1,89.9,436.5,89.6z M439.7,103.4l-1.5-1.5c0.5-0.5,0.9-1,1.2-1.6l1.9,1.1
		C440.8,102.1,440.3,102.8,439.7,103.4z M442.2,99l-2.1-0.6c0.2-0.7,0.3-1.3,0.3-2h1.7h0.5C442.6,97.3,442.5,98.1,442.2,99z"/>
</g>
</svg>
