<?xml version="1.0" encoding="utf-8"?>
<!-- Generator: Adobe Illustrator 19.0.0, SVG Export Plug-In . SVG Version: 6.00 Build 0)  -->
<svg version="1.1" id="Ebene_1" xmlns="http://www.w3.org/2000/svg" xmlns:xlink="http://www.w3.org/1999/xlink" x="0px" y="0px"
	 viewBox="148 -89 395.3 278" style="enable-background:new 148 -89 395.3 278;" xml:space="preserve">
<style type="text/css">
	.st0{fill:#FFFFFF;}
	.st1{font-family:'OpenSans-Light';}
	.st2{font-size:12px;}
	.st3{fill:#007DC2;}
</style>
<path id="XMLID_100_" class="st0" d="M283.9,49.1c0,29.6,24,53.6,53.6,53.6s53.6-24,53.6-53.6s-24-53.6-53.6-53.6
	C307.9-4.5,283.9,19.5,283.9,49.1"/>
<path class="st0" d="M343.8-61.2c-7.1-3.3-15.5-0.2-18.7,6.9c-3.3,7.1-0.2,15.5,6.9,18.7c1.1,0.5,2.3,0.9,3.4,1.1
	c0.6,1.4,1.4,3.2,2.4,5.4c0,0,0.2,0.4,0.3,0.4s1.3-2.9,2.8-5.9c4.2-0.9,7.8-3.7,9.8-7.9C354-49.6,350.9-58,343.8-61.2z M335.7-42.5
	c-1,0-2.1-0.1-3-0.4l-3,1.5c-0.2,0.1-0.4,0.1-0.3-0.2l0.7-2.6c-1.2-1-2-2.1-2-3.5c0-2.2,2-4,4.7-4.8c-0.2,0.5-0.3,1.1-0.3,1.6
	c0,3.6,3.9,6.4,8.7,6.4c0.1,0,0.2,0,0.4,0C340.2-43.3,338.1-42.5,335.7-42.5z M346.8-47.8l0.8,2.6c0.1,0.2-0.1,0.3-0.3,0.2l-2.9-1.5
	c-0.9,0.3-1.9,0.4-3,0.4c-4.1,0-7.3-2.3-7.3-5.1c0-2.8,3.3-5.1,7.3-5.1c4.1,0,7.3,2.3,7.3,5.1C348.7-49.8,347.9-48.7,346.8-47.8z"/>
<path class="st0" d="M343.8,133.1c-1.1-0.5-2.3-0.9-3.4-1.1c-0.6-1.4-1.4-3.2-2.4-5.4c0,0-0.2-0.4-0.3-0.4s-1.3,2.9-2.8,5.9
	c-4.2,0.9-7.8,3.7-9.8,7.9c-3.3,7.1-0.2,15.5,6.9,18.7c7.1,3.3,15.5,0.2,18.7-6.9C354,144.7,350.9,136.3,343.8,133.1z M341.2,154
	l-2.2-5.5c1-0.4,1.7-1.4,1.7-2.5c0-1.5-1.2-2.7-2.7-2.7s-2.7,1.2-2.7,2.7c0,1.1,0.7,2.1,1.7,2.5l-2.2,5.5c-3.2-1.3-5.5-4.4-5.5-8.1
	c0-4.8,3.9-8.7,8.7-8.7c4.8,0,8.7,3.9,8.7,8.7C346.7,149.5,344.4,152.6,341.2,154z"/>
<path class="st0" d="M263.4,87c0-0.1-0.5-0.1-0.5-0.1c-2.4,0.1-4.3,0.2-5.9,0.3c-0.7-1-1.5-1.8-2.5-2.6c-6.1-4.9-15-3.8-19.8,2.3
	c-4.8,6.2-3.7,15.1,2.3,19.9c6.1,4.9,15,3.8,19.8-2.3c2.9-3.6,3.7-8.2,2.6-12.3C261.5,89.5,263.4,87.1,263.4,87z M254.5,98.9
	c0,0.9-0.8,0.9-0.8,0.9h-3v2.8h-1v-2.8H242v2.8h-1v-2.8h-3c-0.8,0-0.8-0.9-0.8-0.9v-8.7c0-0.9,0.8-0.9,0.8-0.9h15.7
	c0.8,0,0.8,0.9,0.8,0.9V98.9z"/>
<g>
	<path class="st0" d="M248.3-13.4c-0.9,0.4-1.5,1.1-2.1,1.8c0.5,0,1,0.1,1.4,0c0.6-0.1,1.7-0.1,2.1-0.5
		C250.1-12.7,249.3-13.9,248.3-13.4z"/>
	<path class="st0" d="M261.3,4.7c-1.2-2-2.3-3.7-3.1-5c0.5-1,0.8-2.2,1-3.4c1.2-7.7-4-14.9-11.7-16.2c-7.7-1.2-14.9,4-16.3,11.6
		c-1.2,7.7,4,14.9,11.7,16.2c4.5,0.7,8.9-0.8,12-3.7c3.4,0.5,6.5,1.1,6.5,1C261.5,5.1,261.3,4.7,261.3,4.7z M244.9,0.3h-5.6
		c-0.4,0-0.7-0.3-0.7-0.7v-6.8h6.3V0.3z M252.3-0.4c0,0.4-0.3,0.7-0.7,0.7H246v-7.5h6.3V-0.4z M252.9-7.8H246v-3.4
		c-0.2,0.1-0.3,0.1-0.5,0.1c-0.2,0-0.4,0.1-0.7,0.1v3.3h-6.9v-2.7c0-0.4,0.3-0.8,0.8-0.8h3.1c-0.8-0.2-1.5-0.5-1.5-1.2
		c0-0.8,0.9-2.1,2.2-1.8c1.3,0.3,2.3,1.3,3,2.2c0.7-0.9,1.7-2.1,3.1-2.3c1.2-0.1,2.1,1,2,1.8c-0.1,0.7-0.8,1-1.6,1.2h3.1
		c0.4,0,0.8,0.3,0.8,0.8V-7.8z"/>
	<path class="st0" d="M242.6-13.4c-0.6-0.3-1,0-1.3,0.5c-0.1,0.2-0.3,0.5-0.1,0.8c0.6,0.6,2.3,0.6,3.5,0.5
		C244.2-12.3,243.5-13,242.6-13.4z"/>
</g>
<path class="st0" d="M445.1-8.3c-1.3-7.6-8.6-12.8-16.3-11.6c-7.7,1.3-12.9,8.5-11.7,16.2c0.2,1.2,0.5,2.4,1,3.4
	c-0.8,1.3-1.9,3-3.1,5c0,0-0.2,0.4-0.1,0.5c0,0.1,3.1-0.5,6.5-1c3.1,2.9,7.5,4.4,12,3.7C441.1,6.6,446.3-0.6,445.1-8.3z M431.4,2.5
	c-3.4-4.7-8.1-7.3-8.1-10.2c0-3.8,5.4-6.6,8.1-2.4c2.9-4.2,8.1-1.4,8.1,2.4C439.5-4.8,434.8-2.2,431.4,2.5z"/>
<g>
	<text transform="matrix(1 0 0 1 270.5 -73.8333)" class="st0 st1 st2">demokratisch organisiert</text>
</g>
<g>
	<text transform="matrix(1 0 0 1 453.5 -3.0833)" class="st0 st1 st2">non-profit</text>
</g>
<g>
	<text transform="matrix(1 0 0 1 454.3333 101.1667)" class="st0 st1 st2">transparent</text>
</g>
<g>
	<text transform="matrix(1 0 0 1 304.3333 179.3333)" class="st0 st1 st2">frei lizenziert</text>
</g>
<g>
	<text transform="matrix(1 0 0 1 171.1048 101)" class="st0 st1 st2">werbefrei</text>
</g>
<g>
	<text transform="matrix(1 0 0 1 171.0547 -3.1666)" class="st0 st1 st2">kostenlos</text>
</g>
<path id="XMLID_6_" class="st3" d="M352,51.5C352,51.5,352,51.5,352,51.5c-0.1-0.1-0.2-0.3-0.3-0.6c-0.6-1.8-1.9-4.4-3.1-6.1
	c-0.9-1.2-3-3.4-4.4-4.5c-2.1-1.7-4.7-3.4-8.6-5.6c-3-1.7-5.6-3.6-7.7-5.4c-2.3-2-3.6-3.5-4.7-5.5c-1.6-2.9-2.5-5.6-2.6-7.4
	c0-0.4,0-0.6,0-0.7c0.1-0.1,0.2,0.1,0.4,0.5c0.8,1.4,2.1,2.9,3.4,4.1c2.3,2.1,5,3.9,8.6,5.7c2.9,1.5,7.2,3.8,8.5,4.6
	c3.3,1.9,6.6,4.6,9.2,7.2c0.5,0.6,1.6,1.8,1.7,1.9c0,0,0,0,0,0c0,0.1-0.2,0.2-0.5,0.4c-1,0.6-1.9,1.4-2.4,2c0,0.1-0.1,0.1-0.1,0.1
	c0,0,0.2-0.1,0.3-0.3c0.6-0.6,1.6-1.2,2.6-1.7l0.4-0.2l0,0l0.5,0.7c0.8,1,1.2,1.7,1.6,2.3c0.1,0.3,0.3,0.6,0.3,0.6
	c0,0-0.1,0.1-0.2,0.1c-0.4,0.1-1.5,0.7-2,1.1c-0.5,0.4-0.9,0.8-0.9,0.9c0,0,0,0,0,0c0,0,0.2-0.1,0.5-0.1c0.7-0.3,1.5-0.4,2.3-0.4
	c0.4,0,0.8,0,1.1,0.1c0.4,0.1,1.2,0.4,1.2,0.5c0,0-0.4,0.2-0.6,0.3c-1,0.5-2.2,1.4-2.9,2.1c-0.9,0.9-1.5,1.8-1.7,2.7
	C352.1,51.4,352.1,51.5,352,51.5"/>
<path id="XMLID_5_" class="st3" d="M351.3,55.8c-0.5-3.6-1.7-6.5-2.7-8.3c-1-1.9-2-3-2-3c-1.1-1.3-2.9-3-4.7-4.4
	c-3.5-2.7-7.6-5.1-7.6-5.1c-0.5-0.3-1.7-1-2.6-1.6c0,0-0.5-0.3-0.7-0.5c-1.7-1.2-3.9-3.1-3.9-3.1l0,0c-1.8-1.7-3.3-3.5-4.3-5.2
	c-0.5-0.9-1-1.8-1.3-2.7c-0.5-1.2-0.9-2.5-1.1-3.7c-0.1-0.6-0.2-1.2-0.2-2.1c0,0-0.1-1.3-0.1-1.3c-0.2,0-1.2,2-1.6,3
	c-0.8,2.1-1.1,4-1,6.2c0.1,2.9,1,5.5,2.7,8.1c0.3,0.4,0.5,0.7,0.5,0.7c0,0.1,0.7,1,1.2,1.6c0.7,0.8,3.1,3,4.1,3.8
	c2.1,1.6,3.7,2.6,7,4.3l1.2,0.6v0l0.5-0.1c1.2-0.2,2.4-0.4,3.7-0.4c0.9,0,1.7,0.1,2.4,0.2c0.4,0.1,0.6,0.1,0.6,0.1c0,0,0,0,0,0
	c0,0-0.1,0-0.1,0c-0.3,0-0.8-0.1-1.3-0.1c-0.9,0-1.9,0.1-2.8,0.2c-0.8,0.1-2,0.4-2,0.5c0,0,0.4,0.3,0.7,0.4c0.9,0.5,2,1.1,2.6,1.5
	l0.5,0.3l0,0l0.5-0.1c0.7-0.2,1.3-0.3,1.9-0.3c0.1,0,0.1,0,0.2,0c0.8,0,0.9,0.1,0.9,0.1c0,0-0.1,0.1-0.6,0.1
	c-0.8,0.1-1.6,0.3-2.1,0.5l-0.2,0.1l0,0l0.2,0.2c0.8,0.8,1.3,1.9,1.3,2.8l-0.1,0.5v0l0.9,0c0.1,0,0.3,0,0.5,0c0.4,0,0.7,0,0.9,0
	c0.6,0.1,1.6,0.4,2.1,0.6c1.5,0.7,3.3,2.3,4.3,3.9l0,0c0.2,0.2,0.3,0.5,0.4,0.5c0,0,0,0,0,0c0.2,1.3,0.3,2.6,0.2,4l1.5,3.4l0,0
	L351.3,55.8z"/>
<path id="XMLID_4_" class="st3" d="M350.5,62.4L350.5,62.4c-1.7-0.1-5.2-0.4-9.4-1.1c-5.1-0.8-9.6-2.1-13.6-3.6
	c-1.6-0.6-4-1.6-6-2.8c-2.5-1.5-3.9-2.9-4.1-4.3c-0.1-0.8,0.2-1.4,1-1.9c1.1-0.8,2.8-1.3,5.4-1.6c0,0,3.2-0.2,5.6-0.5
	c1.3-0.1,2.3-0.3,3-0.5c0.1,0,0.3-0.1,0.5-0.2c0.2-0.1,0.3-0.2,0.3-0.3c0-0.1,0-0.2-0.1-0.3c-1.2-1-4-1.7-6.6-2.5
	c-0.2-0.1-0.3-0.1-0.5-0.1c-2.8-0.8-6.1-1.6-8.1-2.1c-0.7-0.2-1.3-0.3-1.6-0.4l0,0c0,0,3.8,0.6,7.9,1.4c2.4,0.5,4.4,1.1,6,1.6
	c2,0.7,3.3,1.4,4,2c0.2,0.2,0.2,0.4,0.2,0.6c-0.1,0.3-0.4,0.5-0.9,0.7c0,0,0,0,0,0c0,0,0,0,0,0c-1.4,0.5-4.1,1-7.8,1.4
	c0,0-1.4,0.1-2.8,0.4c-1.3,0.3-2.9,0.9-2.9,1.9c0,1,1.3,2.4,3.6,3.7c2.4,1.4,5.7,2.7,9.4,3.8c4.8,1.4,10.2,2.1,16.1,2.1h0v0
	L350.5,62.4z"/>
<path id="XMLID_3_" class="st3" d="M363.6,57.8c-0.7,0-1.4-0.6-1.4-1.3c0-0.8,0.6-1.4,1.3-1.4c0,0,0,0,0.1,0c0.8,0,1.4,0.6,1.4,1.3
	c0,0.4-0.1,0.7-0.4,1C364.4,57.6,364.1,57.8,363.6,57.8C363.7,57.8,363.7,57.8,363.6,57.8"/>
<path id="XMLID_2_" class="st3" d="M349.6,73.8c-0.3,0-0.6,0-0.9,0c-3.2-0.1-6.7-0.7-10-2c-4.4-1.6-7.2-3-10.4-4.9
	c-3.2-1.9-6.8-3.8-9.4-4.9c-2.6-1.1-5.1-1.9-7.4-2.5c-2.3-0.6-4.4-0.8-6.3-0.8c-0.2,0-0.5,0-0.7,0c-1.7,0.1-3.1,0.3-4.3,0.8
	c-0.2,0.1-0.4,0.1-0.4,0.1c0,0,0,0,0,0c0,0,0,0,0,0c0-0.1,0.3-0.4,0.7-0.7c1.2-0.9,3.1-1.6,5.2-1.9c0.7-0.1,1.6-0.1,2.7-0.1
	c1.4,0,2.8,0.1,3.7,0.2c2.4,0.4,5.6,1.4,9.6,3c1.5,0.6,4.9,2.1,6.2,2.8c1.5,0.7,3.3,1.5,4.5,2c2,0.7,6.6,2.3,8.4,2.8
	c1.9,0.5,3.9,0.8,6.2,0.9c0.2,0,0.4,0,0.7,0c1.8,0,4.3-0.2,5.3-0.4c1.5-0.3,2-0.5,3.2-0.9c2-0.7,3.4-1.4,5.9-3.1
	c2.3-1.5,3.2-2.2,4.8-3.7c0.6-0.6,0.9-0.8,1.6-1.2c0.6-0.4,1.3-0.7,1.9-0.9l0.4-0.1l-0.2-0.2c-1.1-0.6-2-1.6-2.8-2.8
	c-0.4-0.7-1.3-1.5-1.9-1.8c-0.9-0.5-1.6-0.7-2.6-0.7c-0.1,0-0.3,0-0.4,0c-1.4,0.1-2.4,0.4-4.1,1.2c-0.5,0.3-0.8,0.4-0.9,0.4
	c0,0,0,0,0,0c0-0.1,0.2-0.3,0.8-0.8c0.4-0.4,0.9-0.8,1.2-1c0.7-0.5,1.8-1.1,2.6-1.3c0.6-0.2,0.7-0.2,1.7-0.2c0.3,0,0.6,0,0.7,0
	c0.4,0,0.6,0,0.9,0.1c1.5,0.3,2.6,1.1,3.9,2.5c1.7,1.9,3.3,3.2,4.5,3.5c0.1,0,0.4,0.1,0.4,0.1c0,0-0.3,0.2-0.5,0.3
	c-0.8,0.4-2.4,1.4-3.2,1.9c-1.7,1.3-3.2,2.8-4.7,5c-1.4,2-3.5,4-5.6,5.4c-2.9,1.9-5.9,3.1-9.4,3.6C350.6,73.8,350.3,73.8,349.6,73.8
	"/>
<path class="st0" d="M442.3,86.9c-4.8-6.1-13.7-7.2-19.8-2.3c-1,0.8-1.8,1.6-2.5,2.6c-1.6-0.1-3.5-0.2-5.9-0.3c0,0-0.5,0-0.5,0.1
	s1.9,2.5,4,5.2c-1.1,4.1-0.3,8.7,2.6,12.3c4.8,6.1,13.7,7.2,19.8,2.3C446.1,102,447.2,93.1,442.3,86.9z M441.1,92.9l-2.1,0.6
	c-0.2-0.7-0.4-1.3-0.8-1.9l1.9-1.1C440.5,91.3,440.9,92.1,441.1,92.9z M431.4,85.5c0.9,0,1.7,0.1,2.5,0.3l-0.5,2.2
	c-0.6-0.2-1.3-0.3-2-0.3V85.5z M428.8,85.9l0.6,2.1c-0.7,0.2-1.3,0.5-1.9,0.8l-1.1-1.9C427.2,86.5,428,86.1,428.8,85.9z M424.3,88.5
	l1.5,1.5c-0.4,0.6-0.8,1.1-1.2,1.7l-1.9-1.1C423.1,89.8,423.7,89.2,424.3,88.5z M421.7,93l2.1,0.6c-0.2,0.7-0.3,1.3-0.3,2h-2.1
	C421.4,94.7,421.5,93.9,421.7,93z M421.8,98.2l2.1-0.6c0.2,0.7,0.4,1.3,0.8,1.9l-1.9,1.1C422.4,99.8,422,99,421.8,98.2z
	 M426.4,104.2c-0.8-0.4-1.4-1-2.1-1.6l1.5-1.5c0.5,0.5,1,0.9,1.6,1.2L426.4,104.2z M431.4,105.6c-0.9,0-1.7-0.1-2.6-0.3l0.6-2.1
	c0.7,0.2,1.3,0.3,2,0.3V105.6z M434,105.2l-0.6-2.1c0.7-0.2,1.3-0.4,1.9-0.8l1.1,1.9C435.6,104.7,434.8,105,434,105.2z M431.3,100.8
	c-2.9,0-5.3-2.4-5.3-5.3s2.4-5.3,5.3-5.3s5.3,2.4,5.3,5.3S434.2,100.8,431.3,100.8z M435.3,88.8l1.1-1.9c0.8,0.4,1.4,1,2.1,1.6
	l-1.6,1.5C436.4,89.5,435.9,89.1,435.3,88.8z M438.5,102.6l-1.5-1.5c0.5-0.5,0.9-1,1.2-1.6l1.9,1.1
	C439.6,101.3,439.1,102,438.5,102.6z M441,98.2l-2.1-0.6c0.2-0.7,0.3-1.3,0.3-2h1.7h0.5C441.4,96.5,441.3,97.3,441,98.2z"/>
</svg>
