<?xml version="1.0" encoding="utf-8"?>
<!-- Generator: Adobe Illustrator 19.0.0, SVG Export Plug-In . SVG Version: 6.00 Build 0)  -->
<svg version="1.1" id="Ebene_1" xmlns="http://www.w3.org/2000/svg" xmlns:xlink="http://www.w3.org/1999/xlink" x="0px" y="0px"
	 viewBox="0 0 395.3 278" style="enable-background:new 0 0 395.3 278;" xml:space="preserve">
<style type="text/css">
	.st0{clip-path:url(#XMLID_116_);fill:#007DC2;}
	.st1{clip-path:url(#XMLID_116_);fill:#EBF5FA;}
	.st2{clip-path:url(#XMLID_116_);}
	.st3{fill:#007DC2;}
	.st4{font-family:'OpenSans-Bold';}
	.st5{font-size:13px;}
	.st6{clip-path:url(#XMLID_116_);fill:#FFFFFF;}
	.st7{fill:#FFFFFF;}
	.st8{clip-path:url(#XMLID_117_);fill:#FFFFFF;}
	.st9{clip-path:url(#XMLID_117_);fill:#007DC2;}
</style>
<g id="XMLID_52_">
	<defs>
		<rect id="XMLID_53_" x="1" y="2.9" width="402.9" height="272.1"/>
	</defs>
	<clipPath id="XMLID_116_">
		<use xlink:href="#XMLID_53_"  style="overflow:visible;"/>
	</clipPath>
	<path id="XMLID_102_" class="st0" d="M191.2,143"/>
	<path id="XMLID_101_" class="st0" d="M191.2,143"/>
	<path id="XMLID_100_" class="st1" d="M134.9,140.4c0,29.6,24,53.6,53.6,53.6c29.6,0,53.6-24,53.6-53.6s-24-53.6-53.6-53.6
		C158.9,86.8,134.9,110.8,134.9,140.4"/>
	<path id="XMLID_99_" class="st0" d="M189.7,143.4"/>
	<path id="XMLID_98_" class="st0" d="M189.7,143.4"/>
	<path id="XMLID_97_" class="st0" d="M189.6,142.9"/>
	<path id="XMLID_96_" class="st0" d="M189.6,142.9"/>
	<path id="XMLID_95_" class="st0" d="M189.6,142.9"/>
	<path id="XMLID_94_" class="st0" d="M189.6,142.9"/>
	<path id="XMLID_93_" class="st0" d="M189.7,143.4"/>
	<path id="XMLID_92_" class="st0" d="M189.7,143.4"/>
	<path id="XMLID_91_" class="st0" d="M191.2,143"/>
	<path id="XMLID_90_" class="st0" d="M191.2,143"/>
	<path id="XMLID_75_" class="st0" d="M311.8,88.3h-1.9v-4.1c0-0.5-0.1-0.9-0.3-1.2c-0.2-0.3-0.5-0.4-0.9-0.4c-0.5,0-0.9,0.2-1.2,0.5
		s-0.4,1-0.4,1.8v3.3h-1.9v-7.1h1.5l0.3,0.9h0.1c0.2-0.3,0.5-0.6,0.9-0.8c0.4-0.2,0.8-0.3,1.3-0.3c0.8,0,1.5,0.2,1.9,0.7
		c0.4,0.4,0.6,1.1,0.6,1.9V88.3z M320.3,84.7c0,1.2-0.3,2.1-0.9,2.7c-0.6,0.7-1.5,1-2.5,1c-0.7,0-1.3-0.1-1.8-0.4s-0.9-0.7-1.2-1.3
		s-0.4-1.2-0.4-2c0-1.2,0.3-2.1,0.9-2.7c0.6-0.6,1.5-1,2.6-1c0.7,0,1.3,0.1,1.8,0.4c0.5,0.3,0.9,0.7,1.2,1.3
		C320.1,83.3,320.3,84,320.3,84.7z M315.4,84.7c0,0.7,0.1,1.2,0.3,1.6c0.2,0.4,0.6,0.5,1.1,0.5c0.5,0,0.9-0.2,1.1-0.5
		c0.2-0.4,0.3-0.9,0.3-1.6c0-0.7-0.1-1.2-0.3-1.6c-0.2-0.4-0.6-0.5-1.1-0.5c-0.5,0-0.9,0.2-1.1,0.5S315.4,84,315.4,84.7z
		 M328.4,88.3h-1.9v-4.1c0-0.5-0.1-0.9-0.3-1.2c-0.2-0.3-0.5-0.4-0.9-0.4c-0.5,0-0.9,0.2-1.2,0.5s-0.4,1-0.4,1.8v3.3h-1.9v-7.1h1.5
		l0.3,0.9h0.1c0.2-0.3,0.5-0.6,0.9-0.8c0.4-0.2,0.8-0.3,1.3-0.3c0.8,0,1.5,0.2,1.9,0.7c0.4,0.4,0.6,1.1,0.6,1.9V88.3z M329.8,85.6
		V84h3.4v1.6H329.8z M338.5,88.4c-0.8,0-1.5-0.3-2-0.9h-0.1c0.1,0.6,0.1,0.9,0.1,1v2.9h-1.9V81.2h1.6l0.3,0.9h0.1
		c0.5-0.7,1.1-1.1,2-1.1c0.8,0,1.5,0.3,2,1c0.5,0.6,0.7,1.5,0.7,2.7c0,0.8-0.1,1.4-0.3,2s-0.5,1-0.9,1.3
		C339.6,88.3,339.1,88.4,338.5,88.4z M337.9,82.6c-0.5,0-0.8,0.1-1,0.4c-0.2,0.3-0.3,0.8-0.3,1.5v0.2c0,0.8,0.1,1.3,0.3,1.6
		c0.2,0.3,0.6,0.5,1.1,0.5c0.9,0,1.3-0.7,1.3-2.1c0-0.7-0.1-1.2-0.3-1.6C338.7,82.8,338.4,82.6,337.9,82.6z M346.8,81.1
		c0.3,0,0.5,0,0.7,0.1l-0.1,1.8c-0.2,0-0.3-0.1-0.6-0.1c-0.6,0-1.1,0.2-1.4,0.5c-0.3,0.3-0.5,0.8-0.5,1.3v3.6h-1.9v-7.1h1.5l0.3,1.2
		h0.1c0.2-0.4,0.5-0.7,0.9-1C346,81.2,346.4,81.1,346.8,81.1z M355.2,84.7c0,1.2-0.3,2.1-0.9,2.7c-0.6,0.7-1.5,1-2.5,1
		c-0.7,0-1.3-0.1-1.8-0.4s-0.9-0.7-1.2-1.3s-0.4-1.2-0.4-2c0-1.2,0.3-2.1,0.9-2.7c0.6-0.6,1.5-1,2.6-1c0.7,0,1.3,0.1,1.8,0.4
		c0.5,0.3,0.9,0.7,1.2,1.3C355.1,83.3,355.2,84,355.2,84.7z M350.3,84.7c0,0.7,0.1,1.2,0.3,1.6c0.2,0.4,0.6,0.5,1.1,0.5
		c0.5,0,0.9-0.2,1.1-0.5c0.2-0.4,0.3-0.9,0.3-1.6c0-0.7-0.1-1.2-0.3-1.6c-0.2-0.4-0.6-0.5-1.1-0.5c-0.5,0-0.9,0.2-1.1,0.5
		S350.3,84,350.3,84.7z M360.8,82.6h-1.7v5.6h-1.9v-5.6h-1.1v-0.9l1.1-0.5v-0.5c0-0.8,0.2-1.4,0.6-1.8c0.4-0.4,1-0.6,1.9-0.6
		c0.7,0,1.3,0.1,1.8,0.3l-0.5,1.4c-0.4-0.1-0.7-0.2-1.1-0.2c-0.3,0-0.5,0.1-0.6,0.2c-0.1,0.2-0.2,0.4-0.2,0.6v0.4h1.7V82.6z
		 M362.8,80.3c-0.7,0-1.1-0.3-1.1-1c0-0.6,0.4-0.9,1.1-0.9c0.7,0,1.1,0.3,1.1,0.9c0,0.3-0.1,0.5-0.3,0.7
		C363.5,80.2,363.2,80.3,362.8,80.3L362.8,80.3z M363.8,88.3h-1.9v-7.1h1.9V88.3z M368.8,86.9c0.3,0,0.7-0.1,1.2-0.2v1.4
		c-0.5,0.2-1.1,0.3-1.8,0.3c-0.8,0-1.3-0.2-1.7-0.6c-0.4-0.4-0.5-1-0.5-1.8v-3.4h-0.9v-0.8l1.1-0.6l0.6-1.5h1.2v1.5h2v1.5h-2v3.4
		c0,0.3,0.1,0.5,0.2,0.6C368.4,86.8,368.6,86.9,368.8,86.9z"/>
	<g id="XMLID_74_" class="st2">
		<text transform="matrix(1 0 0 1 107.4443 19.8174)"><tspan x="0" y="0" class="st3 st4 st5">dem</tspan><tspan x="28.7" y="0" class="st3 st4 st5">okr</tspan><tspan x="50.7" y="0" class="st3 st4 st5">a</tspan><tspan x="58.6" y="0" class="st3 st4 st5">tisch</tspan><tspan x="89.9" y="0" class="st3 st4 st5"> </tspan><tspan x="93.3" y="0" class="st3 st4 st5">or</tspan><tspan x="107.2" y="0" class="st3 st4 st5">ga</tspan><tspan x="122.5" y="0" class="st3 st4 st5">nisi</tspan><tspan x="145.4" y="0" class="st3 st4 st5">e</tspan><tspan x="153.1" y="0" class="st3 st4 st5">rt</tspan></text>
	</g>
	<g id="XMLID_73_" class="st2">
		<text transform="matrix(1 0 0 1 304.9668 192.4053)"><tspan x="0" y="0" class="st3 st4 st5">tr</tspan><tspan x="11.5" y="0" class="st3 st4 st5">a</tspan><tspan x="19.4" y="0" class="st3 st4 st5">ns</tspan><tspan x="34.4" y="0" class="st3 st4 st5">pa</tspan><tspan x="50.5" y="0" class="st3 st4 st5">r</tspan><tspan x="56.4" y="0" class="st3 st4 st5">e</tspan><tspan x="64.1" y="0" class="st3 st4 st5">nt</tspan></text>
	</g>
	<g id="XMLID_72_" class="st2">
		<text transform="matrix(1 0 0 1 144.1045 270.1846)"><tspan x="0" y="0" class="st3 st4 st5">fr</tspan><tspan x="10.9" y="0" class="st3 st4 st5">e</tspan><tspan x="18.6" y="0" class="st3 st4 st5">i</tspan><tspan x="22.6" y="0" class="st3 st4 st5"> </tspan><tspan x="26" y="0" class="st3 st4 st5">li</tspan><tspan x="33.9" y="0" class="st3 st4 st5">ze</tspan><tspan x="48" y="0" class="st3 st4 st5">n</tspan><tspan x="56.5" y="0" class="st3 st4 st5">z</tspan><tspan x="62.9" y="0" class="st3 st4 st5">i</tspan><tspan x="66.8" y="0" class="st3 st4 st5">e</tspan><tspan x="74.5" y="0" class="st3 st4 st5">rt</tspan></text>
	</g>
	<g id="XMLID_71_" class="st2">
		<text transform="matrix(1 0 0 1 10.1523 88.1191)"><tspan x="0" y="0" class="st3 st4 st5">kost</tspan><tspan x="28.2" y="0" class="st3 st4 st5">e</tspan><tspan x="35.9" y="0" class="st3 st4 st5">nlos</tspan></text>
	</g>
	<g id="XMLID_70_" class="st2">
		<text transform="matrix(1 0 0 1 10.0615 192.2881)"><tspan x="0" y="0" class="st3 st4 st5">we</tspan><tspan x="18.8" y="0" class="st3 st4 st5">r</tspan><tspan x="24.7" y="0" class="st3 st4 st5">be</tspan><tspan x="40.7" y="0" class="st3 st4 st5">fr</tspan><tspan x="51.6" y="0" class="st3 st4 st5">e</tspan><tspan x="59.3" y="0" class="st3 st4 st5">i</tspan></text>
	</g>
	<path id="XMLID_69_" class="st0" d="M201.7,243.1c3.3-7.1,0.2-15.5-6.9-18.7c-1.1-0.5-2.3-0.9-3.4-1.1c-0.6-1.4-1.4-3.2-2.4-5.4
		c0,0-0.2-0.4-0.3-0.4c-0.1,0-1.3,2.9-2.8,5.9c-4.2,0.9-7.8,3.7-9.8,7.9c-3.3,7.1-0.2,15.5,6.9,18.7
		C190.1,253.3,198.5,250.2,201.7,243.1"/>
	<path id="XMLID_68_" class="st0" d="M176.1,37c-3.3,7.1-0.2,15.5,6.9,18.7c1.1,0.5,2.3,0.9,3.4,1.1c0.6,1.4,1.4,3.2,2.4,5.4
		c0,0,0.2,0.4,0.3,0.4c0.1,0,1.3-2.9,2.8-5.9c4.2-0.9,7.8-3.7,9.8-7.9c3.3-7.1,0.2-15.5-6.9-18.7C187.7,26.8,179.3,29.9,176.1,37"/>
	<path id="XMLID_67_" class="st0" d="M279.8,71.4c-7.7,1.3-12.9,8.5-11.7,16.2c0.2,1.2,0.5,2.4,1,3.4c-0.8,1.3-1.9,3-3.1,5
		c0,0-0.2,0.4-0.1,0.5c0,0.1,3.1-0.5,6.5-1c3.1,2.9,7.5,4.4,12,3.7c7.7-1.3,12.9-8.5,11.7-16.2C294.8,75.4,287.5,70.2,279.8,71.4"/>
	<path id="XMLID_66_" class="st0" d="M98.5,71.4c7.7,1.3,12.9,8.5,11.7,16.2c-0.2,1.2-0.5,2.4-1,3.4c0.8,1.3,1.9,3,3.1,5
		c0,0,0.2,0.4,0.1,0.5c0,0.1-3.1-0.5-6.5-1c-3.1,2.9-7.5,4.4-12,3.7c-7.7-1.3-12.9-8.5-11.7-16.2C83.6,75.4,90.8,70.2,98.5,71.4"/>
	<path id="XMLID_65_" class="st0" d="M293.3,178.2c-4.8-6.1-13.7-7.2-19.8-2.3c-1,0.8-1.8,1.6-2.5,2.6c-1.6-0.1-3.5-0.2-5.9-0.3
		c0,0-0.5,0-0.5,0.1c0,0.1,1.9,2.5,4,5.2c-1.1,4.1-0.3,8.7,2.6,12.3c4.8,6.1,13.7,7.2,19.8,2.3C297.1,193.3,298.2,184.4,293.3,178.2
		"/>
	<path id="XMLID_64_" class="st0" d="M85.7,178.2c4.8-6.1,13.7-7.2,19.8-2.3c1,0.8,1.8,1.6,2.5,2.6c1.6-0.1,3.5-0.2,5.9-0.3
		c0,0,0.5,0,0.5,0.1c0,0.1-1.9,2.5-4,5.2c1.1,4.1,0.3,8.7-2.6,12.3c-4.8,6.1-13.7,7.2-19.8,2.3C82,193.3,80.9,184.4,85.7,178.2"/>
	<path id="XMLID_61_" class="st6" d="M192.2,46.8c-4.8,0-8.7-2.8-8.7-6.4c0-0.5,0.1-1.1,0.3-1.6c-2.7,0.8-4.7,2.6-4.7,4.8
		c0,1.4,0.8,2.5,2,3.5l-0.7,2.6c-0.1,0.3,0.1,0.3,0.3,0.2l3-1.5c0.9,0.3,2,0.4,3,0.4c2.4,0,4.5-0.8,5.9-2
		C192.4,46.8,192.3,46.8,192.2,46.8 M198.6,46.1c0.1,0.2-0.1,0.3-0.3,0.2l-2.9-1.5c-0.9,0.3-1.9,0.4-3,0.4c-4.1,0-7.3-2.3-7.3-5.1
		s3.3-5.1,7.3-5.1c4.1,0,7.3,2.3,7.3,5.1c0,1.4-0.8,2.5-1.9,3.4L198.6,46.1z"/>
	<path id="XMLID_60_" class="st6" d="M197.4,237.2c0-4.8-3.9-8.7-8.7-8.7c-4.8,0-8.7,3.9-8.7,8.7c0,3.7,2.3,6.8,5.5,8.1l2.2-5.5
		c-1-0.4-1.7-1.4-1.7-2.5c0-1.5,1.2-2.7,2.7-2.7c1.5,0,2.7,1.2,2.7,2.7c0,1.1-0.7,2.1-1.7,2.5l2.2,5.5
		C195.1,243.9,197.4,240.8,197.4,237.2"/>
	<path id="XMLID_59_" class="st6" d="M105.5,190.2v-8.7c0,0,0-0.9-0.8-0.9H89c0,0-0.8,0-0.8,0.9v8.7c0,0,0,0.9,0.8,0.9h3v2.8h1v-2.8
		h7.7v2.8h1v-2.8h3C104.7,191.1,105.5,191.1,105.5,190.2"/>
	<path id="XMLID_55_" class="st6" d="M92.2,79.2c0.6,0.6,2.3,0.6,3.5,0.5c-0.5-0.7-1.2-1.4-2.1-1.8c-0.6-0.3-1,0-1.3,0.5
		C92.2,78.6,92,78.9,92.2,79.2 M100.7,79.2c0.4-0.6-0.4-1.8-1.4-1.3c-0.9,0.4-1.5,1.1-2.1,1.8c0.5,0,1,0.1,1.4,0
		C99.2,79.6,100.3,79.6,100.7,79.2 M96.5,80.2c-0.2,0-0.4,0.1-0.7,0.1v3.3h-6.9v-2.7c0-0.4,0.3-0.8,0.8-0.8h3.1
		c-0.8-0.2-1.5-0.5-1.5-1.2c0-0.8,0.9-2.1,2.2-1.8c1.3,0.3,2.3,1.3,3,2.2c0.7-0.9,1.7-2.1,3.1-2.3c1.2-0.1,2.1,1,2,1.8
		c-0.1,0.7-0.8,1-1.6,1.2h3.1c0.4,0,0.8,0.3,0.8,0.8v2.7H97v-3.4C96.8,80.2,96.7,80.2,96.5,80.2L96.5,80.2L96.5,80.2L96.5,80.2
		L96.5,80.2C96.5,80.2,96.5,80.2,96.5,80.2"/>
	<path id="XMLID_54_" class="st6" d="M103.3,84.1v6.8c0,0.4-0.3,0.7-0.7,0.7h-5.6v-7.5H103.3z"/>
</g>
<polygon id="XMLID_51_" class="st7" points="96.5,80.1 96.5,80.1 96.5,80.2 96.5,80.2 96.5,80.2 96.5,80.1 "/>
<g id="XMLID_28_">
	<defs>
		<rect id="XMLID_29_" x="1" y="2.9" width="402.9" height="272.1"/>
	</defs>
	<clipPath id="XMLID_117_">
		<use xlink:href="#XMLID_29_"  style="overflow:visible;"/>
	</clipPath>
	<path id="XMLID_50_" class="st8" d="M95.9,84.1v7.5h-5.6c-0.4,0-0.7-0.3-0.7-0.7v-6.8H95.9z"/>
	<path id="XMLID_49_" class="st8" d="M282.7,80.7c-2.7-4.2-8.1-1.4-8.1,2.4c0,2.9,4.7,5.5,8.1,10.2c3.4-4.7,8.1-7.3,8.1-10.2
		C290.8,79.3,285.6,76.5,282.7,80.7"/>
	<path id="XMLID_36_" class="st8" d="M284.4,179.3c-0.6-0.2-1.3-0.3-2-0.3l0-2.2h0c0.9,0,1.7,0.1,2.5,0.3L284.4,179.3z M278.5,180.1
		l-1.1-1.9c0.8-0.4,1.6-0.8,2.4-1l0.6,2.1C279.7,179.5,279.1,179.8,278.5,180.1 M287.9,181.3c-0.5-0.5-1-0.9-1.6-1.2l1.1-1.9
		c0.8,0.4,1.4,1,2.1,1.6L287.9,181.3z M275.6,183l-1.9-1.1c0.4-0.8,1-1.4,1.6-2.1l1.5,1.5C276.4,181.9,276,182.4,275.6,183
		 M290,184.8c-0.2-0.7-0.4-1.3-0.8-1.9l1.9-1.1c0.4,0.8,0.8,1.6,1,2.4L290,184.8z M272.4,186.9L272.4,186.9c0-0.9,0.1-1.7,0.3-2.6
		l2.1,0.6c-0.2,0.7-0.3,1.3-0.3,2L272.4,186.9z M292,189.5l-2.1-0.6c0.2-0.7,0.3-1.3,0.3-2l1.7,0l0.5,0
		C292.4,187.8,292.3,188.6,292,189.5 M273.8,191.9c-0.4-0.8-0.8-1.6-1-2.4l2.1-0.6c0.2,0.7,0.4,1.3,0.8,1.9L273.8,191.9z
		 M289.5,193.9l-1.5-1.5c0.5-0.5,0.9-1,1.2-1.6l1.9,1.1C290.6,192.6,290.1,193.3,289.5,193.9 M277.4,195.5c-0.8-0.4-1.4-1-2.1-1.6
		l1.5-1.5c0.5,0.5,1,0.9,1.6,1.2L277.4,195.5z M285,196.5l-0.6-2.1c0.7-0.2,1.3-0.4,1.9-0.8l1.1,1.9
		C286.6,196,285.8,196.3,285,196.5 M282.4,196.9L282.4,196.9c-0.9,0-1.7-0.1-2.6-0.3l0.6-2.1c0.7,0.2,1.3,0.3,2,0.3L282.4,196.9z"/>
	<path id="XMLID_35_" class="st9" d="M202.5,142.9C202.5,142.9,202.5,142.9,202.5,142.9c-0.1-0.1-0.2-0.3-0.3-0.6
		c-0.6-1.8-2-4.4-3.2-6.1c-0.9-1.2-3-3.4-4.4-4.6c-2.1-1.7-4.7-3.4-8.6-5.7c-3-1.8-5.6-3.6-7.7-5.4c-2.4-2-3.6-3.5-4.7-5.5
		c-1.6-2.9-2.5-5.6-2.6-7.5c0-0.4,0-0.6,0-0.7c0.1-0.1,0.2,0.1,0.4,0.5c0.8,1.4,2.1,3,3.4,4.1c2.3,2.1,5,3.9,8.6,5.8
		c2.9,1.5,7.3,3.8,8.6,4.6c3.3,1.9,6.7,4.6,9.3,7.3c0.5,0.6,1.6,1.8,1.8,1.9c0,0,0,0,0,0c0,0.1-0.2,0.2-0.5,0.4
		c-1,0.6-1.9,1.4-2.4,2c0,0.1-0.1,0.1-0.1,0.1c0,0,0.2-0.1,0.3-0.3c0.7-0.6,1.6-1.2,2.6-1.7l0.4-0.2l0,0l0.5,0.7
		c0.8,1,1.3,1.7,1.6,2.3c0.1,0.3,0.3,0.6,0.3,0.6c0,0-0.1,0.1-0.2,0.1c-0.4,0.1-1.5,0.7-2,1.1c-0.5,0.4-0.9,0.8-0.9,0.9c0,0,0,0,0,0
		h0c0,0,0.2-0.1,0.5-0.1c0.7-0.3,1.5-0.4,2.3-0.4c0.4,0,0.8,0,1.1,0.1c0.4,0.1,1.2,0.4,1.2,0.5c0,0-0.4,0.2-0.6,0.3
		c-1,0.5-2.2,1.4-3,2.1c-0.9,0.9-1.5,1.8-1.8,2.7C202.7,142.7,202.6,142.9,202.5,142.9"/>
	<path id="XMLID_34_" class="st9" d="M202.2,153.6l-1.5-3.5c0.2-4.7-1.3-8.7-2.7-11.2c-0.8-1.3-1.7-2.6-2.7-3.7
		c-1.3-1.5-2.9-2.9-4.8-4.3c-1.4-1-3.5-2.4-5.2-3.3c0,0-2.7-1.6-5.1-3.4c-3-2.1-5-4.5-5.9-5.7c-0.9-1.2-1.8-2.8-2.5-4.4
		c-0.9-2-1.4-4-1.6-5.8l0,0c0,0,0.6,3.8,2.9,7.6c1.1,1.7,2.5,3.5,4.4,5.2l0,0c0,0,2.2,1.9,3.9,3.1c0.2,0.1,0.7,0.5,0.7,0.5
		c0.9,0.6,2.1,1.4,2.6,1.6c0,0,4.1,2.4,7.7,5.1c1.8,1.4,3.6,3,4.7,4.4c0,0,1,1.1,2,3c1,1.8,2.2,4.7,2.7,8.3L202.2,153.6L202.2,153.6
		z"/>
	<path id="XMLID_33_" class="st9" d="M200.5,146.1L200.5,146.1c0,0-0.2-0.2-0.4-0.5l0,0c-1-1.6-2.7-3.2-4.3-3.9
		c-0.5-0.2-1.5-0.5-2.1-0.6c-0.2,0-0.5,0-0.9,0c-0.1,0-0.3,0-0.4,0l-0.8,0v0l0-0.5c0-1-0.6-2-1.4-2.9l-0.2-0.2l0,0l0.2-0.1
		c0.5-0.2,1.3-0.4,2.1-0.5c0.5,0,0.6-0.1,0.6-0.1c0,0-0.1,0-0.9-0.1c-0.1,0-0.1,0-0.2,0c-0.6,0-1.2,0.1-1.9,0.3l-0.5,0.1l0,0
		l-0.5-0.4c-0.6-0.4-1.7-1-2.6-1.5c-0.2-0.1-0.7-0.4-0.7-0.4c0-0.1,1.2-0.4,2-0.5c0.9-0.2,1.9-0.2,2.8-0.2c0.5,0,1,0,1.3,0.1
		c0,0,0.1,0,0.1,0c0,0,0,0,0,0c0,0-0.3-0.1-0.7-0.1c-0.7-0.1-1.6-0.2-2.4-0.2c-1.3,0-2.6,0.1-3.8,0.4l-0.6,0.1v0l-1.2-0.6
		c-3.3-1.8-4.9-2.8-7-4.4c-1-0.8-3.4-3-4.1-3.8c-0.5-0.6-1.3-1.5-1.3-1.6c0,0-0.2-0.3-0.5-0.7c-1.7-2.6-2.6-5.2-2.7-8.1
		c-0.1-2.2,0.2-4.1,1-6.2c0.4-1,1.4-3,1.6-3c0,0,0.1,1.3,0.1,1.3c0,1,0.1,1.5,0.2,2.2c0.5,2.7,1.7,5.4,3.3,8.1
		c0.5,0.8,1.4,2,1.9,2.7c1.5,1.9,5.9,5.3,9.9,7.7c2.9,1.8,3.8,2.4,5.8,3.8c1.6,1.2,2.9,2.4,4.1,3.9c1.1,1.3,2.1,2.8,2.9,4.4
		c0.8,1.6,1.4,3.2,1.7,4.8C200.5,145.7,200.5,146.1,200.5,146.1C200.5,146.1,200.5,146.1,200.5,146.1"/>
	<path id="XMLID_32_" class="st9" d="M201,153.8L201,153.8c-1.7-0.1-5.2-0.4-9.5-1.1c-5.1-0.9-9.7-2.1-13.7-3.6
		c-1.6-0.6-4-1.6-6-2.9c-2.5-1.5-3.9-3-4.1-4.3c-0.1-0.8,0.2-1.4,1-2c1.1-0.8,2.8-1.3,5.4-1.6c0,0,3.2-0.2,5.7-0.5
		c1.3-0.1,2.3-0.3,3-0.5c0.1,0,0.3-0.1,0.5-0.2c0.2-0.1,0.3-0.2,0.3-0.3c0-0.1,0-0.2-0.1-0.3c-1.2-1-4-1.7-6.7-2.5
		c-0.2-0.1-0.3-0.1-0.5-0.1c-2.8-0.8-6.2-1.6-8.2-2.1c-0.7-0.2-1.3-0.3-1.6-0.4l0,0c0,0,3.9,0.6,8,1.4c2.4,0.5,4.5,1.1,6.1,1.6
		c2,0.7,3.4,1.4,4,2c0.2,0.2,0.2,0.4,0.2,0.6c-0.1,0.3-0.4,0.5-0.9,0.7c0,0,0,0,0,0c0,0,0,0,0,0c-1.4,0.5-4.1,1-7.9,1.4
		c0,0-1.4,0.1-2.9,0.4c-1.3,0.3-2.9,0.9-2.9,1.9c0,1.1,1.3,2.4,3.7,3.8c2.4,1.4,5.8,2.8,9.5,3.8c4.8,1.4,10.3,2.1,16.2,2.1h0v0
		L201,153.8z"/>
	<path id="XMLID_31_" class="st9" d="M214.3,149.2c-0.8,0-1.4-0.6-1.4-1.3c0-0.8,0.6-1.4,1.3-1.4c0,0,0,0,0.1,0
		c0.8,0,1.4,0.6,1.4,1.3c0,0.4-0.1,0.7-0.4,1C215,149,214.7,149.2,214.3,149.2C214.3,149.2,214.3,149.2,214.3,149.2"/>
	<path id="XMLID_30_" class="st9" d="M200.1,165.4c-0.3,0-0.6,0-0.9,0c-3.3-0.1-6.8-0.8-10.1-2c-4.4-1.6-7.3-3-10.5-4.9
		c-3.2-1.9-6.9-3.8-9.5-4.9c-2.7-1.1-5.1-2-7.4-2.5c-2.3-0.6-4.4-0.8-6.3-0.8c-0.2,0-0.5,0-0.7,0c-1.7,0.1-3.1,0.3-4.3,0.8
		c-0.2,0.1-0.4,0.1-0.4,0.1c0,0,0,0,0,0c0,0,0,0,0,0c0-0.1,0.3-0.4,0.7-0.7c1.2-0.9,3.1-1.6,5.3-1.9c0.7-0.1,1.6-0.1,2.7-0.1
		c1.4,0,2.8,0.1,3.7,0.2c2.4,0.4,5.7,1.4,9.7,3c1.5,0.6,4.9,2.1,6.2,2.8c1.5,0.7,3.3,1.5,4.6,2c2,0.8,6.6,2.3,8.4,2.8
		c1.9,0.5,4,0.8,6.3,0.9c0.2,0,0.4,0,0.7,0c1.8,0,4.4-0.2,5.3-0.4c1.5-0.3,2-0.5,3.3-0.9c2-0.7,3.4-1.4,6-3.1
		c2.3-1.5,3.3-2.2,4.9-3.7c0.6-0.6,0.9-0.8,1.6-1.3c0.6-0.4,1.3-0.7,1.9-0.9l0.4-0.1l-0.2-0.2c-1.1-0.6-2-1.6-2.8-2.8
		c-0.4-0.7-1.3-1.5-2-1.8c-0.9-0.5-1.6-0.7-2.6-0.7c-0.1,0-0.3,0-0.4,0c-1.4,0.1-2.5,0.4-4.1,1.2c-0.5,0.3-0.8,0.4-0.9,0.4
		c0,0,0,0,0,0c0-0.1,0.2-0.3,0.8-0.8c0.4-0.4,0.9-0.8,1.2-1c0.7-0.5,1.9-1.1,2.6-1.3c0.6-0.2,0.8-0.2,1.7-0.2c0.3,0,0.6,0,0.7,0
		c0.4,0,0.6,0,0.9,0.1c1.5,0.4,2.6,1.1,3.9,2.6c1.7,1.9,3.4,3.3,4.5,3.6c0.1,0,0.4,0.1,0.4,0.1c0,0-0.3,0.2-0.5,0.3
		c-0.8,0.4-2.4,1.4-3.2,1.9c-1.7,1.3-3.2,2.9-4.7,5c-1.4,2-3.5,4.1-5.6,5.5c-2.9,1.9-6,3.1-9.5,3.7
		C201.1,165.3,200.8,165.4,200.1,165.4"/>
</g>
</svg>
