<?xml version="1.0" encoding="utf-8"?>
<svg version="1.1" id="Ebene_1" xmlns="http://www.w3.org/2000/svg" xmlns:xlink="http://www.w3.org/1999/xlink" x="0px" y="0px"
	 viewBox="148 -89 395.3 278" style="enable-background:new 148 -89 395.3 278;" xml:space="preserve">
<style type="text/css">
	@font-face {
  font-family: 'Open Sans';
  font-style: normal;
  font-weight: 700;
  src: local('Open Sans Bold'), local('OpenSans-Bold'), url(https://fonts.gstatic.com/s/opensans/v13/k3k702ZOKiLJc3WVjuplzBampu5_7CjHW5spxoeN3Vs.woff2) format('woff2');
  unicode-range: U+0000-00FF, U+0131, U+0152-0153, U+02C6, U+02DA, U+02DC, U+2000-206F, U+2074, U+20AC, U+2212, U+2215;
}
	.st0{fill:#EBF5FA;}
	.st1{fill:#007DC2;}
	.st2{font-family:'Open Sans';font-weight: 700;}
	.st3{font-size:13px;}
	.st4{fill:#FFFFFF;}
	.st5{clip-path:url(#SVGID_2_);fill:#067EC2;}
</style>
<path id="XMLID_100_" class="st0" d="M282.9,51.4c0,29.6,24,53.6,53.6,53.6s53.6-24,53.6-53.6s-24-53.6-53.6-53.6
	C306.9-2.2,282.9,21.8,282.9,51.4"/>
<text transform="matrix(1 0 0 1 255.4443 -69.1826)" class="st1 st2 st3">dem</text>
<text transform="matrix(1 0 0 1 284.1443 -69.1826)" class="st1 st2 st3">okr</text>
<text transform="matrix(1 0 0 1 306.1443 -69.1826)" class="st1 st2 st3">a</text>
<text transform="matrix(1 0 0 1 314.0443 -69.1826)" class="st1 st2 st3">tisch</text>
<text transform="matrix(1 0 0 1 345.3443 -69.1826)" class="st1 st2 st3"> </text>
<text transform="matrix(1 0 0 1 348.7443 -69.1826)" class="st1 st2 st3">or</text>
<text transform="matrix(1 0 0 1 362.6443 -69.1826)" class="st1 st2 st3">ga</text>
<text transform="matrix(1 0 0 1 377.9443 -69.1826)" class="st1 st2 st3">nisi</text>
<text transform="matrix(1 0 0 1 400.8443 -69.1826)" class="st1 st2 st3">e</text>
<text transform="matrix(1 0 0 1 408.5443 -69.1826)" class="st1 st2 st3">rt</text>
<text transform="matrix(1 0 0 1 452.9668 103.4053)" class="st1 st2 st3">tr</text>
<text transform="matrix(1 0 0 1 464.4668 103.4053)" class="st1 st2 st3">a</text>
<text transform="matrix(1 0 0 1 472.3668 103.4053)" class="st1 st2 st3">ns</text>
<text transform="matrix(1 0 0 1 487.3668 103.4053)" class="st1 st2 st3">pa</text>
<text transform="matrix(1 0 0 1 503.4668 103.4053)" class="st1 st2 st3">r</text>
<text transform="matrix(1 0 0 1 509.3668 103.4053)" class="st1 st2 st3">e</text>
<text transform="matrix(1 0 0 1 517.0668 103.4053)" class="st1 st2 st3">nt</text>
<text transform="matrix(1 0 0 1 292.1045 181.1846)" class="st1 st2 st3">fr</text>
<text transform="matrix(1 0 0 1 303.0045 181.1846)" class="st1 st2 st3">e</text>
<text transform="matrix(1 0 0 1 310.7045 181.1846)" class="st1 st2 st3">i</text>
<text transform="matrix(1 0 0 1 314.7045 181.1846)" class="st1 st2 st3"> </text>
<text transform="matrix(1 0 0 1 318.1045 181.1846)" class="st1 st2 st3">li</text>
<text transform="matrix(1 0 0 1 326.0045 181.1846)" class="st1 st2 st3">ze</text>
<text transform="matrix(1 0 0 1 340.1045 181.1846)" class="st1 st2 st3">n</text>
<text transform="matrix(1 0 0 1 348.6045 181.1846)" class="st1 st2 st3">z</text>
<text transform="matrix(1 0 0 1 355.0045 181.1846)" class="st1 st2 st3">i</text>
<text transform="matrix(1 0 0 1 358.9045 181.1846)" class="st1 st2 st3">e</text>
<text transform="matrix(1 0 0 1 366.6045 181.1846)" class="st1 st2 st3">rt</text>
<text transform="matrix(1 0 0 1 158.1523 -0.8809)" class="st1 st2 st3">kost</text>
<text transform="matrix(1 0 0 1 186.3523 -0.8809)" class="st1 st2 st3">e</text>
<text transform="matrix(1 0 0 1 194.0523 -0.8809)" class="st1 st2 st3">nlos</text>
<text transform="matrix(1 0 0 1 158.0615 103.2881)" class="st1 st2 st3">we</text>
<text transform="matrix(1 0 0 1 176.8615 103.2881)" class="st1 st2 st3">r</text>
<text transform="matrix(1 0 0 1 182.7615 103.2881)" class="st1 st2 st3">be</text>
<text transform="matrix(1 0 0 1 198.7615 103.2881)" class="st1 st2 st3">fr</text>
<text transform="matrix(1 0 0 1 209.6615 103.2881)" class="st1 st2 st3">e</text>
<text transform="matrix(1 0 0 1 217.3615 103.2881)" class="st1 st2 st3">i</text>
<path id="XMLID_69_" class="st1" d="M349.7,154.1c3.3-7.1,0.2-15.5-6.9-18.7c-1.1-0.5-2.3-0.9-3.4-1.1c-0.6-1.4-1.4-3.2-2.4-5.4
	c0,0-0.2-0.4-0.3-0.4s-1.3,2.9-2.8,5.9c-4.2,0.9-7.8,3.7-9.8,7.9c-3.3,7.1-0.2,15.5,6.9,18.7C338.1,164.3,346.5,161.2,349.7,154.1"
	/>
<path id="XMLID_68_" class="st1" d="M324.1-52c-3.3,7.1-0.2,15.5,6.9,18.7c1.1,0.5,2.3,0.9,3.4,1.1c0.6,1.4,1.4,3.2,2.4,5.4
	c0,0,0.2,0.4,0.3,0.4c0.1,0,1.3-2.9,2.8-5.9c4.2-0.9,7.8-3.7,9.8-7.9c3.3-7.1,0.2-15.5-6.9-18.7C335.7-62.2,327.3-59.1,324.1-52"/>
<path id="XMLID_67_" class="st1" d="M427.8-17.6c-7.7,1.3-12.9,8.5-11.7,16.2c0.2,1.2,0.5,2.4,1,3.4c-0.8,1.3-1.9,3-3.1,5
	c0,0-0.2,0.4-0.1,0.5c0,0.1,3.1-0.5,6.5-1c3.1,2.9,7.5,4.4,12,3.7c7.7-1.3,12.9-8.5,11.7-16.2C442.8-13.6,435.5-18.8,427.8-17.6"/>
<path id="XMLID_66_" class="st1" d="M246.5-17.6c7.7,1.3,12.9,8.5,11.7,16.2c-0.2,1.2-0.5,2.4-1,3.4c0.8,1.3,1.9,3,3.1,5
	c0,0,0.2,0.4,0.1,0.5c0,0.1-3.1-0.5-6.5-1c-3.1,2.9-7.5,4.4-12,3.7C234.2,8.9,229,1.7,230.2-6C231.6-13.6,238.8-18.8,246.5-17.6"/>
<path id="XMLID_65_" class="st1" d="M441.3,89.2c-4.8-6.1-13.7-7.2-19.8-2.3c-1,0.8-1.8,1.6-2.5,2.6c-1.6-0.1-3.5-0.2-5.9-0.3
	c0,0-0.5,0-0.5,0.1s1.9,2.5,4,5.2c-1.1,4.1-0.3,8.7,2.6,12.3c4.8,6.1,13.7,7.2,19.8,2.3C445.1,104.3,446.2,95.4,441.3,89.2"/>
<path id="XMLID_64_" class="st1" d="M233.7,89.2c4.8-6.1,13.7-7.2,19.8-2.3c1,0.8,1.8,1.6,2.5,2.6c1.6-0.1,3.5-0.2,5.9-0.3
	c0,0,0.5,0,0.5,0.1s-1.9,2.5-4,5.2c1.1,4.1,0.3,8.7-2.6,12.3c-4.8,6.1-13.7,7.2-19.8,2.3C230,104.3,228.9,95.4,233.7,89.2"/>
<path id="XMLID_61_" class="st4" d="M340.2-42.2c-4.8,0-8.7-2.8-8.7-6.4c0-0.5,0.1-1.1,0.3-1.6c-2.7,0.8-4.7,2.6-4.7,4.8
	c0,1.4,0.8,2.5,2,3.5l-0.7,2.6c-0.1,0.3,0.1,0.3,0.3,0.2l3-1.5c0.9,0.3,2,0.4,3,0.4c2.4,0,4.5-0.8,5.9-2
	C340.4-42.2,340.3-42.2,340.2-42.2 M346.6-42.9c0.1,0.2-0.1,0.3-0.3,0.2l-2.9-1.5c-0.9,0.3-1.9,0.4-3,0.4c-4.1,0-7.3-2.3-7.3-5.1
	s3.3-5.1,7.3-5.1c4.1,0,7.3,2.3,7.3,5.1c0,1.4-0.8,2.5-1.9,3.4L346.6-42.9z"/>
<path id="XMLID_60_" class="st4" d="M345.4,148.2c0-4.8-3.9-8.7-8.7-8.7c-4.8,0-8.7,3.9-8.7,8.7c0,3.7,2.3,6.8,5.5,8.1l2.2-5.5
	c-1-0.4-1.7-1.4-1.7-2.5c0-1.5,1.2-2.7,2.7-2.7s2.7,1.2,2.7,2.7c0,1.1-0.7,2.1-1.7,2.5l2.2,5.5C343.1,154.9,345.4,151.8,345.4,148.2
	"/>
<path id="XMLID_59_" class="st4" d="M253.5,101.2v-8.7c0,0,0-0.9-0.8-0.9H237c0,0-0.8,0-0.8,0.9v8.7c0,0,0,0.9,0.8,0.9h3v2.8h1v-2.8
	h7.7v2.8h1v-2.8h3C252.7,102.1,253.5,102.1,253.5,101.2"/>
<path id="XMLID_55_" class="st4" d="M240.2-9.8c0.6,0.6,2.3,0.6,3.5,0.5c-0.5-0.7-1.2-1.4-2.1-1.8c-0.6-0.3-1,0-1.3,0.5
	C240.2-10.4,240-10.1,240.2-9.8 M248.7-9.8c0.4-0.6-0.4-1.8-1.4-1.3c-0.9,0.4-1.5,1.1-2.1,1.8c0.5,0,1,0.1,1.4,0
	C247.2-9.4,248.3-9.4,248.7-9.8 M244.5-8.8c-0.2,0-0.4,0.1-0.7,0.1v3.3h-6.9v-2.7c0-0.4,0.3-0.8,0.8-0.8h3.1
	c-0.8-0.2-1.5-0.5-1.5-1.2c0-0.8,0.9-2.1,2.2-1.8c1.3,0.3,2.3,1.3,3,2.2c0.7-0.9,1.7-2.1,3.1-2.3c1.2-0.1,2.1,1,2,1.8
	c-0.1,0.7-0.8,1-1.6,1.2h3.1c0.4,0,0.8,0.3,0.8,0.8v2.7H245v-3.4C244.8-8.8,244.7-8.8,244.5-8.8L244.5-8.8L244.5-8.8L244.5-8.8
	L244.5-8.8L244.5-8.8"/>
<path id="XMLID_54_" class="st4" d="M251.3-4.9v6.8c0,0.4-0.3,0.7-0.7,0.7H245v-7.5H251.3z"/>
<polygon id="XMLID_51_" class="st4" points="244.5,-8.9 244.5,-8.9 244.5,-8.8 244.5,-8.8 244.5,-8.8 "/>
<g id="XMLID_28_">
	<path id="XMLID_50_" class="st4" d="M243.9-4.9v7.5h-5.6c-0.4,0-0.7-0.3-0.7-0.7v-6.8H243.9z"/>
	<path id="XMLID_49_" class="st4" d="M430.7-8.3c-2.7-4.2-8.1-1.4-8.1,2.4c0,2.9,4.7,5.5,8.1,10.2c3.4-4.7,8.1-7.3,8.1-10.2
		C438.8-9.7,433.6-12.5,430.7-8.3"/>
	<path id="XMLID_36_" class="st4" d="M432.4,90.3c-0.6-0.2-1.3-0.3-2-0.3v-2.2l0,0c0.9,0,1.7,0.1,2.5,0.3L432.4,90.3z M426.5,91.1
		l-1.1-1.9c0.8-0.4,1.6-0.8,2.4-1l0.6,2.1C427.7,90.5,427.1,90.8,426.5,91.1 M435.9,92.3c-0.5-0.5-1-0.9-1.6-1.2l1.1-1.9
		c0.8,0.4,1.4,1,2.1,1.6L435.9,92.3z M423.6,94l-1.9-1.1c0.4-0.8,1-1.4,1.6-2.1l1.5,1.5C424.4,92.9,424,93.4,423.6,94 M438,95.8
		c-0.2-0.7-0.4-1.3-0.8-1.9l1.9-1.1c0.4,0.8,0.8,1.6,1,2.4L438,95.8z M420.4,97.9L420.4,97.9c0-0.9,0.1-1.7,0.3-2.6l2.1,0.6
		c-0.2,0.7-0.3,1.3-0.3,2H420.4z M440,100.5l-2.1-0.6c0.2-0.7,0.3-1.3,0.3-2h1.7h0.5C440.4,98.8,440.3,99.6,440,100.5 M421.8,102.9
		c-0.4-0.8-0.8-1.6-1-2.4l2.1-0.6c0.2,0.7,0.4,1.3,0.8,1.9L421.8,102.9z M437.5,104.9l-1.5-1.5c0.5-0.5,0.9-1,1.2-1.6l1.9,1.1
		C438.6,103.6,438.1,104.3,437.5,104.9 M425.4,106.5c-0.8-0.4-1.4-1-2.1-1.6l1.5-1.5c0.5,0.5,1,0.9,1.6,1.2L425.4,106.5z M433,107.5
		l-0.6-2.1c0.7-0.2,1.3-0.4,1.9-0.8l1.1,1.9C434.6,107,433.8,107.3,433,107.5 M430.4,107.9L430.4,107.9c-0.9,0-1.7-0.1-2.6-0.3
		l0.6-2.1c0.7,0.2,1.3,0.3,2,0.3V107.9z"/>
</g>
<text id="XMLID_2_" transform="matrix(1 0 0 1 452.2168 -0.5947)" class="st1 st2 st3">non-profit</text>
<g>
	<defs>
		<rect id="SVGID_1_" x="297.9" y="16.9" width="75.6" height="59.6"/>
	</defs>
	<clipPath id="SVGID_2_">
		<use xlink:href="#SVGID_1_"  style="overflow:visible;"/>
	</clipPath>
	<path class="st5" d="M350.7,54C350.7,54,350.6,54,350.7,54c-0.1-0.1-0.2-0.3-0.3-0.6c-0.6-1.8-2-4.4-3.2-6.1
		c-0.9-1.2-3-3.4-4.5-4.6c-2.1-1.7-4.8-3.4-8.7-5.7c-3-1.8-5.6-3.6-7.8-5.4c-2.4-2.1-3.6-3.5-4.7-5.5c-1.6-2.9-2.6-5.6-2.6-7.5
		c0-0.4,0-0.6,0-0.7c0.1-0.1,0.2,0.1,0.4,0.5c0.8,1.4,2.1,3,3.4,4.1c2.4,2.1,5,3.9,8.7,5.8c2.9,1.5,7.3,3.8,8.6,4.6
		c3.3,2,6.7,4.6,9.3,7.3c0.5,0.6,1.6,1.8,1.8,2c0,0,0,0,0,0c0,0.1-0.2,0.2-0.5,0.4c-1,0.6-1.9,1.4-2.4,2.1c0,0.1-0.1,0.1-0.1,0.1
		c0,0,0.2-0.1,0.3-0.3c0.7-0.6,1.6-1.2,2.6-1.7l0.4-0.2l0,0l0.5,0.7c0.8,1,1.3,1.7,1.6,2.3c0.1,0.3,0.3,0.6,0.3,0.6
		c0,0-0.1,0.1-0.2,0.1c-0.4,0.1-1.5,0.7-2,1.1c-0.5,0.4-0.9,0.8-0.9,0.9c0,0,0,0,0,0h0c0,0,0.2-0.1,0.5-0.1c0.7-0.3,1.5-0.4,2.3-0.4
		c0.4,0,0.8,0,1.1,0.1c0.4,0.1,1.2,0.4,1.3,0.5c0,0-0.4,0.2-0.6,0.3c-1,0.5-2.2,1.4-3,2.1c-0.9,0.9-1.5,1.9-1.8,2.7
		C350.8,53.9,350.7,54,350.7,54"/>
	<path class="st5" d="M350.4,64.8l-1.5-3.5c0.2-4.7-1.3-8.7-2.7-11.2c-0.8-1.3-1.7-2.6-2.7-3.7c-1.3-1.5-2.9-3-4.8-4.3
		c-1.4-1-3.5-2.4-5.2-3.3c0,0-2.7-1.6-5.2-3.4c-3-2.1-5-4.5-5.9-5.7c-0.9-1.2-1.8-2.8-2.6-4.5c-0.9-2-1.4-4-1.6-5.8l0,0
		c0,0,0.6,3.8,2.9,7.6c1.1,1.7,2.5,3.5,4.4,5.2l0,0c0,0,2.2,1.9,3.9,3.1c0.2,0.1,0.7,0.5,0.7,0.5c0.9,0.6,2.1,1.4,2.6,1.7
		c0,0,4.1,2.4,7.7,5.2c1.8,1.4,3.6,3.1,4.8,4.4c0,0,1,1.1,2,3c1,1.8,2.2,4.7,2.7,8.3L350.4,64.8L350.4,64.8z"/>
	<path class="st5" d="M348.6,57.2L348.6,57.2c0,0-0.2-0.2-0.4-0.5l0,0c-1-1.6-2.8-3.2-4.3-3.9c-0.5-0.2-1.5-0.5-2.1-0.6
		c-0.2,0-0.5,0-0.9,0c-0.1,0-0.3,0-0.4,0l-0.8,0v0l0-0.5c0-1-0.6-2-1.4-2.9l-0.2-0.2l0,0l0.2-0.1c0.5-0.2,1.3-0.4,2.1-0.5
		c0.6,0,0.6-0.1,0.6-0.1c0,0-0.1,0-0.9-0.1c-0.1,0-0.1,0-0.2,0c-0.6,0-1.2,0.1-2,0.3l-0.5,0.1h0l-0.5-0.4c-0.6-0.4-1.7-1.1-2.6-1.5
		c-0.2-0.1-0.7-0.4-0.7-0.4c0-0.1,1.2-0.4,2-0.5c0.9-0.2,1.9-0.2,2.8-0.2c0.5,0,1,0,1.3,0.1c0,0,0.1,0,0.1,0c0,0,0,0,0,0
		c0,0-0.3-0.1-0.7-0.1c-0.7-0.1-1.6-0.2-2.4-0.2c-1.3,0-2.6,0.1-3.8,0.4l-0.6,0.1v0l-1.2-0.6c-3.4-1.8-4.9-2.8-7.1-4.4
		c-1-0.8-3.4-3-4.1-3.8c-0.5-0.6-1.3-1.5-1.3-1.6c0,0-0.2-0.3-0.5-0.7c-1.7-2.6-2.6-5.3-2.7-8.1c-0.1-2.2,0.2-4.1,1-6.3
		c0.4-1,1.4-3,1.6-3c0,0,0.1,1.3,0.1,1.3c0,1,0.1,1.5,0.2,2.2c0.5,2.7,1.7,5.4,3.4,8.1c0.5,0.8,1.4,2,1.9,2.7
		c1.5,1.9,5.9,5.3,10,7.7c2.9,1.8,3.9,2.4,5.8,3.8c1.6,1.2,3,2.4,4.2,3.9c1.1,1.3,2.1,2.8,2.9,4.4c0.8,1.6,1.4,3.3,1.7,4.8
		C348.6,56.8,348.7,57.2,348.6,57.2C348.6,57.2,348.6,57.2,348.6,57.2"/>
	<path class="st5" d="M349.1,65L349.1,65c-1.7-0.1-5.3-0.4-9.5-1.1c-5.1-0.9-9.7-2.1-13.8-3.6c-1.6-0.6-4-1.6-6.1-2.9
		c-2.5-1.5-3.9-3-4.1-4.3c-0.1-0.8,0.2-1.4,1-2c1.1-0.8,2.8-1.3,5.4-1.6c0,0,3.3-0.2,5.7-0.5c1.3-0.1,2.3-0.3,3-0.5
		c0.1,0,0.3-0.1,0.5-0.2c0.2-0.1,0.3-0.2,0.3-0.3c0-0.1,0-0.2-0.1-0.3c-1.2-1-4-1.7-6.7-2.5c-0.2-0.1-0.3-0.1-0.5-0.1
		c-2.8-0.8-6.2-1.6-8.2-2.1c-0.7-0.2-1.3-0.3-1.6-0.4l0,0c0,0,3.9,0.6,8,1.4c2.4,0.5,4.5,1.1,6.1,1.6c2,0.7,3.4,1.4,4,2
		c0.2,0.2,0.2,0.4,0.2,0.6c-0.1,0.3-0.4,0.5-0.9,0.7c0,0,0,0,0,0c0,0,0,0,0,0c-1.5,0.5-4.1,1-7.9,1.4c0,0-1.4,0.1-2.9,0.4
		c-1.3,0.3-2.9,0.9-2.9,1.9c0,1.1,1.3,2.4,3.7,3.8c2.4,1.4,5.8,2.8,9.5,3.8c4.9,1.4,10.3,2.1,16.3,2.2h0v0L349.1,65z"/>
	<path class="st5" d="M362.4,60.3c-0.8,0-1.4-0.6-1.4-1.3c0-0.8,0.6-1.4,1.4-1.5c0,0,0,0,0.1,0c0.8,0,1.4,0.6,1.4,1.3
		c0,0.4-0.1,0.7-0.4,1C363.2,60.2,362.9,60.3,362.4,60.3C362.5,60.3,362.4,60.3,362.4,60.3"/>
	<path class="st5" d="M348.3,76.5c-0.3,0-0.6,0-0.9,0c-3.3-0.1-6.8-0.8-10.1-2c-4.4-1.6-7.3-3-10.5-4.9c-3.2-1.9-6.9-3.8-9.5-5
		c-2.7-1.1-5.2-2-7.4-2.5c-2.3-0.6-4.4-0.8-6.3-0.8c-0.2,0-0.5,0-0.7,0c-1.7,0.1-3.1,0.3-4.3,0.8c-0.2,0.1-0.4,0.1-0.4,0.1
		c0,0,0,0,0,0c0,0,0,0,0,0c0-0.1,0.3-0.4,0.7-0.7c1.2-0.9,3.1-1.6,5.3-1.9c0.7-0.1,1.6-0.1,2.8-0.1c1.5,0,2.9,0.1,3.8,0.2
		c2.4,0.4,5.7,1.4,9.7,3.1c1.5,0.6,4.9,2.2,6.3,2.8c1.5,0.7,3.3,1.5,4.6,2c2,0.8,6.7,2.3,8.5,2.8c1.9,0.5,4,0.8,6.3,0.9
		c0.2,0,0.4,0,0.7,0c1.8,0,4.4-0.2,5.3-0.4c1.5-0.3,2-0.5,3.3-0.9c2-0.7,3.4-1.4,6-3.1c2.3-1.5,3.3-2.3,4.9-3.8
		c0.6-0.6,0.9-0.8,1.6-1.3c0.6-0.4,1.3-0.7,1.9-0.9l0.4-0.1l-0.2-0.2c-1.1-0.6-2-1.6-2.8-2.8c-0.4-0.7-1.3-1.5-2-1.8
		c-0.9-0.5-1.6-0.7-2.6-0.7c-0.1,0-0.3,0-0.4,0c-1.4,0.1-2.5,0.4-4.2,1.3c-0.5,0.3-0.8,0.4-0.9,0.4c0,0,0,0,0,0
		c0-0.1,0.2-0.3,0.8-0.8c0.4-0.4,0.9-0.8,1.2-1c0.7-0.5,1.9-1.1,2.6-1.3c0.6-0.2,0.8-0.2,1.7-0.2c0.3,0,0.6,0,0.7,0
		c0.4,0,0.6,0,0.9,0.1c1.5,0.4,2.6,1.1,3.9,2.6c1.7,1.9,3.4,3.3,4.5,3.6c0.1,0,0.4,0.1,0.4,0.1c0,0-0.3,0.2-0.5,0.3
		c-0.8,0.4-2.4,1.4-3.2,2c-1.7,1.3-3.2,2.9-4.7,5c-1.4,2-3.5,4.1-5.6,5.5c-2.9,1.9-6,3.1-9.5,3.7C349.2,76.5,348.9,76.5,348.3,76.5z
		"/>
</g>
</svg>
