<?xml version="1.0" encoding="utf-8"?>
<!-- Generator: Adobe Illustrator 19.0.0, SVG Export Plug-In . SVG Version: 6.00 Build 0)  -->
<svg version="1.1" id="Layer_1" xmlns="http://www.w3.org/2000/svg" xmlns:xlink="http://www.w3.org/1999/xlink" x="0px" y="0px"
	 viewBox="20 8 139.2 86" style="enable-background:new 20 8 139.2 86;" xml:space="preserve">
<style type="text/css">
	.st0{fill:#FFFFFF;}
</style>
<g>
	<polygon class="st0" points="80,33 80,64.9 87,64.9 87,33.1 94.6,33.1 94.6,64.9 116.6,64.9 116.6,33.4 124.5,33.4 124.5,64.9 
		131.7,64.9 131.7,33.4 139.6,33.4 139.6,64.9 146.9,64.9 146.9,26.1 109.6,26.1 109.6,57.9 101.7,57.9 101.7,26.2 73.5,26.2 
		73.5,33 	"/>
	<g>
		<path class="st0" d="M68.5,90.4h-1.3v-10h-3.6v-1.1H72v1.1h-3.6C68.5,80.3,68.5,90.4,68.5,90.4z"/>
		<path class="st0" d="M82.2,79.2v7.2c0,1.3-0.4,2.3-1.1,3c-0.8,0.8-1.8,1.1-3.2,1.1s-2.4-0.4-3.1-1.1c-0.8-0.8-1.1-1.8-1.1-3v-7.2
			H75v7.3c0,0.9,0.2,1.7,0.8,2.1c0.5,0.5,1.3,0.8,2.3,0.8c0.9,0,1.7-0.2,2.2-0.8c0.5-0.5,0.8-1.2,0.8-2.2V79h1.3v0.2H82.2z"/>
		<path class="st0" d="M94.3,90.4l-3.8-10h-0.1c0.1,0.8,0.1,1.8,0.1,2.8v7.2h-1.2V79.2h2l3.6,9.3H95l3.6-9.3h2v11.2h-1.3v-7.2
			c0-0.8,0-1.8,0.1-2.7h-0.1l-3.8,10L94.3,90.4L94.3,90.4z"/>
		<path class="st0" d="M104.5,82v5.5c0,0.7,0.2,1.2,0.5,1.5s0.8,0.5,1.4,0.5c0.9,0,1.5-0.2,1.9-0.7s0.6-1.3,0.6-2.4V82h1.3v8.4h-1.1
			l-0.2-1.1h-0.1c-0.2,0.4-0.6,0.8-1.1,1s-1,0.3-1.6,0.3c-1,0-1.8-0.2-2.3-0.8c-0.5-0.5-0.8-1.3-0.8-2.4V82H104.5L104.5,82z
			 M104.5,79.7c0-0.2,0.1-0.5,0.2-0.6c0.2-0.2,0.3-0.2,0.5-0.2s0.4,0.1,0.5,0.2c0.2,0.2,0.2,0.3,0.2,0.6c0,0.2-0.1,0.5-0.2,0.6
			s-0.3,0.2-0.5,0.2s-0.4-0.1-0.5-0.2C104.7,80.2,104.5,79.9,104.5,79.7z M107.5,79.7c0-0.2,0.1-0.5,0.2-0.6
			c0.2-0.2,0.3-0.2,0.5-0.2s0.4,0.1,0.5,0.2c0.2,0.2,0.2,0.3,0.2,0.6c0,0.2-0.1,0.5-0.2,0.6s-0.3,0.2-0.5,0.2s-0.4-0.1-0.5-0.2
			C107.7,80.2,107.5,79.9,107.5,79.7z"/>
		<path class="st0" d="M118.7,90.4v-5.5c0-0.7-0.2-1.2-0.5-1.5s-0.8-0.5-1.4-0.5c-0.9,0-1.5,0.2-1.9,0.7s-0.6,1.3-0.6,2.4v4.4H113
			V82h1l0.2,1.1h0.1c0.2-0.4,0.6-0.8,1.1-1s1-0.3,1.6-0.3c1,0,1.8,0.2,2.3,0.8c0.5,0.5,0.8,1.3,0.8,2.4v5.5L118.7,90.4L118.7,90.4z"
			/>
		<path class="st0" d="M125.9,90.5c-1.2,0-2.1-0.4-2.8-1.1c-0.7-0.8-1-1.8-1-3.2c0-1.4,0.3-2.5,1-3.3s1.7-1.1,2.9-1.1
			c0.4,0,0.8,0.1,1.2,0.2c0.4,0.1,0.7,0.2,1,0.3l-0.4,1.1c-0.3-0.1-0.6-0.2-0.9-0.3c-0.3-0.1-0.6-0.1-0.9-0.1
			c-1.7,0-2.6,1.1-2.6,3.3c0,1.1,0.2,1.8,0.6,2.4s1.1,0.8,1.8,0.8c0.7,0,1.4-0.2,2.1-0.5v1.1C127.5,90.4,126.8,90.5,125.9,90.5z"/>
		<path class="st0" d="M135.8,90.4v-5.5c0-0.7-0.2-1.2-0.5-1.5s-0.8-0.5-1.4-0.5c-0.9,0-1.5,0.2-1.9,0.7s-0.6,1.3-0.6,2.4v4.4h-1.3
			v-12h1.3v3.7c0,0.5,0,0.8-0.1,1.1h0.1c0.2-0.4,0.6-0.7,1.1-1c0.5-0.2,1-0.4,1.6-0.4c1.1,0,1.8,0.2,2.3,0.8
			c0.5,0.5,0.8,1.3,0.8,2.4v5.5L135.8,90.4L135.8,90.4z"/>
		<path class="st0" d="M143.3,90.5c-1.2,0-2.2-0.4-3-1.1c-0.8-0.8-1.1-1.8-1.1-3.1c0-1.4,0.3-2.4,1-3.2c0.7-0.8,1.6-1.2,2.7-1.2
			c1.1,0,1.9,0.4,2.5,1.1c0.6,0.7,0.9,1.6,0.9,2.7v0.8h-5.7c0,1,0.3,1.8,0.8,2.3s1.1,0.8,2,0.8s1.8-0.2,2.7-0.5v1.1
			c-0.5,0.2-0.9,0.3-1.3,0.5S143.9,90.5,143.3,90.5z M143,82.9c-0.7,0-1.2,0.2-1.6,0.7c-0.4,0.5-0.6,1.1-0.7,1.8h4.4
			c0-0.8-0.2-1.4-0.5-1.8C144.1,83.1,143.6,82.9,143,82.9z"/>
		<path class="st0" d="M154.3,90.4v-5.5c0-0.7-0.2-1.2-0.5-1.5s-0.8-0.5-1.4-0.5c-0.9,0-1.5,0.2-1.9,0.7s-0.6,1.3-0.6,2.4v4.4h-1.3
			V82h1.1l0.2,1.1h0.1c0.2-0.4,0.6-0.8,1.1-1s1-0.3,1.6-0.3c1,0,1.8,0.2,2.3,0.8c0.5,0.5,0.8,1.3,0.8,2.4v5.5L154.3,90.4L154.3,90.4
			z"/>
	</g>
</g>
</svg>
