<?xml version="1.0" encoding="utf-8"?>
<!-- Generator: Adobe Illustrator 16.0.4, SVG Export Plug-In . SVG Version: 6.00 Build 0)  -->
<!DOCTYPE svg PUBLIC "-//W3C//DTD SVG 1.1//EN" "http://www.w3.org/Graphics/SVG/1.1/DTD/svg11.dtd">
<svg version="1.1" xmlns="http://www.w3.org/2000/svg" xmlns:xlink="http://www.w3.org/1999/xlink" x="0px" y="0px" width="220px"
	 height="106px" viewBox="58 9.572 220 106" enable-background="new 58 9.572 220 106" xml:space="preserve">
<g id="Layer_1" display="none">
	<g display="inline">
		<path fill="#808080" d="M74.699,106.881h-1.696L70.026,97c-0.141-0.438-0.299-0.989-0.474-1.655
			c-0.175-0.667-0.266-1.066-0.272-1.201c-0.148,0.888-0.384,1.86-0.707,2.917l-2.887,9.82H63.99l-3.926-14.756h1.817l2.332,9.113
			c0.323,1.279,0.559,2.437,0.707,3.473c0.182-1.231,0.451-2.436,0.808-3.613l2.644-8.973h1.817l2.776,9.053
			c0.323,1.044,0.595,2.221,0.817,3.533c0.128-0.955,0.37-2.12,0.727-3.492l2.322-9.094h1.816L74.699,106.881z"/>
		<path fill="#808080" d="M80.563,92.821c0-0.384,0.094-0.665,0.282-0.843c0.188-0.179,0.424-0.268,0.707-0.268
			c0.269,0,0.501,0.091,0.697,0.272c0.195,0.182,0.292,0.461,0.292,0.838s-0.098,0.657-0.292,0.843
			c-0.195,0.185-0.428,0.277-0.697,0.277c-0.282,0-0.518-0.093-0.707-0.277C80.658,93.479,80.563,93.198,80.563,92.821z
			 M82.38,106.881h-1.675V95.818h1.675V106.881z"/>
		<path fill="#808080" d="M87.588,101.219c0.289-0.41,0.73-0.949,1.322-1.615l3.573-3.785h1.988l-4.481,4.714l4.794,6.349h-2.028
			l-3.906-5.229l-1.262,1.09v4.139h-1.655V91.176h1.655v8.327c0,0.37-0.027,0.942-0.081,1.716H87.588z"/>
		<path fill="#808080" d="M96.642,92.821c0-0.384,0.094-0.665,0.282-0.843c0.188-0.179,0.424-0.268,0.707-0.268
			c0.269,0,0.501,0.091,0.697,0.272c0.195,0.182,0.292,0.461,0.292,0.838s-0.098,0.657-0.292,0.843
			c-0.195,0.185-0.428,0.277-0.697,0.277c-0.282,0-0.518-0.093-0.707-0.277C96.736,93.479,96.642,93.198,96.642,92.821z
			 M98.458,106.881h-1.675V95.818h1.675V106.881z"/>
		<path fill="#808080" d="M116.112,106.881v-7.196c0-0.882-0.188-1.543-0.565-1.983c-0.377-0.44-0.962-0.661-1.756-0.661
			c-1.043,0-1.813,0.3-2.312,0.898s-0.747,1.521-0.747,2.766v6.177h-1.676v-7.196c0-0.882-0.188-1.543-0.565-1.983
			c-0.377-0.44-0.966-0.661-1.767-0.661c-1.049,0-1.818,0.314-2.306,0.943c-0.488,0.63-0.732,1.66-0.732,3.094v5.804h-1.675V95.818
			h1.363l0.272,1.515h0.081c0.316-0.539,0.762-0.959,1.337-1.262s1.22-0.454,1.933-0.454c1.729,0,2.859,0.625,3.391,1.877h0.081
			c0.33-0.578,0.808-1.036,1.434-1.373c0.625-0.336,1.339-0.504,2.14-0.504c1.251,0,2.188,0.321,2.811,0.964
			c0.622,0.643,0.934,1.67,0.934,3.083v7.217H116.112z"/>
		<path fill="#808080" d="M125.913,107.083c-1.635,0-2.926-0.498-3.871-1.494s-1.418-2.379-1.418-4.148
			c0-1.783,0.439-3.199,1.317-4.249c0.878-1.05,2.057-1.574,3.538-1.574c1.386,0,2.483,0.455,3.291,1.367
			c0.807,0.912,1.211,2.114,1.211,3.608v1.06h-7.62c0.033,1.299,0.361,2.285,0.984,2.958c0.622,0.673,1.499,1.009,2.629,1.009
			c1.191,0,2.368-0.249,3.533-0.747v1.494c-0.592,0.256-1.152,0.438-1.681,0.55S126.659,107.083,125.913,107.083z M125.458,97.02
			c-0.889,0-1.597,0.29-2.125,0.868c-0.528,0.579-0.839,1.38-0.934,2.402h5.784c0-1.057-0.236-1.865-0.707-2.428
			C127.006,97.301,126.333,97.02,125.458,97.02z"/>
		<path fill="#808080" d="M140.366,105.397h-0.091c-0.774,1.123-1.932,1.686-3.472,1.686c-1.447,0-2.572-0.495-3.376-1.484
			c-0.804-0.988-1.206-2.395-1.206-4.219c0-1.823,0.404-3.24,1.211-4.249c0.807-1.01,1.931-1.514,3.371-1.514
			c1.5,0,2.651,0.545,3.452,1.635h0.131l-0.071-0.798l-0.04-0.776v-4.502h1.675v15.705h-1.363L140.366,105.397z M137.015,105.68
			c1.144,0,1.973-0.312,2.488-0.934s0.772-1.627,0.772-3.013v-0.354c0-1.567-0.261-2.687-0.782-3.355
			c-0.522-0.67-1.354-1.005-2.498-1.005c-0.983,0-1.735,0.382-2.256,1.146c-0.522,0.764-0.782,1.843-0.782,3.235
			c0,1.413,0.259,2.479,0.777,3.199C135.252,105.32,136.012,105.68,137.015,105.68z"/>
		<path fill="#808080" d="M145.362,92.821c0-0.384,0.094-0.665,0.282-0.843c0.188-0.179,0.424-0.268,0.707-0.268
			c0.269,0,0.501,0.091,0.697,0.272c0.195,0.182,0.292,0.461,0.292,0.838s-0.098,0.657-0.292,0.843
			c-0.195,0.185-0.428,0.277-0.697,0.277c-0.282,0-0.518-0.093-0.707-0.277C145.457,93.479,145.362,93.198,145.362,92.821z
			 M147.179,106.881h-1.675V95.818h1.675V106.881z"/>
		<path fill="#808080" d="M157.535,106.881l-0.333-1.574h-0.081c-0.552,0.692-1.102,1.162-1.65,1.407
			c-0.548,0.246-1.233,0.369-2.054,0.369c-1.097,0-1.957-0.283-2.579-0.848c-0.623-0.565-0.934-1.37-0.934-2.413
			c0-2.233,1.787-3.404,5.359-3.512l1.877-0.061v-0.687c0-0.868-0.187-1.509-0.56-1.923s-0.971-0.621-1.792-0.621
			c-0.922,0-1.965,0.283-3.129,0.848l-0.515-1.281c0.545-0.296,1.142-0.528,1.792-0.696c0.649-0.168,1.3-0.253,1.953-0.253
			c1.318,0,2.296,0.293,2.932,0.878c0.636,0.586,0.954,1.524,0.954,2.816v7.55H157.535z M153.75,105.7
			c1.043,0,1.862-0.286,2.458-0.858c0.596-0.571,0.893-1.372,0.893-2.402v-0.999l-1.675,0.071c-1.333,0.047-2.293,0.254-2.881,0.62
			c-0.589,0.367-0.883,0.938-0.883,1.711c0,0.605,0.183,1.066,0.55,1.383S153.09,105.7,153.75,105.7z"/>
		<path fill="#808080" d="M169.565,106.881h-1.715V92.125h8.226v1.523h-6.511v5.4h6.117v1.523h-6.117V106.881z"/>
		<path fill="#808080" d="M187.814,101.34c0,1.803-0.454,3.211-1.362,4.224s-2.163,1.52-3.765,1.52
			c-0.989,0-1.867-0.232-2.635-0.696c-0.767-0.465-1.358-1.131-1.776-1.999c-0.417-0.868-0.625-1.884-0.625-3.048
			c0-1.804,0.45-3.208,1.353-4.214c0.901-1.006,2.152-1.509,3.754-1.509c1.548,0,2.777,0.515,3.689,1.544
			S187.814,99.583,187.814,101.34z M179.387,101.34c0,1.413,0.283,2.489,0.848,3.229c0.565,0.74,1.396,1.11,2.493,1.11
			s1.93-0.368,2.498-1.105c0.569-0.736,0.854-1.814,0.854-3.234c0-1.406-0.284-2.475-0.854-3.205
			c-0.568-0.729-1.407-1.095-2.518-1.095c-1.098,0-1.925,0.36-2.483,1.08S179.387,99.913,179.387,101.34z"/>
		<path fill="#808080" d="M192.326,95.818v7.177c0,0.901,0.205,1.574,0.616,2.019c0.41,0.444,1.053,0.666,1.928,0.666
			c1.157,0,2.003-0.316,2.538-0.948c0.535-0.633,0.803-1.666,0.803-3.099v-5.814h1.676v11.062h-1.383l-0.242-1.483h-0.091
			c-0.344,0.545-0.819,0.962-1.429,1.251s-1.304,0.435-2.084,0.435c-1.346,0-2.354-0.319-3.023-0.959
			c-0.669-0.64-1.004-1.662-1.004-3.068v-7.237H192.326z"/>
		<path fill="#808080" d="M211.01,106.881v-7.156c0-0.901-0.206-1.574-0.616-2.019s-1.053-0.666-1.928-0.666
			c-1.157,0-2.005,0.312-2.543,0.938c-0.539,0.626-0.808,1.659-0.808,3.099v5.804h-1.676V95.818h1.362l0.272,1.515h0.081
			c0.343-0.545,0.824-0.968,1.443-1.267c0.619-0.3,1.309-0.449,2.069-0.449c1.332,0,2.335,0.321,3.008,0.964s1.009,1.67,1.009,3.083
			v7.217H211.01z"/>
		<path fill="#808080" d="M223.656,105.397h-0.091c-0.773,1.123-1.931,1.686-3.472,1.686c-1.447,0-2.572-0.495-3.376-1.484
			c-0.805-0.988-1.206-2.395-1.206-4.219c0-1.823,0.403-3.24,1.211-4.249c0.808-1.01,1.931-1.514,3.371-1.514
			c1.5,0,2.651,0.545,3.452,1.635h0.131l-0.07-0.798l-0.041-0.776v-4.502h1.676v15.705h-1.362L223.656,105.397z M220.306,105.68
			c1.144,0,1.974-0.312,2.488-0.934s0.771-1.627,0.771-3.013v-0.354c0-1.567-0.261-2.687-0.782-3.355
			c-0.521-0.67-1.354-1.005-2.498-1.005c-0.982,0-1.734,0.382-2.256,1.146s-0.782,1.843-0.782,3.235
			c0,1.413,0.259,2.479,0.777,3.199C218.543,105.32,219.303,105.68,220.306,105.68z"/>
		<path fill="#808080" d="M235.597,106.881l-0.333-1.574h-0.081c-0.552,0.692-1.102,1.162-1.649,1.407
			c-0.549,0.246-1.233,0.369-2.055,0.369c-1.097,0-1.956-0.283-2.578-0.848c-0.623-0.565-0.934-1.37-0.934-2.413
			c0-2.233,1.786-3.404,5.359-3.512l1.877-0.061v-0.687c0-0.868-0.187-1.509-0.561-1.923c-0.373-0.414-0.971-0.621-1.791-0.621
			c-0.922,0-1.965,0.283-3.129,0.848l-0.515-1.281c0.545-0.296,1.142-0.528,1.791-0.696s1.301-0.253,1.953-0.253
			c1.319,0,2.297,0.293,2.933,0.878c0.636,0.586,0.953,1.524,0.953,2.816v7.55H235.597z M231.812,105.7
			c1.043,0,1.862-0.286,2.458-0.858c0.596-0.571,0.894-1.372,0.894-2.402v-0.999l-1.676,0.071c-1.332,0.047-2.293,0.254-2.882,0.62
			c-0.589,0.367-0.883,0.938-0.883,1.711c0,0.605,0.184,1.066,0.55,1.383C230.64,105.542,231.152,105.7,231.812,105.7z"/>
		<path fill="#808080" d="M243.863,105.7c0.296,0,0.582-0.022,0.857-0.065c0.276-0.044,0.495-0.09,0.656-0.137v1.282
			c-0.182,0.087-0.449,0.159-0.803,0.217c-0.353,0.057-0.671,0.086-0.953,0.086c-2.14,0-3.21-1.127-3.21-3.382v-6.58h-1.585v-0.808
			l1.585-0.696l0.707-2.362h0.969v2.563h3.209v1.303h-3.209v6.51c0,0.666,0.158,1.178,0.475,1.534
			C242.877,105.521,243.312,105.7,243.863,105.7z"/>
		<path fill="#808080" d="M247.446,92.821c0-0.384,0.095-0.665,0.283-0.843c0.188-0.179,0.424-0.268,0.706-0.268
			c0.27,0,0.501,0.091,0.696,0.272s0.293,0.461,0.293,0.838s-0.098,0.657-0.293,0.843c-0.195,0.185-0.427,0.277-0.696,0.277
			c-0.282,0-0.518-0.093-0.706-0.277C247.541,93.479,247.446,93.198,247.446,92.821z M249.264,106.881h-1.676V95.818h1.676V106.881z
			"/>
		<path fill="#808080" d="M262.364,101.34c0,1.803-0.454,3.211-1.362,4.224s-2.163,1.52-3.765,1.52
			c-0.989,0-1.867-0.232-2.635-0.696c-0.767-0.465-1.358-1.131-1.776-1.999c-0.417-0.868-0.625-1.884-0.625-3.048
			c0-1.804,0.45-3.208,1.353-4.214c0.901-1.006,2.152-1.509,3.754-1.509c1.548,0,2.777,0.515,3.689,1.544
			S262.364,99.583,262.364,101.34z M253.937,101.34c0,1.413,0.283,2.489,0.848,3.229c0.565,0.74,1.396,1.11,2.493,1.11
			s1.93-0.368,2.498-1.105c0.569-0.736,0.854-1.814,0.854-3.234c0-1.406-0.284-2.475-0.854-3.205
			c-0.568-0.729-1.407-1.095-2.518-1.095c-1.098,0-1.925,0.36-2.483,1.08S253.937,99.913,253.937,101.34z"/>
		<path fill="#808080" d="M272.872,106.881v-7.156c0-0.901-0.206-1.574-0.616-2.019s-1.053-0.666-1.928-0.666
			c-1.157,0-2.005,0.312-2.543,0.938c-0.539,0.626-0.808,1.659-0.808,3.099v5.804h-1.676V95.818h1.362l0.272,1.515h0.081
			c0.343-0.545,0.824-0.968,1.443-1.267c0.619-0.3,1.309-0.449,2.069-0.449c1.332,0,2.335,0.321,3.008,0.964s1.009,1.67,1.009,3.083
			v7.217H272.872z"/>
	</g>
	<g display="inline">
		<circle id="red_circle" fill="#404040" cx="168" cy="20.966" r="10.321"/>
		<path fill="#404040" d="M183.862,26.334c4.236,4.237,6.567,9.869,6.567,15.861c0,5.991-2.331,11.625-6.567,15.862
			c-4.236,4.237-9.871,6.571-15.862,6.571s-11.624-2.334-15.86-6.571c-4.237-4.237-6.57-9.871-6.57-15.862
			c0-5.992,2.333-11.625,6.57-15.861c0.375-0.375,0.762-0.734,1.158-1.08l-6.281-6.282c-0.391,0.353-0.773,0.716-1.148,1.09
			c-2.872,2.874-5.128,6.22-6.706,9.948c-1.632,3.861-2.46,7.96-2.46,12.184c0,4.225,0.829,8.324,2.46,12.185
			c1.578,3.727,3.834,7.073,6.706,9.947c2.873,2.874,6.221,5.129,9.948,6.707c3.861,1.63,7.961,2.459,12.184,2.459
			c4.225,0,8.325-0.829,12.187-2.459c3.727-1.578,7.072-3.833,9.945-6.707s5.131-6.221,6.707-9.947
			c1.635-3.861,2.461-7.96,2.461-12.185c0-4.224-0.826-8.323-2.461-12.184c-1.576-3.729-3.834-7.074-6.707-9.948
			c-0.373-0.375-0.757-0.738-1.146-1.09l-6.282,6.282C183.1,25.601,183.487,25.959,183.862,26.334z"/>
		<g>
			<path fill="#404040" d="M170.658,60.832c9.136-1.291,16.166-9.141,16.166-18.636c0-5.768-2.594-10.929-6.682-14.382l-9.484,9.487
				V60.832z"/>
			<path fill="#404040" d="M165.342,60.832V37.301l-9.485-9.487c-4.085,3.453-6.68,8.614-6.68,14.382
				C149.177,51.691,156.206,59.541,165.342,60.832z"/>
		</g>
	</g>
</g>
<g id="Layer_2">
	<g>
		<g>
			<path fill="#808080" d="M208.599,92.898h3.18l4.675,11.265h-2.99l-0.842-2.106h-4.863l-0.844,2.106h-3.01L208.599,92.898z
				 M208.494,100.058h3.369l-1.685-4.338L208.494,100.058z M199.841,93.109h2.759v11.054h-2.759V93.109z M186.763,93.109h4.174
				c2.251,0,3.979,0.463,5.095,1.369c1.138,0.928,1.685,2.295,1.685,4.126v0.021c0,1.831-0.547,3.222-1.622,4.127
				c-1.095,0.926-2.715,1.431-4.884,1.41h-4.447V93.109z M189.483,102.12h1.727c1.222,0,2.104-0.315,2.717-0.885
				c0.609-0.567,0.905-1.43,0.905-2.609c0-1.157-0.338-2.042-0.99-2.61c-0.611-0.59-1.6-0.885-2.905-0.885h-1.453V102.12z
				 M176.508,104.163V93.109h8.147v1.979h-5.385v2.38h5.057v1.978h-5.057v2.695h5.385v2.021H176.508z M164.934,104.163h-2.762
				V93.109h2.482l3.465,3.979l3.423-3.979h2.481v11.054h-2.764v-6.8l-2.906,3.39h-0.503l-2.918-3.39V104.163z M156.879,93.109h2.762
				v11.054h-2.762V93.109z M145.167,104.163V93.109h2.738v5.243l3.542-5.243h3.09l-3.84,5.285l5.011,5.769h-3.512l-4.292-5.285
				v5.285H145.167z M139.882,93.109h2.757v11.054h-2.757V93.109z M124.471,104.332l-4.822-11.223h3.011l2.505,6.19l2.863-6.19h2.147
				l2.842,6.19l2.504-6.19h3.032l-4.821,11.223h-1.2l-3.432-6.99l-3.452,6.99H124.471z"/>
			<g>
				<path fill="#808080" d="M134.942,108.017h2.446c0.552,0,0.973,0.042,1.263,0.127c0.388,0.114,0.722,0.317,0.999,0.61
					c0.278,0.292,0.489,0.65,0.633,1.074c0.145,0.423,0.218,0.946,0.218,1.567c0,0.545-0.067,1.016-0.204,1.41
					c-0.166,0.483-0.402,0.874-0.71,1.173c-0.232,0.225-0.545,0.402-0.94,0.529c-0.296,0.093-0.69,0.14-1.186,0.14h-2.519V108.017z
					 M136.281,109.139v4.392h1c0.374,0,0.643-0.021,0.809-0.063c0.217-0.054,0.397-0.146,0.541-0.275
					c0.144-0.13,0.26-0.343,0.351-0.641c0.09-0.297,0.136-0.702,0.136-1.215c0-0.512-0.045-0.905-0.136-1.181
					c-0.091-0.273-0.217-0.487-0.38-0.642s-0.369-0.258-0.62-0.312c-0.187-0.043-0.554-0.063-1.099-0.063H136.281z"/>
				<path fill="#808080" d="M141.637,114.647v-6.631h4.916v1.122h-3.578v1.47h3.33v1.117h-3.33v1.805h3.705v1.117H141.637z"/>
				<path fill="#808080" d="M147.806,108.017h1.339v3.591c0,0.57,0.016,0.939,0.049,1.109c0.057,0.271,0.194,0.488,0.409,0.652
					c0.216,0.164,0.51,0.247,0.885,0.247c0.379,0,0.666-0.078,0.859-0.232c0.193-0.156,0.309-0.347,0.348-0.573
					c0.039-0.226,0.058-0.602,0.058-1.125v-3.669h1.339v3.482c0,0.796-0.036,1.358-0.109,1.688c-0.072,0.329-0.205,0.605-0.4,0.832
					c-0.194,0.227-0.454,0.406-0.78,0.54c-0.326,0.135-0.75,0.201-1.276,0.201c-0.633,0-1.113-0.072-1.441-0.219
					c-0.327-0.146-0.585-0.337-0.774-0.57c-0.19-0.233-0.316-0.479-0.376-0.735c-0.087-0.379-0.131-0.94-0.131-1.682V108.017z"/>
				<path fill="#808080" d="M155.997,114.647v-5.509h-1.967v-1.122h5.269v1.122h-1.963v5.509H155.997z"/>
				<path fill="#808080" d="M159.824,112.49l1.303-0.127c0.078,0.437,0.238,0.759,0.477,0.963c0.24,0.205,0.562,0.308,0.97,0.308
					c0.432,0,0.755-0.091,0.975-0.273c0.218-0.182,0.328-0.396,0.328-0.64c0-0.157-0.046-0.29-0.138-0.4
					c-0.093-0.11-0.252-0.206-0.482-0.287c-0.157-0.055-0.514-0.151-1.073-0.29c-0.717-0.178-1.22-0.396-1.51-0.656
					c-0.407-0.364-0.611-0.809-0.611-1.334c0-0.337,0.096-0.652,0.288-0.947c0.191-0.294,0.467-0.518,0.827-0.672
					c0.36-0.153,0.796-0.23,1.305-0.23c0.832,0,1.459,0.183,1.88,0.547c0.42,0.365,0.641,0.853,0.662,1.461l-1.338,0.06
					c-0.058-0.342-0.18-0.586-0.369-0.735c-0.188-0.149-0.471-0.224-0.848-0.224c-0.389,0-0.694,0.079-0.914,0.239
					c-0.142,0.103-0.213,0.239-0.213,0.411c0,0.157,0.066,0.291,0.199,0.403c0.169,0.142,0.579,0.289,1.231,0.443
					c0.651,0.154,1.133,0.312,1.445,0.477s0.556,0.39,0.732,0.675c0.177,0.284,0.265,0.637,0.265,1.057
					c0,0.379-0.105,0.735-0.316,1.066c-0.211,0.332-0.51,0.578-0.896,0.739c-0.386,0.162-0.867,0.242-1.443,0.242
					c-0.839,0-1.482-0.193-1.932-0.581S159.911,113.231,159.824,112.49z"/>
				<path fill="#808080" d="M170.584,112.209l1.299,0.412c-0.199,0.724-0.529,1.262-0.992,1.612
					c-0.464,0.352-1.052,0.526-1.764,0.526c-0.879,0-1.604-0.301-2.17-0.901c-0.567-0.602-0.85-1.425-0.85-2.468
					c0-1.104,0.285-1.961,0.854-2.571c0.571-0.61,1.319-0.916,2.249-0.916c0.812,0,1.47,0.24,1.978,0.719
					c0.302,0.284,0.527,0.691,0.679,1.222l-1.328,0.317c-0.078-0.345-0.241-0.616-0.488-0.814c-0.25-0.199-0.552-0.299-0.908-0.299
					c-0.49,0-0.89,0.176-1.196,0.529c-0.306,0.353-0.459,0.924-0.459,1.715c0,0.838,0.151,1.435,0.452,1.791
					c0.302,0.354,0.694,0.533,1.176,0.533c0.355,0,0.661-0.113,0.919-0.339C170.288,113.051,170.471,112.695,170.584,112.209z"/>
				<path fill="#808080" d="M173.036,114.647v-6.631h1.34v2.61h2.622v-2.61h1.341v6.631h-1.341v-2.899h-2.622v2.899H173.036z"/>
				<path fill="#808080" d="M179.76,114.647v-6.577h1.338v5.46h3.328v1.117H179.76z"/>
				<path fill="#808080" d="M191.36,114.647h-1.456l-0.58-1.507h-2.65l-0.547,1.507h-1.421l2.584-6.631h1.414L191.36,114.647z
					 M188.896,112.024l-0.913-2.462l-0.896,2.462H188.896z"/>
				<path fill="#808080" d="M192.083,114.647v-6.631h1.304l2.713,4.428v-4.428h1.244v6.631h-1.343l-2.674-4.324v4.324H192.083z"/>
				<path fill="#808080" d="M198.754,108.017h2.447c0.554,0,0.975,0.042,1.262,0.127c0.391,0.114,0.723,0.317,1,0.61
					c0.278,0.292,0.489,0.65,0.634,1.074c0.146,0.423,0.218,0.946,0.218,1.567c0,0.545-0.068,1.016-0.203,1.41
					c-0.167,0.483-0.402,0.874-0.711,1.173c-0.233,0.225-0.547,0.402-0.941,0.529c-0.296,0.093-0.69,0.14-1.186,0.14h-2.52V108.017z
					 M200.095,109.139v4.392h0.998c0.374,0,0.644-0.021,0.811-0.063c0.218-0.054,0.396-0.146,0.54-0.275
					c0.143-0.13,0.262-0.343,0.352-0.641c0.089-0.297,0.135-0.702,0.135-1.215c0-0.512-0.046-0.905-0.135-1.181
					c-0.09-0.273-0.217-0.487-0.38-0.642s-0.37-0.258-0.62-0.312c-0.188-0.043-0.554-0.063-1.099-0.063H200.095z"/>
			</g>
		</g>
		<g>
			<circle fill="#404040" cx="167.978" cy="22.587" r="12.207"/>
			<path fill="#404040" d="M192.623,19.917l-6.916,6.917c5.594,4.921,9.126,12.133,9.126,20.169
				c0,14.832-12.024,26.855-26.855,26.855c-14.832,0-26.855-12.023-26.855-26.855c0-8.036,3.531-15.248,9.127-20.169l-6.917-6.917
				c-7.357,6.698-11.975,16.354-11.975,27.086c0,20.226,16.394,36.621,36.62,36.621c20.226,0,36.622-16.396,36.622-36.621
				C204.6,36.27,199.98,26.615,192.623,19.917z"/>
			<path fill="#404040" d="M165.536,42.121l-11.824-11.823c-4.714,4.029-7.708,10.016-7.708,16.705
				c0,11.311,8.546,20.62,19.531,21.834V42.121z M182.243,30.298l-11.825,11.823v26.716c10.986-1.216,19.532-10.523,19.532-21.834
				C189.95,40.314,186.957,34.328,182.243,30.298z"/>
		</g>
		<rect x="167.194" y="61.843" fill="#00E960" width="1.613" height="1.074"/>
	</g>
</g>
</svg>
