<?xml version="1.0" encoding="utf-8"?>
<svg version="1.1" xmlns="http://www.w3.org/2000/svg" xmlns:xlink="http://www.w3.org/1999/xlink" x="0px" y="0px"
	 width="220px" height="86px" viewBox="58 9.572 220 86" enable-background="new 58 9.572 220 86" xml:space="preserve">
      <style>
            .fill1 { fill: rgba(255,255,255,0.6); }
     </style>
<g>
	<polygon fill="#fff" points="128.428,19.729 128.428,61.604 137.509,61.604 137.509,19.791 147.595,19.791 147.595,61.604
		176.483,61.604 176.483,20.231 186.761,20.231 186.761,61.595 196.285,61.595 196.285,20.231 206.692,20.231 206.692,61.595
		216.216,61.595 216.216,10.646 167.339,10.646 167.339,52.332 156.869,52.332 156.869,10.709 119.785,10.709 119.785,19.729 	"/>
	<g>
		<path class="fill1" d="M113.22,95.025h-1.716V81.793h-4.673V80.27h11.062v1.523h-4.673V95.025z"/>
		<path class="fill1" d="M131.257,80.27v9.548c0,1.683-0.508,3.004-1.524,3.967c-1.016,0.962-2.412,1.443-4.188,1.443
			s-3.151-0.484-4.123-1.454c-0.973-0.969-1.458-2.301-1.458-3.996V80.27h1.716v9.629c0,1.231,0.336,2.177,1.009,2.836
			s1.662,0.989,2.967,0.989c1.245,0,2.204-0.332,2.876-0.994c0.673-0.663,1.009-1.613,1.009-2.852V80.27H131.257z"/>
		<path class="fill1" d="M147.062,95.025l-5.006-13.081h-0.081c0.094,1.036,0.141,2.268,0.141,3.694v9.387h-1.584V80.27h2.584
			l4.673,12.172h0.081l4.713-12.172h2.563v14.756h-1.716v-9.508c0-1.09,0.047-2.274,0.142-3.553h-0.081l-5.046,13.061H147.062z"/>
		<path class="fill1" d="M160.517,83.963v7.177c0,0.901,0.205,1.574,0.616,2.019c0.41,0.444,1.053,0.666,1.928,0.666
			c1.157,0,2.003-0.316,2.539-0.948c0.535-0.633,0.802-1.666,0.802-3.099v-5.814h1.675v11.062h-1.383l-0.242-1.483h-0.091
			c-0.343,0.545-0.819,0.962-1.428,1.251s-1.304,0.435-2.084,0.435c-1.346,0-2.354-0.319-3.023-0.959
			c-0.67-0.64-1.004-1.662-1.004-3.068v-7.237H160.517z M160.618,80.966c0-0.35,0.089-0.603,0.268-0.757
			c0.178-0.155,0.392-0.232,0.641-0.232c0.255,0,0.476,0.077,0.661,0.232c0.185,0.154,0.277,0.407,0.277,0.757
			c0,0.336-0.092,0.587-0.277,0.752s-0.406,0.247-0.661,0.247c-0.249,0-0.463-0.082-0.641-0.247S160.618,81.302,160.618,80.966z
			 M164.463,80.966c0-0.35,0.089-0.603,0.268-0.757c0.178-0.155,0.392-0.232,0.641-0.232s0.466,0.077,0.651,0.232
			c0.185,0.154,0.277,0.407,0.277,0.757c0,0.336-0.092,0.587-0.277,0.752s-0.402,0.247-0.651,0.247s-0.462-0.082-0.641-0.247
			S164.463,81.302,164.463,80.966z"/>
		<path class="fill1" d="M179.2,95.025v-7.156c0-0.901-0.206-1.574-0.616-2.019s-1.053-0.666-1.928-0.666
			c-1.157,0-2.005,0.312-2.543,0.938c-0.539,0.626-0.808,1.659-0.808,3.099v5.804h-1.676V83.963h1.362l0.272,1.515h0.081
			c0.343-0.545,0.824-0.968,1.443-1.267c0.619-0.3,1.309-0.449,2.069-0.449c1.332,0,2.335,0.321,3.008,0.964s1.009,1.67,1.009,3.083
			v7.217H179.2z"/>
		<path class="fill1" d="M188.737,95.228c-1.602,0-2.841-0.493-3.72-1.479c-0.878-0.986-1.316-2.381-1.316-4.184
			c0-1.851,0.445-3.281,1.337-4.29c0.892-1.01,2.161-1.514,3.811-1.514c0.531,0,1.062,0.057,1.595,0.171
			c0.531,0.115,0.948,0.249,1.251,0.404l-0.515,1.423c-0.37-0.147-0.773-0.271-1.211-0.368s-0.824-0.146-1.161-0.146
			c-2.247,0-3.371,1.434-3.371,4.3c0,1.359,0.274,2.402,0.823,3.129c0.548,0.727,1.36,1.09,2.438,1.09
			c0.922,0,1.867-0.198,2.836-0.596v1.484C190.793,95.035,189.861,95.228,188.737,95.228z"/>
		<path class="fill1" d="M201.728,95.025v-7.156c0-0.901-0.206-1.574-0.616-2.019s-1.053-0.666-1.928-0.666
			c-1.164,0-2.014,0.316-2.549,0.948c-0.534,0.633-0.802,1.669-0.802,3.109v5.783h-1.676V79.32h1.676v4.754
			c0,0.572-0.027,1.047-0.081,1.423h0.101c0.33-0.531,0.8-0.95,1.408-1.256c0.609-0.307,1.304-0.46,2.084-0.46
			c1.353,0,2.367,0.321,3.044,0.964c0.676,0.643,1.014,1.664,1.014,3.063v7.217H201.728z"/>
		<path class="fill1" d="M211.518,95.228c-1.635,0-2.925-0.498-3.87-1.494s-1.418-2.379-1.418-4.148
			c0-1.783,0.438-3.199,1.316-4.249c0.879-1.05,2.058-1.574,3.538-1.574c1.386,0,2.482,0.455,3.29,1.367s1.212,2.114,1.212,3.608
			v1.06h-7.621c0.034,1.299,0.362,2.285,0.984,2.958s1.499,1.009,2.629,1.009c1.191,0,2.369-0.249,3.533-0.747v1.494
			c-0.593,0.256-1.152,0.438-1.681,0.55S212.265,95.228,211.518,95.228z M211.063,85.164c-0.888,0-1.597,0.29-2.124,0.868
			c-0.528,0.579-0.84,1.38-0.934,2.402h5.783c0-1.057-0.235-1.865-0.707-2.428C212.611,85.445,211.938,85.164,211.063,85.164z"/>
		<path class="fill1" d="M226.013,95.025v-7.156c0-0.901-0.206-1.574-0.616-2.019s-1.053-0.666-1.928-0.666
			c-1.157,0-2.005,0.312-2.543,0.938c-0.539,0.626-0.808,1.659-0.808,3.099v5.804h-1.676V83.963h1.362l0.272,1.515h0.081
			c0.343-0.545,0.824-0.968,1.443-1.267c0.619-0.3,1.309-0.449,2.069-0.449c1.332,0,2.335,0.321,3.008,0.964s1.009,1.67,1.009,3.083
			v7.217H226.013z"/>
	</g>
</g>
</svg>
