<?xml version="1.0" encoding="utf-8"?>
<!-- Generator: Adobe Illustrator 19.0.0, SVG Export Plug-In . SVG Version: 6.00 Build 0)  -->
<svg version="1.1" id="Ebene_1" xmlns="http://www.w3.org/2000/svg" xmlns:xlink="http://www.w3.org/1999/xlink" x="0px" y="0px"
	 viewBox="60 -3 220 106" style="enable-background:new 60 -3 220 106;" xml:space="preserve">
<style type="text/css">
	.st0{display:none;}
	.st1{display:inline;}
	.st2{fill:#808080;}
	.st3{fill:#404040;}
	.st4{fill:#FFFFFF;}
</style>
<g id="Layer_1" class="st0">
	<g class="st1">
		<path class="st2" d="M194.7,100.9H193l-3-9.9c-0.1-0.4-0.3-1-0.5-1.7s-0.3-1.1-0.3-1.2c-0.1,0.9-0.4,1.9-0.7,2.9l-2.9,9.8H184
			L180.1,86h1.8l2.3,9.1c0.3,1.3,0.6,2.4,0.7,3.5c0.2-1.2,0.5-2.4,0.8-3.6l2.6-9h1.8l2.8,9.1c0.3,1,0.6,2.2,0.8,3.5
			c0.1-1,0.4-2.1,0.7-3.5l2.3-9.1h1.8L194.7,100.9z"/>
		<path class="st2" d="M200.6,86.8c0-0.4,0.1-0.7,0.3-0.8c0.2-0.2,0.4-0.3,0.7-0.3s0.5,0.1,0.7,0.3c0.2,0.2,0.3,0.5,0.3,0.8
			s-0.1,0.7-0.3,0.8c-0.2,0.2-0.4,0.3-0.7,0.3s-0.5-0.1-0.7-0.3C200.7,87.5,200.6,87.2,200.6,86.8z M202.4,100.9h-1.7V89.8h1.7
			V100.9z"/>
		<path class="st2" d="M207.6,95.2c0.3-0.4,0.7-0.9,1.3-1.6l3.6-3.8h2l-4.5,4.7l4.8,6.3h-2l-3.9-5.2l-1.3,1.1v4.1h-1.7V85.2h1.7v8.3
			C207.6,93.9,207.6,94.4,207.6,95.2C207.5,95.2,207.6,95.2,207.6,95.2z"/>
		<path class="st2" d="M216.6,86.8c0-0.4,0.1-0.7,0.3-0.8c0.2-0.2,0.4-0.3,0.7-0.3s0.5,0.1,0.7,0.3c0.2,0.2,0.3,0.5,0.3,0.8
			s-0.1,0.7-0.3,0.8c-0.2,0.2-0.4,0.3-0.7,0.3s-0.5-0.1-0.7-0.3C216.7,87.5,216.6,87.2,216.6,86.8z M218.5,100.9h-1.7V89.8h1.7
			V100.9z"/>
		<path class="st2" d="M236.1,100.9v-7.2c0-0.9-0.2-1.5-0.6-2s-1-0.7-1.8-0.7c-1,0-1.8,0.3-2.3,0.9s-0.7,1.5-0.7,2.8v6.2H229v-7.2
			c0-0.9-0.2-1.5-0.6-2s-1-0.7-1.8-0.7c-1,0-1.8,0.3-2.3,0.9s-0.7,1.7-0.7,3.1v5.8H222v-11h1.4l0.3,1.5h0.1c0.3-0.5,0.8-1,1.3-1.3
			s1.2-0.5,1.9-0.5c1.7,0,2.9,0.6,3.4,1.9h0.1c0.3-0.6,0.8-1,1.4-1.4c0.6-0.3,1.3-0.5,2.1-0.5c1.3,0,2.2,0.3,2.8,1
			c0.6,0.6,0.9,1.7,0.9,3.1v7.2h-1.6V100.9z"/>
		<path class="st2" d="M245.9,101.1c-1.6,0-2.9-0.5-3.9-1.5c-0.9-1-1.4-2.4-1.4-4.1c0-1.8,0.4-3.2,1.3-4.2c0.9-1.1,2.1-1.6,3.5-1.6
			s2.5,0.5,3.3,1.4s1.2,2.1,1.2,3.6v1.1h-7.6c0,1.3,0.4,2.3,1,3s1.5,1,2.6,1c1.2,0,2.4-0.2,3.5-0.7v1.5c-0.6,0.3-1.2,0.4-1.7,0.6
			S246.7,101.1,245.9,101.1z M245.5,91c-0.9,0-1.6,0.3-2.1,0.9s-0.8,1.4-0.9,2.4h5.8c0-1.1-0.2-1.9-0.7-2.4
			C247,91.3,246.3,91,245.5,91z"/>
		<path class="st2" d="M260.4,99.4L260.4,99.4c-0.9,1.1-2,1.7-3.6,1.7c-1.4,0-2.6-0.5-3.4-1.5c-0.8-1-1.2-2.4-1.2-4.2
			c0-1.8,0.4-3.2,1.2-4.2s1.9-1.5,3.4-1.5s2.7,0.5,3.5,1.6h0.1l-0.1-0.8v-0.8v-4.5h1.7v15.7h-1.4L260.4,99.4z M257,99.7
			c1.1,0,2-0.3,2.5-0.9s0.8-1.6,0.8-3v-0.4c0-1.6-0.3-2.7-0.8-3.4c-0.5-0.7-1.4-1-2.5-1c-1,0-1.7,0.4-2.3,1.1
			c-0.5,0.8-0.8,1.8-0.8,3.2c0,1.4,0.3,2.5,0.8,3.2C255.3,99.3,256,99.7,257,99.7z"/>
		<path class="st2" d="M265.4,86.8c0-0.4,0.1-0.7,0.3-0.8c0.2-0.2,0.4-0.3,0.7-0.3s0.5,0.1,0.7,0.3c0.2,0.2,0.3,0.5,0.3,0.8
			s-0.1,0.7-0.3,0.8c-0.2,0.2-0.4,0.3-0.7,0.3s-0.5-0.1-0.7-0.3C265.5,87.5,265.4,87.2,265.4,86.8z M267.2,100.9h-1.7V89.8h1.7
			V100.9z"/>
		<path class="st2" d="M277.5,100.9l-0.3-1.6h-0.1c-0.6,0.7-1.1,1.2-1.6,1.4c-0.5,0.2-1.2,0.4-2.1,0.4c-1.1,0-2-0.3-2.6-0.8
			c-0.6-0.6-0.9-1.4-0.9-2.4c0-2.2,1.8-3.4,5.4-3.5l1.9-0.1v-0.7c0-0.9-0.2-1.5-0.6-1.9c-0.4-0.4-1-0.6-1.8-0.6
			c-0.9,0-2,0.3-3.1,0.8l-0.5-1.3c0.5-0.3,1.1-0.5,1.8-0.7c0.6-0.2,1.3-0.3,2-0.3c1.3,0,2.3,0.3,2.9,0.9c0.6,0.6,1,1.5,1,2.8v7.6
			L277.5,100.9L277.5,100.9z M273.8,99.7c1,0,1.9-0.3,2.5-0.9c0.6-0.6,0.9-1.4,0.9-2.4v-1l-1.7,0.1c-1.3,0-2.3,0.3-2.9,0.6
			c-0.6,0.4-0.9,0.9-0.9,1.7c0,0.6,0.2,1.1,0.6,1.4S273.1,99.7,273.8,99.7z"/>
		<path class="st2" d="M289.6,100.9h-1.7V86.1h8.2v1.5h-6.5V93h6.1v1.5h-6.1V100.9z"/>
		<path class="st2" d="M307.8,95.3c0,1.8-0.5,3.2-1.4,4.2c-0.9,1-2.2,1.5-3.8,1.5c-1,0-1.9-0.2-2.6-0.7c-0.8-0.5-1.4-1.1-1.8-2
			c-0.4-0.9-0.6-1.9-0.6-3c0-1.8,0.4-3.2,1.4-4.2c0.9-1,2.2-1.5,3.8-1.5c1.5,0,2.8,0.5,3.7,1.5C307.4,92.1,307.8,93.6,307.8,95.3z
			 M299.4,95.3c0,1.4,0.3,2.5,0.8,3.2c0.6,0.7,1.4,1.1,2.5,1.1c1.1,0,1.9-0.4,2.5-1.1c0.6-0.7,0.9-1.8,0.9-3.2
			c0-1.4-0.3-2.5-0.9-3.2c-0.6-0.7-1.4-1.1-2.5-1.1c-1.1,0-1.9,0.4-2.5,1.1C299.6,92.8,299.4,93.9,299.4,95.3z"/>
		<path class="st2" d="M312.3,89.8V97c0,0.9,0.2,1.6,0.6,2c0.4,0.4,1.1,0.7,1.9,0.7c1.2,0,2-0.3,2.5-0.9s0.8-1.7,0.8-3.1v-5.8h1.7
			V101h-1.4l-0.2-1.5h-0.1c-0.3,0.5-0.8,1-1.4,1.3s-1.3,0.4-2.1,0.4c-1.3,0-2.4-0.3-3-1c-0.7-0.6-1-1.7-1-3.1v-7.2L312.3,89.8
			L312.3,89.8z"/>
		<path class="st2" d="M331,100.9v-7.2c0-0.9-0.2-1.6-0.6-2s-1.1-0.7-1.9-0.7c-1.2,0-2,0.3-2.5,0.9s-0.8,1.7-0.8,3.1v5.8h-1.7v-11
			h1.4l0.3,1.5h0.1c0.3-0.5,0.8-1,1.4-1.3s1.3-0.4,2.1-0.4c1.3,0,2.3,0.3,3,1c0.7,0.6,1,1.7,1,3.1v7.2
			C332.7,100.9,331,100.9,331,100.9z"/>
		<path class="st2" d="M343.7,99.4L343.7,99.4c-0.9,1.1-2,1.7-3.6,1.7c-1.4,0-2.6-0.5-3.4-1.5s-1.2-2.4-1.2-4.2
			c0-1.8,0.4-3.2,1.2-4.2c0.8-1,1.9-1.5,3.4-1.5s2.7,0.5,3.5,1.6h0.1l-0.1-0.8v-0.8v-4.5h1.7v15.7h-1.4L343.7,99.4z M340.3,99.7
			c1.1,0,2-0.3,2.5-0.9s0.8-1.6,0.8-3v-0.4c0-1.6-0.3-2.7-0.8-3.4c-0.5-0.7-1.4-1-2.5-1c-1,0-1.7,0.4-2.3,1.1
			c-0.5,0.8-0.8,1.8-0.8,3.2c0,1.4,0.3,2.5,0.8,3.2C338.5,99.3,339.3,99.7,340.3,99.7z"/>
		<path class="st2" d="M355.6,100.9l-0.3-1.6h-0.1c-0.6,0.7-1.1,1.2-1.6,1.4c-0.5,0.2-1.2,0.4-2.1,0.4c-1.1,0-2-0.3-2.6-0.8
			c-0.6-0.6-0.9-1.4-0.9-2.4c0-2.2,1.8-3.4,5.4-3.5l1.9-0.1v-0.7c0-0.9-0.2-1.5-0.6-1.9s-1-0.6-1.8-0.6c-0.9,0-2,0.3-3.1,0.8
			l-0.5-1.3c0.5-0.3,1.1-0.5,1.8-0.7c0.6-0.2,1.3-0.3,2-0.3c1.3,0,2.3,0.3,2.9,0.9s1,1.5,1,2.8v7.6L355.6,100.9L355.6,100.9z
			 M351.8,99.7c1,0,1.9-0.3,2.5-0.9s0.9-1.4,0.9-2.4v-1l-1.7,0.1c-1.3,0-2.3,0.3-2.9,0.6c-0.6,0.4-0.9,0.9-0.9,1.7
			c0,0.6,0.2,1.1,0.6,1.4C350.6,99.5,351.2,99.7,351.8,99.7z"/>
		<path class="st2" d="M363.9,99.7c0.3,0,0.6,0,0.9-0.1c0.3,0,0.5-0.1,0.7-0.1v1.3c-0.2,0.1-0.4,0.2-0.8,0.2c-0.4,0.1-0.7,0.1-1,0.1
			c-2.1,0-3.2-1.1-3.2-3.4v-6.6h-1.6v-0.8l1.6-0.7l0.7-2.4h1v2.6h3.2v1.3h-3.2v6.5c0,0.7,0.2,1.2,0.5,1.5
			C362.9,99.5,363.3,99.7,363.9,99.7z"/>
		<path class="st2" d="M367.4,86.8c0-0.4,0.1-0.7,0.3-0.8c0.2-0.2,0.4-0.3,0.7-0.3c0.3,0,0.5,0.1,0.7,0.3c0.2,0.2,0.3,0.5,0.3,0.8
			s-0.1,0.7-0.3,0.8c-0.2,0.2-0.4,0.3-0.7,0.3c-0.3,0-0.5-0.1-0.7-0.3C367.5,87.5,367.4,87.2,367.4,86.8z M369.3,100.9h-1.7V89.8
			h1.7V100.9z"/>
		<path class="st2" d="M382.4,95.3c0,1.8-0.5,3.2-1.4,4.2s-2.2,1.5-3.8,1.5c-1,0-1.9-0.2-2.6-0.7c-0.8-0.5-1.4-1.1-1.8-2
			s-0.6-1.9-0.6-3c0-1.8,0.5-3.2,1.4-4.2s2.2-1.5,3.8-1.5c1.5,0,2.8,0.5,3.7,1.5S382.4,93.6,382.4,95.3z M373.9,95.3
			c0,1.4,0.3,2.5,0.8,3.2c0.6,0.7,1.4,1.1,2.5,1.1s1.9-0.4,2.5-1.1s0.9-1.8,0.9-3.2c0-1.4-0.3-2.5-0.9-3.2s-1.4-1.1-2.5-1.1
			s-1.9,0.4-2.5,1.1S373.9,93.9,373.9,95.3z"/>
		<path class="st2" d="M392.9,100.9v-7.2c0-0.9-0.2-1.6-0.6-2s-1.1-0.7-1.9-0.7c-1.2,0-2,0.3-2.5,0.9s-0.8,1.7-0.8,3.1v5.8h-1.7v-11
			h1.4l0.3,1.5h0.1c0.3-0.5,0.8-1,1.4-1.3s1.3-0.4,2.1-0.4c1.3,0,2.3,0.3,3,1s1,1.7,1,3.1v7.2C394.5,100.9,392.9,100.9,392.9,100.9z
			"/>
	</g>
	<g class="st1">
		<circle id="red_circle" class="st3" cx="288" cy="15" r="10.3"/>
		<path class="st3" d="M303.9,20.3c4.2,4.2,6.6,9.9,6.6,15.9s-2.3,11.6-6.6,15.9c-4.2,4.2-9.9,6.6-15.9,6.6s-11.6-2.3-15.9-6.6
			c-4.2-4.2-6.6-9.9-6.6-15.9s2.3-11.6,6.6-15.9c0.4-0.4,0.8-0.7,1.2-1.1L267,13c-0.4,0.4-0.8,0.7-1.1,1.1c-2.9,2.9-5.1,6.2-6.7,9.9
			c-1.6,3.9-2.5,8-2.5,12.2s0.8,8.3,2.5,12.2c1.6,3.7,3.8,7.1,6.7,9.9c2.9,2.9,6.2,5.1,9.9,6.7c3.9,1.6,8,2.5,12.2,2.5
			c4.2,0,8.3-0.8,12.2-2.5c3.7-1.6,7.1-3.8,9.9-6.7s5.1-6.2,6.7-9.9c1.6-3.9,2.5-8,2.5-12.2s-0.8-8.3-2.5-12.2
			c-1.6-3.7-3.8-7.1-6.7-9.9c-0.4-0.4-0.8-0.7-1.1-1.1l-6.3,6.3C303.1,19.6,303.5,20,303.9,20.3z"/>
		<g>
			<path class="st3" d="M290.7,54.8c9.1-1.3,16.2-9.1,16.2-18.6c0-5.8-2.6-10.9-6.7-14.4l-9.5,9.5V54.8z"/>
			<path class="st3" d="M285.3,54.8V31.3l-9.5-9.5c-4.1,3.5-6.7,8.6-6.7,14.4C269.2,45.7,276.2,53.5,285.3,54.8z"/>
		</g>
	</g>
</g>
<g id="Layer_2">
	<g>
		<g>
			<path class="st4" d="M210.5,80.3h3.2l4.7,11.3h-3l-0.8-2.1h-4.9l-0.8,2.1h-3L210.5,80.3z M210.4,87.5h3.4l-1.7-4.3L210.4,87.5z
				 M201.8,80.5h2.8v11.1h-2.8V80.5z M188.7,80.5h4.2c2.3,0,4,0.5,5.1,1.4s1.7,2.3,1.7,4.1l0,0c0,1.8-0.5,3.2-1.6,4.1
				s-2.7,1.4-4.9,1.4h-4.4L188.7,80.5L188.7,80.5z M191.4,89.5h1.7c1.2,0,2.1-0.3,2.7-0.9c0.6-0.6,0.9-1.4,0.9-2.6s-0.3-2-1-2.6
				c-0.6-0.6-1.6-0.9-2.9-0.9h-1.5L191.4,89.5L191.4,89.5z M178.5,91.6V80.5h8.1v2h-5.4v2.4h5.1v2h-5.1v2.7h5.4v2H178.5L178.5,91.6z
				 M166.9,91.6h-2.8V80.5h2.5l3.5,4l3.4-4h2.5v11.1h-2.8v-6.8l-2.9,3.4h-0.5l-2.9-3.4V91.6L166.9,91.6z M158.8,80.5h2.8v11.1h-2.8
				V80.5z M147.1,91.6V80.5h2.7v5.2l3.5-5.2h3.1l-3.8,5.3l5,5.8h-3.5l-4.3-5.3v5.3C149.9,91.6,147.1,91.6,147.1,91.6z M141.8,80.5
				h2.8v11.1h-2.8V80.5z M126.4,91.8l-4.8-11.2h3l2.5,6.2l2.9-6.2h2.1l2.8,6.2l2.5-6.2h3l-4.8,11.2h-1.2l-3.4-7l-3.5,7H126.4z"/>
			<g>
				<path class="st4" d="M136.9,95.4h2.4c0.6,0,1,0,1.3,0.1c0.4,0.1,0.7,0.3,1,0.6c0.3,0.3,0.5,0.7,0.6,1.1s0.2,0.9,0.2,1.6
					c0,0.5-0.1,1-0.2,1.4c-0.2,0.5-0.4,0.9-0.7,1.2c-0.2,0.2-0.5,0.4-0.9,0.5c-0.3,0.1-0.7,0.1-1.2,0.1h-2.5L136.9,95.4L136.9,95.4z
					 M138.2,96.6v4.4h1c0.4,0,0.6,0,0.8-0.1s0.4-0.1,0.5-0.3c0.1-0.1,0.3-0.3,0.4-0.6c0.1-0.3,0.1-0.7,0.1-1.2s0-0.9-0.1-1.2
					c-0.1-0.3-0.2-0.5-0.4-0.6s-0.4-0.3-0.6-0.3c-0.2,0-0.6-0.1-1.1-0.1C138.8,96.6,138.2,96.6,138.2,96.6z"/>
				<path class="st4" d="M143.6,102.1v-6.6h4.9v1.1h-3.6V98h3.3v1.1h-3.3v1.8h3.7v1.1L143.6,102.1L143.6,102.1z"/>
				<path class="st4" d="M149.8,95.4h1.3V99c0,0.6,0,0.9,0,1.1c0.1,0.3,0.2,0.5,0.4,0.7s0.5,0.2,0.9,0.2s0.7-0.1,0.9-0.2
					c0.2-0.2,0.3-0.3,0.3-0.6s0.1-0.6,0.1-1.1v-3.7h1.3v3.5c0,0.8,0,1.4-0.1,1.7c-0.1,0.3-0.2,0.6-0.4,0.8c-0.2,0.2-0.5,0.4-0.8,0.5
					s-0.8,0.2-1.3,0.2c-0.6,0-1.1-0.1-1.4-0.2c-0.3-0.1-0.6-0.3-0.8-0.6c-0.2-0.2-0.3-0.5-0.4-0.7c-0.1-0.4-0.1-0.9-0.1-1.7
					L149.8,95.4L149.8,95.4z"/>
				<path class="st4" d="M157.9,102.1v-5.5h-2v-1.1h5.3v1.1h-2v5.5H157.9z"/>
				<path class="st4" d="M161.8,99.9l1.3-0.1c0.1,0.4,0.2,0.8,0.5,1c0.2,0.2,0.6,0.3,1,0.3s0.8-0.1,1-0.3c0.2-0.2,0.3-0.4,0.3-0.6
					s0-0.3-0.1-0.4s-0.3-0.2-0.5-0.3c-0.2-0.1-0.5-0.2-1.1-0.3c-0.7-0.2-1.2-0.4-1.5-0.7c-0.4-0.4-0.6-0.8-0.6-1.3
					c0-0.3,0.1-0.7,0.3-0.9c0.2-0.3,0.5-0.5,0.8-0.7c0.4-0.2,0.8-0.2,1.3-0.2c0.8,0,1.5,0.2,1.9,0.5c0.4,0.4,0.6,0.9,0.7,1.5
					l-1.3,0.1c-0.1-0.3-0.2-0.6-0.4-0.7s-0.5-0.2-0.8-0.2c-0.4,0-0.7,0.1-0.9,0.2c-0.1,0.1-0.2,0.2-0.2,0.4c0,0.2,0.1,0.3,0.2,0.4
					c0.2,0.1,0.6,0.3,1.2,0.4c0.7,0.2,1.1,0.3,1.4,0.5s0.6,0.4,0.7,0.7c0.2,0.3,0.3,0.6,0.3,1.1c0,0.4-0.1,0.7-0.3,1.1
					c-0.2,0.3-0.5,0.6-0.9,0.7c-0.4,0.2-0.9,0.2-1.4,0.2c-0.8,0-1.5-0.2-1.9-0.6S161.9,100.7,161.8,99.9z"/>
				<path class="st4" d="M172.5,99.6l1.3,0.4c-0.2,0.7-0.5,1.3-1,1.6c-0.5,0.4-1.1,0.5-1.8,0.5c-0.9,0-1.6-0.3-2.2-0.9
					c-0.6-0.6-0.9-1.4-0.9-2.5s0.3-2,0.9-2.6c0.6-0.6,1.3-0.9,2.2-0.9c0.8,0,1.5,0.2,2,0.7c0.3,0.3,0.5,0.7,0.7,1.2l-1.3,0.3
					c-0.1-0.3-0.2-0.6-0.5-0.8c-0.2-0.2-0.6-0.3-0.9-0.3c-0.5,0-0.9,0.2-1.2,0.5s-0.5,0.9-0.5,1.7c0,0.8,0.2,1.4,0.5,1.8
					s0.7,0.5,1.2,0.5c0.4,0,0.7-0.1,0.9-0.3C172.2,100.5,172.4,100.1,172.5,99.6z"/>
				<path class="st4" d="M175,102.1v-6.6h1.3v2.6h2.6v-2.6h1.3v6.6h-1.3v-2.9h-2.6v2.9H175z"/>
				<path class="st4" d="M181.7,102.1v-6.6h1.3v5.5h3.3v1.1C186.4,102.1,181.7,102.1,181.7,102.1z"/>
				<path class="st4" d="M193.3,102.1h-1.5l-0.6-1.5h-2.6l-0.5,1.5h-1.4l2.6-6.6h1.4L193.3,102.1z M190.8,99.5l-0.9-2.5l-0.9,2.5
					H190.8z"/>
				<path class="st4" d="M194,102.1v-6.6h1.3l2.7,4.4v-4.4h1.2v6.6h-1.3l-2.7-4.3v4.3H194z"/>
				<path class="st4" d="M200.7,95.4h2.4c0.6,0,1,0,1.3,0.1c0.4,0.1,0.7,0.3,1,0.6c0.3,0.3,0.5,0.7,0.6,1.1s0.2,0.9,0.2,1.6
					c0,0.5-0.1,1-0.2,1.4c-0.2,0.5-0.4,0.9-0.7,1.2c-0.2,0.2-0.5,0.4-0.9,0.5c-0.3,0.1-0.7,0.1-1.2,0.1h-2.5L200.7,95.4L200.7,95.4z
					 M202,96.6v4.4h1c0.4,0,0.6,0,0.8-0.1s0.4-0.1,0.5-0.3c0.1-0.1,0.3-0.3,0.4-0.6c0.1-0.3,0.1-0.7,0.1-1.2s0-0.9-0.1-1.2
					c-0.1-0.3-0.2-0.5-0.4-0.6s-0.4-0.3-0.6-0.3c-0.2,0-0.6-0.1-1.1-0.1C202.6,96.6,202,96.6,202,96.6z"/>
			</g>
		</g>
		<g>
			<circle class="st4" cx="169.9" cy="10" r="12.2"/>
			<path class="st4" d="M194.6,7.3l-6.9,6.9c5.6,4.9,9.1,12.1,9.1,20.2c0,14.8-12,26.9-26.9,26.9c-14.8,0-26.9-12-26.9-26.9
				c0-8,3.5-15.2,9.1-20.2l-6.9-6.9c-7.4,6.7-12,16.4-12,27.1c0,20.2,16.4,36.6,36.6,36.6s36.6-16.4,36.6-36.6
				C206.5,23.7,201.9,14,194.6,7.3z"/>
			<path class="st4" d="M167.5,29.5l-11.8-11.8c-4.7,4-7.7,10-7.7,16.7c0,11.3,8.5,20.6,19.5,21.8V29.5L167.5,29.5z M184.2,17.7
				l-11.8,11.8v26.7c11-1.2,19.5-10.5,19.5-21.8C191.9,27.7,188.9,21.8,184.2,17.7z"/>
		</g>
		<rect x="169.1" y="49.2" class="st4" width="1.6" height="1.1"/>
	</g>
</g>
</svg>
