<?xml version="1.0" encoding="utf-8"?>
<svg version="1.1" xmlns="http://www.w3.org/2000/svg" xmlns:xlink="http://www.w3.org/1999/xlink" x="0px" y="0px" viewBox="-242 260 220 102" style="enable-background:new -242 260 220 102;" xml:space="preserve">
<style type="text/css">
	.st0{ fill: rgba(255,255,255,0.6); }
	.st1{ fill: #fff; }
</style>
<path class="st0" d="M-146.2,307c0.1-0.1,0.2-0.2,0.4-0.3l-0.9-0.5v0.5
	C-146.7,306.7-146.2,307-146.2,307z M-142.9,309.6c-0.1,0-0.2,0-0.3,0c-0.4,0-0.6,0.1-1,0.2l3,0.8c-0.2-0.3-0.4-0.5-0.7-0.6
	C-141.8,310-142.9,309.6-142.9,309.6z M-145.8,287.7l-2,7.4l2,3.4V287.7z M-145.8,299.4l-2.2-3.7l-1.2,4.6l3.4,3.4V299.4z
	 M-148.3,295.2l-1.2-2l-2.6,4.4l2.4,2.5L-148.3,295.2z M-149.7,300.5l-2.6-2.6l-2.2,3.8l3.8,2.2
	C-150.6,303.9-149.7,300.5-149.7,300.5z M-150.7,304.4l-3.7-2.1l1.2,4.7l1.6,0.4C-151.5,307.3-150.7,304.4-150.7,304.4z
	 M-151.6,307.8l-1.4-0.4l0.7,2.7L-151.6,307.8z M-152.3,311.8l-0.7,2.7l1.4-0.4L-152.3,311.8z M-153.6,306.8l-1.2-4.4l-2,3.5
	C-156.8,305.9-153.6,306.8-153.6,306.8z M-157.3,305.8l2.3-3.9l-3.9-2.2l-4.5,4.5C-163.4,304.2-157.3,305.8-157.3,305.8z
	 M-159.3,299.4l-4.4-2.6v6.9L-159.3,299.4z M-163.6,296.2l6.2-3.6l-2.6-2.6l-3.6,1C-163.6,291.1-163.6,296.2-163.6,296.2z
	 M-163.6,290.6l3.3-0.9l-3.3-3.3V290.6z M-163.6,285.8h4.4l-0.9-3.5l-3.5-0.9V285.8z M-163.6,280.9l3.3,0.9l-1.3-4.9l-2.1-1.2V280.9
	z M-163.6,275.3l1.9,1.1l-1.9-7.1V275.3z M-163.2,269.3l2,7.5l3.5,2C-157.8,278.8-163.2,269.3-163.2,269.3z M-162.7,269.3l5.7,9.9
	l9.9,5.7C-147.1,284.9-162.7,269.3-162.7,269.3z M-147.1,285.4l-9.5-5.5l2,3.5C-154.6,283.4-147.1,285.4-147.1,285.4z M-146.8,287
	l-4.3,2.4l0.7,1.1L-146.8,287z M-152.3,297.2l2.6-4.5l-0.9-1.5l-3.9,3.9C-154.4,295.1-152.3,297.2-152.3,297.2z M-154.6,301.3
	l2.1-3.7l-2.2-2.2l-1.2,1.2C-155.9,296.6-154.6,301.3-154.6,301.3z M-158.6,299.3l3.5,2.1l-1.2-4.4L-158.6,299.3z M-157.3,293
	l-6.1,3.5l4.5,2.6l2.6-2.6L-157.3,293z M-157,292.4l5.4-3.1l-0.7-1.2l-5.4,1.5C-157.8,289.5-157,292.4-157,292.4z M-159.6,290l2,1.9
	l-0.6-2.3L-159.6,290z M-159.1,286.2h-4.2l3.4,3.4l1.6-0.4L-159.1,286.2z M-147.2,285.8l-7-1.9l1.1,1.9
	C-153.2,285.8-147.2,285.8-147.2,285.8z M-153.4,286.2h-5.2l0.7,2.9l5.4-1.4L-153.4,286.2z M-152.2,287.6l4.9-1.3h-5.7L-152.2,287.6
	z M-151.3,289.1l4.2-2.4l-4.9,1.3L-151.3,289.1z M-156.8,293.4l0.7,2.8l1-1C-155,295.1-156.8,293.4-156.8,293.4z M-154.7,294.8l4-4
	l-0.7-1.2l-5.4,3.1C-156.8,292.7-154.7,294.8-154.7,294.8z M-155.2,283.2l-2.2-3.8l-3.8-2.2l1.3,4.7L-155.2,283.2z M-159.7,282.5
	l0.9,3.3h5.1l-1.2-2.1L-159.7,282.5z M-146.6,287.3l-3.6,3.6l0.8,1.3L-146.6,287.3z M-149.2,292.7l1.1,1.9l1.9-7.1L-149.2,292.7z
	 M-164.1,269.4l-1.3,5l1.3,0.8V269.4z M-164.1,275.6l-1.5-0.9l-1.4,5.3l2.9,0.8V275.6z M-164.1,281.3l-3-0.8l-0.4,1.6l3.4,3.4V281.3
	z M-164.1,286.2h-4.5l-1.7,6.2l6.2-1.6V286.2z M-164.1,291.2l-5.9,1.6l5.9,3.4C-164.1,296.2-164.1,291.2-164.1,291.2z M-164.1,296.9
	l-2.8,1.6l2.8,5V296.9z M-167.1,298.2l2.9-1.6l-5.7-3.3L-167.1,298.2z M-169,286.2h-5l3.4,6L-169,286.2z M-171.1,292.6l-5.2-3
	l-3,5.2L-171.1,292.6z M-176.6,289.5l-5.2-3l2.2,8.1L-176.6,289.5z M-179.7,295.7l-2.1,3.5l3.2,0.9L-179.7,295.7z M-178.4,300.6
	l-3-0.8l3.8,3.8C-177.6,303.6-178.4,300.6-178.4,300.6z M-180.1,295.5l-4.4,1.2l2.4,2.4C-182.2,299.1-180.1,295.5-180.1,295.5z
	 M-182.8,298.9l-2.2-2.1l-3,0.8L-182.8,298.9z M-188.6,297.3l3.2-0.9l-3.2-3.2V297.3z M-188.6,292.2l6-6h-6V292.2z M-188.6,285.8
	h5.7l-5.7-3.3V285.8z M-188.6,281.8l4.4-2.6l-1-3.6l-3.5-0.9V281.8z M-188.6,274.1l2.9-0.8l-1.5-5.4h-1.4
	C-188.6,267.9-188.6,274.1-188.6,274.1z M-188.6,267.6h1.3l-1.3-4.9V267.6z M-188.2,262.6l1.3,5h1.6L-188.2,262.6z M-187.8,262.3
	l3,5.2h2.2L-187.8,262.3z M-187.5,262l5.5,5.5h4C-178,267.6-187.5,262-187.5,262z M-187.1,261.8l10,5.8h11.4L-187.1,261.8z
	 M-165.4,267.9h-10.9l3.4,2L-165.4,267.9z M-165.4,268.4l-7.1,1.9l1.9,1.1C-170.5,271.3-165.4,268.4-165.4,268.4z M-165.2,268.8
	l-4.9,2.8l1.3,0.8L-165.2,268.8z M-164.8,269l-3.5,3.5l1.1,0.6L-164.8,269z M-165.8,274.1l1.3-4.9l-2.4,4.2L-165.8,274.1z
	 M-167.3,280l1.5-5.4l-1.2-0.7l-3.1,5.4L-167.3,280z M-167.5,280.4l-2.3-0.6l1.9,1.9C-167.8,281.7-167.5,280.4-167.5,280.4z
	 M-168.5,285.8h4.1l-3.3-3.3C-167.6,282.5-168.5,285.8-168.5,285.8z M-174,285.8h5.1l1-3.6l-2.6-2.5L-174,285.8z M-176,289.3
	l4.9,2.8l-3.3-5.7C-174.4,286.4-176,289.3-176,289.3z M-181.3,286.2l4.9,2.8l1.6-2.8H-181.3z M-181.6,285.8h6.8l-2.5-4.4
	C-177.3,281.4-181.6,285.8-181.6,285.8z M-182.2,286.4l-6.3,6.3l3.6,3.6l5-1.3L-182.2,286.4z M-182,285.6l4.5-4.5l-2.2-3.9l-3.9,2.3
	C-183.7,279.4-182,285.6-182,285.6z M-184,279.6l-4.3,2.5l5.9,3.4C-182.4,285.6-184,279.6-184,279.6z M-184.6,275.8l0.9,3.2l3.5-2.1
	C-180.3,276.9-184.6,275.8-184.6,275.8z M-185.2,273.7l0.4,1.6l4.7,1.2l-2.1-3.7C-182.2,272.9-185.2,273.7-185.2,273.7z
	 M-182.2,267.9h-2.3l2.6,4.4l3.3-0.9C-178.7,271.5-182.2,267.9-182.2,267.9z M-173.5,270.1l-3.7-2.2h-4.3l3.4,3.4
	C-178.2,271.4-173.5,270.1-173.5,270.1z M-171,271.6l-2-1.2l-4.8,1.3l2.4,2.4C-175.4,274.1-171,271.6-171,271.6z M-169.1,272.7
	l-1.4-0.9l-4.5,2.6l2.1,2.1C-173,276.6-169.1,272.7-169.1,272.7z M-170.6,279l3.1-5.4l-1.2-0.7l-4,4
	C-172.7,276.9-170.6,279-170.6,279z M-177,281.2l2.6,4.4l3.5-6.1l-3.5-0.9C-174.3,278.5-177,281.2-177,281.2z M-179.2,277.2l2.1,3.5
	l2.4-2.4C-174.8,278.4-179.2,277.2-179.2,277.2z M-175.8,274.4l-2.6-2.5l-3.5,0.9l2.2,3.8C-179.6,276.6-175.8,274.4-175.8,274.4z
	 M-174,278.2l2.8,0.7l-1.8-1.8L-174,278.2z M-173.3,276.9l-2.2-2.2l-3.7,2.1l4.7,1.3C-174.4,278.1-173.3,276.9-173.3,276.9z
	 M-185.6,273.8l-2.4,0.6l2.7,0.7C-185.2,275.2-185.6,273.8-185.6,273.8z M-182.4,272.5l-2.6-4.6h-1.7l1.4,5.3L-182.4,272.5z
	 M-189,262.7l-1.3,4.9h1.3C-189,267.6-189,262.7-189,262.7z M-189,267.9h-1.4l-1.5,5.4l2.9,0.8C-189,274.1-189,267.9-189,267.9z
	 M-189,274.7l-3.5,0.9l-1,3.6l4.4,2.6V274.7z M-189,282.5l-5.7,3.3h5.7V282.5z M-189,286.2h-6l6,6V286.2z M-189,293.2l-3.2,3.3
	l3.2,0.9V293.2z M-189.6,297.6l-2.9-0.8l-2.2,2.2C-194.7,299-189.6,297.6-189.6,297.6z M-193.1,296.7l-4.4-1.2l2,3.5
	C-195.5,299.1-193.1,296.7-193.1,296.7z M-195.8,299.2l-2.1-3.5l-1.2,4.4C-199,300.1-195.8,299.2-195.8,299.2z M-196.2,299.8l-3,0.8
	l-0.8,2.9L-196.2,299.8z M-199.6,300.7l-4.5,1.2l3.6,2.1L-199.6,300.7z M-200.7,304.3l-3.5-2.1l1.2,4.4L-200.7,304.3z M-200.8,305
	l-2.2,2.2l0.8,3L-200.8,305z M-202.2,311.8l-0.8,3l2.2,2.2C-200.8,316.9-202.2,311.8-202.2,311.8z M-200.7,317.6l-2.4-2.4l-1.2,4.4
	L-200.7,317.6z M-200.5,318l-3.6,2.1l4.5,1.2L-200.5,318z M-200,318.4l0.8,3l3,0.8L-200,318.4z M-195.8,322.7l-3.2-0.9l1.2,4.4
	C-197.9,326.3-195.8,322.7-195.8,322.7z M-197.5,326.5l4.4-1.2l-2.4-2.4L-197.5,326.5z M-194.7,323l2.2,2.2l2.9-0.8
	C-189.6,324.4-194.7,323-194.7,323z M-189,324.6l-3.3,0.9l3.3,3.2V324.6z M-189,329.8l-6,6h6V329.8z M-189,336.2h-5.7l5.7,3.3V336.2
	z M-189,340.2l-4.4,2.6l1,3.6l3.5,1V340.2z M-189,347.8l-2.9,0.8l1.5,5.4h1.4C-189,354-189,347.8-189,347.8z M-189,354.4h-1.3
	l1.3,4.9V354.4z M-189.4,359.4l-1.3-5h-1.5L-189.4,359.4z M-189.8,359.7l-3-5.2h-2.2L-189.8,359.7z M-190.1,360l-5.5-5.5h-4
	L-190.1,360z M-190.5,360.2l-10-5.8h-11.4C-211.9,354.4-190.5,360.2-190.5,360.2z M-212.1,354h10.9l-3.4-2
	C-204.7,352-212.1,354-212.1,354z M-212.2,353.6l7.1-1.9l-1.9-1.1C-207.1,350.6-212.2,353.6-212.2,353.6z M-212.5,353.2l5-2.9
	l-1.3-0.7L-212.5,353.2z M-212.8,352.9l3.6-3.5l-1.1-0.7C-210.3,348.7-212.8,352.9-212.8,352.9z M-213.1,352.7l2.4-4.2l-1.1-0.6
	L-213.1,352.7z M-213.5,352.6l1.3-4.9l-1.3-0.8V352.6z M-213.5,346.4l1.4,0.9l1.4-5.4l-2.8-0.8V346.4z M-213.5,340.7l3,0.8l0.4-1.6
	l-3.4-3.4C-213.5,336.5-213.5,340.7-213.5,340.7z M-213.5,335.7h4.5l1.7-6.2l-6.2,1.6C-213.5,331.2-213.5,335.7-213.5,335.7z
	 M-213.5,330.8l5.9-1.6l-5.9-3.4V330.8z M-213.5,325l2.8-1.6l-2.8-4.9V325z M-213.5,317.2l5.9-6h-5.9V317.2z M-213.5,310.8h6l-6-6
	V310.8z M-213.5,303.5l2.8-4.9l-2.8-1.6V303.5z M-213.5,296.1l5.9-3.4l-5.9-1.6V296.1z M-213.5,290.8l6.1,1.6l-1.6-6.2h-4.5V290.8z
	 M-213.5,285.4l3.4-3.4l-0.4-1.6l-3,0.8C-213.5,281.3-213.5,285.4-213.5,285.4z M-213.5,280.8l2.8-0.8l-1.4-5.3l-1.4,0.9
	C-213.5,275.6-213.5,280.8-213.5,280.8z M-213.5,275.1l1.3-0.7l-1.3-5V275.1z M-213.1,269.3l1.3,4.9l1.1-0.6L-213.1,269.3z
	 M-212.7,269l2.4,4.2l1.1-0.7C-209.2,272.6-212.7,269-212.7,269z M-212.5,268.7l3.7,3.6l1.3-0.8L-212.5,268.7z M-212.2,268.4l5.2,3
	l1.9-1.1L-212.2,268.4z M-212.1,267.9l7.5,2l3.5-2C-201.2,267.9-212.1,267.9-212.1,267.9z M-211.9,267.6h11.4l10-5.8L-211.9,267.6z
	 M-190.1,262l-9.5,5.5h4L-190.1,262z M-189.8,262.3l-5.2,5.2h2.2L-189.8,262.3z M-190.8,267.6l1.3-5l-2.9,5H-190.8z M-192.8,275.3
	l0.4-1.6l-3-0.8l-2.1,3.6C-197.5,276.6-192.8,275.3-192.8,275.3z M-193,275.8l-4.4,1.2l3.5,2.1L-193,275.8z M-195.1,285.6l5.9-3.4
	l-4.3-2.5L-195.1,285.6z M-197.6,295l4.9,1.3l3.6-3.6l-6.3-6.3C-195.4,286.4-197.6,295-197.6,295z M-198,294.6l2.2-8.1l-5.1,3
	C-201,289.5-198,294.6-198,294.6z M-204.5,301.6l5-1.3l1.3-4.9l-8.5-2.3C-206.8,293-204.5,301.6-204.5,301.6z M-213.3,303.9l8.1-2.2
	l-5.1-3C-210.3,298.8-213.3,303.9-213.3,303.9z M-207.6,293.3l-5.7,3.3l2.9,1.6L-207.6,293.3z M-207.1,293.3l-3,5.1l5.2,3
	L-207.1,293.3z M-208.6,286.2l1.6,5.9l3.4-5.9C-203.6,286.2-208.6,286.2-208.6,286.2z M-208.7,285.8h5.1l-3.5-6.2l-2.6,2.6
	L-208.7,285.8z M-213.3,285.8h4.1l-0.9-3.3C-210,282.5-213.3,285.8-213.3,285.8z M-210.2,280.4l0.4,1.3l1.9-1.9
	C-207.8,279.8-210.2,280.4-210.2,280.4z M-210.5,273.8l-1.2,0.7l1.5,5.4l2.9-0.7C-207.4,279.2-210.5,273.8-210.5,273.8z
	 M-208.9,272.9l-1.2,0.7l3.1,5.4l2.1-2.1L-208.9,272.9z M-207.1,271.8l-1.5,0.9l3.9,3.9l2.1-2.1L-207.1,271.8L-207.1,271.8z
	 M-204.6,270.4l-2.1,1.2l4.4,2.6l2.4-2.4L-204.6,270.4z M-196,267.9h-4.3l-3.8,2.2l4.7,1.3L-196,267.9z M-195.6,272.4l2.6-4.4h-2.4
	l-3.5,3.5C-199,271.5-195.6,272.4-195.6,272.4z M-195.8,272.8l-3.5-0.9l-2.5,2.5l3.8,2.2L-195.8,272.8z M-195.6,285.6l1.7-6.2
	l-3.9-2.3l-2.3,3.9L-195.6,285.6z M-196,285.8l-4.3-4.3l-2.5,4.3H-196z M-201.2,289.1l4.9-2.8h-6.5
	C-202.8,286.2-201.2,289.1-201.2,289.1z M-206.5,292.6l8.1,2.2l-3-5.2L-206.5,292.6z M-203.2,286.4l-3.3,5.6l4.9-2.8
	C-201.6,289.2-203.2,286.4-203.2,286.4z M-206.8,279.5l3.5,6.1l2.6-4.4l-2.6-2.6C-203.3,278.5-206.8,279.5-206.8,279.5z
	 M-204.6,277.2l-1.8,1.8l2.8-0.7L-204.6,277.2z M-202.8,278.4l2.4,2.4l2-3.6C-198.4,277.2-202.8,278.4-202.8,278.4z M-198.5,276.8
	l-3.7-2.1l-2.2,2.2l1.2,1.2C-203.1,278.1-198.5,276.8-198.5,276.8z M-203.5,307.1l-1.3-5l-8.6,2.3l6.3,6.3L-203.5,307.1z
	 M-202.5,310.8l-0.9-3.3l-3.2,3.3H-202.5z M-203.3,314.4l0.9-3.2h-4.1C-206.5,311.2-203.3,314.4-203.3,314.4z M-203.5,314.9
	l-3.6-3.6l-6.3,6.3l8.6,2.3C-204.8,319.9-203.5,314.9-203.5,314.9z M-198.2,326.7l-1.3-4.9l-5-1.3l-2.3,8.6L-198.2,326.7z
	 M-198,327.4l-2.9,5.2l5.1,3C-195.8,335.5-198,327.4-198,327.4z M-189.1,329.2l-3.6-3.6l-4.9,1.3l2.3,8.6
	C-195.4,335.5-189.1,329.2-189.1,329.2z M-193.5,342.3l4.3-2.5l-5.9-3.4L-193.5,342.3z M-193,346.2l-0.9-3.2l-3.5,2.1L-193,346.2z
	 M-192.4,348.3l-0.4-1.6l-4.7-1.2l2.1,3.6C-195.4,349.1-192.4,348.3-192.4,348.3z M-195.5,354h2.4l-2.6-4.4l-3.4,0.9
	C-199,350.5-195.5,354-195.5,354z M-204.1,351.9l3.7,2.2h4.3l-3.4-3.4C-199.4,350.6-204.1,351.9-204.1,351.9z M-206.6,350.4l2,1.2
	l4.9-1.3l-2.4-2.4L-206.6,350.4z M-208.5,349.3l1.5,0.8l4.5-2.6l-2.1-2.1C-204.6,345.4-208.5,349.3-208.5,349.3z M-210.1,348.4
	l1.2,0.7l4-3.9l-2.1-2.1L-210.1,348.4z M-210.3,342l-1.5,5.5l1.2,0.7l3.1-5.4C-207.4,342.8-210.3,342-210.3,342z M-210.2,341.6
	l2.3,0.6l-1.9-1.9C-209.8,340.3-210.2,341.6-210.2,341.6z M-209.1,336.2h-4.1l3.3,3.3C-210,339.4-209.1,336.2-209.1,336.2z
	 M-208.7,336.2l-1,3.6l2.5,2.5l3.6-6.2C-203.6,336.2-208.7,336.2-208.7,336.2z M-198.4,327.2l-8.2,2.2l5.2,3L-198.4,327.2z
	 M-196.3,335.7l-4.9-2.8l-1.6,2.8C-202.8,335.7-196.3,335.7-196.3,335.7z M-196,336.2h-6.8l2.5,4.4L-196,336.2z M-197.9,344.8
	l3.9-2.2l-1.7-6.2l-4.5,4.5C-200.1,340.9-197.9,344.8-197.9,344.8z M-201.9,347.6l2.6,2.5l3.5-0.9l-2.2-3.8
	C-198,345.4-201.9,347.6-201.9,347.6z M-204.3,345.1l2.2,2.2l3.6-2.1l-4.6-1.2C-203.1,343.9-204.3,345.1-204.3,345.1z M-206.4,343
	l1.8,1.8l1-1L-206.4,343z M-202.8,343.6l4.4,1.2l-2-3.5L-202.8,343.6z M-203.2,335.5l1.7-2.8l-4.9-2.8L-203.2,335.5z M-203.2,336.4
	l-3.5,6.1l3.5,1l2.6-2.7L-203.2,336.4z M-208.6,335.7h5l-3.4-5.9L-208.6,335.7z M-207.1,328.7l2.2-8.1l-5.2,3L-207.1,328.7z
	 M-210.3,323.1l5.1-2.9l-8.1-2.2L-210.3,323.1z M-210.5,323.8l-2.8,1.6l5.7,3.3C-207.6,328.7-210.5,323.8-210.5,323.8z M-192,348.2
	l2.3-0.6l-2.7-0.7C-192.4,346.8-192,348.2-192,348.2z M-195.2,349.4l2.6,4.6h1.7l-1.4-5.3L-195.2,349.4z M-192.4,275.2l2.7-0.7
	l-2.3-0.6C-192,273.8-192.4,275.2-192.4,275.2z M-190.9,267.9h-1.7l-2.6,4.6l2.9,0.8L-190.9,267.9z M-188.6,359.3l1.3-4.9h-1.3
	V359.3z M-188.6,354h1.4l1.5-5.4l-2.9-0.8V354z M-188.6,347.2l3.5-0.9l1-3.6l-4.4-2.6C-188.6,340.2-188.6,347.2-188.6,347.2z
	 M-188.6,339.4l5.7-3.3h-5.7C-188.6,336.2-188.6,339.4-188.6,339.4z M-188.6,335.7h6l-6-6C-188.6,329.8-188.6,335.7-188.6,335.7z
	 M-188.6,328.7l3.2-3.2l-3.2-0.9V328.7z M-188,324.4l3,0.8l2.2-2.2C-182.8,323-188,324.4-188,324.4z M-184.5,325.3l4.4,1.2l-2.1-3.6
	L-184.5,325.3z M-181.8,322.7l2.1,3.6l1.2-4.4L-181.8,322.7z M-181.4,322.2l3-0.8l0.8-3C-177.6,318.4-181.4,322.2-181.4,322.2z
	 M-179.6,327.4l-2.2,8.1l5.2-3C-176.6,332.5-179.6,327.4-179.6,327.4z M-179.2,327.2l3,5.2l5.2-3L-179.2,327.2z M-174,335.7h5
	l-1.6-5.9L-174,335.7z M-170.2,329.6l1.7,6.2h4.5v-4.5L-170.2,329.6z M-170,329.2l5.9,1.6v-5L-170,329.2z M-169.9,328.7l5.7-3.3
	l-2.8-1.6C-167.1,323.8-169.9,328.7-169.9,328.7z M-164.1,336.5l-3.4,3.4l0.4,1.6l3-0.8C-164.1,340.7-164.1,336.5-164.1,336.5z
	 M-164.1,341.1l-2.9,0.8l1.4,5.4l1.5-0.9V341.1z M-164.1,346.9l-1.3,0.8l1.3,5V346.9z M-164.4,352.7l-1.3-4.9l-1.1,0.7
	C-166.9,348.5-164.4,352.7-164.4,352.7z M-164.8,352.9l-2.4-4.2l-1.1,0.7C-168.4,349.4-164.8,352.9-164.8,352.9z M-165.2,353.2
	l-3.6-3.6l-1.3,0.7L-165.2,353.2z M-165.4,353.6l-5.1-3l-1.9,1.1C-172.4,351.7-165.4,353.6-165.4,353.6z M-165.5,354l-7.4-2l-3.4,2
	H-165.5z M-165.7,354.4h-11.4l-10,5.8L-165.7,354.4z M-187.5,360l9.5-5.5h-4L-187.5,360z M-187.8,359.7l5.2-5.2h-2.2L-187.8,359.7z
	 M-186.8,354.4l-1.3,5l2.9-5H-186.8z M-184.8,346.7l-0.4,1.6l3,0.8l2.1-3.6C-180.1,345.4-184.8,346.7-184.8,346.7z M-184.6,346.2
	l4.4-1.2l-3.5-2.1L-184.6,346.2z M-182.4,336.4l-5.9,3.4l4.3,2.5L-182.4,336.4z M-179.9,327l-5-1.3l-3.6,3.6l6.3,6.3
	C-182.2,335.6-179.9,327-179.9,327z M-182,336.4l-1.7,6.2l3.9,2.2l2.2-3.9C-177.5,340.9-182,336.4-182,336.4z M-181.6,336.2l4.4,4.4
	l2.5-4.4C-174.8,336.2-181.6,336.2-181.6,336.2z M-176.4,332.9l-4.9,2.8h6.6L-176.4,332.9z M-171.1,329.8l-5,2.9l1.7,2.8
	L-171.1,329.8z M-168.9,336.2h-5.1l3.5,6.2l2.6-2.6C-167.9,339.8-168.9,336.2-168.9,336.2z M-167.6,339.4l3.3-3.3h-4.1
	C-168.5,336.2-167.6,339.4-167.6,339.4z M-167.5,341.6l-0.4-1.3l-1.9,2C-169.8,342.2-167.5,341.6-167.5,341.6z M-167.1,348.2
	l1.2-0.7l-1.5-5.5l-2.9,0.8L-167.1,348.2z M-168.7,349.1l1.2-0.7l-3.1-5.4l-2.1,2.1C-172.7,345.1-168.7,349.1-168.7,349.1z
	 M-170.5,350.1l1.4-0.8l-3.9-3.9l-2.1,2.1C-175,347.5-170.5,350.1-170.5,350.1z M-173,351.6l2.1-1.2l-4.4-2.6l-2.4,2.4
	C-177.8,350.3-173,351.6-173,351.6z M-181.6,354h4.4l3.7-2.2l-4.6-1.2C-178.2,350.6-181.6,354-181.6,354z M-182,349.6l-2.6,4.4h2.4
	l3.5-3.5L-182,349.6z M-179.6,345.4l-2.2,3.8l3.5,0.9l2.5-2.5L-179.6,345.4z M-177.2,341.2l-2.1,3.5l4.4-1.2L-177.2,341.2z
	 M-170.9,342.5l-3.5-6.1l-2.6,4.4l2.6,2.6L-170.9,342.5z M-174.4,343.9l-4.7,1.2l3.7,2.1l2.2-2.2
	C-173.2,345.1-174.4,343.9-174.4,343.9z M-173,344.8l1.8-1.8l-2.8,0.7L-173,344.8z M-185.2,346.8l-2.7,0.7l2.4,0.6
	C-185.6,348.2-185.2,346.8-185.2,346.8z M-186.7,354h1.7l2.6-4.6l-2.9-0.7C-185.3,348.7-186.7,354-186.7,354z M-163.6,352.6l1.9-7.1
	l-1.9,1.1V352.6z M-163.6,346.1l2.1-1.2l1.3-4.9l-3.3,0.9V346.1z M-163.6,340.6l3.5-1l0.9-3.5h-4.4V340.6z M-163.6,335.5l3.3-3.3
	l-3.3-0.9C-163.6,331.3-163.6,335.5-163.6,335.5z M-163.6,330.9l3.6,1l2.6-2.6l-6.2-3.5C-163.6,325.8-163.6,330.9-163.6,330.9z
	 M-163.4,325.4l6.1,3.5l0.9-3.5l-2.6-2.6L-163.4,325.4z M-156.8,328.6l1.8-1.8l-1-1C-156,325.8-156.8,328.6-156.8,328.6z
	 M-154.7,327.1l-2.1,2.1l5.4,3.1l0.7-1.2C-150.7,331.1-154.7,327.1-154.7,327.1z M-154.4,326.8l3.9,3.9l0.9-1.5l-2.6-4.5
	C-152.3,324.7-154.4,326.8-154.4,326.8z M-149.4,329.7l-0.8,1.3l3.6,3.6L-149.4,329.7z M-149.2,329.3l3,5.2l-1.9-7.1
	C-148.1,327.4-149.2,329.3-149.2,329.3z M-147.8,326.9l2,7.4v-10.9L-147.8,326.9z M-146.9,334.9l-3.5-3.5l-0.6,1.1
	C-151.1,332.5-146.9,334.9-146.9,334.9z M-147.1,336.6l-7.5,2l-2,3.5C-156.6,342.1-147.1,336.6-147.1,336.6z M-147.1,337.1l-9.9,5.7
	l-5.7,9.9L-147.1,337.1z M-161.2,345.3l-2,7.5l5.5-9.5C-157.8,343.2-161.2,345.3-161.2,345.3z M-159.8,340l-1.3,4.7l3.8-2.2l2.2-3.8
	C-155.1,338.7-159.8,340-159.8,340z M-159.7,339.5l4.9-1.3l1.2-2.1h-5.1L-159.7,339.5z M-159.9,332.3l-3.4,3.4h4.2l0.8-3
	L-159.9,332.3z M-157.6,330l-2,1.9l1.3,0.4C-158.2,332.4-157.6,330-157.6,330z M-151.7,332.7l-5.4-3.1l-0.8,2.9l5.4,1.5
	C-152.4,333.9-151.7,332.7-151.7,332.7z M-147.1,335.3l-4.2-2.4l-0.6,1.1L-147.1,335.3z M-147.2,335.7l-5-1.3l-0.8,1.3
	C-152.9,335.7-147.2,335.7-147.2,335.7z M-152.6,334.3l-5.4-1.5l-0.7,2.9h5.2L-152.6,334.3z M-154.2,338.1l7-1.9h-6
	C-153.2,336.2-154.2,338.1-154.2,338.1z M-214,269.4l-1.9,7.1l1.9-1.1V269.4z M-214,275.8l-2,1.2l-1.3,4.9l3.3-0.9V275.8z
	 M-214,281.4l-3.4,0.9l-1,3.5h4.4C-214,285.8-214,281.4-214,281.4z M-214,286.5l-3.2,3.3l3.2,0.9V286.5z M-214,291.1l-3.6-1
	l-2.5,2.6l6.1,3.6V291.1z M-214,296.9l-4.3,2.6l4.3,4.3V296.9z M-214,305.1l-3.3,5.7h3.3V305.1z M-214,311.2h-3.3l3.3,5.7V311.2z
	 M-214,318.2l-4.3,4.3l4.3,2.5C-214,325-214,318.2-214,318.2z M-214,325.8l-6.1,3.5l2.5,2.5l3.6-1V325.8z M-214,331.3l-3.3,0.9
	l3.3,3.3C-214,335.5-214,331.3-214,331.3z M-214,336.2h-4.4l1,3.5l3.4,1V336.2z M-214,341l-3.3-0.9l1.3,4.9l2,1.2
	C-214,346.1-214,341-214,341z M-214,346.6l-1.8-1.1l1.8,7C-214,352.6-214,346.6-214,346.6z M-214.4,352.7l-2-7.5l-3.5-2.1
	C-219.9,343.2-214.4,352.7-214.4,352.7z M-214.8,352.8l-5.7-10l-10-5.8L-214.8,352.8z M-230.7,334.9l4.1-2.4l-0.6-1.1
	C-227.2,331.4-230.7,334.9-230.7,334.9z M-231,334.6l3.6-3.6l-0.7-1.3L-231,334.6z M-231.4,334.5l3-5.2l-1.1-1.9
	C-229.5,327.4-231.4,334.5-231.4,334.5z M-231.8,335.8L-231.8,335.8L-231.8,335.8L-231.8,335.8L-231.8,335.8z M-231.8,334.3l2-7.4
	l-2-3.4V334.3z M-231.8,322.6l2.2,3.7l1.2-4.7l-3.4-3.4C-231.8,318.3-231.8,322.6-231.8,322.6z M-231.8,317.7l3.5,3.5l0.9-3.4
	l-4.4-2.6V317.7z M-231.8,314.7l4.5,2.7l0.8-2.9l-5.3-1.4V314.7z M-231.8,312.6l5.4,1.5l0.8-2.9h-6.2
	C-231.8,311.2-231.8,312.6-231.8,312.6z M-231.8,310.8h6.2l-0.8-2.9l-5.4,1.5C-231.8,309.3-231.8,310.8-231.8,310.8z M-231.8,308.9
	l5.3-1.4l-0.8-2.9l-4.5,2.6C-231.8,307.2-231.8,308.9-231.8,308.9z M-231.8,306.7l4.4-2.6l-0.9-3.4l-3.5,3.5
	C-231.8,304.3-231.8,306.7-231.8,306.7z M-231.8,303.7l3.4-3.4l-1.2-4.7l-2.2,3.7V303.7z M-231.8,298.5l2-3.4l-2-7.4V298.5z
	 M-231.4,287.5l1.9,7.1l1.1-1.9L-231.4,287.5z M-231,287.3l2.9,5l0.7-1.3C-227.4,290.9-231,287.3-231,287.3z M-230.7,287l3.6,3.5
	l0.6-1.1L-230.7,287z M-230.5,284.9l9.9-5.7l5.8-10C-214.8,269.2-230.5,284.9-230.5,284.9z M-216.4,276.7l2-7.5l-5.5,9.5
	L-216.4,276.7z M-217.8,282l1.2-4.7l-3.8,2.2l-2.2,3.7C-222.5,283.2-217.8,282-217.8,282z M-217.9,282.5l-4.9,1.3l-1.2,2.1h5.1
	L-217.9,282.5z M-217.7,289.6l3.4-3.4h-4.2l-0.8,3L-217.7,289.6z M-220,291.9l1.9-1.9l-1.3-0.4L-220,291.9z M-219.8,289.5l-5.5-1.5
	l-0.7,1.2l5.4,3.1L-219.8,289.5z M-218.6,299.1l4.4-2.6l-6.1-3.5l-1,3.5C-221.2,296.5-218.6,299.1-218.6,299.1z M-214.2,304.2
	l-4.5-4.5l-3.9,2.3l2.3,3.9C-220.3,305.8-214.2,304.2-214.2,304.2z M-217.6,310.6l3.4-6l-5.9,1.6
	C-220.1,306.2-217.6,310.6-217.6,310.6z M-214.2,317.3l-3.4-5.9l-2.5,4.3C-220.1,315.7-214.2,317.3-214.2,317.3z M-214.2,317.8
	l-6.2-1.7l-2.3,3.9l3.9,2.2L-214.2,317.8z M-220.3,328.9l6.1-3.5l-4.4-2.6l-2.6,2.6C-221.2,325.5-220.3,328.9-220.3,328.9z
	 M-220.6,329.6l-5.4,3.1l0.7,1.2l5.5-1.5L-220.6,329.6z M-218.1,332l-1.9-1.9l0.6,2.3C-219.4,332.3-218.1,332-218.1,332z
	 M-218.5,335.7h4.2l-3.4-3.4l-1.5,0.4C-219.3,332.8-218.5,335.7-218.5,335.7z M-217.9,339.5l-0.9-3.4h-5.1l1.2,2.1L-217.9,339.5z
	 M-220.3,342.5l3.8,2.2l-1.2-4.6l-4.7-1.3C-222.5,338.7-220.3,342.5-220.3,342.5z M-230.5,336.6l9.5,5.5l-2.1-3.5L-230.5,336.6z
	 M-225.5,334.4l-5,1.3h5.7L-225.5,334.4z M-224.4,336.2h-6l7.1,1.9C-223.3,338.1-224.4,336.2-224.4,336.2z M-224.2,335.7h5.2
	l-0.7-2.9l-5.4,1.4L-224.2,335.7z M-226.3,332.9l-4.2,2.4l4.8-1.3L-226.3,332.9z M-226.9,331.1l0.7,1.2l5.4-3.1l-2.1-2.1
	L-226.9,331.1z M-227.9,329.3l0.9,1.4l3.9-3.9l-2.1-2.1C-225.3,324.7-227.9,329.3-227.9,329.3z M-228.1,322l-1.3,4.9l1.2,2l2.6-4.4
	C-225.6,324.4-228.1,322-228.1,322z M-227,318l-1,3.5l2.6,2.6l2.2-3.8C-223.2,320.2-227,318-227,318z M-226.1,314.6l-0.8,3l3.6,2.1
	l-1.2-4.6C-224.5,315-226.1,314.6-226.1,314.6z M-225.3,311.8l-0.6,2.4l1.3,0.4L-225.3,311.8z M-226,307.8l0.6,2.4l0.7-2.7
	L-226,307.8z M-226.9,304.4l0.8,3l1.6-0.4l1.2-4.7L-226.9,304.4z M-227.9,300.5l1,3.5l3.8-2.2l-2.2-3.8
	C-225.4,297.9-227.9,300.5-227.9,300.5z M-228.2,293.1l-1.2,2.1l1.3,4.8l2.4-2.4L-228.2,293.1z M-227.1,291.2l-0.9,1.5l2.6,4.6
	l2.1-2.1L-227.1,291.2z M-220.8,293.4l-1.8,1.8l1,1C-221.6,296.1-220.8,293.4-220.8,293.4z M-222.5,301.4l3.5-2l-2.3-2.4
	L-222.5,301.4z M-221.7,296.6l-1.2-1.2l-2.2,2.2l2.1,3.6L-221.7,296.6z M-220.8,305.9l-2.1-3.5l-1.2,4.4
	C-224,306.8-220.8,305.9-220.8,305.9z M-218,310.8l-2.6-4.5l-3.6,1l-0.9,3.5L-218,310.8L-218,310.8z M-220.5,315.6l2.6-4.4h-7.1
	l0.9,3.5L-220.5,315.6z M-222.8,319.6l2.1-3.5l-3.3-0.9L-222.8,319.6z M-222.9,320.7l-2.1,3.7l2.2,2.2l1.2-1.2
	C-221.7,325.3-222.9,320.7-222.9,320.7z M-221.6,325.8l-1.1,1l1.8,1.8L-221.6,325.8z M-221.4,325l2.3-2.3l-3.5-2L-221.4,325z
	 M-226.9,290.9l4,4l2.1-2.1l-5.4-3.1L-226.9,290.9z M-230.5,286.7l4.2,2.4l0.6-1.1L-230.5,286.7z M-223.1,283.4l2-3.5l-9.5,5.5
	L-223.1,283.4z M-223.3,283.9l-7,1.9h5.9C-224.4,285.8-223.3,283.9-223.3,283.9z M-224.7,286.2h-5.7l4.9,1.3
	C-225.4,287.5-224.7,286.2-224.7,286.2z M-225,287.7l5.3,1.4l0.7-2.9h-5.2L-225,287.7z M-232.2,287.8l-5.8,21.4l5.8-10
	C-232.2,299.3-232.2,287.8-232.2,287.8z M-232.2,300.1l-5.5,9.5l5.5-5.5C-232.2,304.2-232.2,300.1-232.2,300.1z M-232.2,304.8
	l-5.2,5.2l5.2-3V304.8z M-232.2,307.5l-5,2.9l5-1.3V307.5z M-232.2,309.5l-4.9,1.3h4.9V309.5z M-232.2,311.2h-4.9l4.9,1.3V311.2z
	 M-232.2,313l-5-1.3l5,2.9V313z M-232.2,315l-5.2-3l5.2,5.2V315z M-232.2,317.8l-5.5-5.5l5.5,9.5V317.8z M-232.2,322.7l-5.8-10
	l5.8,21.5V322.7z M-140.6,305.6l-4.8-17.7v11.4l3.6,6.2c-0.1,0-0.1,0-0.2,0c-0.1,0-0.2,0-0.2,0l-3.1-5.4v4l1.5,1.6
	c-0.1,0-0.3,0.1-0.5,0.1l-1.1-1.1v1.6c-0.1,0.1-0.3,0.2-0.5,0.3v-2.3l-3.5-3.5l-0.9,3.4l3,1.8h-0.8l-2.3-1.3l-0.4,1.3h-0.4v2l-0.1,0
	l-0.7,2.9h0.9v0.4h-0.9l0.7,2.9l0.1,0v2.1l-0.4-1.5l-1.6,0.4l-1.2,4.3v-0.1v-1.5l0.7-2.6l-0.7,0.2v-0.4l0.8-0.2l0.9-3.5h-1.7v-0.4
	h1.7l-0.9-3.5l-2.6-0.7c-1.2-0.8-2.9-1.3-5-1.3l-2.4-0.6l0.4,0.7c-0.1,0-0.3,0-0.4,0l-0.2-0.3v0.3c-0.1,0-0.3,0.1-0.4,0.1v-0.7
	l-0.9,0.9c-0.3,0.1-0.6,0.2-1,0.4l1.7-1.7l-8-2.1v-0.5l7.9,2.1l-3-5.2l-4.9,2.9v-0.5l4.7-2.8l-3-5.2l-1.7,6.6v-0.6h-0.3l1.7-6.2
	l-8.6,2.3l1.3,4.9l1.2,0.3v0.5l-1-0.3l0.9,3.3l0.2-0.1v2.3l-0.4-1.6l-5.9,3.4h-0.9l6.5-3.8l-4.5-4.5l-4.4,7.5v-0.8l4-7l-6.2-1.6v1.3
	h-0.4v-1.3l-6.2,1.6l4,7v0.8l-4.4-7.6l-4.5,4.5l8.9,5.1v0.5l-9.1-5.2l-1.7,6.2h10.7v0.4h-10.7l1.7,6.1l9.1-5.2v0.5l-8.9,5.1l4.5,4.5
	l4.4-7.6v0.9l-4,6.9l6.2,1.7v-1.3h0.4v1.3l6.1-1.6l-4-6.9v-0.9l4.4,7.6l4.5-4.5l-8.9-5.1v-0.3h0.3l8.8,5.1l0.4-1.5v2.3l-0.1-0.1
	l-0.9,3.2l1-0.2v0.4l-1.2,0.3l-1.3,5l8.6,2.3l-1.7-6.2h0.3v-0.6l1.7,6.6l3-5.2l-4.7-2.7v-0.5l5,2.9l0.4-0.7c0.1,0.1,0.2,0.1,0.4,0.2
	l-0.4,0.7l2.8,1.6v-1.8c0.1,0,0.3,0,0.4,0v1.8l4.3-2.5l-0.2-0.3c0.1-0.1,0.2-0.2,0.4-0.2l0.3,0.3l0.2-0.1c0,0.1,0,0.2,0.1,0.3l0,0.1
	l0,0l0.1,0.1v0.1h0.1l2.2,2.2l0.6-2.2h0.5l-0.7,2.6l1.2,1.2l2.2-2.2l-0.9-1.6h0.1l-0.2-0.4c-0.5-0.7-0.7-1.1-0.7-1.9l2,3.5l1.3-1.2
	h0.6l-1.7,1.6l2.6,4.4l1.2-2.1l-1.1-4h0.4l0.9,3.5l2.2-3.7v-4.3l-0.9,1v-0.6l0.9-1v-2.4l-0.9,0.6v-0.5l0.9-0.6v-1.7l-0.9,0.2
	c0-0.2,0-0.3,0.1-0.5l0.8-0.2v-1.4h-0.2c0.2-0.3,0.4-0.6,0.6-0.8v0.4h4.3c0.1,0.1,0.1,0.2,0.2,0.4h-4.5v1.3l4.5-1.2
	c0,0.1,0.1,0.3,0.1,0.4l-4.6,1.2v1.5l4.6-2.7c0,0.1,0.1,0.3,0.1,0.5l-4.7,2.7v2.2l4.7-4.7c0,0.2,0,0.4,0,0.6l-4.7,4.7v4l4.7-8.2v0.9
	l-4.7,8.2v11.4l4.7-17.5v1.7l-4.8,17.9l-18.4,18.3l-25.1,6.8l-25-6.8l-18.3-18.3l-6.8-25.1l0,0v0l6.8-25l18.3-18.3l25-6.8l25.1,6.8
	l18.4,18.3l5.3,19.8C-140.2,305.7-140.4,305.7-140.6,305.6L-140.6,305.6z M-154.3,320.1l3.2-1.8v-0.5l-3.2,1.8
	C-154.3,319.8-154.3,320-154.3,320.1z M-172.2,320.1l2.8-0.7c0-0.1-0.1-0.3-0.1-0.4l-2.7,0.7V320.1z M-158.7,316.1l-4.7,1.3l1-1.7
	l-0.5,0.1l-0.7,1.2v-1c-0.2,0-0.3,0.1-0.4,0.2v1l-0.6-0.6c-0.1,0.1-0.2,0.2-0.2,0.3l0.6,0.6l-0.7,0.2c0,0.1,0,0.3,0.1,0.4l0.7-0.2
	l-0.4,0.7c0.1,0.1,0.2,0.2,0.3,0.3l0.3-0.5v0.7c0.1,0.1,0.2,0.1,0.4,0.1v-1.1l1.3,1.3c0.2,0,0.4,0,0.5,0l-1.6-1.6l4.7-1.3
	L-158.7,316.1L-158.7,316.1z M-164.1,309.7v1.1h-0.4c0,0,0,0.1,0,0.2l0,0.2h0.5v1.1c0.1,0,0.3-0.1,0.4-0.1v-1h3.3l-0.2,0.4
	c0.2,0,0.4-0.1,0.5-0.1l0,0l0,0c0.2,0,0.3,0,0.4-0.1l-0.1-0.1h0.5c0.1-0.1,0.3-0.1,0.4-0.2c0-0.1,0-0.2,0-0.2h-0.9l0.6-1.1
	c0,0,0,0,0-0.1c-0.1-0.1-0.2-0.2-0.3-0.3l-0.7,1.2l-1.1-1.8c-0.1,0-0.2,0-0.4,0h-0.1l1.2,2.1h-3.3v-1.6
	C-163.8,309.4-164,309.5-164.1,309.7z M-164.8,311.2h-5.3l2.5,2.4c-0.1,0.1-0.2,0.2-0.3,0.3l-2.7-2.7l-1.7,1.7v-0.6l1.2-1.2h-1.2
	v-0.4h1.2l-1.2-1.2V309l1.7,1.7l2.2-2.2c-0.1,0.3-0.3,0.6-0.4,1l-1.3,1.3h1.1l0,0.2L-164.8,311.2L-164.8,311.2z"/>
<path class="st1" d="M-35.7,347.5c0,3.4,1.5,5.2,4.1,5.2s4.3-2,4.3-5.2
	c0-3.1-1.7-5.1-4.3-5.1C-34.2,342.4-35.7,344.3-35.7,347.5L-35.7,347.5z M-25.1,340.6v13.6c0,2.7-0.2,3.7-1.2,4.9
	c-1,1.2-2.7,1.9-4.9,1.9c-3.7,0-6.2-1.9-6.5-5.2h2.7c0.2,1,0.3,1.4,0.6,1.9c0.6,0.9,1.7,1.3,3,1.3c2.6,0,3.7-1.3,3.7-4v-2.4
	c-1.5,1.6-2.6,2.2-4.5,2.2c-1.5,0-2.8-0.5-3.9-1.3c-1.6-1.3-2.4-3.2-2.4-6c0-4.5,2.4-7.4,6.1-7.4c1.9,0,3.1,0.6,4.6,2.2v-1.8H-25.1
	L-25.1,340.6z M-50.9,340.6v1.6c1.4-1.5,2.4-2,4.2-2c3.1,0,4.9,1.9,4.9,5.2v9h-2.5V346c0-1.3-0.1-2.1-0.6-2.6c-0.5-0.7-1.3-1-2.4-1
	c-1.3,0-2.3,0.5-3,1.5c-0.5,0.7-0.6,1.3-0.6,2.6v8.1h-2.5v-13.9H-50.9L-50.9,340.6z M-66.7,340.6v8.4c0,2.6,0.8,3.7,2.8,3.7
	c1.3,0,2.4-0.6,3.2-1.5c0.5-0.7,0.7-1.3,0.7-2.6v-8.1h2.5v13.9h-2.5v-1.9c-1.5,1.7-2.8,2.3-4.7,2.3c-2.8,0-4.4-1.9-4.4-5.3v-9
	C-69.2,340.6-66.7,340.6-66.7,340.6z M-73,342.7h-2.5v8.7c0,1.1,0.1,1.3,1,1.3c0.4,0,0.8,0,1.6-0.2v2c-1,0.2-1.7,0.3-2.5,0.3
	c-1.9,0-2.6-0.7-2.6-2.6v-9.5h-2.2v-2.1h2.2v-4.4h2.5v4.4h2.5L-73,342.7L-73,342.7z M-82.1,342.7h-2.6v11.8h-2.5v-11.8h-2.5v-2.1
	h2.5v-2.9c0-2.6,1.3-4,3.7-4c0.5,0,0.9,0.1,1.8,0.2v2c-1-0.1-1.1-0.1-1.4-0.1c-1.2,0-1.6,0.5-1.6,2.2v2.6h2.6V342.7z M-92.5,354.5
	H-95v-13.9h2.5V354.5z M-92.5,336.5H-95v-2.7h2.5V336.5z M-98.9,342.7h-2.5v8.7c0,1.1,0.1,1.3,1,1.3c0.4,0,0.8,0,1.7-0.2v2
	c-1,0.2-1.7,0.3-2.5,0.3c-1.9,0-2.6-0.7-2.6-2.6v-9.5h-2.2v-2.1h2.2v-4.4h2.5v4.4h2.5C-98.9,340.6-98.9,342.7-98.9,342.7z
	 M-111.6,339.8c-0.1-2.8-1.9-4.3-5.1-4.3c-2.9,0-4.7,1.2-4.7,3.3c0,1.5,1.2,2.6,3.5,3.1l4.7,1c3.3,0.7,5.1,2.7,5.1,5.6
	c0,3.8-3.5,6.5-8.3,6.5c-3.3,0-6.2-1.2-7.6-3c-0.9-1.1-1.2-2.2-1.4-4.1l3.1-0.4c0.1,1.4,0.3,2.2,0.9,3.1c0.9,1.4,2.8,2.2,5,2.2
	c3.1,0,5.1-1.6,5.1-4.1c0-1.8-1-2.7-3.4-3.2l-3.6-0.8c-2.1-0.4-3.4-1-4.4-1.8c-1.1-0.9-1.7-2.3-1.7-3.7c0-3.5,3.2-5.8,7.8-5.8
	c2.9,0,5.1,0.9,6.5,2.6c0.8,1,1.1,1.8,1.5,3.7C-108.7,339.6-111.6,339.8-111.6,339.8z"/>
<path class="st0" d="M-33.7,322.3h3.5v-6.7c0-2.9,0.6-4.3,2.3-5.2
	c0.9-0.5,1.6-0.6,2.9-0.6V306h-0.3c-2,0-3.3,0.7-4.5,2.6l-0.4,0.6v-2.8h-3.5L-33.7,322.3L-33.7,322.3z M-41.4,312.6h-7.9l0.1-0.3
	c0.6-2.7,1.7-3.9,3.9-3.9c2.2,0,3.5,1.3,3.9,3.9L-41.4,312.6L-41.4,312.6z M-45.3,305.6c-4.8,0-7.8,3.4-7.8,8.9
	c0,5.2,3.2,8.5,8.1,8.5c2.9,0,5.4-1.2,7.3-3.7l-3-1.8c-1.3,1.6-2.3,2.3-3.9,2.3c-1.7,0-3.2-0.8-4-2.1c-0.5-0.7-0.6-1.3-0.8-2.6
	l0-0.2h11.7c-0.1-2.5-0.4-4.1-1.1-5.5C-40.1,307-42.3,305.6-45.3,305.6L-45.3,305.6z M-70,306.4v10.2c0,2.1,0.3,3.3,0.9,4.3
	c0.9,1.2,2.6,2,4.4,2c1.8,0,3-0.5,4.8-1.8l0.4-0.2v1.6h3.5v-15.9h-3.5v7.9c0,3.2-1.5,5.2-4,5.2c-2.1,0-3-1.2-3-3.9v-9.3L-70,306.4
	L-70,306.4z M-81.3,319.9c-1.9,0-3-0.9-3-2.3c0-1.2,0.8-2,2.4-2.3l2.6-0.5c1-0.2,1.4-0.4,1.9-0.7l0.3-0.2v2.7
	C-77.1,318.5-78.8,319.9-81.3,319.9L-81.3,319.9z M-80.3,308.3c1.3,0,2.3,0.4,2.8,1.1c0.3,0.4,0.4,0.9,0.4,1.8l0,0.1l-0.2,0.1
	c-0.7,0.3-1.4,0.5-2.7,0.7l-2.2,0.4c-2,0.4-3,0.7-3.9,1.3c-1.3,0.9-2.1,2.2-2.1,3.9c0,3,2.3,5.1,5.8,5.1c1.7,0,3.1-0.5,4.7-1.7
	l0.3-0.2l0,0.4c0.1,0.5,0.1,0.6,0.2,1h4c-0.5-0.9-0.6-1.3-0.6-3.1v-8.5c0-1.9-0.4-2.9-1.4-3.7c-1.2-0.9-3.2-1.4-5.4-1.4
	c-4.3,0-6.4,1.6-6.9,4.9l3.6,0.2C-83.6,309-82.4,308.3-80.3,308.3L-80.3,308.3z M-110.1,318.3c1.1,1.5,1.9,2.3,3.1,3
	c1.8,1.1,4.2,1.7,6.8,1.7c5.5,0,9.2-2.9,9.2-7.2c0-1.9-0.7-3.6-2.1-4.7c-1-0.9-2.5-1.5-5-2.1l-3.4-0.8c-2.2-0.5-3.5-1.1-3.5-2.8
	c0-1.8,1.8-3.1,4.3-3.1c2.5,0,4.2,0.9,6,3.3l3.2-2.3c-2.9-3.3-5.4-4.5-9.1-4.5c-5.1,0-8.5,2.8-8.5,6.9c0,3.5,2,5.4,6.7,6.4l3,0.6
	c2.9,0.6,4.1,1.6,4.1,3.3c0,2-1.8,3.4-4.6,3.4c-3,0-5.4-1.2-7.1-3.5C-106.8,316-110.1,318.3-110.1,318.3z M-133.6,320.2
	c1.7,1.8,4.4,2.8,7.4,2.8c4.2,0,7.2-2.3,7.2-5.4c0-2.5-1.4-3.9-4.6-4.6l-2.7-0.5c-2.2-0.5-3.2-0.9-3.2-2.1c0-1.3,1.2-2.1,3.2-2.1
	c2.1,0,3.5,0.8,4.3,2.4l2.4-2.3c-2-2-4-2.8-6.8-2.8c-3.8,0-6.7,2.2-6.7,5.2c0,1.3,0.6,2.6,1.6,3.3c0.9,0.7,2.1,1.2,3.9,1.5l2.3,0.5
	c1.5,0.3,2.3,0.6,2.3,1.7c0,1.3-1.3,2.3-3.3,2.3c-2,0-3.5-0.6-4.8-1.9C-131,318.2-133.6,320.2-133.6,320.2z M-140.2,322.3h3.5v-10.2
	c0-2.1-0.3-3.3-0.9-4.3c-0.8-1.2-2.6-2-4.4-2c-1.8,0-3.1,0.5-4.8,2l-0.4,0.3v-1.9h-3.5v15.9h3.5v-8c0-3.2,1.5-5.2,4-5.2
	c2.1,0,3,1.2,3,3.9V322.3z M-162.5,319.9c-1.9,0-3-0.9-3-2.3c0-1.2,0.8-2,2.4-2.3l2.6-0.5c1-0.2,1.4-0.4,1.9-0.7l0.4-0.2v2.7
	C-158.2,318.5-159.9,319.9-162.5,319.9z M-161.4,308.3c1.3,0,2.3,0.4,2.8,1.1c0.3,0.4,0.4,0.9,0.4,1.8v0.1l-0.1,0.1
	c-0.7,0.3-1.4,0.5-2.7,0.7l-2.1,0.4c-2,0.4-3,0.7-3.9,1.3c-1.3,0.9-2.1,2.2-2.1,3.9c0,3,2.3,5.1,5.8,5.1c1.7,0,3.1-0.5,4.7-1.7
	l0.3-0.2l0.1,0.4c0,0.5,0.1,0.6,0.2,1h4c-0.6-0.9-0.6-1.3-0.6-3.1v-8.5c0-1.9-0.4-2.9-1.4-3.7c-1.2-0.9-3.2-1.4-5.5-1.4
	c-4.2,0-6.4,1.6-6.9,4.9l3.6,0.2C-164.7,309-163.5,308.3-161.4,308.3L-161.4,308.3z M-176.5,322.3h3.8v-22.7h-3.8v8.8h-10.4v-8.8
	h-3.8v22.7h3.8v-10.5h10.4V322.3z"/>
</svg>
