<?xml version="1.0" encoding="utf-8"?>
<svg version="1.1" xmlns="http://www.w3.org/2000/svg" xmlns:xlink="http://www.w3.org/1999/xlink" x="0px" y="0px" width="220px"
	 height="106px" viewBox="58 9.572 220 106" enable-background="new 58 9.572 220 106" xml:space="preserve">
     <style>
            .fill1 { fill: rgba(255,255,255,0.6); }
            .fill2 { fill: #fff; }
     </style>
	<g>
		<path class="fill1" d="M208.599,92.898h3.18l4.675,11.265h-2.99l-0.842-2.106h-4.863l-0.844,2.106h-3.01L208.599,92.898z
			 M208.494,100.058h3.369l-1.685-4.338L208.494,100.058z M199.841,93.109h2.759v11.054h-2.759V93.109z M186.763,93.109h4.174
			c2.251,0,3.979,0.463,5.095,1.369c1.138,0.928,1.685,2.295,1.685,4.126v0.021c0,1.831-0.547,3.222-1.622,4.127
			c-1.095,0.926-2.715,1.431-4.884,1.41h-4.447V93.109z M189.483,102.12h1.727c1.222,0,2.104-0.315,2.717-0.885
			c0.609-0.567,0.905-1.43,0.905-2.609c0-1.157-0.338-2.042-0.99-2.61c-0.611-0.59-1.6-0.885-2.905-0.885h-1.453V102.12z
			 M176.508,104.163V93.109h8.147v1.979h-5.385v2.38h5.057v1.978h-5.057v2.695h5.385v2.021H176.508z M164.934,104.163h-2.762
			V93.109h2.482l3.465,3.979l3.423-3.979h2.481v11.054h-2.764v-6.8l-2.906,3.39h-0.503l-2.918-3.39V104.163z M156.879,93.109h2.762
			v11.054h-2.762V93.109z M145.167,104.163V93.109h2.738v5.243l3.542-5.243h3.09l-3.84,5.285l5.011,5.769h-3.512l-4.292-5.285
			v5.285H145.167z M139.882,93.109h2.757v11.054h-2.757V93.109z M124.471,104.332l-4.822-11.223h3.011l2.505,6.19l2.863-6.19h2.147
			l2.842,6.19l2.504-6.19h3.032l-4.821,11.223h-1.2l-3.432-6.99l-3.452,6.99H124.471z"/>
		<g>
			<path class="fill1" d="M134.942,108.017h2.446c0.552,0,0.973,0.042,1.263,0.127c0.388,0.114,0.722,0.317,0.999,0.61
				c0.278,0.292,0.489,0.65,0.633,1.074c0.145,0.423,0.218,0.946,0.218,1.567c0,0.545-0.067,1.016-0.204,1.41
				c-0.166,0.483-0.402,0.874-0.71,1.173c-0.232,0.225-0.545,0.402-0.94,0.529c-0.296,0.093-0.69,0.14-1.186,0.14h-2.519V108.017z
				 M136.281,109.139v4.392h1c0.374,0,0.643-0.021,0.809-0.063c0.217-0.054,0.397-0.146,0.541-0.275
				c0.144-0.13,0.26-0.343,0.351-0.641c0.09-0.297,0.136-0.702,0.136-1.215c0-0.512-0.045-0.905-0.136-1.181
				c-0.091-0.273-0.217-0.487-0.38-0.642s-0.369-0.258-0.62-0.312c-0.187-0.043-0.554-0.063-1.099-0.063H136.281z"/>
			<path class="fill1" d="M141.637,114.647v-6.631h4.916v1.122h-3.578v1.47h3.33v1.117h-3.33v1.805h3.705v1.117H141.637z"/>
			<path class="fill1" d="M147.806,108.017h1.339v3.591c0,0.57,0.016,0.939,0.049,1.109c0.057,0.271,0.194,0.488,0.409,0.652
				c0.216,0.164,0.51,0.247,0.885,0.247c0.379,0,0.666-0.078,0.859-0.232c0.193-0.156,0.309-0.347,0.348-0.573
				c0.039-0.226,0.058-0.602,0.058-1.125v-3.669h1.339v3.482c0,0.796-0.036,1.358-0.109,1.688c-0.072,0.329-0.205,0.605-0.4,0.832
				c-0.194,0.227-0.454,0.406-0.78,0.54c-0.326,0.135-0.75,0.201-1.276,0.201c-0.633,0-1.113-0.072-1.441-0.219
				c-0.327-0.146-0.585-0.337-0.774-0.57c-0.19-0.233-0.316-0.479-0.376-0.735c-0.087-0.379-0.131-0.94-0.131-1.682V108.017z"/>
			<path class="fill1" d="M155.997,114.647v-5.509h-1.967v-1.122h5.269v1.122h-1.963v5.509H155.997z"/>
			<path class="fill1" d="M159.824,112.49l1.303-0.127c0.078,0.437,0.238,0.759,0.477,0.963c0.24,0.205,0.562,0.308,0.97,0.308
				c0.432,0,0.755-0.091,0.975-0.273c0.218-0.182,0.328-0.396,0.328-0.64c0-0.157-0.046-0.29-0.138-0.4
				c-0.093-0.11-0.252-0.206-0.482-0.287c-0.157-0.055-0.514-0.151-1.073-0.29c-0.717-0.178-1.22-0.396-1.51-0.656
				c-0.407-0.364-0.611-0.809-0.611-1.334c0-0.337,0.096-0.652,0.288-0.947c0.191-0.294,0.467-0.518,0.827-0.672
				c0.36-0.153,0.796-0.23,1.305-0.23c0.832,0,1.459,0.183,1.88,0.547c0.42,0.365,0.641,0.853,0.662,1.461l-1.338,0.06
				c-0.058-0.342-0.18-0.586-0.369-0.735c-0.188-0.149-0.471-0.224-0.848-0.224c-0.389,0-0.694,0.079-0.914,0.239
				c-0.142,0.103-0.213,0.239-0.213,0.411c0,0.157,0.066,0.291,0.199,0.403c0.169,0.142,0.579,0.289,1.231,0.443
				c0.651,0.154,1.133,0.312,1.445,0.477s0.556,0.39,0.732,0.675c0.177,0.284,0.265,0.637,0.265,1.057
				c0,0.379-0.105,0.735-0.316,1.066c-0.211,0.332-0.51,0.578-0.896,0.739c-0.386,0.162-0.867,0.242-1.443,0.242
				c-0.839,0-1.482-0.193-1.932-0.581S159.911,113.231,159.824,112.49z"/>
			<path class="fill1" d="M170.584,112.209l1.299,0.412c-0.199,0.724-0.529,1.262-0.992,1.612
				c-0.464,0.352-1.052,0.526-1.764,0.526c-0.879,0-1.604-0.301-2.17-0.901c-0.567-0.602-0.85-1.425-0.85-2.468
				c0-1.104,0.285-1.961,0.854-2.571c0.571-0.61,1.319-0.916,2.249-0.916c0.812,0,1.47,0.24,1.978,0.719
				c0.302,0.284,0.527,0.691,0.679,1.222l-1.328,0.317c-0.078-0.345-0.241-0.616-0.488-0.814c-0.25-0.199-0.552-0.299-0.908-0.299
				c-0.49,0-0.89,0.176-1.196,0.529c-0.306,0.353-0.459,0.924-0.459,1.715c0,0.838,0.151,1.435,0.452,1.791
				c0.302,0.354,0.694,0.533,1.176,0.533c0.355,0,0.661-0.113,0.919-0.339C170.288,113.051,170.471,112.695,170.584,112.209z"/>
			<path class="fill1" d="M173.036,114.647v-6.631h1.34v2.61h2.622v-2.61h1.341v6.631h-1.341v-2.899h-2.622v2.899H173.036z"/>
			<path class="fill1" d="M179.76,114.647v-6.577h1.338v5.46h3.328v1.117H179.76z"/>
			<path class="fill1" d="M191.36,114.647h-1.456l-0.58-1.507h-2.65l-0.547,1.507h-1.421l2.584-6.631h1.414L191.36,114.647z
				 M188.896,112.024l-0.913-2.462l-0.896,2.462H188.896z"/>
			<path class="fill1" d="M192.083,114.647v-6.631h1.304l2.713,4.428v-4.428h1.244v6.631h-1.343l-2.674-4.324v4.324H192.083z"/>
			<path class="fill1" d="M198.754,108.017h2.447c0.554,0,0.975,0.042,1.262,0.127c0.391,0.114,0.723,0.317,1,0.61
				c0.278,0.292,0.489,0.65,0.634,1.074c0.146,0.423,0.218,0.946,0.218,1.567c0,0.545-0.068,1.016-0.203,1.41
				c-0.167,0.483-0.402,0.874-0.711,1.173c-0.233,0.225-0.547,0.402-0.941,0.529c-0.296,0.093-0.69,0.14-1.186,0.14h-2.52V108.017z
				 M200.095,109.139v4.392h0.998c0.374,0,0.644-0.021,0.811-0.063c0.218-0.054,0.396-0.146,0.54-0.275
				c0.143-0.13,0.262-0.343,0.352-0.641c0.089-0.297,0.135-0.702,0.135-1.215c0-0.512-0.046-0.905-0.135-1.181
				c-0.09-0.273-0.217-0.487-0.38-0.642s-0.37-0.258-0.62-0.312c-0.188-0.043-0.554-0.063-1.099-0.063H200.095z"/>
		</g>
	</g>
	<g>
		<circle class="fill2" cx="167.978" cy="22.587" r="12.207"/>
		<path class="fill2" d="M192.623,19.917l-6.916,6.917c5.594,4.921,9.126,12.133,9.126,20.169
			c0,14.832-12.024,26.855-26.855,26.855c-14.832,0-26.855-12.023-26.855-26.855c0-8.036,3.531-15.248,9.127-20.169l-6.917-6.917
			c-7.357,6.698-11.975,16.354-11.975,27.086c0,20.226,16.394,36.621,36.62,36.621c20.226,0,36.622-16.396,36.622-36.621
			C204.6,36.27,199.98,26.615,192.623,19.917z"/>
		<path class="fill2" d="M165.536,42.121l-11.824-11.823c-4.714,4.029-7.708,10.016-7.708,16.705
			c0,11.311,8.546,20.62,19.531,21.834V42.121z M182.243,30.298l-11.825,11.823v26.716c10.986-1.216,19.532-10.523,19.532-21.834
			C189.95,40.314,186.957,34.328,182.243,30.298z"/>
	</g>
</svg>
