<?xml version="1.0" encoding="utf-8"?>
<!-- Generator: Adobe Illustrator 16.0.4, SVG Export Plug-In . SVG Version: 6.00 Build 0)  -->
<!DOCTYPE svg PUBLIC "-//W3C//DTD SVG 1.1//EN" "http://www.w3.org/Graphics/SVG/1.1/DTD/svg11.dtd">
<svg version="1.1" id="Layer_1" xmlns="http://www.w3.org/2000/svg" xmlns:xlink="http://www.w3.org/1999/xlink" x="0px" y="0px"
	 width="470px" height="315px" viewBox="0 0 470 315" enable-background="new 0 0 470 315" xml:space="preserve">
<g>
	<path fill="#007EC1" d="M237.058,171.621c47.13,0,85.334-38.207,85.334-85.335c0-47.129-38.204-85.334-85.334-85.334
		c-47.129,0-85.335,38.205-85.335,85.334C151.723,133.415,189.929,171.621,237.058,171.621"/>
	<g>
		<path fill="#FCFCFC" d="M207.778,104.771c0,1.394-0.502,2.493-1.505,3.295s-2.399,1.204-4.188,1.204
			c-1.648,0-3.105-0.31-4.373-0.93v-3.042c1.042,0.465,1.924,0.792,2.646,0.982s1.382,0.285,1.98,0.285
			c0.718,0,1.269-0.137,1.653-0.412c0.384-0.274,0.576-0.683,0.576-1.225c0-0.303-0.084-0.572-0.253-0.808s-0.417-0.463-0.745-0.682
			c-0.328-0.218-0.995-0.566-2.001-1.045c-0.944-0.444-1.651-0.87-2.123-1.278c-0.472-0.409-0.849-0.884-1.13-1.426
			c-0.282-0.542-0.422-1.176-0.422-1.901c0-1.366,0.463-2.44,1.389-3.222c0.926-0.781,2.206-1.172,3.839-1.172
			c0.803,0,1.569,0.095,2.297,0.285c0.729,0.19,1.491,0.458,2.287,0.803l-1.056,2.545c-0.824-0.338-1.505-0.574-2.043-0.708
			c-0.539-0.134-1.069-0.201-1.59-0.201c-0.62,0-1.095,0.145-1.426,0.433s-0.497,0.666-0.497,1.13c0,0.289,0.067,0.541,0.201,0.755
			s0.347,0.422,0.639,0.623c0.292,0.201,0.984,0.562,2.075,1.083c1.443,0.69,2.433,1.382,2.968,2.076
			C207.51,102.915,207.778,103.765,207.778,104.771z"/>
		<path fill="#FCFCFC" d="M215.119,109.271c-3.675,0-5.513-2.018-5.513-6.052c0-2.007,0.5-3.54,1.5-4.6
			c1-1.06,2.433-1.59,4.298-1.59c1.366,0,2.591,0.268,3.676,0.803l-0.951,2.493c-0.507-0.204-0.979-0.371-1.415-0.501
			c-0.437-0.13-0.874-0.195-1.31-0.195c-1.676,0-2.514,1.19-2.514,3.57c0,2.31,0.838,3.464,2.514,3.464
			c0.62,0,1.194-0.083,1.722-0.249c0.528-0.165,1.056-0.424,1.584-0.776v2.756c-0.521,0.331-1.047,0.56-1.579,0.687
			C216.599,109.208,215.929,109.271,215.119,109.271z"/>
		<path fill="#FCFCFC" d="M232.345,109.06h-3.221v-6.897c0-1.704-0.634-2.556-1.901-2.556c-0.901,0-1.553,0.307-1.954,0.919
			c-0.401,0.613-0.602,1.605-0.602,2.979v5.556h-3.221V92.625h3.221v3.348c0,0.261-0.024,0.874-0.074,1.838l-0.074,0.951h0.169
			c0.718-1.155,1.859-1.732,3.422-1.732c1.387,0,2.44,0.374,3.158,1.12c0.718,0.747,1.077,1.817,1.077,3.211V109.06z"/>
		<path fill="#FCFCFC" d="M244.026,109.06l-0.433-1.51h-0.169c-0.346,0.549-0.835,0.974-1.469,1.272
			c-0.633,0.299-1.354,0.449-2.165,0.449c-1.387,0-2.433-0.372-3.137-1.114c-0.704-0.743-1.056-1.812-1.056-3.206v-7.7h3.222v6.897
			c0,0.852,0.15,1.491,0.453,1.917c0.303,0.426,0.785,0.639,1.447,0.639c0.901,0,1.553-0.301,1.954-0.903s0.602-1.6,0.602-2.995
			v-5.555h3.222v11.808H244.026z M237.415,94.22c0-0.458,0.132-0.81,0.396-1.057c0.265-0.246,0.621-0.37,1.072-0.37
			c0.465,0,0.829,0.13,1.094,0.391c0.264,0.26,0.396,0.605,0.396,1.035c0,0.422-0.134,0.762-0.401,1.019s-0.63,0.385-1.088,0.385
			c-0.451,0-0.808-0.123-1.072-0.37C237.547,95.009,237.415,94.664,237.415,94.22z M241.671,94.22c0-0.493,0.143-0.854,0.429-1.083
			c0.285-0.229,0.639-0.343,1.061-0.343c0.458,0,0.822,0.127,1.094,0.38c0.271,0.253,0.406,0.602,0.406,1.046
			c0,0.429-0.137,0.771-0.412,1.024c-0.274,0.253-0.637,0.38-1.088,0.38c-0.422,0-0.775-0.114-1.061-0.343
			C241.813,95.053,241.671,94.699,241.671,94.22z"/>
		<path fill="#FCFCFC" d="M253.1,109.06h-3.222V92.625h3.222V109.06z"/>
		<path fill="#FCFCFC" d="M261.824,109.271c-1.901,0-3.387-0.524-4.457-1.574s-1.605-2.535-1.605-4.458
			c0-1.979,0.494-3.508,1.484-4.589c0.989-1.081,2.356-1.622,4.103-1.622c1.669,0,2.969,0.476,3.897,1.426
			c0.93,0.95,1.395,2.264,1.395,3.939v1.563h-7.615c0.035,0.916,0.307,1.63,0.813,2.144c0.507,0.514,1.218,0.771,2.134,0.771
			c0.711,0,1.383-0.074,2.017-0.222s1.296-0.384,1.986-0.708v2.493c-0.563,0.282-1.166,0.491-1.807,0.628
			S262.747,109.271,261.824,109.271z M261.37,99.321c-0.683,0-1.218,0.217-1.605,0.65c-0.388,0.433-0.609,1.047-0.665,1.843h4.521
			c-0.015-0.795-0.222-1.41-0.623-1.843C262.596,99.538,262.053,99.321,261.37,99.321z"/>
		<path fill="#FCFCFC" d="M275.851,97.029c0.437,0,0.8,0.032,1.088,0.095l-0.242,3.021c-0.261-0.07-0.578-0.105-0.951-0.105
			c-1.028,0-1.829,0.264-2.402,0.792c-0.574,0.528-0.861,1.268-0.861,2.218v6.01h-3.222V97.251h2.44l0.476,1.985h0.158
			c0.366-0.662,0.86-1.195,1.483-1.6C274.44,97.232,275.118,97.029,275.851,97.029z"/>
		<path fill="#FCFCFC" d="M206.759,135.017h-3.221v-16.435h3.221V135.017z"/>
		<path fill="#FCFCFC" d="M215.483,135.228c-1.901,0-3.387-0.524-4.457-1.574s-1.605-2.535-1.605-4.458
			c0-1.979,0.495-3.508,1.484-4.589c0.989-1.081,2.357-1.622,4.104-1.622c1.669,0,2.968,0.476,3.897,1.426
			c0.929,0.95,1.394,2.264,1.394,3.939v1.563h-7.615c0.035,0.916,0.306,1.63,0.813,2.144c0.507,0.514,1.218,0.771,2.133,0.771
			c0.711,0,1.384-0.074,2.018-0.222c0.633-0.148,1.295-0.384,1.985-0.708v2.493c-0.563,0.282-1.166,0.491-1.806,0.628
			S216.405,135.228,215.483,135.228z M215.029,125.278c-0.683,0-1.218,0.217-1.605,0.65c-0.387,0.433-0.609,1.047-0.666,1.843h4.521
			c-0.014-0.795-0.222-1.41-0.623-1.843C216.254,125.495,215.712,125.278,215.029,125.278z"/>
		<path fill="#FCFCFC" d="M229.509,122.986c0.437,0,0.799,0.032,1.088,0.095l-0.243,3.021c-0.261-0.07-0.577-0.105-0.951-0.105
			c-1.028,0-1.829,0.264-2.403,0.792c-0.574,0.528-0.861,1.268-0.861,2.218v6.01h-3.221v-11.808h2.44l0.475,1.985h0.159
			c0.366-0.662,0.86-1.195,1.484-1.6C228.099,123.189,228.777,122.986,229.509,122.986z"/>
		<path fill="#FCFCFC" d="M243.642,135.017h-3.222v-6.897c0-0.852-0.152-1.491-0.454-1.917c-0.304-0.426-0.786-0.639-1.447-0.639
			c-0.901,0-1.553,0.301-1.954,0.903s-0.602,1.6-0.602,2.994v5.556h-3.221v-11.808h2.461l0.433,1.51h0.18
			c0.359-0.57,0.853-1.001,1.484-1.294c0.63-0.292,1.347-0.438,2.149-0.438c1.373,0,2.414,0.372,3.127,1.114
			c0.711,0.743,1.066,1.815,1.066,3.216V135.017z"/>
		<path fill="#FCFCFC" d="M252.302,135.228c-1.901,0-3.387-0.524-4.457-1.574s-1.605-2.535-1.605-4.458
			c0-1.979,0.494-3.508,1.484-4.589c0.989-1.081,2.356-1.622,4.103-1.622c1.669,0,2.969,0.476,3.897,1.426
			c0.93,0.95,1.395,2.264,1.395,3.939v1.563h-7.615c0.035,0.916,0.307,1.63,0.813,2.144c0.507,0.514,1.218,0.771,2.134,0.771
			c0.711,0,1.383-0.074,2.017-0.222s1.296-0.384,1.986-0.708v2.493c-0.563,0.282-1.166,0.491-1.807,0.628
			S253.225,135.228,252.302,135.228z M251.848,125.278c-0.683,0-1.218,0.217-1.605,0.65c-0.388,0.433-0.609,1.047-0.665,1.843h4.521
			c-0.015-0.795-0.222-1.41-0.623-1.843C253.073,125.495,252.53,125.278,251.848,125.278z"/>
		<path fill="#FCFCFC" d="M270.638,135.017h-3.222v-6.897c0-0.852-0.151-1.491-0.454-1.917c-0.303-0.426-0.785-0.639-1.446-0.639
			c-0.901,0-1.553,0.301-1.954,0.903s-0.603,1.6-0.603,2.994v5.556h-3.222v-11.808h2.461l0.434,1.51h0.18
			c0.359-0.57,0.854-1.001,1.483-1.294c0.631-0.292,1.347-0.438,2.149-0.438c1.373,0,2.415,0.372,3.127,1.114
			c0.711,0.743,1.066,1.815,1.066,3.216V135.017z"/>
	</g>
	<path fill="#FFFFFF" d="M246.884,45.148c0,3.001-1.062,5.565-3.186,7.689c-2.124,2.124-4.688,3.186-7.689,3.186
		c-3.002,0-5.564-1.062-7.689-3.186c-2.124-2.124-3.186-4.688-3.186-7.689c0-3.003,1.062-5.565,3.186-7.69
		c2.125-2.124,4.688-3.185,7.689-3.185c3.001,0,5.565,1.062,7.689,3.185C245.822,39.583,246.884,42.145,246.884,45.148
		 M255.947,70.44c0,2.265-0.689,4.054-2.067,5.366c-1.379,1.312-3.21,1.968-5.494,1.968h-24.754c-2.284,0-4.115-0.655-5.495-1.968
		c-1.377-1.312-2.066-3.101-2.066-5.366c0-1.002,0.033-1.979,0.1-2.932c0.065-0.953,0.198-1.982,0.396-3.086
		c0.197-1.105,0.447-2.129,0.75-3.074c0.303-0.943,0.708-1.864,1.218-2.761c0.511-0.897,1.095-1.661,1.756-2.294
		c0.661-0.633,1.468-1.137,2.421-1.515c0.954-0.378,2.007-0.566,3.159-0.566c0.17,0,0.566,0.203,1.189,0.608
		c0.623,0.407,1.326,0.86,2.109,1.36c0.784,0.5,1.804,0.953,3.059,1.359c1.256,0.407,2.517,0.61,3.781,0.61s2.526-0.204,3.781-0.61
		c1.256-0.406,2.275-0.859,3.059-1.359s1.486-0.953,2.11-1.36c0.622-0.405,1.019-0.608,1.189-0.608c1.151,0,2.204,0.188,3.158,0.566
		c0.953,0.377,1.76,0.882,2.421,1.515c0.661,0.634,1.246,1.397,1.755,2.294c0.511,0.897,0.916,1.818,1.219,2.761
		c0.303,0.944,0.553,1.969,0.75,3.074c0.198,1.104,0.331,2.133,0.397,3.086C255.914,68.461,255.947,69.438,255.947,70.44"/>
</g>
<g>
	<path fill="#FFFFFF" d="M354.081,219.82c0.303-0.43,0.765-0.994,1.384-1.691l3.739-3.961h2.08l-4.689,4.934l5.018,6.643h-2.123
		l-4.088-5.471l-1.32,1.141v4.33h-1.731v-16.434h1.731v8.713c0,0.389-0.028,0.986-0.084,1.797H354.081z"/>
	<path fill="#FFFFFF" d="M373.695,219.945c0,1.889-0.476,3.361-1.426,4.422c-0.951,1.059-2.264,1.588-3.939,1.588
		c-1.035,0-1.954-0.242-2.757-0.729c-0.803-0.484-1.423-1.182-1.859-2.09c-0.437-0.91-0.654-1.973-0.654-3.191
		c0-1.887,0.472-3.355,1.415-4.408s2.253-1.58,3.929-1.58c1.62,0,2.906,0.539,3.86,1.617
		C373.218,216.65,373.695,218.107,373.695,219.945z M364.876,219.945c0,1.479,0.296,2.605,0.888,3.381
		c0.591,0.775,1.461,1.162,2.608,1.162s2.019-0.387,2.614-1.156c0.595-0.771,0.893-1.9,0.893-3.387c0-1.471-0.298-2.588-0.893-3.354
		c-0.596-0.764-1.474-1.145-2.636-1.145c-1.147,0-2.014,0.377-2.598,1.129C365.168,217.33,364.876,218.453,364.876,219.945z"/>
	<path fill="#FFFFFF" d="M384.236,222.586c0,1.078-0.401,1.908-1.204,2.494c-0.803,0.584-1.93,0.875-3.38,0.875
		c-1.535,0-2.732-0.242-3.591-0.729V223.6c0.556,0.283,1.152,0.504,1.79,0.666s1.252,0.244,1.843,0.244
		c0.916,0,1.62-0.146,2.113-0.439c0.492-0.291,0.739-0.736,0.739-1.336c0-0.451-0.195-0.836-0.587-1.156
		c-0.391-0.32-1.152-0.699-2.286-1.135c-1.077-0.402-1.844-0.752-2.298-1.053c-0.454-0.299-0.792-0.639-1.014-1.018
		c-0.222-0.381-0.333-0.836-0.333-1.363c0-0.943,0.384-1.688,1.151-2.234c0.768-0.545,1.82-0.818,3.158-0.818
		c1.246,0,2.465,0.254,3.654,0.762l-0.623,1.426c-1.162-0.48-2.215-0.719-3.158-0.719c-0.831,0-1.457,0.131-1.88,0.391
		c-0.422,0.26-0.634,0.619-0.634,1.078c0,0.309,0.079,0.572,0.238,0.791c0.158,0.219,0.413,0.426,0.766,0.623
		c0.352,0.197,1.027,0.482,2.027,0.855c1.373,0.5,2.301,1.004,2.783,1.512C383.995,221.182,384.236,221.818,384.236,222.586z"/>
	<path fill="#FFFFFF" d="M390.827,224.51c0.31,0,0.609-0.023,0.898-0.07c0.288-0.045,0.517-0.092,0.687-0.143v1.342
		c-0.19,0.092-0.471,0.168-0.84,0.227c-0.37,0.061-0.703,0.09-0.998,0.09c-2.239,0-3.359-1.178-3.359-3.537v-6.887h-1.658v-0.846
		l1.658-0.729l0.739-2.471h1.015v2.682h3.358v1.363h-3.358v6.812c0,0.697,0.165,1.232,0.496,1.605S390.25,224.51,390.827,224.51z"/>
	<path fill="#FFFFFF" d="M399.615,225.955c-1.711,0-3.062-0.52-4.051-1.562c-0.989-1.041-1.483-2.488-1.483-4.342
		c0-1.865,0.459-3.348,1.378-4.445c0.919-1.1,2.153-1.648,3.702-1.648c1.45,0,2.599,0.477,3.443,1.432s1.268,2.213,1.268,3.775
		v1.109h-7.975c0.035,1.359,0.379,2.391,1.03,3.096c0.65,0.703,1.568,1.055,2.751,1.055c1.246,0,2.479-0.26,3.696-0.781v1.562
		c-0.619,0.27-1.205,0.461-1.758,0.576C401.063,225.898,400.396,225.955,399.615,225.955z M399.14,215.426
		c-0.929,0-1.67,0.303-2.223,0.908s-0.879,1.443-0.978,2.514h6.053c0-1.105-0.247-1.953-0.74-2.541
		C400.76,215.719,400.056,215.426,399.14,215.426z"/>
	<path fill="#FFFFFF" d="M414.782,225.744v-7.488c0-0.943-0.215-1.646-0.645-2.111c-0.429-0.465-1.102-0.697-2.017-0.697
		c-1.212,0-2.099,0.326-2.662,0.982c-0.563,0.654-0.845,1.734-0.845,3.242v6.072h-1.753v-11.576h1.426l0.285,1.586h0.084
		c0.359-0.57,0.862-1.014,1.511-1.326c0.647-0.314,1.369-0.471,2.165-0.471c1.395,0,2.443,0.336,3.147,1.01
		c0.704,0.672,1.056,1.748,1.056,3.227v7.551H414.782z"/>
	<path fill="#FFFFFF" d="M421.891,225.744h-1.753v-16.434h1.753V225.744z"/>
	<path fill="#FFFFFF" d="M435.6,219.945c0,1.889-0.476,3.361-1.426,4.422c-0.951,1.059-2.264,1.588-3.939,1.588
		c-1.035,0-1.954-0.242-2.757-0.729c-0.803-0.484-1.423-1.182-1.859-2.09c-0.437-0.91-0.654-1.973-0.654-3.191
		c0-1.887,0.472-3.355,1.415-4.408s2.253-1.58,3.929-1.58c1.62,0,2.906,0.539,3.86,1.617
		C435.122,216.65,435.6,218.107,435.6,219.945z M426.78,219.945c0,1.479,0.296,2.605,0.888,3.381
		c0.591,0.775,1.461,1.162,2.608,1.162s2.019-0.387,2.614-1.156c0.595-0.771,0.893-1.9,0.893-3.387c0-1.471-0.298-2.588-0.893-3.354
		c-0.596-0.764-1.474-1.145-2.636-1.145c-1.147,0-2.014,0.377-2.598,1.129C427.072,217.33,426.78,218.453,426.78,219.945z"/>
	<path fill="#FFFFFF" d="M446.141,222.586c0,1.078-0.401,1.908-1.204,2.494c-0.803,0.584-1.93,0.875-3.38,0.875
		c-1.535,0-2.732-0.242-3.591-0.729V223.6c0.556,0.283,1.152,0.504,1.79,0.666s1.252,0.244,1.843,0.244
		c0.916,0,1.62-0.146,2.113-0.439c0.492-0.291,0.739-0.736,0.739-1.336c0-0.451-0.195-0.836-0.587-1.156
		c-0.391-0.32-1.152-0.699-2.286-1.135c-1.077-0.402-1.844-0.752-2.298-1.053c-0.454-0.299-0.792-0.639-1.014-1.018
		c-0.222-0.381-0.333-0.836-0.333-1.363c0-0.943,0.384-1.688,1.151-2.234c0.768-0.545,1.82-0.818,3.158-0.818
		c1.246,0,2.465,0.254,3.654,0.762l-0.623,1.426c-1.162-0.48-2.215-0.719-3.158-0.719c-0.831,0-1.457,0.131-1.88,0.391
		c-0.422,0.26-0.634,0.619-0.634,1.078c0,0.309,0.079,0.572,0.238,0.791c0.158,0.219,0.413,0.426,0.766,0.623
		c0.352,0.197,1.027,0.482,2.027,0.855c1.373,0.5,2.301,1.004,2.783,1.512C445.899,221.182,446.141,221.818,446.141,222.586z"/>
	<path fill="#FFFFFF" d="M331.131,240.125v7.51c0,0.943,0.215,1.648,0.644,2.113c0.43,0.465,1.103,0.697,2.018,0.697
		c1.211,0,2.097-0.332,2.656-0.994c0.561-0.66,0.84-1.742,0.84-3.242v-6.084h1.754v11.576h-1.447l-0.254-1.553h-0.095
		c-0.359,0.57-0.857,1.008-1.494,1.311c-0.638,0.303-1.365,0.453-2.182,0.453c-1.408,0-2.463-0.334-3.163-1.002
		c-0.701-0.67-1.051-1.74-1.051-3.211v-7.574H331.131z"/>
	<path fill="#FFFFFF" d="M350.681,251.701v-7.488c0-0.943-0.215-1.646-0.645-2.111c-0.429-0.465-1.102-0.697-2.017-0.697
		c-1.212,0-2.099,0.326-2.662,0.982c-0.563,0.654-0.845,1.734-0.845,3.242v6.072h-1.753v-11.576h1.426l0.285,1.586h0.084
		c0.359-0.57,0.862-1.014,1.511-1.326c0.647-0.314,1.369-0.471,2.165-0.471c1.395,0,2.443,0.336,3.147,1.01
		c0.704,0.672,1.056,1.748,1.056,3.227v7.551H350.681z"/>
	<path fill="#FFFFFF" d="M363.915,250.148h-0.095c-0.811,1.176-2.021,1.764-3.634,1.764c-1.514,0-2.691-0.518-3.533-1.553
		c-0.841-1.033-1.262-2.506-1.262-4.414s0.422-3.391,1.268-4.447c0.845-1.055,2.021-1.584,3.527-1.584
		c1.57,0,2.774,0.57,3.612,1.711h0.137l-0.073-0.834l-0.042-0.812v-4.711h1.753v16.434h-1.426L363.915,250.148z M360.408,250.445
		c1.197,0,2.065-0.326,2.604-0.977c0.539-0.652,0.809-1.703,0.809-3.154v-0.369c0-1.641-0.273-2.811-0.819-3.512
		s-1.417-1.051-2.614-1.051c-1.027,0-1.814,0.4-2.36,1.199s-0.818,1.928-0.818,3.385c0,1.479,0.271,2.594,0.813,3.348
		S359.359,250.445,360.408,250.445z"/>
	<path fill="#FFFFFF" d="M384.362,251.701l-2.123-6.791c-0.134-0.416-0.384-1.359-0.749-2.83h-0.085
		c-0.281,1.232-0.528,2.182-0.739,2.852l-2.187,6.77h-2.027l-3.158-11.576h1.838c0.746,2.908,1.314,5.123,1.705,6.645
		c0.392,1.521,0.614,2.545,0.671,3.072h0.085c0.077-0.4,0.202-0.92,0.375-1.557c0.172-0.637,0.321-1.143,0.448-1.516l2.123-6.645
		h1.901l2.07,6.645c0.395,1.211,0.661,2.229,0.803,3.053h0.084c0.028-0.254,0.104-0.645,0.228-1.174
		c0.123-0.527,0.857-3.369,2.202-8.523h1.816l-3.2,11.576H384.362z"/>
	<path fill="#FFFFFF" d="M396.625,251.912c-1.711,0-3.062-0.52-4.051-1.562c-0.989-1.041-1.483-2.488-1.483-4.342
		c0-1.865,0.459-3.348,1.378-4.445c0.919-1.1,2.153-1.648,3.702-1.648c1.45,0,2.599,0.477,3.443,1.432s1.268,2.213,1.268,3.775
		v1.109h-7.975c0.035,1.359,0.379,2.391,1.03,3.096c0.65,0.703,1.568,1.055,2.751,1.055c1.246,0,2.479-0.26,3.696-0.781v1.562
		c-0.619,0.27-1.205,0.461-1.758,0.576C398.073,251.855,397.406,251.912,396.625,251.912z M396.149,241.383
		c-0.929,0-1.67,0.303-2.223,0.908s-0.879,1.443-0.978,2.514h6.053c0-1.105-0.247-1.953-0.74-2.541
		C397.77,241.676,397.065,241.383,396.149,241.383z"/>
	<path fill="#FFFFFF" d="M409.151,239.914c0.515,0,0.976,0.043,1.384,0.127l-0.243,1.627c-0.479-0.105-0.901-0.158-1.268-0.158
		c-0.937,0-1.737,0.379-2.402,1.141c-0.665,0.76-0.998,1.707-0.998,2.842v6.209h-1.753v-11.576h1.446l0.201,2.145h0.084
		c0.43-0.754,0.947-1.334,1.553-1.742S408.427,239.914,409.151,239.914z"/>
	<path fill="#FFFFFF" d="M418.087,239.936c1.521,0,2.702,0.52,3.544,1.559c0.842,1.037,1.262,2.508,1.262,4.408
		c0,1.902-0.424,3.379-1.272,4.432s-2.026,1.578-3.533,1.578c-0.753,0-1.441-0.139-2.064-0.416
		c-0.623-0.279-1.146-0.707-1.568-1.283h-0.127l-0.369,1.488h-1.257v-16.434h1.753v3.992c0,0.895-0.028,1.697-0.085,2.408h0.085
		C415.271,240.514,416.481,239.936,418.087,239.936z M417.834,241.404c-1.197,0-2.06,0.342-2.588,1.029
		c-0.528,0.686-0.792,1.844-0.792,3.469c0,1.627,0.271,2.791,0.813,3.492c0.542,0.699,1.411,1.051,2.608,1.051
		c1.077,0,1.88-0.393,2.408-1.178s0.792-1.914,0.792-3.385c0-1.508-0.264-2.631-0.792-3.369
		C419.756,241.773,418.939,241.404,417.834,241.404z"/>
	<path fill="#FFFFFF" d="M430.846,251.912c-1.711,0-3.062-0.52-4.051-1.562c-0.989-1.041-1.483-2.488-1.483-4.342
		c0-1.865,0.459-3.348,1.378-4.445c0.919-1.1,2.153-1.648,3.702-1.648c1.45,0,2.599,0.477,3.443,1.432s1.268,2.213,1.268,3.775
		v1.109h-7.975c0.035,1.359,0.379,2.391,1.03,3.096c0.65,0.703,1.568,1.055,2.751,1.055c1.246,0,2.479-0.26,3.696-0.781v1.562
		c-0.619,0.27-1.205,0.461-1.758,0.576C432.294,251.855,431.627,251.912,430.846,251.912z M430.37,241.383
		c-0.929,0-1.67,0.303-2.223,0.908s-0.879,1.443-0.978,2.514h6.053c0-1.105-0.247-1.953-0.74-2.541
		C431.99,241.676,431.286,241.383,430.37,241.383z"/>
	<path fill="#FFFFFF" d="M443.309,241.488h-2.946v10.213h-1.754v-10.213h-2.069v-0.793l2.069-0.633v-0.645
		c0-2.844,1.243-4.268,3.729-4.268c0.613,0,1.331,0.123,2.155,0.371l-0.454,1.404c-0.677-0.219-1.254-0.328-1.732-0.328
		c-0.662,0-1.151,0.221-1.468,0.66c-0.317,0.441-0.476,1.146-0.476,2.117v0.75h2.946V241.488z"/>
	<path fill="#FFFFFF" d="M450.702,239.914c0.515,0,0.976,0.043,1.384,0.127l-0.243,1.627c-0.479-0.105-0.901-0.158-1.268-0.158
		c-0.937,0-1.737,0.379-2.402,1.141c-0.665,0.76-0.998,1.707-0.998,2.842v6.209h-1.753v-11.576h1.446l0.201,2.145h0.084
		c0.43-0.754,0.947-1.334,1.553-1.742S449.978,239.914,450.702,239.914z"/>
	<path fill="#FFFFFF" d="M459.142,251.912c-1.711,0-3.062-0.52-4.051-1.562c-0.989-1.041-1.483-2.488-1.483-4.342
		c0-1.865,0.459-3.348,1.378-4.445c0.919-1.1,2.153-1.648,3.702-1.648c1.45,0,2.599,0.477,3.443,1.432s1.268,2.213,1.268,3.775
		v1.109h-7.975c0.035,1.359,0.379,2.391,1.03,3.096c0.65,0.703,1.568,1.055,2.751,1.055c1.246,0,2.479-0.26,3.696-0.781v1.562
		c-0.619,0.27-1.205,0.461-1.758,0.576C460.59,251.855,459.923,251.912,459.142,251.912z M458.666,241.383
		c-0.929,0-1.67,0.303-2.223,0.908s-0.879,1.443-0.978,2.514h6.053c0-1.105-0.247-1.953-0.74-2.541
		C460.286,241.676,459.582,241.383,458.666,241.383z"/>
	<path fill="#FFFFFF" d="M466.239,236.988c0-0.4,0.099-0.695,0.296-0.881c0.197-0.188,0.443-0.281,0.739-0.281
		c0.281,0,0.524,0.096,0.729,0.285c0.204,0.191,0.307,0.482,0.307,0.877s-0.103,0.689-0.307,0.883s-0.447,0.291-0.729,0.291
		c-0.296,0-0.542-0.098-0.739-0.291S466.239,237.383,466.239,236.988z M468.141,251.701h-1.753v-11.576h1.753V251.701z"/>
</g>
<g>
	<path fill="#FFFFFF" d="M53.971,225.955c-1.711,0-3.061-0.521-4.05-1.562c-0.99-1.043-1.484-2.49-1.484-4.342
		c0-1.865,0.459-3.348,1.378-4.447c0.919-1.098,2.153-1.646,3.702-1.646c1.451,0,2.598,0.477,3.443,1.43
		c0.845,0.955,1.267,2.213,1.267,3.777v1.109h-7.974c0.035,1.357,0.378,2.391,1.03,3.094c0.651,0.705,1.568,1.057,2.751,1.057
		c1.246,0,2.479-0.262,3.697-0.781v1.562c-0.62,0.268-1.206,0.459-1.759,0.576C55.42,225.896,54.753,225.955,53.971,225.955z
		 M53.496,215.424c-0.93,0-1.671,0.303-2.224,0.908c-0.553,0.607-0.878,1.445-0.977,2.514h6.052c0-1.104-0.247-1.951-0.739-2.539
		C55.115,215.719,54.411,215.424,53.496,215.424z"/>
	<path fill="#FFFFFF" d="M61.069,211.031c0-0.402,0.099-0.695,0.296-0.883c0.197-0.186,0.443-0.279,0.739-0.279
		c0.282,0,0.524,0.096,0.729,0.285c0.204,0.189,0.306,0.482,0.306,0.877s-0.102,0.688-0.306,0.881
		c-0.205,0.195-0.447,0.291-0.729,0.291c-0.296,0-0.542-0.096-0.739-0.291C61.167,211.719,61.069,211.426,61.069,211.031z
		 M62.97,225.744h-1.753v-11.576h1.753V225.744z"/>
	<path fill="#FFFFFF" d="M74.609,225.744v-7.488c0-0.943-0.215-1.648-0.644-2.113c-0.43-0.465-1.102-0.697-2.018-0.697
		c-1.211,0-2.098,0.328-2.662,0.982s-0.845,1.736-0.845,3.242v6.074h-1.753v-11.576h1.426l0.285,1.584h0.084
		c0.359-0.57,0.863-1.012,1.511-1.326c0.647-0.312,1.369-0.469,2.165-0.469c1.394,0,2.443,0.336,3.147,1.008
		s1.056,1.748,1.056,3.227v7.553H74.609z"/>
	<path fill="#FFFFFF" d="M85.182,215.529h-2.947v10.215h-1.753v-10.215h-2.07v-0.791l2.07-0.635v-0.643
		c0-2.846,1.243-4.268,3.729-4.268c0.612,0,1.331,0.123,2.154,0.369l-0.454,1.404c-0.676-0.217-1.253-0.326-1.732-0.326
		c-0.662,0-1.151,0.219-1.468,0.66c-0.317,0.439-0.475,1.145-0.475,2.117v0.75h2.947V215.529z"/>
	<path fill="#FFFFFF" d="M94.413,225.744l-0.349-1.648H93.98c-0.577,0.727-1.153,1.217-1.727,1.475
		c-0.574,0.256-1.291,0.385-2.149,0.385c-1.148,0-2.047-0.297-2.699-0.887c-0.651-0.592-0.977-1.434-0.977-2.525
		c0-2.338,1.87-3.562,5.608-3.676l1.965-0.062v-0.719c0-0.908-0.195-1.578-0.586-2.012c-0.391-0.434-1.016-0.65-1.875-0.65
		c-0.965,0-2.056,0.297-3.274,0.889l-0.539-1.342c0.57-0.311,1.195-0.553,1.875-0.729c0.68-0.176,1.361-0.264,2.044-0.264
		c1.38,0,2.403,0.305,3.068,0.918s0.998,1.596,0.998,2.947v7.9H94.413z M90.453,224.508c1.091,0,1.949-0.299,2.572-0.898
		c0.623-0.598,0.935-1.436,0.935-2.514v-1.045l-1.753,0.074c-1.394,0.049-2.399,0.266-3.015,0.648
		c-0.616,0.385-0.924,0.98-0.924,1.791c0,0.633,0.192,1.115,0.576,1.447C89.226,224.342,89.762,224.508,90.453,224.508z"/>
	<path fill="#FFFFFF" d="M103.951,225.955c-1.676,0-2.973-0.516-3.892-1.547c-0.918-1.031-1.378-2.492-1.378-4.379
		c0-1.936,0.466-3.432,1.399-4.488c0.933-1.057,2.262-1.584,3.987-1.584c0.556,0,1.113,0.059,1.669,0.18
		c0.556,0.119,0.993,0.26,1.31,0.422l-0.539,1.488c-0.387-0.154-0.81-0.283-1.268-0.385c-0.458-0.102-0.862-0.152-1.214-0.152
		c-2.352,0-3.528,1.5-3.528,4.498c0,1.424,0.287,2.514,0.861,3.275c0.574,0.76,1.424,1.141,2.551,1.141
		c0.964,0,1.954-0.209,2.968-0.623v1.553C106.102,225.754,105.127,225.955,103.951,225.955z"/>
	<path fill="#FFFFFF" d="M117.544,225.744v-7.488c0-0.943-0.215-1.648-0.644-2.113c-0.43-0.465-1.102-0.697-2.018-0.697
		c-1.218,0-2.107,0.332-2.667,0.994c-0.56,0.66-0.839,1.746-0.839,3.252v6.053h-1.753v-16.436h1.753v4.975
		c0,0.6-0.028,1.096-0.084,1.49h0.105c0.345-0.557,0.836-0.994,1.474-1.314c0.637-0.32,1.364-0.48,2.181-0.48
		c1.416,0,2.477,0.336,3.185,1.008s1.062,1.74,1.062,3.205v7.553H117.544z"/>
	<path fill="#FFFFFF" d="M3.506,240.125v7.51c0,0.943,0.215,1.646,0.645,2.111c0.429,0.465,1.102,0.697,2.017,0.697
		c1.211,0,2.097-0.33,2.657-0.992c0.56-0.662,0.839-1.742,0.839-3.242v-6.084h1.753v11.576H9.97l-0.254-1.553H9.622
		c-0.359,0.57-0.857,1.006-1.495,1.309s-1.364,0.455-2.181,0.455c-1.408,0-2.463-0.334-3.163-1.004
		c-0.701-0.668-1.051-1.738-1.051-3.211v-7.572H3.506z"/>
	<path fill="#FFFFFF" d="M23.056,251.701v-7.488c0-0.943-0.215-1.648-0.644-2.113c-0.43-0.465-1.102-0.697-2.018-0.697
		c-1.211,0-2.098,0.328-2.662,0.982s-0.845,1.736-0.845,3.242v6.074h-1.753v-11.576h1.426l0.285,1.584h0.084
		c0.359-0.57,0.863-1.012,1.511-1.326c0.647-0.312,1.369-0.469,2.165-0.469c1.394,0,2.443,0.336,3.147,1.008
		s1.056,1.748,1.056,3.227v7.553H23.056z"/>
	<path fill="#FFFFFF" d="M36.291,250.148h-0.095c-0.81,1.176-2.021,1.764-3.633,1.764c-1.514,0-2.692-0.518-3.533-1.553
		s-1.262-2.506-1.262-4.414s0.422-3.391,1.267-4.447c0.845-1.057,2.021-1.584,3.528-1.584c1.57,0,2.774,0.57,3.612,1.711h0.137
		l-0.074-0.834l-0.042-0.814v-4.711h1.753v16.436h-1.426L36.291,250.148z M32.784,250.443c1.197,0,2.065-0.324,2.604-0.977
		c0.539-0.65,0.808-1.701,0.808-3.152v-0.369c0-1.641-0.273-2.812-0.818-3.514c-0.546-0.699-1.417-1.051-2.614-1.051
		c-1.028,0-1.815,0.4-2.361,1.199c-0.545,0.799-0.818,1.928-0.818,3.385c0,1.479,0.271,2.596,0.813,3.35
		C30.939,250.066,31.734,250.443,32.784,250.443z"/>
	<path fill="#FFFFFF" d="M49.82,251.701l-4.394-11.576h1.88l2.493,6.865c0.563,1.605,0.894,2.646,0.993,3.127h0.084
		c0.077-0.373,0.322-1.146,0.734-2.318c0.412-1.174,1.336-3.73,2.772-7.674h1.88l-4.394,11.576H49.82z"/>
	<path fill="#FFFFFF" d="M63.012,251.912c-1.711,0-3.061-0.521-4.05-1.562c-0.99-1.043-1.484-2.49-1.484-4.342
		c0-1.865,0.459-3.348,1.378-4.447c0.919-1.098,2.153-1.646,3.702-1.646c1.451,0,2.598,0.477,3.443,1.43
		c0.845,0.955,1.267,2.213,1.267,3.777v1.109h-7.974c0.035,1.357,0.378,2.391,1.03,3.094c0.651,0.705,1.568,1.057,2.751,1.057
		c1.246,0,2.479-0.262,3.697-0.781v1.562c-0.62,0.268-1.206,0.459-1.759,0.576C64.461,251.854,63.794,251.912,63.012,251.912z
		 M62.537,241.381c-0.93,0-1.671,0.303-2.224,0.908c-0.553,0.607-0.878,1.445-0.977,2.514h6.052c0-1.104-0.247-1.951-0.739-2.539
		C64.156,241.676,63.452,241.381,62.537,241.381z"/>
	<path fill="#FFFFFF" d="M75.539,239.914c0.514,0,0.975,0.041,1.383,0.127l-0.243,1.625c-0.479-0.105-0.901-0.158-1.268-0.158
		c-0.937,0-1.737,0.381-2.403,1.141c-0.666,0.762-0.998,1.709-0.998,2.842v6.211h-1.753v-11.576h1.447l0.201,2.145h0.085
		c0.429-0.754,0.947-1.336,1.552-1.744S74.813,239.914,75.539,239.914z"/>
	<path fill="#FFFFFF" d="M86.555,248.543c0,1.076-0.401,1.908-1.204,2.492s-1.929,0.877-3.38,0.877
		c-1.535,0-2.732-0.242-3.591-0.729v-1.627c0.556,0.281,1.153,0.504,1.79,0.666s1.251,0.242,1.843,0.242
		c0.915,0,1.619-0.146,2.112-0.438c0.493-0.293,0.739-0.738,0.739-1.336c0-0.451-0.195-0.838-0.586-1.158
		c-0.391-0.32-1.153-0.697-2.287-1.135c-1.078-0.4-1.843-0.752-2.297-1.051s-0.792-0.639-1.014-1.02
		c-0.222-0.381-0.333-0.834-0.333-1.361c0-0.945,0.384-1.689,1.151-2.234c0.767-0.547,1.82-0.818,3.158-0.818
		c1.247,0,2.464,0.254,3.655,0.76l-0.624,1.426c-1.162-0.479-2.214-0.719-3.158-0.719c-0.831,0-1.458,0.131-1.88,0.391
		c-0.422,0.262-0.633,0.621-0.633,1.078c0,0.311,0.079,0.574,0.237,0.793c0.159,0.217,0.414,0.426,0.766,0.623
		c0.352,0.197,1.028,0.482,2.028,0.855c1.373,0.5,2.3,1.002,2.783,1.51S86.555,247.775,86.555,248.543z"/>
	<path fill="#FFFFFF" d="M93.145,250.465c0.31,0,0.609-0.023,0.898-0.068c0.289-0.047,0.518-0.094,0.687-0.143v1.342
		c-0.19,0.092-0.47,0.166-0.84,0.227s-0.702,0.09-0.998,0.09c-2.239,0-3.358-1.18-3.358-3.539v-6.887h-1.658v-0.844l1.658-0.729
		l0.739-2.473h1.014v2.684h3.359v1.361h-3.359v6.812c0,0.697,0.166,1.232,0.497,1.605C92.114,250.279,92.568,250.465,93.145,250.465
		z"/>
	<path fill="#FFFFFF" d="M104.161,251.701l-0.349-1.648h-0.084c-0.577,0.727-1.153,1.217-1.727,1.475
		c-0.574,0.256-1.291,0.385-2.149,0.385c-1.148,0-2.047-0.297-2.699-0.887c-0.651-0.592-0.977-1.434-0.977-2.525
		c0-2.338,1.87-3.562,5.608-3.676l1.965-0.062v-0.719c0-0.908-0.195-1.578-0.586-2.012c-0.391-0.434-1.016-0.65-1.875-0.65
		c-0.965,0-2.056,0.297-3.274,0.889l-0.539-1.342c0.57-0.311,1.195-0.553,1.875-0.729c0.68-0.176,1.361-0.264,2.044-0.264
		c1.38,0,2.403,0.305,3.068,0.918s0.998,1.596,0.998,2.947v7.9H104.161z M100.201,250.465c1.091,0,1.949-0.299,2.572-0.898
		c0.623-0.598,0.935-1.436,0.935-2.514v-1.045l-1.753,0.074c-1.394,0.049-2.399,0.266-3.015,0.648
		c-0.616,0.385-0.924,0.98-0.924,1.791c0,0.633,0.192,1.115,0.576,1.447C98.974,250.299,99.51,250.465,100.201,250.465z
		 M98.13,236.988c0-0.367,0.093-0.631,0.28-0.793s0.41-0.242,0.671-0.242c0.268,0,0.498,0.08,0.692,0.242
		c0.193,0.162,0.29,0.426,0.29,0.793c0,0.352-0.097,0.613-0.29,0.787c-0.194,0.172-0.424,0.258-0.692,0.258
		c-0.261,0-0.484-0.086-0.671-0.258C98.224,237.602,98.13,237.34,98.13,236.988z M102.154,236.988c0-0.367,0.093-0.631,0.28-0.793
		c0.187-0.162,0.41-0.242,0.67-0.242c0.261,0,0.488,0.08,0.681,0.242c0.194,0.162,0.291,0.426,0.291,0.793
		c0,0.352-0.097,0.613-0.291,0.787c-0.193,0.172-0.42,0.258-0.681,0.258c-0.26,0-0.484-0.086-0.67-0.258
		C102.248,237.602,102.154,237.34,102.154,236.988z"/>
	<path fill="#FFFFFF" d="M116.994,251.701v-7.488c0-0.943-0.215-1.648-0.644-2.113c-0.43-0.465-1.102-0.697-2.018-0.697
		c-1.211,0-2.098,0.328-2.662,0.982s-0.845,1.736-0.845,3.242v6.074h-1.753v-11.576h1.426l0.285,1.584h0.084
		c0.359-0.57,0.863-1.012,1.511-1.326c0.647-0.312,1.369-0.469,2.165-0.469c1.394,0,2.443,0.336,3.147,1.008
		s1.056,1.748,1.056,3.227v7.553H116.994z"/>
	<path fill="#FFFFFF" d="M130.229,250.148h-0.095c-0.81,1.176-2.021,1.764-3.633,1.764c-1.514,0-2.692-0.518-3.533-1.553
		s-1.262-2.506-1.262-4.414s0.422-3.391,1.267-4.447c0.845-1.057,2.021-1.584,3.528-1.584c1.57,0,2.774,0.57,3.612,1.711h0.137
		l-0.074-0.834l-0.042-0.814v-4.711h1.753v16.436h-1.426L130.229,250.148z M126.722,250.443c1.197,0,2.065-0.324,2.604-0.977
		c0.539-0.65,0.808-1.701,0.808-3.152v-0.369c0-1.641-0.273-2.812-0.818-3.514c-0.546-0.699-1.417-1.051-2.614-1.051
		c-1.028,0-1.815,0.4-2.361,1.199c-0.545,0.799-0.818,1.928-0.818,3.385c0,1.479,0.271,2.596,0.813,3.35
		C124.877,250.066,125.672,250.443,126.722,250.443z"/>
	<path fill="#FFFFFF" d="M137.358,251.701h-1.753v-16.436h1.753V251.701z"/>
	<path fill="#FFFFFF" d="M140.928,236.988c0-0.402,0.099-0.695,0.296-0.883c0.197-0.186,0.443-0.279,0.739-0.279
		c0.282,0,0.524,0.096,0.729,0.285c0.204,0.189,0.306,0.482,0.306,0.877s-0.102,0.688-0.306,0.881
		c-0.205,0.195-0.447,0.291-0.729,0.291c-0.296,0-0.542-0.096-0.739-0.291C141.026,237.676,140.928,237.383,140.928,236.988z
		 M142.829,251.701h-1.753v-11.576h1.753V251.701z"/>
	<path fill="#FFFFFF" d="M151.173,251.912c-1.676,0-2.973-0.516-3.892-1.547c-0.918-1.031-1.378-2.492-1.378-4.379
		c0-1.936,0.466-3.432,1.399-4.488c0.933-1.057,2.262-1.584,3.987-1.584c0.556,0,1.113,0.059,1.669,0.18
		c0.556,0.119,0.993,0.26,1.31,0.422l-0.539,1.488c-0.387-0.154-0.81-0.283-1.268-0.385c-0.458-0.102-0.862-0.152-1.214-0.152
		c-2.352,0-3.528,1.5-3.528,4.498c0,1.424,0.287,2.514,0.861,3.275c0.574,0.76,1.424,1.141,2.551,1.141
		c0.964,0,1.954-0.209,2.968-0.623v1.553C153.324,251.711,152.349,251.912,151.173,251.912z"/>
	<path fill="#FFFFFF" d="M164.766,251.701v-7.488c0-0.943-0.215-1.648-0.644-2.113c-0.43-0.465-1.102-0.697-2.018-0.697
		c-1.218,0-2.107,0.332-2.667,0.994c-0.56,0.66-0.839,1.746-0.839,3.252v6.053h-1.753v-16.436h1.753v4.975
		c0,0.6-0.028,1.096-0.084,1.49h0.105c0.345-0.557,0.836-0.994,1.474-1.314c0.637-0.32,1.364-0.48,2.181-0.48
		c1.416,0,2.477,0.336,3.185,1.008s1.062,1.74,1.062,3.205v7.553H164.766z"/>
</g>
<path fill="#FFFFFF" d="M427.624,170.455c-2.988,16.006-18.389,26.559-34.395,23.568c-16.007-2.99-26.559-18.389-23.569-34.393
	c0.419-2.239,1.086-4.368,1.958-6.369c-1.65-2.895-3.644-6.374-6.086-10.63c0,0-0.482-0.841-0.271-1.088
	c0.104-0.123,6.146,1.135,12.935,2.264c6.631-6.373,16.13-9.565,25.859-7.749C420.062,139.049,430.613,154.448,427.624,170.455z"/>
<path fill="#007EC1" d="M413.019,163.393h-12.12v-5.07c0-0.687-0.081-1.557-0.344-2.529c-0.388-1.451-1.199-3.16-2.801-4.512
	c-1.596-1.354-3.926-2.229-6.929-2.218c-1.998-0.002-3.708,0.364-5.124,1.012c-2.137,0.971-3.535,2.583-4.317,4.191
	c-0.791,1.613-1.036,3.209-1.039,4.462v5.783h3.832v-5.783c0-0.484,0.071-1.134,0.264-1.787c0.293-0.993,0.829-1.971,1.758-2.71
	c0.931-0.736,2.309-1.329,4.627-1.335c1.538,0,2.633,0.281,3.438,0.664c1.196,0.579,1.838,1.401,2.264,2.312
	c0.421,0.902,0.544,1.897,0.542,2.449v5.07h-1.413c-2.289,0-2.289,2.287-2.289,2.287v13.049c0,2.291,2.289,2.291,2.289,2.291h17.363
	c2.29,0,2.29-2.291,2.29-2.291V165.68C415.309,163.393,413.019,163.393,413.019,163.393z"/>
<g>
	<path fill="#FFFFFF" d="M188.872,305.027c0,1.078-0.401,1.908-1.204,2.494c-0.803,0.584-1.929,0.875-3.38,0.875
		c-1.535,0-2.732-0.242-3.591-0.729v-1.627c0.556,0.283,1.153,0.504,1.79,0.666s1.251,0.244,1.843,0.244
		c0.915,0,1.619-0.146,2.112-0.439c0.493-0.291,0.739-0.736,0.739-1.336c0-0.451-0.195-0.836-0.586-1.156
		c-0.391-0.32-1.153-0.699-2.287-1.135c-1.078-0.402-1.843-0.752-2.297-1.053c-0.454-0.299-0.792-0.639-1.014-1.018
		c-0.222-0.381-0.333-0.836-0.333-1.363c0-0.943,0.384-1.688,1.151-2.234c0.767-0.545,1.82-0.818,3.158-0.818
		c1.247,0,2.464,0.254,3.655,0.762l-0.624,1.426c-1.162-0.48-2.214-0.719-3.158-0.719c-0.831,0-1.458,0.131-1.88,0.391
		c-0.422,0.26-0.633,0.619-0.633,1.078c0,0.309,0.079,0.572,0.237,0.791c0.159,0.219,0.414,0.426,0.766,0.623
		c0.352,0.197,1.028,0.482,2.028,0.855c1.373,0.5,2.3,1.004,2.783,1.512C188.631,303.623,188.872,304.26,188.872,305.027z"/>
	<path fill="#FFFFFF" d="M196.614,308.396c-1.711,0-3.061-0.52-4.05-1.562c-0.99-1.041-1.484-2.488-1.484-4.342
		c0-1.865,0.459-3.348,1.378-4.445c0.919-1.1,2.153-1.648,3.702-1.648c1.451,0,2.598,0.477,3.443,1.432
		c0.845,0.955,1.267,2.213,1.267,3.775v1.109h-7.974c0.035,1.359,0.378,2.391,1.03,3.096c0.651,0.703,1.568,1.055,2.751,1.055
		c1.246,0,2.479-0.26,3.697-0.781v1.562c-0.62,0.27-1.206,0.461-1.759,0.576C198.062,308.34,197.396,308.396,196.614,308.396z
		 M196.139,297.867c-0.93,0-1.671,0.303-2.224,0.908s-0.878,1.443-0.977,2.514h6.052c0-1.105-0.247-1.953-0.739-2.541
		C197.758,298.16,197.054,297.867,196.139,297.867z"/>
	<path fill="#FFFFFF" d="M205.613,308.186h-1.753v-16.434h1.753V308.186z"/>
	<path fill="#FFFFFF" d="M214.717,296.42c1.521,0,2.702,0.52,3.543,1.559c0.841,1.037,1.262,2.508,1.262,4.408
		c0,1.902-0.424,3.379-1.273,4.432s-2.026,1.578-3.533,1.578c-0.753,0-1.442-0.139-2.065-0.416
		c-0.623-0.279-1.146-0.707-1.568-1.283h-0.127l-0.37,1.488h-1.257v-16.434h1.753v3.992c0,0.895-0.028,1.697-0.084,2.408h0.084
		C211.9,296.998,213.112,296.42,214.717,296.42z M214.464,297.889c-1.197,0-2.06,0.342-2.588,1.029
		c-0.528,0.686-0.792,1.844-0.792,3.469c0,1.627,0.271,2.791,0.813,3.492c0.542,0.699,1.412,1.051,2.609,1.051
		c1.078,0,1.88-0.393,2.408-1.178c0.528-0.785,0.792-1.914,0.792-3.385c0-1.508-0.264-2.631-0.792-3.369
		C216.386,298.258,215.569,297.889,214.464,297.889z"/>
	<path fill="#FFFFFF" d="M230.053,305.027c0,1.078-0.401,1.908-1.204,2.494c-0.803,0.584-1.929,0.875-3.38,0.875
		c-1.535,0-2.732-0.242-3.591-0.729v-1.627c0.556,0.283,1.153,0.504,1.79,0.666s1.251,0.244,1.843,0.244
		c0.915,0,1.619-0.146,2.112-0.439c0.493-0.291,0.739-0.736,0.739-1.336c0-0.451-0.195-0.836-0.586-1.156
		c-0.391-0.32-1.153-0.699-2.287-1.135c-1.078-0.402-1.843-0.752-2.297-1.053c-0.454-0.299-0.792-0.639-1.014-1.018
		c-0.222-0.381-0.333-0.836-0.333-1.363c0-0.943,0.384-1.688,1.151-2.234c0.767-0.545,1.82-0.818,3.158-0.818
		c1.247,0,2.464,0.254,3.655,0.762l-0.624,1.426c-1.162-0.48-2.214-0.719-3.158-0.719c-0.831,0-1.458,0.131-1.88,0.391
		c-0.422,0.26-0.633,0.619-0.633,1.078c0,0.309,0.079,0.572,0.237,0.791c0.159,0.219,0.414,0.426,0.766,0.623
		c0.352,0.197,1.028,0.482,2.028,0.855c1.373,0.5,2.3,1.004,2.783,1.512C229.812,303.623,230.053,304.26,230.053,305.027z"/>
	<path fill="#FFFFFF" d="M236.644,306.951c0.31,0,0.609-0.023,0.897-0.07c0.289-0.045,0.518-0.092,0.688-0.143v1.342
		c-0.19,0.092-0.471,0.168-0.84,0.227c-0.37,0.061-0.703,0.09-0.998,0.09c-2.24,0-3.359-1.178-3.359-3.537v-6.887h-1.658v-0.846
		l1.658-0.729l0.739-2.471h1.014v2.682h3.359v1.363h-3.359v6.812c0,0.697,0.166,1.232,0.497,1.605S236.066,306.951,236.644,306.951z
		"/>
	<path fill="#FFFFFF" d="M247.659,308.186l-0.348-1.646h-0.084c-0.578,0.725-1.154,1.215-1.729,1.473
		c-0.572,0.258-1.289,0.385-2.148,0.385c-1.148,0-2.047-0.295-2.698-0.887c-0.652-0.592-0.978-1.432-0.978-2.523
		c0-2.338,1.869-3.562,5.609-3.676l1.963-0.064v-0.717c0-0.908-0.195-1.58-0.586-2.014c-0.391-0.432-1.016-0.648-1.875-0.648
		c-0.965,0-2.055,0.295-3.273,0.887l-0.538-1.342c0.569-0.309,1.194-0.553,1.874-0.729s1.361-0.264,2.043-0.264
		c1.381,0,2.404,0.307,3.068,0.92c0.666,0.611,0.998,1.594,0.998,2.945v7.9H247.659z M243.698,306.951
		c1.092,0,1.949-0.301,2.572-0.898s0.936-1.438,0.936-2.514v-1.047l-1.754,0.074c-1.395,0.051-2.398,0.266-3.016,0.65
		c-0.615,0.383-0.924,0.98-0.924,1.791c0,0.633,0.191,1.115,0.576,1.445C242.472,306.785,243.009,306.951,243.698,306.951z
		 M241.629,293.473c0-0.365,0.093-0.629,0.28-0.791c0.186-0.162,0.41-0.244,0.67-0.244c0.268,0,0.498,0.082,0.691,0.244
		c0.195,0.162,0.291,0.426,0.291,0.791c0,0.354-0.096,0.615-0.291,0.787c-0.193,0.174-0.424,0.26-0.691,0.26
		c-0.26,0-0.484-0.086-0.67-0.26C241.722,294.088,241.629,293.826,241.629,293.473z M245.653,293.473
		c0-0.365,0.094-0.629,0.279-0.791c0.188-0.162,0.41-0.244,0.672-0.244c0.26,0,0.486,0.082,0.68,0.244s0.291,0.426,0.291,0.791
		c0,0.354-0.098,0.615-0.291,0.787c-0.193,0.174-0.42,0.26-0.68,0.26c-0.262,0-0.484-0.086-0.672-0.26
		C245.747,294.088,245.653,293.826,245.653,293.473z"/>
	<path fill="#FFFFFF" d="M260.492,308.186v-7.488c0-0.943-0.215-1.646-0.645-2.111c-0.429-0.465-1.102-0.697-2.017-0.697
		c-1.212,0-2.099,0.326-2.662,0.982c-0.563,0.654-0.845,1.734-0.845,3.242v6.072h-1.753v-11.576h1.426l0.285,1.586h0.084
		c0.359-0.57,0.862-1.014,1.511-1.326c0.647-0.314,1.369-0.471,2.165-0.471c1.395,0,2.443,0.336,3.147,1.01
		c0.704,0.672,1.056,1.748,1.056,3.227v7.551H260.492z"/>
	<path fill="#FFFFFF" d="M273.727,306.633h-0.095c-0.811,1.176-2.021,1.764-3.634,1.764c-1.514,0-2.691-0.518-3.533-1.553
		c-0.841-1.033-1.262-2.506-1.262-4.414s0.422-3.391,1.268-4.447c0.845-1.055,2.021-1.584,3.527-1.584
		c1.57,0,2.774,0.57,3.612,1.711h0.137l-0.073-0.834l-0.042-0.812v-4.711h1.753v16.434h-1.426L273.727,306.633z M270.22,306.93
		c1.197,0,2.065-0.326,2.604-0.977c0.539-0.652,0.809-1.703,0.809-3.154v-0.369c0-1.641-0.273-2.811-0.819-3.512
		s-1.417-1.051-2.614-1.051c-1.027,0-1.814,0.4-2.36,1.199s-0.818,1.928-0.818,3.385c0,1.479,0.271,2.594,0.813,3.348
		S269.171,306.93,270.22,306.93z"/>
	<path fill="#FFFFFF" d="M278.954,293.473c0-0.4,0.099-0.695,0.296-0.881c0.197-0.188,0.443-0.281,0.739-0.281
		c0.281,0,0.524,0.096,0.729,0.285c0.204,0.191,0.307,0.482,0.307,0.877s-0.103,0.689-0.307,0.883s-0.447,0.291-0.729,0.291
		c-0.296,0-0.542-0.098-0.739-0.291S278.954,293.867,278.954,293.473z M280.855,308.186h-1.753v-11.576h1.753V308.186z"/>
	<path fill="#FFFFFF" d="M294.047,296.609v1.109l-2.145,0.254c0.197,0.246,0.374,0.568,0.528,0.967
		c0.155,0.396,0.232,0.846,0.232,1.346c0,1.135-0.387,2.039-1.162,2.715c-0.774,0.676-1.837,1.014-3.189,1.014
		c-0.345,0-0.669-0.027-0.972-0.084c-0.746,0.395-1.119,0.891-1.119,1.488c0,0.318,0.13,0.553,0.391,0.703
		c0.261,0.152,0.708,0.227,1.341,0.227h2.05c1.253,0,2.216,0.264,2.889,0.793c0.672,0.527,1.009,1.295,1.009,2.303
		c0,1.281-0.515,2.258-1.542,2.93c-1.028,0.674-2.528,1.01-4.5,1.01c-1.514,0-2.681-0.281-3.501-0.846
		c-0.82-0.562-1.23-1.359-1.23-2.387c0-0.703,0.225-1.312,0.676-1.826c0.45-0.516,1.084-0.863,1.901-1.047
		c-0.296-0.133-0.544-0.342-0.745-0.623c-0.2-0.281-0.301-0.609-0.301-0.982c0-0.422,0.112-0.791,0.338-1.109
		c0.226-0.316,0.581-0.623,1.067-0.918c-0.599-0.246-1.087-0.666-1.463-1.258c-0.377-0.59-0.565-1.268-0.565-2.027
		c0-1.268,0.38-2.244,1.141-2.932c0.761-0.686,1.838-1.029,3.232-1.029c0.605,0,1.15,0.07,1.637,0.211H294.047z M284.815,310.129
		c0,0.627,0.265,1.102,0.792,1.426c0.528,0.324,1.285,0.486,2.271,0.486c1.472,0,2.562-0.221,3.269-0.66
		c0.708-0.439,1.062-1.037,1.062-1.791c0-0.625-0.193-1.061-0.581-1.303c-0.387-0.244-1.116-0.365-2.187-0.365h-2.102
		c-0.796,0-1.415,0.189-1.858,0.57C285.037,308.873,284.815,309.418,284.815,310.129z M285.767,300.316
		c0,0.811,0.229,1.424,0.687,1.838c0.457,0.416,1.095,0.623,1.911,0.623c1.711,0,2.566-0.83,2.566-2.492
		c0-1.738-0.865-2.607-2.598-2.607c-0.824,0-1.458,0.221-1.901,0.664S285.767,299.445,285.767,300.316z"/>
</g>
<g>
	<path fill="#FFFFFF" d="M263.992,257.822c6.622-14.877-0.068-32.303-14.943-38.926c-2.342-1.045-4.749-1.756-7.167-2.156
		c-1.392-2.994-3.076-6.652-5.16-11.176c0,0-0.405-0.883-0.73-0.85c-0.161,0.016-2.678,6.004-5.705,12.424
		c-8.646,2.047-16.271,7.957-20.163,16.699c-6.623,14.877,0.067,32.305,14.942,38.928
		C239.94,279.391,257.369,272.699,263.992,257.822z"/>
	<g>
		<path fill="#007EC1" d="M245.016,263.723v-6.566h-0.727l0.727,0.025v-0.025h-0.727l0.727,0.025
			c-0.012-0.045,0.067-0.826,0.374-1.324c0.15-0.254,0.316-0.443,0.564-0.592c0.251-0.146,0.619-0.293,1.331-0.297h3.304
			c0.573,0,1.134-0.234,1.539-0.639c0.406-0.406,0.639-0.967,0.639-1.541c0-0.572-0.232-1.135-0.637-1.539
			c-0.407-0.406-0.968-0.639-1.541-0.639h-0.188v4.357h0.188c0.573,0,1.134-0.234,1.539-0.639c0.406-0.406,0.639-0.967,0.639-1.541
			c0-0.572-0.232-1.135-0.637-1.539c-0.407-0.406-0.968-0.639-1.541-0.639h-3.304c-1.464-0.006-2.767,0.377-3.765,1.037
			c-0.75,0.49-1.314,1.109-1.714,1.727c-0.605,0.926-0.87,1.83-1.008,2.516c-0.137,0.686-0.141,1.162-0.141,1.266v6.566H245.016z"/>
		<path fill="#007EC1" d="M232.712,263.723v-14.828c-0.012-0.186,0.012-1.547-0.797-3.168c-0.407-0.801-1.068-1.674-2.071-2.326
			c-0.998-0.658-2.298-1.041-3.762-1.033h-3.303c-0.572,0-1.135,0.232-1.54,0.637c-0.405,0.406-0.637,0.969-0.637,1.543
			c0,0.572,0.231,1.133,0.637,1.539s0.968,0.639,1.54,0.639h0.189v-4.357h-0.189c-0.572,0-1.135,0.232-1.54,0.637
			c-0.405,0.406-0.637,0.969-0.637,1.543c0,0.572,0.231,1.133,0.637,1.539s0.968,0.639,1.54,0.639h3.303
			c0.764,0.006,1.132,0.166,1.384,0.326c0.188,0.123,0.328,0.271,0.455,0.459c0.188,0.281,0.318,0.668,0.377,0.975
			c0.031,0.15,0.045,0.279,0.052,0.359l0.005,0.074v0.002l1.313-0.025h-1.313v0.025l1.313-0.025h-1.313v14.828H232.712z"/>
		<polyline fill="#007EC1" points="238.753,263.723 238.753,233.002 234.396,233.002 234.396,263.723 		"/>
		<polygon fill="#007EC1" points="217.686,244.525 225.145,248.98 225.126,240.018 		"/>
		<polygon fill="#007EC1" points="236.659,226.551 232.203,234.008 241.165,233.99 		"/>
		<polygon fill="#007EC1" points="256.429,252.703 248.932,248.312 249.028,257.273 		"/>
	</g>
</g>
<g>
	<path fill="#FFFFFF" d="M55.153,170.455c2.988,16.006,18.39,26.559,34.396,23.568s26.558-18.389,23.568-34.393
		c-0.419-2.239-1.086-4.368-1.958-6.369c1.65-2.895,3.644-6.374,6.086-10.63c0,0,0.482-0.841,0.271-1.088
		c-0.104-0.123-6.146,1.135-12.935,2.264c-6.631-6.373-16.129-9.565-25.859-7.749C62.716,139.049,52.164,154.448,55.153,170.455z"/>
	<path fill="#007EC1" d="M84.58,152.599l0.107-2.997c-8.528-0.306-15.687,6.355-15.996,14.883
		c-0.306,8.527,6.354,15.688,14.883,15.996c8.527,0.307,15.687-6.354,15.997-14.883c0.305-8.527-6.356-15.688-14.884-15.996
		L84.58,152.599l-0.108,2.997c2.617,0.097,4.922,1.232,6.576,3.008c1.654,1.781,2.621,4.16,2.528,6.777
		c-0.096,2.617-1.232,4.924-3.008,6.58c-1.78,1.65-4.16,2.617-6.778,2.525c-2.617-0.098-4.923-1.232-6.58-3.008
		c-1.648-1.779-2.614-4.16-2.523-6.779c0.097-2.617,1.232-4.92,3.009-6.576c1.777-1.653,4.159-2.62,6.776-2.527L84.58,152.599z"/>
</g>
</svg>
