<?xml version="1.0" encoding="UTF-8" standalone="no"?>
<!-- Generator: Adobe Illustrator 16.0.4, SVG Export Plug-In . SVG Version: 6.00 Build 0)  -->

<svg
   xmlns:dc="http://purl.org/dc/elements/1.1/"
   xmlns:cc="http://creativecommons.org/ns#"
   xmlns:rdf="http://www.w3.org/1999/02/22-rdf-syntax-ns#"
   xmlns:svg="http://www.w3.org/2000/svg"
   xmlns="http://www.w3.org/2000/svg"
   xmlns:sodipodi="http://sodipodi.sourceforge.net/DTD/sodipodi-0.dtd"
   xmlns:inkscape="http://www.inkscape.org/namespaces/inkscape"
   version="1.1"
   id="Layer_1"
   x="0px"
   y="0px"
   width="470px"
   height="315px"
   viewBox="0 0 470 315"
   enable-background="new 0 0 470 315"
   xml:space="preserve"
   inkscape:version="0.91 r13725"
   sodipodi:docname="home_learn.svg"><metadata
     id="metadata183"><rdf:RDF><cc:Work
         rdf:about=""><dc:format>image/svg+xml</dc:format><dc:type
           rdf:resource="http://purl.org/dc/dcmitype/StillImage" /></cc:Work></rdf:RDF></metadata><defs
     id="defs181" /><sodipodi:namedview
     pagecolor="#ffffff"
     bordercolor="#666666"
     borderopacity="1"
     objecttolerance="10"
     gridtolerance="10"
     guidetolerance="10"
     inkscape:pageopacity="0"
     inkscape:pageshadow="2"
     inkscape:window-width="1920"
     inkscape:window-height="1001"
     id="namedview179"
     showgrid="false"
     inkscape:zoom="2.1190756"
     inkscape:cx="135.56367"
     inkscape:cy="229.58095"
     inkscape:window-x="-9"
     inkscape:window-y="-9"
     inkscape:window-maximized="1"
     inkscape:current-layer="g3"
     showguides="true"
     inkscape:guide-bbox="true"><sodipodi:guide
       position="151.49364,186.19703"
       orientation="1,0"
       id="guide4207" /><sodipodi:guide
       position="322.31036,184.27847"
       orientation="1,0"
       id="guide4209" /></sodipodi:namedview><g
     id="g3"><path
       d="M237.058,171.621c47.13,0,85.334-38.207,85.334-85.335c0-47.129-38.204-85.334-85.334-85.334   c-47.129,0-85.335,38.205-85.335,85.334C151.723,133.415,189.929,171.621,237.058,171.621"
       id="path5"
       fill="#007EC1" /><path
       fill="#FFFFFF"
       d="M246.884,45.148c0,3.001-1.062,5.565-3.186,7.689c-2.124,2.124-4.688,3.186-7.689,3.186   c-3.002,0-5.564-1.062-7.689-3.186c-2.124-2.124-3.186-4.688-3.186-7.689c0-3.003,1.062-5.565,3.186-7.69   c2.125-2.124,4.688-3.185,7.689-3.185c3.001,0,5.565,1.062,7.689,3.185C245.822,39.583,246.884,42.145,246.884,45.148    M255.947,70.44c0,2.265-0.689,4.054-2.067,5.366c-1.379,1.312-3.21,1.968-5.494,1.968h-24.754c-2.284,0-4.115-0.655-5.495-1.968   c-1.377-1.312-2.066-3.101-2.066-5.366c0-1.002,0.033-1.979,0.1-2.932c0.065-0.953,0.198-1.982,0.396-3.086   c0.197-1.105,0.447-2.129,0.75-3.074c0.303-0.943,0.708-1.864,1.218-2.761c0.511-0.897,1.095-1.661,1.756-2.294   c0.661-0.633,1.468-1.137,2.421-1.515c0.954-0.378,2.007-0.566,3.159-0.566c0.17,0,0.566,0.203,1.189,0.608   c0.623,0.407,1.326,0.86,2.109,1.36c0.784,0.5,1.804,0.953,3.059,1.359c1.256,0.407,2.517,0.61,3.781,0.61s2.526-0.204,3.781-0.61   c1.256-0.406,2.275-0.859,3.059-1.359s1.486-0.953,2.11-1.36c0.622-0.405,1.019-0.608,1.189-0.608c1.151,0,2.204,0.188,3.158,0.566   c0.953,0.377,1.76,0.882,2.421,1.515c0.661,0.634,1.246,1.397,1.755,2.294c0.511,0.897,0.916,1.818,1.219,2.761   c0.303,0.944,0.553,1.969,0.75,3.074c0.198,1.104,0.331,2.133,0.397,3.086C255.914,68.461,255.947,69.438,255.947,70.44"
       id="path41" /><text
       xml:space="preserve"
       style="font-style:normal;font-weight:normal;font-size:21.62002754px;line-height:125%;font-family:sans-serif;text-align:center;letter-spacing:0px;word-spacing:0px;text-anchor:middle;fill:#ffffff;fill-opacity:1;stroke:none;stroke-width:1px;stroke-linecap:butt;stroke-linejoin:miter;stroke-opacity:1"
       x="236.34457"
       y="108.82868"
       id="text9074"
       sodipodi:linespacing="125%"><tspan
         sodipodi:role="line"
         x="240.0394"
         y="108.82868"
         style="font-style:normal;font-variant:normal;font-weight:bold;font-stretch:normal;font-family:sans-serif;-inkscape-font-specification:'sans-serif Bold';text-align:center;text-anchor:middle;fill:#ffffff"
         id="tspan9078"><tspan
           id="tspan9080"
           style="font-style:normal;font-variant:normal;font-weight:bold;font-stretch:normal;font-family:sans-serif;-inkscape-font-specification:'sans-serif Bold';text-align:center;text-anchor:middle;fill:#ffffff">students </tspan></tspan><tspan
         sodipodi:role="line"
         x="236.34457"
         y="135.85371"
         style="font-style:normal;font-variant:normal;font-weight:bold;font-stretch:normal;font-family:sans-serif;-inkscape-font-specification:'sans-serif Bold';text-align:center;text-anchor:middle;fill:#ffffff"
         id="tspan9082">learn</tspan></text>
</g><g
     id="g43"><path
       fill="#FFFFFF"
       d="M385.672,215.531h-2.946v10.213h-1.754v-10.213h-2.069v-0.793l2.069-0.633v-0.645   c0-2.844,1.243-4.268,3.729-4.268c0.613,0,1.331,0.123,2.155,0.371l-0.454,1.404c-0.677-0.219-1.254-0.328-1.732-0.328   c-0.662,0-1.151,0.221-1.468,0.66c-0.317,0.441-0.476,1.146-0.476,2.117v0.75h2.946V215.531z"
       id="path45" /><path
       fill="#FFFFFF"
       d="M393.065,213.957c0.515,0,0.976,0.043,1.384,0.127l-0.243,1.627c-0.479-0.105-0.901-0.158-1.268-0.158   c-0.937,0-1.737,0.379-2.402,1.141c-0.665,0.76-0.998,1.707-0.998,2.842v6.209h-1.753v-11.576h1.446l0.201,2.145h0.084   c0.43-0.754,0.947-1.334,1.553-1.742S392.341,213.957,393.065,213.957z"
       id="path47" /><path
       fill="#FFFFFF"
       d="M401.505,225.955c-1.711,0-3.062-0.52-4.051-1.562c-0.989-1.041-1.483-2.488-1.483-4.342   c0-1.865,0.459-3.348,1.378-4.445c0.919-1.1,2.153-1.648,3.702-1.648c1.45,0,2.599,0.477,3.443,1.432s1.268,2.213,1.268,3.775   v1.109h-7.975c0.035,1.359,0.379,2.391,1.03,3.096c0.65,0.703,1.568,1.055,2.751,1.055c1.246,0,2.479-0.26,3.696-0.781v1.562   c-0.619,0.27-1.205,0.461-1.758,0.576C402.953,225.898,402.286,225.955,401.505,225.955z M401.029,215.426   c-0.929,0-1.67,0.303-2.223,0.908s-0.879,1.443-0.978,2.514h6.053c0-1.105-0.247-1.953-0.74-2.541   C402.649,215.719,401.945,215.426,401.029,215.426z"
       id="path49" /><path
       fill="#FFFFFF"
       d="M413.641,225.955c-1.711,0-3.062-0.52-4.051-1.562c-0.989-1.041-1.483-2.488-1.483-4.342   c0-1.865,0.459-3.348,1.378-4.445c0.919-1.1,2.153-1.648,3.702-1.648c1.45,0,2.599,0.477,3.443,1.432s1.268,2.213,1.268,3.775   v1.109h-7.975c0.035,1.359,0.379,2.391,1.03,3.096c0.65,0.703,1.568,1.055,2.751,1.055c1.246,0,2.479-0.26,3.696-0.781v1.562   c-0.619,0.27-1.205,0.461-1.758,0.576C415.089,225.898,414.422,225.955,413.641,225.955z M413.165,215.426   c-0.929,0-1.67,0.303-2.223,0.908s-0.879,1.443-0.978,2.514h6.053c0-1.105-0.247-1.953-0.74-2.541   C414.785,215.719,414.081,215.426,413.165,215.426z"
       id="path51" /><path
       fill="#FFFFFF"
       d="M350.918,251.701l-2.123-6.791c-0.134-0.416-0.384-1.359-0.749-2.83h-0.085   c-0.281,1.232-0.528,2.182-0.739,2.852l-2.187,6.77h-2.027l-3.158-11.576h1.838c0.746,2.908,1.314,5.123,1.705,6.645   c0.392,1.521,0.614,2.545,0.671,3.072h0.085c0.077-0.4,0.202-0.92,0.375-1.557c0.172-0.637,0.321-1.143,0.448-1.516l2.123-6.645   h1.901l2.07,6.645c0.395,1.211,0.661,2.229,0.803,3.053h0.084c0.028-0.254,0.104-0.645,0.228-1.174   c0.123-0.527,0.857-3.369,2.202-8.523h1.816l-3.2,11.576H350.918z"
       id="path53" /><path
       fill="#FFFFFF"
       d="M358.143,236.988c0-0.4,0.099-0.695,0.296-0.881c0.197-0.188,0.443-0.281,0.739-0.281   c0.281,0,0.524,0.096,0.729,0.285c0.204,0.191,0.307,0.482,0.307,0.877s-0.103,0.689-0.307,0.883s-0.447,0.291-0.729,0.291   c-0.296,0-0.542-0.098-0.739-0.291S358.143,237.383,358.143,236.988z M360.044,251.701h-1.753v-11.576h1.753V251.701z"
       id="path55" /><path
       fill="#FFFFFF"
       d="M367.5,250.467c0.31,0,0.609-0.023,0.898-0.07c0.288-0.045,0.517-0.092,0.687-0.143v1.342   c-0.19,0.092-0.471,0.168-0.84,0.227c-0.37,0.061-0.703,0.09-0.998,0.09c-2.239,0-3.359-1.178-3.359-3.537v-6.887h-1.658v-0.846   l1.658-0.729l0.739-2.471h1.015v2.682H369v1.363h-3.358v6.812c0,0.697,0.165,1.232,0.496,1.605S366.923,250.467,367.5,250.467z"
       id="path57" /><path
       fill="#FFFFFF"
       d="M379.319,251.701v-7.488c0-0.943-0.215-1.646-0.645-2.111c-0.429-0.465-1.102-0.697-2.017-0.697   c-1.219,0-2.107,0.33-2.667,0.992s-0.84,1.746-0.84,3.254v6.051h-1.753v-16.434h1.753v4.975c0,0.598-0.028,1.094-0.085,1.488h0.106   c0.345-0.555,0.836-0.994,1.473-1.314c0.638-0.32,1.364-0.48,2.182-0.48c1.415,0,2.477,0.336,3.185,1.008   c0.707,0.674,1.061,1.742,1.061,3.207v7.551H379.319z"
       id="path59" /><path
       fill="#FFFFFF"
       d="M394.666,245.902c0,1.889-0.476,3.361-1.426,4.422c-0.951,1.059-2.264,1.588-3.939,1.588   c-1.035,0-1.954-0.242-2.757-0.729c-0.803-0.484-1.423-1.182-1.859-2.09c-0.437-0.91-0.654-1.973-0.654-3.191   c0-1.887,0.472-3.355,1.415-4.408s2.253-1.58,3.929-1.58c1.62,0,2.906,0.539,3.86,1.617   C394.188,242.607,394.666,244.064,394.666,245.902z M385.847,245.902c0,1.479,0.296,2.605,0.888,3.381   c0.591,0.775,1.461,1.162,2.608,1.162s2.019-0.387,2.614-1.156c0.595-0.771,0.893-1.9,0.893-3.387c0-1.471-0.298-2.588-0.893-3.354   c-0.596-0.764-1.474-1.145-2.636-1.145c-1.147,0-2.014,0.377-2.598,1.129C386.139,243.287,385.847,244.41,385.847,245.902z"
       id="path61" /><path
       fill="#FFFFFF"
       d="M399.388,240.125v7.51c0,0.943,0.215,1.648,0.644,2.113c0.43,0.465,1.103,0.697,2.018,0.697   c1.211,0,2.097-0.332,2.656-0.994c0.561-0.66,0.84-1.742,0.84-3.242v-6.084h1.754v11.576h-1.447l-0.254-1.553h-0.095   c-0.359,0.57-0.857,1.008-1.494,1.311c-0.638,0.303-1.365,0.453-2.182,0.453c-1.408,0-2.463-0.334-3.163-1.002   c-0.701-0.67-1.051-1.74-1.051-3.211v-7.574H399.388z"
       id="path63" /><path
       fill="#FFFFFF"
       d="M414.755,250.467c0.31,0,0.609-0.023,0.898-0.07c0.288-0.045,0.517-0.092,0.687-0.143v1.342   c-0.19,0.092-0.471,0.168-0.84,0.227c-0.37,0.061-0.703,0.09-0.998,0.09c-2.239,0-3.359-1.178-3.359-3.537v-6.887h-1.658v-0.846   l1.658-0.729l0.739-2.471h1.015v2.682h3.358v1.363h-3.358v6.812c0,0.697,0.165,1.232,0.496,1.605S414.178,250.467,414.755,250.467z   "
       id="path65" /><path
       fill="#FFFFFF"
       d="M431.391,251.701l-0.349-1.646h-0.084c-0.578,0.725-1.153,1.215-1.728,1.473   c-0.573,0.258-1.29,0.385-2.149,0.385c-1.147,0-2.047-0.295-2.698-0.887s-0.977-1.432-0.977-2.523c0-2.338,1.869-3.562,5.608-3.676   l1.964-0.064v-0.717c0-0.908-0.195-1.58-0.586-2.014c-0.391-0.432-1.016-0.648-1.875-0.648c-0.965,0-2.056,0.295-3.273,0.887   l-0.539-1.342c0.57-0.309,1.195-0.553,1.875-0.729c0.679-0.176,1.36-0.264,2.043-0.264c1.381,0,2.403,0.307,3.068,0.92   c0.666,0.611,0.998,1.594,0.998,2.945v7.9H431.391z M427.43,250.467c1.092,0,1.949-0.301,2.572-0.898s0.935-1.438,0.935-2.514   v-1.047l-1.753,0.074c-1.395,0.051-2.399,0.266-3.016,0.65c-0.616,0.383-0.924,0.98-0.924,1.791c0,0.633,0.191,1.115,0.575,1.445   C426.203,250.301,426.74,250.467,427.43,250.467z"
       id="path67" /><path
       fill="#FFFFFF"
       d="M444.182,250.148h-0.095c-0.811,1.176-2.021,1.764-3.634,1.764c-1.514,0-2.691-0.518-3.533-1.553   c-0.841-1.033-1.262-2.506-1.262-4.414s0.422-3.391,1.268-4.447c0.845-1.055,2.021-1.584,3.527-1.584   c1.57,0,2.774,0.57,3.612,1.711h0.137l-0.073-0.834l-0.042-0.812v-4.711h1.753v16.434h-1.426L444.182,250.148z M440.675,250.445   c1.197,0,2.065-0.326,2.604-0.977c0.539-0.652,0.809-1.703,0.809-3.154v-0.369c0-1.641-0.273-2.811-0.819-3.512   s-1.417-1.051-2.614-1.051c-1.027,0-1.814,0.4-2.36,1.199s-0.818,1.928-0.818,3.385c0,1.479,0.271,2.594,0.813,3.348   S439.626,250.445,440.675,250.445z"
       id="path69" /><path
       fill="#FFFFFF"
       d="M457.024,248.543c0,1.078-0.401,1.908-1.204,2.494c-0.803,0.584-1.93,0.875-3.38,0.875   c-1.535,0-2.732-0.242-3.591-0.729v-1.627c0.556,0.283,1.152,0.504,1.79,0.666s1.252,0.244,1.843,0.244   c0.916,0,1.62-0.146,2.113-0.439c0.492-0.291,0.739-0.736,0.739-1.336c0-0.451-0.195-0.836-0.587-1.156   c-0.391-0.32-1.152-0.699-2.286-1.135c-1.077-0.402-1.844-0.752-2.298-1.053c-0.454-0.299-0.792-0.639-1.014-1.018   c-0.222-0.381-0.333-0.836-0.333-1.363c0-0.943,0.384-1.688,1.151-2.234c0.768-0.545,1.82-0.818,3.158-0.818   c1.246,0,2.465,0.254,3.654,0.762l-0.623,1.426c-1.162-0.48-2.215-0.719-3.158-0.719c-0.831,0-1.457,0.131-1.88,0.391   c-0.422,0.26-0.634,0.619-0.634,1.078c0,0.309,0.079,0.572,0.238,0.791c0.158,0.219,0.413,0.426,0.766,0.623   c0.352,0.197,1.027,0.482,2.027,0.855c1.373,0.5,2.301,1.004,2.783,1.512C456.783,247.139,457.024,247.775,457.024,248.543z"
       id="path71" /></g><g
     id="g73"><path
       fill="#FFFFFF"
       d="M20.151,225.744l-0.349-1.648h-0.084c-0.577,0.727-1.153,1.217-1.727,1.475   c-0.574,0.256-1.291,0.385-2.149,0.385c-1.148,0-2.047-0.297-2.699-0.887c-0.651-0.592-0.977-1.434-0.977-2.525   c0-2.338,1.87-3.562,5.608-3.676l1.965-0.062v-0.719c0-0.908-0.195-1.578-0.586-2.012c-0.391-0.434-1.016-0.65-1.875-0.65   c-0.965,0-2.056,0.297-3.274,0.889l-0.539-1.342c0.57-0.311,1.195-0.553,1.875-0.729c0.68-0.176,1.361-0.264,2.044-0.264   c1.38,0,2.403,0.305,3.068,0.918s0.998,1.596,0.998,2.947v7.9H20.151z M16.191,224.508c1.091,0,1.949-0.299,2.572-0.898   c0.623-0.598,0.935-1.436,0.935-2.514v-1.045l-1.753,0.074c-1.394,0.049-2.399,0.266-3.015,0.648   c-0.616,0.385-0.924,0.98-0.924,1.791c0,0.633,0.192,1.115,0.576,1.447C14.964,224.342,15.5,224.508,16.191,224.508z"
       id="path75" /><path
       fill="#FFFFFF"
       d="M29.689,225.955c-1.676,0-2.973-0.516-3.892-1.547c-0.918-1.031-1.378-2.492-1.378-4.379   c0-1.936,0.466-3.432,1.399-4.488c0.933-1.057,2.262-1.584,3.987-1.584c0.556,0,1.113,0.059,1.669,0.18   c0.556,0.119,0.993,0.26,1.31,0.422l-0.539,1.488c-0.387-0.154-0.81-0.283-1.268-0.385c-0.458-0.102-0.862-0.152-1.214-0.152   c-2.352,0-3.528,1.5-3.528,4.498c0,1.424,0.287,2.514,0.861,3.275c0.574,0.76,1.424,1.141,2.551,1.141   c0.964,0,1.954-0.209,2.968-0.623v1.553C31.84,225.754,30.865,225.955,29.689,225.955z"
       id="path77" /><path
       fill="#FFFFFF"
       d="M39.987,225.955c-1.676,0-2.973-0.516-3.892-1.547c-0.918-1.031-1.378-2.492-1.378-4.379   c0-1.936,0.466-3.432,1.399-4.488c0.933-1.057,2.262-1.584,3.987-1.584c0.556,0,1.113,0.059,1.669,0.18   c0.556,0.119,0.993,0.26,1.31,0.422l-0.539,1.488c-0.387-0.154-0.81-0.283-1.268-0.385c-0.458-0.102-0.862-0.152-1.214-0.152   c-2.352,0-3.528,1.5-3.528,4.498c0,1.424,0.287,2.514,0.861,3.275c0.574,0.76,1.424,1.141,2.551,1.141   c0.964,0,1.954-0.209,2.968-0.623v1.553C42.138,225.754,41.163,225.955,39.987,225.955z"
       id="path79" /><path
       fill="#FFFFFF"
       d="M50.549,225.955c-1.711,0-3.061-0.521-4.05-1.562c-0.99-1.043-1.484-2.49-1.484-4.342   c0-1.865,0.459-3.348,1.378-4.447c0.919-1.098,2.153-1.646,3.702-1.646c1.451,0,2.598,0.477,3.443,1.43   c0.845,0.955,1.267,2.213,1.267,3.777v1.109h-7.974c0.035,1.357,0.378,2.391,1.03,3.094c0.651,0.705,1.568,1.057,2.751,1.057   c1.246,0,2.479-0.262,3.697-0.781v1.562c-0.62,0.268-1.206,0.459-1.759,0.576C51.998,225.896,51.331,225.955,50.549,225.955z    M50.074,215.424c-0.93,0-1.671,0.303-2.224,0.908c-0.553,0.607-0.878,1.445-0.977,2.514h6.052c0-1.104-0.247-1.951-0.739-2.539   C51.693,215.719,50.989,215.424,50.074,215.424z"
       id="path81" /><path
       fill="#FFFFFF"
       d="M65.262,222.586c0,1.076-0.401,1.908-1.204,2.492s-1.929,0.877-3.38,0.877   c-1.535,0-2.732-0.242-3.591-0.729V223.6c0.556,0.281,1.153,0.504,1.79,0.666s1.251,0.242,1.843,0.242   c0.915,0,1.619-0.146,2.112-0.438c0.493-0.293,0.739-0.738,0.739-1.336c0-0.451-0.195-0.838-0.586-1.158   c-0.391-0.32-1.153-0.697-2.287-1.135c-1.078-0.4-1.843-0.752-2.297-1.051s-0.792-0.639-1.014-1.02   c-0.222-0.381-0.333-0.834-0.333-1.361c0-0.945,0.384-1.689,1.151-2.234c0.767-0.547,1.82-0.818,3.158-0.818   c1.247,0,2.464,0.254,3.655,0.76l-0.624,1.426c-1.162-0.479-2.214-0.719-3.158-0.719c-0.831,0-1.458,0.131-1.88,0.391   c-0.422,0.262-0.633,0.621-0.633,1.078c0,0.311,0.079,0.574,0.237,0.793c0.159,0.217,0.414,0.426,0.766,0.623   c0.352,0.197,1.028,0.482,2.028,0.855c1.373,0.5,2.3,1.002,2.783,1.51S65.262,221.818,65.262,222.586z"
       id="path83" /><path
       fill="#FFFFFF"
       d="M75.581,222.586c0,1.076-0.401,1.908-1.204,2.492s-1.929,0.877-3.38,0.877   c-1.535,0-2.732-0.242-3.591-0.729V223.6c0.556,0.281,1.153,0.504,1.79,0.666s1.251,0.242,1.843,0.242   c0.915,0,1.619-0.146,2.112-0.438c0.493-0.293,0.739-0.738,0.739-1.336c0-0.451-0.195-0.838-0.586-1.158   c-0.391-0.32-1.153-0.697-2.287-1.135c-1.078-0.4-1.843-0.752-2.297-1.051s-0.792-0.639-1.014-1.02   c-0.222-0.381-0.333-0.834-0.333-1.361c0-0.945,0.384-1.689,1.151-2.234c0.767-0.547,1.82-0.818,3.158-0.818   c1.247,0,2.464,0.254,3.655,0.76l-0.624,1.426c-1.162-0.479-2.214-0.719-3.158-0.719c-0.831,0-1.458,0.131-1.88,0.391   c-0.422,0.262-0.633,0.621-0.633,1.078c0,0.311,0.079,0.574,0.237,0.793c0.159,0.217,0.414,0.426,0.766,0.623   c0.352,0.197,1.028,0.482,2.028,0.855c1.373,0.5,2.3,1.002,2.783,1.51S75.581,221.818,75.581,222.586z"
       id="path85" /><path
       fill="#FFFFFF"
       d="M78.284,211.031c0-0.402,0.099-0.695,0.296-0.883c0.197-0.186,0.443-0.279,0.739-0.279   c0.282,0,0.524,0.096,0.729,0.285c0.204,0.189,0.306,0.482,0.306,0.877s-0.102,0.688-0.306,0.881   c-0.205,0.195-0.447,0.291-0.729,0.291c-0.296,0-0.542-0.096-0.739-0.291C78.383,211.719,78.284,211.426,78.284,211.031z    M80.186,225.744h-1.753v-11.576h1.753V225.744z"
       id="path87" /><path
       fill="#FFFFFF"
       d="M89.29,213.979c1.521,0,2.702,0.518,3.543,1.557s1.262,2.51,1.262,4.41s-0.424,3.379-1.273,4.43   c-0.849,1.053-2.026,1.58-3.533,1.58c-0.753,0-1.442-0.139-2.065-0.418c-0.623-0.277-1.146-0.705-1.568-1.283H85.53l-0.37,1.49   h-1.257v-16.436h1.753v3.992c0,0.895-0.028,1.697-0.084,2.408h0.084C86.473,214.555,87.685,213.979,89.29,213.979z M89.037,215.445   c-1.197,0-2.06,0.344-2.588,1.029c-0.528,0.688-0.792,1.844-0.792,3.471s0.271,2.789,0.813,3.49   c0.542,0.701,1.412,1.051,2.609,1.051c1.078,0,1.88-0.393,2.408-1.178c0.528-0.785,0.792-1.912,0.792-3.385   c0-1.506-0.264-2.629-0.792-3.369C90.959,215.814,90.142,215.445,89.037,215.445z"
       id="path89" /><path
       fill="#FFFFFF"
       d="M98.912,225.744h-1.753v-16.436h1.753V225.744z"
       id="path91" /><path
       fill="#FFFFFF"
       d="M107.52,225.955c-1.711,0-3.061-0.521-4.05-1.562c-0.99-1.043-1.484-2.49-1.484-4.342   c0-1.865,0.459-3.348,1.378-4.447c0.919-1.098,2.153-1.646,3.702-1.646c1.451,0,2.598,0.477,3.443,1.43   c0.845,0.955,1.267,2.213,1.267,3.777v1.109h-7.974c0.035,1.357,0.378,2.391,1.03,3.094c0.651,0.705,1.568,1.057,2.751,1.057   c1.246,0,2.479-0.262,3.697-0.781v1.562c-0.62,0.268-1.206,0.459-1.759,0.576C108.969,225.896,108.302,225.955,107.52,225.955z    M107.045,215.424c-0.93,0-1.671,0.303-2.224,0.908c-0.553,0.607-0.878,1.445-0.977,2.514h6.052c0-1.104-0.247-1.951-0.739-2.539   C108.664,215.719,107.96,215.424,107.045,215.424z"
       id="path93" /><path
       fill="#FFFFFF"
       d="M127.503,225.744l-0.349-1.648h-0.084c-0.577,0.727-1.153,1.217-1.727,1.475   c-0.574,0.256-1.291,0.385-2.149,0.385c-1.148,0-2.047-0.297-2.699-0.887c-0.651-0.592-0.977-1.434-0.977-2.525   c0-2.338,1.87-3.562,5.608-3.676l1.965-0.062v-0.719c0-0.908-0.195-1.578-0.586-2.012c-0.391-0.434-1.016-0.65-1.875-0.65   c-0.965,0-2.056,0.297-3.274,0.889l-0.539-1.342c0.57-0.311,1.195-0.553,1.875-0.729c0.68-0.176,1.361-0.264,2.044-0.264   c1.38,0,2.403,0.305,3.068,0.918s0.998,1.596,0.998,2.947v7.9H127.503z M123.543,224.508c1.091,0,1.949-0.299,2.572-0.898   c0.623-0.598,0.935-1.436,0.935-2.514v-1.045l-1.753,0.074c-1.394,0.049-2.399,0.266-3.015,0.648   c-0.616,0.385-0.924,0.98-0.924,1.791c0,0.633,0.192,1.115,0.576,1.447C122.316,224.342,122.853,224.508,123.543,224.508z"
       id="path95" /><path
       fill="#FFFFFF"
       d="M140.336,225.744v-7.488c0-0.943-0.215-1.648-0.644-2.113c-0.43-0.465-1.102-0.697-2.018-0.697   c-1.211,0-2.098,0.328-2.662,0.982s-0.845,1.736-0.845,3.242v6.074h-1.753v-11.576h1.426l0.285,1.584h0.084   c0.359-0.57,0.863-1.012,1.511-1.326c0.647-0.312,1.369-0.469,2.165-0.469c1.394,0,2.443,0.336,3.147,1.008   s1.056,1.748,1.056,3.227v7.553H140.336z"
       id="path97" /><path
       fill="#FFFFFF"
       d="M153.571,224.191h-0.095c-0.81,1.176-2.021,1.764-3.633,1.764c-1.514,0-2.692-0.518-3.533-1.553   s-1.262-2.506-1.262-4.414s0.422-3.391,1.267-4.447c0.845-1.057,2.021-1.584,3.528-1.584c1.57,0,2.774,0.57,3.612,1.711h0.137   l-0.074-0.834l-0.042-0.814v-4.711h1.753v16.436h-1.426L153.571,224.191z M150.064,224.486c1.197,0,2.065-0.324,2.604-0.977   c0.539-0.65,0.808-1.701,0.808-3.152v-0.369c0-1.641-0.273-2.812-0.818-3.514c-0.546-0.699-1.417-1.051-2.614-1.051   c-1.028,0-1.815,0.4-2.361,1.199c-0.545,0.799-0.818,1.928-0.818,3.385c0,1.479,0.271,2.596,0.813,3.35   C148.219,224.109,149.015,224.486,150.064,224.486z"
       id="path99" /><path
       fill="#FFFFFF"
       d="M7.546,240.125v7.51c0,0.943,0.215,1.646,0.645,2.111c0.429,0.465,1.102,0.697,2.017,0.697   c1.211,0,2.097-0.33,2.657-0.992c0.56-0.662,0.839-1.742,0.839-3.242v-6.084h1.753v11.576H14.01l-0.254-1.553h-0.095   c-0.359,0.57-0.857,1.006-1.495,1.309s-1.364,0.455-2.181,0.455c-1.408,0-2.463-0.334-3.163-1.004   c-0.701-0.668-1.051-1.738-1.051-3.211v-7.572H7.546z"
       id="path101" /><path
       fill="#FFFFFF"
       d="M27.096,251.701v-7.488c0-0.943-0.215-1.648-0.644-2.113c-0.43-0.465-1.102-0.697-2.018-0.697   c-1.211,0-2.098,0.328-2.662,0.982s-0.845,1.736-0.845,3.242v6.074h-1.753v-11.576h1.426l0.285,1.584h0.084   c0.359-0.57,0.863-1.012,1.511-1.326c0.647-0.312,1.369-0.469,2.165-0.469c1.394,0,2.443,0.336,3.147,1.008   s1.056,1.748,1.056,3.227v7.553H27.096z"
       id="path103" /><path
       fill="#FFFFFF"
       d="M40.331,250.148h-0.095c-0.81,1.176-2.021,1.764-3.633,1.764c-1.514,0-2.692-0.518-3.533-1.553   s-1.262-2.506-1.262-4.414s0.422-3.391,1.267-4.447c0.845-1.057,2.021-1.584,3.528-1.584c1.57,0,2.774,0.57,3.612,1.711h0.137   l-0.074-0.834l-0.042-0.814v-4.711h1.753v16.436h-1.426L40.331,250.148z M36.824,250.443c1.197,0,2.065-0.324,2.604-0.977   c0.539-0.65,0.808-1.701,0.808-3.152v-0.369c0-1.641-0.273-2.812-0.818-3.514c-0.546-0.699-1.417-1.051-2.614-1.051   c-1.028,0-1.815,0.4-2.361,1.199c-0.545,0.799-0.818,1.928-0.818,3.385c0,1.479,0.271,2.596,0.813,3.35   C34.979,250.066,35.774,250.443,36.824,250.443z"
       id="path105" /><path
       fill="#FFFFFF"
       d="M50.597,251.912c-1.711,0-3.061-0.521-4.05-1.562c-0.99-1.043-1.484-2.49-1.484-4.342   c0-1.865,0.459-3.348,1.378-4.447c0.919-1.098,2.153-1.646,3.702-1.646c1.451,0,2.598,0.477,3.443,1.43   c0.845,0.955,1.267,2.213,1.267,3.777v1.109h-7.974c0.035,1.357,0.378,2.391,1.03,3.094c0.651,0.705,1.568,1.057,2.751,1.057   c1.246,0,2.479-0.262,3.697-0.781v1.562c-0.62,0.268-1.206,0.459-1.759,0.576C52.045,251.854,51.378,251.912,50.597,251.912z    M50.122,241.381c-0.93,0-1.671,0.303-2.224,0.908c-0.553,0.607-0.878,1.445-0.977,2.514h6.052c0-1.104-0.247-1.951-0.739-2.539   C51.741,241.676,51.037,241.381,50.122,241.381z"
       id="path107" /><path
       fill="#FFFFFF"
       d="M63.124,239.914c0.514,0,0.975,0.041,1.383,0.127l-0.243,1.625c-0.479-0.105-0.901-0.158-1.268-0.158   c-0.937,0-1.737,0.381-2.403,1.141c-0.666,0.762-0.998,1.709-0.998,2.842v6.211h-1.753v-11.576h1.447l0.201,2.145h0.085   c0.429-0.754,0.947-1.336,1.552-1.744S62.398,239.914,63.124,239.914z"
       id="path109" /><path
       fill="#FFFFFF"
       d="M74.139,248.543c0,1.076-0.401,1.908-1.204,2.492s-1.929,0.877-3.38,0.877   c-1.535,0-2.732-0.242-3.591-0.729v-1.627c0.556,0.281,1.153,0.504,1.79,0.666s1.251,0.242,1.843,0.242   c0.915,0,1.619-0.146,2.112-0.438c0.493-0.293,0.739-0.738,0.739-1.336c0-0.451-0.195-0.838-0.586-1.158   c-0.391-0.32-1.153-0.697-2.287-1.135c-1.078-0.4-1.843-0.752-2.297-1.051s-0.792-0.639-1.014-1.02   c-0.222-0.381-0.333-0.834-0.333-1.361c0-0.945,0.384-1.689,1.151-2.234c0.767-0.547,1.82-0.818,3.158-0.818   c1.247,0,2.464,0.254,3.655,0.76l-0.624,1.426c-1.162-0.479-2.214-0.719-3.158-0.719c-0.831,0-1.458,0.131-1.88,0.391   c-0.422,0.262-0.633,0.621-0.633,1.078c0,0.311,0.079,0.574,0.237,0.793c0.159,0.217,0.414,0.426,0.766,0.623   c0.352,0.197,1.028,0.482,2.028,0.855c1.373,0.5,2.3,1.002,2.783,1.51S74.139,247.775,74.139,248.543z"
       id="path111" /><path
       fill="#FFFFFF"
       d="M80.729,250.465c0.31,0,0.609-0.023,0.898-0.068c0.289-0.047,0.518-0.094,0.687-0.143v1.342   c-0.19,0.092-0.47,0.166-0.84,0.227s-0.702,0.09-0.998,0.09c-2.239,0-3.358-1.18-3.358-3.539v-6.887h-1.658v-0.844l1.658-0.729   l0.739-2.473h1.014v2.684h3.359v1.361h-3.359v6.812c0,0.697,0.166,1.232,0.497,1.605C79.698,250.279,80.152,250.465,80.729,250.465   z"
       id="path113" /><path
       fill="#FFFFFF"
       d="M91.746,251.701l-0.349-1.648h-0.084c-0.577,0.727-1.153,1.217-1.727,1.475   c-0.574,0.256-1.291,0.385-2.149,0.385c-1.148,0-2.047-0.297-2.699-0.887c-0.651-0.592-0.977-1.434-0.977-2.525   c0-2.338,1.87-3.562,5.608-3.676l1.965-0.062v-0.719c0-0.908-0.195-1.578-0.586-2.012c-0.391-0.434-1.016-0.65-1.875-0.65   c-0.965,0-2.056,0.297-3.274,0.889l-0.539-1.342c0.57-0.311,1.195-0.553,1.875-0.729c0.68-0.176,1.361-0.264,2.044-0.264   c1.38,0,2.403,0.305,3.068,0.918s0.998,1.596,0.998,2.947v7.9H91.746z M87.785,250.465c1.091,0,1.949-0.299,2.572-0.898   c0.623-0.598,0.935-1.436,0.935-2.514v-1.045l-1.753,0.074c-1.394,0.049-2.399,0.266-3.015,0.648   c-0.616,0.385-0.924,0.98-0.924,1.791c0,0.633,0.192,1.115,0.576,1.447C86.558,250.299,87.095,250.465,87.785,250.465z"
       id="path115" /><path
       fill="#FFFFFF"
       d="M104.579,251.701v-7.488c0-0.943-0.215-1.648-0.644-2.113c-0.43-0.465-1.102-0.697-2.018-0.697   c-1.211,0-2.098,0.328-2.662,0.982s-0.845,1.736-0.845,3.242v6.074h-1.753v-11.576h1.426l0.285,1.584h0.084   c0.359-0.57,0.863-1.012,1.511-1.326c0.647-0.312,1.369-0.469,2.165-0.469c1.394,0,2.443,0.336,3.147,1.008   s1.056,1.748,1.056,3.227v7.553H104.579z"
       id="path117" /><path
       fill="#FFFFFF"
       d="M117.813,250.148h-0.095c-0.81,1.176-2.021,1.764-3.633,1.764c-1.514,0-2.692-0.518-3.533-1.553   s-1.262-2.506-1.262-4.414s0.422-3.391,1.267-4.447c0.845-1.057,2.021-1.584,3.528-1.584c1.57,0,2.774,0.57,3.612,1.711h0.137   l-0.074-0.834l-0.042-0.814v-4.711h1.753v16.436h-1.426L117.813,250.148z M114.306,250.443c1.197,0,2.065-0.324,2.604-0.977   c0.539-0.65,0.808-1.701,0.808-3.152v-0.369c0-1.641-0.273-2.812-0.818-3.514c-0.546-0.699-1.417-1.051-2.614-1.051   c-1.028,0-1.815,0.4-2.361,1.199c-0.545,0.799-0.818,1.928-0.818,3.385c0,1.479,0.271,2.596,0.813,3.35   C112.461,250.066,113.257,250.443,114.306,250.443z"
       id="path119" /><path
       fill="#FFFFFF"
       d="M130.308,251.701l-0.349-1.648h-0.084c-0.577,0.727-1.153,1.217-1.727,1.475   c-0.574,0.256-1.291,0.385-2.149,0.385c-1.148,0-2.047-0.297-2.699-0.887c-0.651-0.592-0.977-1.434-0.977-2.525   c0-2.338,1.87-3.562,5.608-3.676l1.965-0.062v-0.719c0-0.908-0.195-1.578-0.586-2.012c-0.391-0.434-1.016-0.65-1.875-0.65   c-0.965,0-2.056,0.297-3.274,0.889l-0.539-1.342c0.57-0.311,1.195-0.553,1.875-0.729c0.68-0.176,1.361-0.264,2.044-0.264   c1.38,0,2.403,0.305,3.068,0.918s0.998,1.596,0.998,2.947v7.9H130.308z M126.347,250.465c1.091,0,1.949-0.299,2.572-0.898   c0.623-0.598,0.935-1.436,0.935-2.514v-1.045l-1.753,0.074c-1.394,0.049-2.399,0.266-3.015,0.648   c-0.616,0.385-0.924,0.98-0.924,1.791c0,0.633,0.192,1.115,0.576,1.447C125.12,250.299,125.657,250.465,126.347,250.465z"
       id="path121" /><path
       fill="#FFFFFF"
       d="M140.606,239.936c1.521,0,2.702,0.518,3.543,1.557s1.262,2.51,1.262,4.41s-0.424,3.379-1.273,4.43   c-0.849,1.053-2.026,1.58-3.533,1.58c-0.753,0-1.442-0.139-2.065-0.418c-0.623-0.277-1.146-0.705-1.568-1.283h-0.127l-0.37,1.49   h-1.257v-16.436h1.753v3.992c0,0.895-0.028,1.697-0.084,2.408h0.084C137.789,240.512,139,239.936,140.606,239.936z    M140.353,241.402c-1.197,0-2.06,0.344-2.588,1.029c-0.528,0.688-0.792,1.844-0.792,3.471s0.271,2.789,0.813,3.49   c0.542,0.701,1.412,1.051,2.609,1.051c1.078,0,1.88-0.393,2.408-1.178c0.528-0.785,0.792-1.912,0.792-3.385   c0-1.506-0.264-2.629-0.792-3.369C142.275,241.771,141.458,241.402,140.353,241.402z"
       id="path123" /><path
       fill="#FFFFFF"
       d="M150.228,251.701h-1.753v-16.436h1.753V251.701z"
       id="path125" /><path
       fill="#FFFFFF"
       d="M158.836,251.912c-1.711,0-3.061-0.521-4.05-1.562c-0.99-1.043-1.484-2.49-1.484-4.342   c0-1.865,0.459-3.348,1.378-4.447c0.919-1.098,2.153-1.646,3.702-1.646c1.451,0,2.598,0.477,3.443,1.43   c0.845,0.955,1.267,2.213,1.267,3.777v1.109h-7.974c0.035,1.357,0.378,2.391,1.03,3.094c0.651,0.705,1.568,1.057,2.751,1.057   c1.246,0,2.479-0.262,3.697-0.781v1.562c-0.62,0.268-1.206,0.459-1.759,0.576C160.285,251.854,159.618,251.912,158.836,251.912z    M158.361,241.381c-0.93,0-1.671,0.303-2.224,0.908c-0.553,0.607-0.878,1.445-0.977,2.514h6.052c0-1.104-0.247-1.951-0.739-2.539   C159.98,241.676,159.276,241.381,158.361,241.381z"
       id="path127" /></g><path
     fill="#FFFFFF"
     d="M427.624,170.455c-2.988,16.006-18.389,26.559-34.395,23.568c-16.007-2.99-26.559-18.389-23.569-34.393  c0.419-2.239,1.086-4.368,1.958-6.369c-1.65-2.895-3.644-6.374-6.086-10.63c0,0-0.482-0.841-0.271-1.088  c0.104-0.123,6.146,1.135,12.935,2.264c6.631-6.373,16.13-9.565,25.859-7.749C420.062,139.049,430.613,154.448,427.624,170.455z"
     id="path129" /><path
     fill="#007EC1"
     d="M413.019,163.393h-12.12v-5.07c0-0.687-0.081-1.557-0.344-2.529c-0.388-1.451-1.199-3.16-2.801-4.512  c-1.596-1.354-3.926-2.229-6.929-2.218c-1.998-0.002-3.708,0.364-5.124,1.012c-2.137,0.971-3.535,2.583-4.317,4.191  c-0.791,1.613-1.036,3.209-1.039,4.462v5.783h3.832v-5.783c0-0.484,0.071-1.134,0.264-1.787c0.293-0.993,0.829-1.971,1.758-2.71  c0.931-0.736,2.309-1.329,4.627-1.335c1.538,0,2.633,0.281,3.438,0.664c1.196,0.579,1.838,1.401,2.264,2.312  c0.421,0.902,0.544,1.897,0.542,2.449v5.07h-1.413c-2.289,0-2.289,2.287-2.289,2.287v13.049c0,2.291,2.289,2.291,2.289,2.291h17.363  c2.29,0,2.29-2.291,2.29-2.291V165.68C415.309,163.393,413.019,163.393,413.019,163.393z"
     id="path131" /><g
     id="g133"><path
       fill="#FFFFFF"
       d="M181.47,308.186l-0.349-1.646h-0.084c-0.577,0.725-1.153,1.215-1.727,1.473   c-0.574,0.258-1.291,0.385-2.149,0.385c-1.148,0-2.047-0.295-2.699-0.887s-0.977-1.432-0.977-2.523c0-2.338,1.87-3.562,5.608-3.676   l1.965-0.064v-0.717c0-0.908-0.195-1.58-0.586-2.014c-0.391-0.432-1.016-0.648-1.875-0.648c-0.965,0-2.056,0.295-3.274,0.887   l-0.539-1.342c0.57-0.309,1.195-0.553,1.875-0.729c0.68-0.176,1.361-0.264,2.044-0.264c1.38,0,2.403,0.307,3.068,0.92   c0.666,0.611,0.998,1.594,0.998,2.945v7.9H181.47z M177.509,306.951c1.091,0,1.949-0.301,2.572-0.898s0.935-1.438,0.935-2.514   v-1.047l-1.753,0.074c-1.394,0.051-2.399,0.266-3.015,0.65c-0.616,0.383-0.924,0.98-0.924,1.791c0,0.633,0.192,1.115,0.576,1.445   C176.282,306.785,176.819,306.951,177.509,306.951z"
       id="path135" /><path
       fill="#FFFFFF"
       d="M188.029,296.609v7.51c0,0.943,0.215,1.648,0.645,2.113c0.429,0.465,1.102,0.697,2.017,0.697   c1.211,0,2.097-0.332,2.657-0.994c0.56-0.66,0.839-1.742,0.839-3.242v-6.084h1.753v11.576h-1.447l-0.254-1.553h-0.095   c-0.359,0.57-0.857,1.008-1.495,1.311s-1.364,0.453-2.181,0.453c-1.408,0-2.463-0.334-3.163-1.002   c-0.701-0.67-1.051-1.74-1.051-3.211v-7.574H188.029z"
       id="path137" /><path
       fill="#FFFFFF"
       d="M203.396,306.951c0.31,0,0.609-0.023,0.898-0.07c0.289-0.045,0.518-0.092,0.687-0.143v1.342   c-0.19,0.092-0.47,0.168-0.84,0.227c-0.37,0.061-0.702,0.09-0.998,0.09c-2.239,0-3.358-1.178-3.358-3.537v-6.887h-1.658v-0.846   l1.658-0.729l0.739-2.471h1.014v2.682h3.359v1.363h-3.359v6.812c0,0.697,0.166,1.232,0.497,1.605S202.819,306.951,203.396,306.951z   "
       id="path139" /><path
       fill="#FFFFFF"
       d="M217.286,302.387c0,1.889-0.475,3.361-1.426,4.422c-0.951,1.059-2.264,1.588-3.94,1.588   c-1.035,0-1.954-0.242-2.756-0.729c-0.803-0.484-1.422-1.182-1.859-2.09c-0.437-0.91-0.655-1.973-0.655-3.191   c0-1.887,0.472-3.355,1.415-4.408s2.253-1.58,3.929-1.58c1.619,0,2.906,0.539,3.86,1.617   C216.809,299.092,217.286,300.549,217.286,302.387z M208.466,302.387c0,1.479,0.296,2.605,0.887,3.381s1.461,1.162,2.609,1.162   c1.147,0,2.019-0.387,2.614-1.156c0.595-0.771,0.892-1.9,0.892-3.387c0-1.471-0.297-2.588-0.892-3.354   c-0.595-0.764-1.474-1.145-2.635-1.145c-1.148,0-2.014,0.377-2.599,1.129C208.758,299.771,208.466,300.895,208.466,302.387z"
       id="path141" /><path
       fill="#FFFFFF"
       d="M228.28,308.186v-7.488c0-0.943-0.215-1.646-0.644-2.111c-0.43-0.465-1.102-0.697-2.018-0.697   c-1.211,0-2.098,0.326-2.662,0.982c-0.563,0.654-0.845,1.734-0.845,3.242v6.072h-1.753v-11.576h1.426l0.285,1.586h0.084   c0.359-0.57,0.863-1.014,1.511-1.326c0.647-0.314,1.369-0.471,2.165-0.471c1.394,0,2.443,0.336,3.147,1.01   c0.704,0.672,1.056,1.748,1.056,3.227v7.551H228.28z"
       id="path143" /><path
       fill="#FFFFFF"
       d="M243.627,302.387c0,1.889-0.475,3.361-1.426,4.422c-0.951,1.059-2.264,1.588-3.939,1.588   c-1.035,0-1.954-0.242-2.757-0.729c-0.803-0.484-1.422-1.182-1.859-2.09c-0.437-0.91-0.655-1.973-0.655-3.191   c0-1.887,0.472-3.355,1.415-4.408s2.254-1.58,3.93-1.58c1.619,0,2.906,0.539,3.859,1.617   C243.15,299.092,243.627,300.549,243.627,302.387z M234.808,302.387c0,1.479,0.296,2.605,0.887,3.381s1.461,1.162,2.609,1.162   s2.019-0.387,2.614-1.156c0.595-0.771,0.893-1.9,0.893-3.387c0-1.471-0.298-2.588-0.893-3.354   c-0.596-0.764-1.474-1.145-2.635-1.145c-1.148,0-2.015,0.377-2.599,1.129C235.1,299.771,234.808,300.895,234.808,302.387z"
       id="path145" /><path
       fill="#FFFFFF"
       d="M261.455,308.186v-7.529c0-0.924-0.197-1.615-0.592-2.076s-1.006-0.691-1.838-0.691   c-1.091,0-1.896,0.312-2.418,0.939s-0.781,1.592-0.781,2.895v6.463h-1.754v-7.529c0-0.924-0.197-1.615-0.592-2.076   s-1.01-0.691-1.848-0.691c-1.099,0-1.903,0.328-2.414,0.986c-0.51,0.658-0.766,1.738-0.766,3.238v6.072H246.7v-11.576h1.426   l0.285,1.586h0.085c0.33-0.564,0.797-1.004,1.398-1.32c0.603-0.318,1.277-0.477,2.023-0.477c1.81,0,2.992,0.654,3.549,1.965h0.084   c0.346-0.605,0.846-1.084,1.5-1.436c0.654-0.354,1.401-0.529,2.239-0.529c1.31,0,2.29,0.336,2.941,1.01   c0.651,0.672,0.978,1.748,0.978,3.227v7.551H261.455z"
       id="path147" /><path
       fill="#FFFFFF"
       d="M276.812,302.387c0,1.889-0.475,3.361-1.426,4.422c-0.951,1.059-2.264,1.588-3.939,1.588   c-1.035,0-1.954-0.242-2.757-0.729c-0.803-0.484-1.423-1.182-1.858-2.09c-0.438-0.91-0.655-1.973-0.655-3.191   c0-1.887,0.472-3.355,1.415-4.408s2.254-1.58,3.93-1.58c1.619,0,2.906,0.539,3.859,1.617   C276.336,299.092,276.812,300.549,276.812,302.387z M267.993,302.387c0,1.479,0.296,2.605,0.888,3.381   c0.591,0.775,1.461,1.162,2.608,1.162s2.019-0.387,2.614-1.156c0.595-0.771,0.893-1.9,0.893-3.387c0-1.471-0.298-2.588-0.893-3.354   c-0.596-0.764-1.474-1.145-2.635-1.145c-1.148,0-2.015,0.377-2.6,1.129C268.285,299.771,267.993,300.895,267.993,302.387z"
       id="path149" /><path
       fill="#FFFFFF"
       d="M281.533,296.609v7.51c0,0.943,0.215,1.648,0.645,2.113s1.102,0.697,2.018,0.697   c1.211,0,2.096-0.332,2.656-0.994c0.56-0.66,0.84-1.742,0.84-3.242v-6.084h1.753v11.576h-1.446l-0.254-1.553h-0.096   c-0.359,0.57-0.857,1.008-1.494,1.311s-1.364,0.453-2.182,0.453c-1.408,0-2.463-0.334-3.162-1.002   c-0.701-0.67-1.052-1.74-1.052-3.211v-7.574H281.533z"
       id="path151" /><path
       fill="#FFFFFF"
       d="M300.63,305.027c0,1.078-0.402,1.908-1.205,2.494c-0.803,0.584-1.929,0.875-3.38,0.875   c-1.535,0-2.731-0.242-3.59-0.729v-1.627c0.556,0.283,1.152,0.504,1.789,0.666c0.638,0.162,1.252,0.244,1.844,0.244   c0.915,0,1.619-0.146,2.112-0.439c0.492-0.291,0.739-0.736,0.739-1.336c0-0.451-0.195-0.836-0.586-1.156s-1.153-0.699-2.287-1.135   c-1.077-0.402-1.843-0.752-2.297-1.053c-0.454-0.299-0.792-0.639-1.014-1.018c-0.223-0.381-0.333-0.836-0.333-1.363   c0-0.943,0.384-1.688,1.151-2.234c0.768-0.545,1.82-0.818,3.158-0.818c1.246,0,2.464,0.254,3.653,0.762l-0.623,1.426   c-1.161-0.48-2.214-0.719-3.157-0.719c-0.831,0-1.457,0.131-1.881,0.391c-0.422,0.26-0.633,0.619-0.633,1.078   c0,0.309,0.079,0.572,0.237,0.791c0.159,0.219,0.413,0.426,0.767,0.623c0.352,0.197,1.027,0.482,2.027,0.855   c1.373,0.5,2.3,1.004,2.782,1.512C300.388,303.623,300.63,304.26,300.63,305.027z"
       id="path153" /></g><g
     id="g155"><path
       fill="#FFFFFF"
       d="M263.992,257.822c6.622-14.877-0.068-32.303-14.943-38.926c-2.342-1.045-4.749-1.756-7.167-2.156   c-1.392-2.994-3.076-6.652-5.16-11.176c0,0-0.405-0.883-0.73-0.85c-0.161,0.016-2.678,6.004-5.705,12.424   c-8.646,2.047-16.271,7.957-20.163,16.699c-6.623,14.877,0.067,32.305,14.942,38.928   C239.94,279.391,257.369,272.699,263.992,257.822z"
       id="path157" /><g
       id="g159"><path
         fill="#007EC1"
         d="M245.016,263.723v-6.566h-0.727l0.727,0.025v-0.025h-0.727l0.727,0.025    c-0.012-0.045,0.067-0.826,0.374-1.324c0.15-0.254,0.316-0.443,0.564-0.592c0.251-0.146,0.619-0.293,1.331-0.297h3.304    c0.573,0,1.134-0.234,1.539-0.639c0.406-0.406,0.639-0.967,0.639-1.541c0-0.572-0.232-1.135-0.637-1.539    c-0.407-0.406-0.968-0.639-1.541-0.639h-0.188v4.357h0.188c0.573,0,1.134-0.234,1.539-0.639c0.406-0.406,0.639-0.967,0.639-1.541    c0-0.572-0.232-1.135-0.637-1.539c-0.407-0.406-0.968-0.639-1.541-0.639h-3.304c-1.464-0.006-2.767,0.377-3.765,1.037    c-0.75,0.49-1.314,1.109-1.714,1.727c-0.605,0.926-0.87,1.83-1.008,2.516c-0.137,0.686-0.141,1.162-0.141,1.266v6.566H245.016z"
         id="path161" /><path
         fill="#007EC1"
         d="M232.712,263.723v-14.828c-0.012-0.186,0.012-1.547-0.797-3.168c-0.407-0.801-1.068-1.674-2.071-2.326    c-0.998-0.658-2.298-1.041-3.762-1.033h-3.303c-0.572,0-1.135,0.232-1.54,0.637c-0.405,0.406-0.637,0.969-0.637,1.543    c0,0.572,0.231,1.133,0.637,1.539s0.968,0.639,1.54,0.639h0.189v-4.357h-0.189c-0.572,0-1.135,0.232-1.54,0.637    c-0.405,0.406-0.637,0.969-0.637,1.543c0,0.572,0.231,1.133,0.637,1.539s0.968,0.639,1.54,0.639h3.303    c0.764,0.006,1.132,0.166,1.384,0.326c0.188,0.123,0.328,0.271,0.455,0.459c0.188,0.281,0.318,0.668,0.377,0.975    c0.031,0.15,0.045,0.279,0.052,0.359l0.005,0.074v0.002l1.313-0.025h-1.313v0.025l1.313-0.025h-1.313v14.828H232.712z"
         id="path163" /><polyline
         fill="#007EC1"
         points="238.753,263.723 238.753,233.002 234.396,233.002 234.396,263.723   "
         id="polyline165" /><polygon
         fill="#007EC1"
         points="217.686,244.525 225.145,248.98 225.126,240.018   "
         id="polygon167" /><polygon
         fill="#007EC1"
         points="236.659,226.551 232.203,234.008 241.165,233.99   "
         id="polygon169" /><polygon
         fill="#007EC1"
         points="256.429,252.703 248.932,248.312 249.028,257.273   "
         id="polygon171" /></g></g><g
     id="g173"><path
       fill="#FFFFFF"
       d="M55.153,170.455c2.988,16.006,18.39,26.559,34.396,23.568s26.558-18.389,23.568-34.393   c-0.419-2.239-1.086-4.368-1.958-6.369c1.65-2.895,3.644-6.374,6.086-10.63c0,0,0.482-0.841,0.271-1.088   c-0.104-0.123-6.146,1.135-12.935,2.264c-6.631-6.373-16.129-9.565-25.859-7.749C62.716,139.049,52.164,154.448,55.153,170.455z"
       id="path175" /><path
       fill="#007EC1"
       d="M84.58,152.599l0.107-2.997c-8.528-0.306-15.687,6.355-15.996,14.883   c-0.306,8.527,6.354,15.688,14.883,15.996c8.527,0.307,15.687-6.354,15.997-14.883c0.305-8.527-6.356-15.688-14.884-15.996   L84.58,152.599l-0.108,2.997c2.617,0.097,4.922,1.232,6.576,3.008c1.654,1.781,2.621,4.16,2.528,6.777   c-0.096,2.617-1.232,4.924-3.008,6.58c-1.78,1.65-4.16,2.617-6.778,2.525c-2.617-0.098-4.923-1.232-6.58-3.008   c-1.648-1.779-2.614-4.16-2.523-6.779c0.097-2.617,1.232-4.92,3.009-6.576c1.777-1.653,4.159-2.62,6.776-2.527L84.58,152.599z"
       id="path177" /></g></svg>