<?xml version="1.0" encoding="utf-8"?>
<!-- Generator: Adobe Illustrator 16.0.4, SVG Export Plug-In . SVG Version: 6.00 Build 0)  -->
<!DOCTYPE svg PUBLIC "-//W3C//DTD SVG 1.1//EN" "http://www.w3.org/Graphics/SVG/1.1/DTD/svg11.dtd">
<svg version="1.1" id="Layer_1" xmlns="http://www.w3.org/2000/svg" xmlns:xlink="http://www.w3.org/1999/xlink" x="0px" y="0px"
	 width="90px" height="90px" viewBox="0 0 90 90" enable-background="new 0 0 90 90" xml:space="preserve">
<g>
	<path fill="#95BC1A" d="M33.062,64.865c-0.41-0.949,0.946-1.356,0.946-1.356s3.668-0.271,6.245,3.871c0,0,0.096-0.015,0.26-0.019
		l0.062-0.14c-0.039-0.001-0.062-0.005-0.062-0.005c0.022,0,0.04,0.004,0.062,0.004l0.256-0.592c0,0,0.307-1.564,0.307-2.208
		c0-0.643-0.204-1.288-0.204-1.288l-2.204-7.604c0,0-0.441-1.289,0.712-1.732c1.154-0.441,1.63,0.611,1.63,0.611
		s2.478,6.891,2.747,7.741c0.273,0.846,0.885-0.138,0.885-0.138l-0.134-8.826c0,0-0.17-1.458,1.391-1.595
		c1.561-0.138,1.427,2.14,1.427,2.14s0.134,7.602,0.17,8.487c0.032,0.885,0.609,0.102,0.609,0.102s2.002-7.061,2.208-7.808
		c0.201-0.747,0.543-1.562,1.664-1.393c1.118,0.172,0.677,2.58,0.677,2.58s-1.732,7.195-1.832,7.741
		c-0.104,0.543,0.27,0.441,0.27,0.441s3.396-5.296,3.666-5.67c0.274-0.375,0.817-1.188,1.868-0.609
		c1.051,0.575-0.339,2.885-0.339,2.885s-2.58,4.516-2.819,4.955c-0.235,0.439-0.202,0.715-0.202,0.715l-0.17,3.463
		c-0.677,4.683-2.919,5.974-2.919,5.974l0.499,13.982c-0.915,0.057-1.834,0.087-2.76,0.087c-1.95,0-3.867-0.13-5.752-0.373
		l0.411-14.106c0,0-0.611-0.407-1.834-1.155c-1.221-0.747-2.375-2.578-2.646-3.19c-0.272-0.61-0.884-2.31-2.649-4.005
		C33.74,65.141,33.467,65.816,33.062,64.865z M69.233,25.895l11.692-11.032c-1.811-1.979-3.794-3.792-5.931-5.419L64.542,20.669
		c0,0-2.305-0.621-5.802,1.994l-2.37,2.147c0,0-0.155,0.199-0.599,0.334c-0.442,0.132-5.069,1.394-5.069,1.394
		s-2.41,0.599-2.102,1.662c0.312,1.06,1.195,0.884,1.617,0.818c0.42-0.066,6.09-1.308,6.09-1.308s0.311,0.179-0.11,0.466
		c-0.424,0.29-6.243,3.855-6.243,3.855s-1.859,1.282-1.241,2.123c0.619,0.841,1.373,0.533,1.991,0.177
		c0.62-0.354,6.531-3.653,6.531-3.653s0.886-0.133,0.333,0.465c-0.554,0.598-5.426,5.646-5.426,5.646s-1.57,1.395-0.464,2.325
		c1.107,0.929,1.946-0.135,1.946-0.135l5.67-5.843c0,0,1.04-0.242,0.664,0.486c-0.376,0.731-3.254,6.84-3.254,6.84
		s-0.376,0.997,0.664,1.461c1.042,0.464,1.592-0.664,1.592-0.664l3.521-6.399c0,0,0.288-0.554,0.709-0.972
		c0.422-0.421,1.637-1.241,1.637-1.241l0.554-0.218c0.011,0.014,0.025,0.027,0.038,0.04c0,0-0.013-0.014-0.038-0.042l0.13-0.051
		c0.112,0.104,0.182,0.157,0.182,0.157c-1.021,4.383,1.548,6.598,1.548,6.598s1.154,0.619,1.505-0.268
		c0.354-0.885-0.265-0.62-0.312-2.876c-0.043-2.258,0.664-3.765,0.887-4.34c0.224-0.576,0.663-2.524,0.354-3.806
		C69.365,26.561,69.233,25.895,69.233,25.895z M59.67,20.816c-1.918-1.846-2.583-3.69-2.88-4.354
		c-0.297-0.666-1.552-2.658-2.879-3.467c-1.326-0.814-1.989-1.257-1.989-1.257l0.323-11.197c-1.405-0.134-2.832-0.205-4.273-0.205
		c-1.586,0-3.154,0.085-4.697,0.246l0.382,10.711c0,0-2.436,1.402-3.172,6.495L40.3,21.553c0,0,0.036,0.296-0.219,0.776
		c-0.261,0.479-3.063,5.386-3.063,5.386s-1.513,2.509-0.369,3.136c1.143,0.626,1.732-0.258,2.029-0.664
		c0.295-0.406,3.985-6.163,3.985-6.163s0.407-0.111,0.295,0.48c-0.111,0.592-1.991,8.414-1.991,8.414s-0.48,2.619,0.736,2.804
		c1.217,0.186,1.586-0.701,1.809-1.513c0.221-0.812,2.396-8.488,2.396-8.488s0.629-0.849,0.665,0.111
		c0.034,0.959,0.183,9.226,0.183,9.226s-0.148,2.473,1.55,2.325c1.698-0.148,1.515-1.735,1.515-1.735l-0.148-9.594
		c0,0,0.663-1.068,0.96-0.148c0.295,0.924,2.989,8.414,2.989,8.414s0.518,1.145,1.771,0.665c1.253-0.48,0.775-1.883,0.775-1.883
		l-2.4-8.263c0,0-0.222-0.703-0.222-1.401c0-0.703,0.334-2.4,0.334-2.4l0.277-0.64c0.021,0,0.043,0,0.064,0c0,0-0.021,0-0.063-0.003
		l0.063-0.151c0.182-0.005,0.284-0.018,0.284-0.018c2.802,4.504,6.788,4.207,6.788,4.207s1.476-0.443,1.03-1.475
		C61.883,21.923,61.588,22.66,59.67,20.816z M40.533,35.638l-5.768-3.171c0,0-0.499-0.259-0.877-0.638
		c-0.382-0.38-1.118-1.478-1.118-1.478l-0.197-0.497c0.013-0.013,0.023-0.023,0.036-0.035c0,0-0.015,0.012-0.038,0.032l-0.045-0.117
		c0.094-0.1,0.143-0.164,0.143-0.164c3.952,0.92,5.945-1.394,5.945-1.394s0.559-1.039-0.24-1.356c-0.8-0.32-0.56,0.239-2.594,0.28
		c-2.035,0.039-3.394-0.6-3.912-0.799c-0.52-0.2-2.275-0.6-3.431-0.317c-1.158,0.277-1.758,0.397-1.758,0.397L15.412,14.438
		c-1.686,1.795-3.225,3.729-4.6,5.782l11.159,10.391c0,0-0.559,2.077,1.798,5.229l1.935,2.136c0,0,0.18,0.14,0.301,0.538
		c0.117,0.398,1.257,4.569,1.257,4.569s0.539,2.174,1.495,1.896c0.957-0.28,0.798-1.076,0.74-1.457
		c-0.06-0.38-1.178-5.487-1.178-5.487s0.161-0.279,0.422,0.099c0.259,0.379,3.471,5.627,3.471,5.627s1.157,1.677,1.915,1.119
		c0.76-0.56,0.479-1.238,0.159-1.796c-0.318-0.56-3.292-5.887-3.292-5.887s-0.119-0.799,0.418-0.298
		c0.539,0.499,5.09,4.889,5.09,4.889s1.257,1.417,2.094,0.418c0.838-0.999-0.121-1.756-0.121-1.756l-5.267-5.11
		c0,0-0.219-0.937,0.439-0.598c0.658,0.34,6.166,2.933,6.166,2.933s0.896,0.34,1.316-0.6C41.55,36.136,40.533,35.638,40.533,35.638z
		 M86.689,67.278l-7.205-6.708c0,0,0.732-2.715-2.348-6.837l-2.532-2.794c0,0-0.234-0.181-0.394-0.702
		c-0.154-0.521-1.643-5.975-1.643-5.975s-0.703-2.842-1.957-2.477c-1.251,0.365-1.042,1.407-0.966,1.905
		c0.08,0.496,1.541,7.175,1.541,7.175s-0.21,0.367-0.55-0.13c-0.338-0.496-4.539-7.359-4.539-7.359s-1.513-2.192-2.504-1.46
		c-0.992,0.73-0.625,1.617-0.206,2.348c0.416,0.732,4.303,7.695,4.303,7.695s0.157,1.048-0.546,0.391
		c-0.707-0.654-6.654-6.391-6.654-6.391s-1.644-1.852-2.739-0.548c-1.099,1.305,0.155,2.296,0.155,2.296l6.889,6.68
		c0,0,0.286,1.227-0.575,0.783c-0.86-0.443-8.062-3.836-8.062-3.836s-1.174-0.445-1.722,0.783c-0.546,1.226,0.781,1.877,0.781,1.877
		l7.542,4.147c0,0,0.65,0.34,1.143,0.832c0.499,0.497,1.462,1.935,1.462,1.935l0.258,0.647c-0.014,0.017-0.028,0.032-0.045,0.047
		c0,0,0.017-0.015,0.047-0.043l0.062,0.151c-0.123,0.134-0.188,0.214-0.188,0.214c-5.166-1.203-7.773,1.825-7.773,1.825
		s-0.73,1.356,0.314,1.771c1.042,0.419,0.73-0.312,3.392-0.365c2.658-0.051,4.433,0.783,5.112,1.045
		c0.68,0.261,2.977,0.781,4.487,0.416c1.514-0.361,2.299-0.519,2.299-0.519l8.056,8.536C83.391,72.378,85.171,69.913,86.689,67.278z
		 M27.22,50.201c0.87-0.03,8.354-0.164,8.354-0.164s2.238,0.132,2.104-1.403c-0.132-1.536-1.571-1.371-1.571-1.371l-8.687,0.136
		c0,0-0.97-0.603-0.134-0.871c0.835-0.268,7.617-2.707,7.617-2.707s1.037-0.467,0.603-1.604c-0.436-1.137-1.703-0.703-1.703-0.703
		l-7.486,2.173c0,0-0.635,0.2-1.27,0.2s-2.17-0.301-2.17-0.301l-0.583-0.251c0-0.021,0-0.039,0-0.061c0,0,0,0.021-0.002,0.061
		l-0.137-0.061c-0.006-0.162-0.017-0.255-0.017-0.255c4.076-2.538,3.809-6.146,3.809-6.146s-0.401-1.336-1.336-0.933
		c-0.936,0.4-0.268,0.668-1.938,2.405c-1.671,1.736-3.342,2.338-3.942,2.604c-0.603,0.268-2.403,1.403-3.14,2.607
		c-0.738,1.2-1.138,1.804-1.138,1.804L3.311,45.036c0.002,2.789,0.262,5.517,0.752,8.162l9.993-0.353c0,0,1.271,2.203,5.881,2.872
		l3.409,0.166c0,0,0.268-0.032,0.702,0.199c0.434,0.235,4.878,2.774,4.878,2.774s2.271,1.367,2.839,0.333
		c0.568-1.035-0.234-1.57-0.601-1.84c-0.366-0.266-5.581-3.607-5.581-3.607s-0.098-0.369,0.437-0.269
		c0.533,0.102,7.617,1.806,7.617,1.806s2.371,0.434,2.539-0.668c0.167-1.102-0.635-1.438-1.37-1.635
		c-0.736-0.202-7.684-2.172-7.684-2.172S26.35,50.234,27.22,50.201z"/>
</g>
</svg>
