<?xml version="1.0" encoding="utf-8"?>
<!-- Generator: Adobe Illustrator 16.0.4, SVG Export Plug-In . SVG Version: 6.00 Build 0)  -->
<!DOCTYPE svg PUBLIC "-//W3C//DTD SVG 1.1//EN" "http://www.w3.org/Graphics/SVG/1.1/DTD/svg11.dtd">
<svg version="1.1" id="Layer_1" xmlns="http://www.w3.org/2000/svg" xmlns:xlink="http://www.w3.org/1999/xlink" x="0px" y="0px"
	 width="90px" height="90px" viewBox="0 0 90 90" enable-background="new 0 0 90 90" xml:space="preserve">
<g>
	<path fill="#95BC1A" d="M66.436,39.55c0-6.061-4.913-10.977-10.977-10.977c-5.309,0-9.736,3.771-10.755,8.781
		c-1.017-5.01-5.446-8.781-10.759-8.781c-6.059,0-10.974,4.916-10.974,10.977c0,0.38,0.019,0.756,0.057,1.125
		c1.172,12.576,21.454,24.185,21.454,24.185S65.17,53.259,66.377,40.686C66.416,40.314,66.436,39.934,66.436,39.55z"/>
	<rect x="44.25" y="0.5" fill="#95BC1A" width="1.501" height="14.544"/>
	<rect x="44.25" y="74.953" fill="#95BC1A" width="1.501" height="14.547"/>
	<rect x="74.955" y="44.25" fill="#95BC1A" width="14.545" height="1.499"/>
	<rect x="0.5" y="44.25" fill="#95BC1A" width="14.544" height="1.499"/>
	
		<rect x="70.575" y="11.402" transform="matrix(-0.7068 -0.7074 0.7074 -0.7068 108.525 82.33)" fill="#95BC1A" width="1.499" height="14.544"/>
	
		<rect x="17.926" y="64.049" transform="matrix(0.7074 0.7068 -0.7068 0.7074 55.8738 7.6674)" fill="#95BC1A" width="1.499" height="14.548"/>
	
		<rect x="11.405" y="17.925" transform="matrix(-0.7071 -0.7071 0.7071 -0.7071 18.6812 45.0856)" fill="#95BC1A" width="14.544" height="1.498"/>
	
		<rect x="64.047" y="70.572" transform="matrix(0.7072 0.707 -0.707 0.7072 71.3022 -29.5406)" fill="#95BC1A" width="14.545" height="1.501"/>
</g>
</svg>
