<?xml version="1.0" encoding="utf-8"?>
<!-- Generator: Adobe Illustrator 16.0.4, SVG Export Plug-In . SVG Version: 6.00 Build 0)  -->
<!DOCTYPE svg PUBLIC "-//W3C//DTD SVG 1.1//EN" "http://www.w3.org/Graphics/SVG/1.1/DTD/svg11.dtd">
<svg version="1.1" id="Layer_1" xmlns="http://www.w3.org/2000/svg" xmlns:xlink="http://www.w3.org/1999/xlink" x="0px" y="0px"
	 width="65px" height="20px" viewBox="0 0 65 20" enable-background="new 0 0 65 20" xml:space="preserve">
<g>
	<defs>
		<rect id="SVGID_1_" x="0.057" width="64.887" height="20"/>
	</defs>
	<clipPath id="SVGID_2_">
		<use xlink:href="#SVGID_1_"  overflow="visible"/>
	</clipPath>
	<path clip-path="url(#SVGID_2_)" fill="#FFFFFF" d="M32.608,0c4.88,0,8.836,3.956,8.836,8.836c0,4.879-3.956,8.835-8.836,8.835
		s-8.837-3.956-8.837-8.835C23.771,3.956,27.729,0,32.608,0"/>
	<path clip-path="url(#SVGID_2_)" fill="#222222" d="M31.114,4.947c0-0.94,0.464-1.411,1.394-1.411s1.392,0.471,1.392,1.411
		c0,0.928-0.464,1.393-1.392,1.393S31.114,5.875,31.114,4.947 M35.204,7.518v4.088h-1.142v4.857h-3.108v-4.857h-1.143V7.518
		c0-0.179,0.062-0.331,0.188-0.456c0.125-0.124,0.277-0.188,0.454-0.188h4.108c0.167,0,0.316,0.062,0.446,0.188
		C35.139,7.188,35.204,7.34,35.204,7.518 M32.525,1.803c-2.272,0-4.196,0.799-5.768,2.394C25.127,5.863,24.312,7.798,24.312,10
		c0,2.215,0.81,4.132,2.428,5.75c1.619,1.619,3.547,2.428,5.786,2.428c2.227,0,4.167-0.814,5.82-2.446
		c1.573-1.512,2.358-3.422,2.358-5.732c0-2.273-0.799-4.207-2.393-5.802C36.716,2.602,34.788,1.803,32.525,1.803 M32.49,0
		c2.81,0,5.18,0.964,7.106,2.893c1.94,1.94,2.91,4.31,2.91,7.107c0,2.81-0.951,5.149-2.857,7.017C37.627,19.006,35.239,20,32.49,20
		c-2.703,0-5.048-0.982-7.036-2.947c-1.963-1.964-2.946-4.314-2.946-7.053c0-2.738,0.983-5.107,2.946-7.107
		C27.383,0.964,29.729,0,32.49,0"/>
	<path clip-path="url(#SVGID_2_)" fill="#FFFFFF" d="M9.529,0c4.977,0,9.011,4.035,9.011,9.012c0,4.976-4.034,9.01-9.011,9.01
		s-9.012-4.034-9.012-9.01C0.518,4.035,4.553,0,9.529,0"/>
	<path clip-path="url(#SVGID_2_)" fill="#222222" d="M15.717,8.339l-1.322,0.696c-0.142-0.297-0.318-0.505-0.526-0.625
		c-0.209-0.118-0.408-0.178-0.599-0.178c-0.893,0-1.339,0.589-1.339,1.768c0,0.535,0.113,0.964,0.34,1.284
		c0.225,0.322,0.558,0.483,0.999,0.483c0.583,0,0.995-0.287,1.231-0.857l1.25,0.624c-0.273,0.489-0.643,0.873-1.106,1.152
		c-0.464,0.281-0.969,0.42-1.518,0.42c-0.903,0-1.628-0.272-2.169-0.821c-0.542-0.547-0.813-1.31-0.813-2.285
		c0-0.953,0.276-1.708,0.83-2.268c0.554-0.56,1.253-0.839,2.099-0.839C14.312,6.893,15.192,7.375,15.717,8.339 M9.948,8.339
		L8.609,9.036C8.466,8.739,8.291,8.53,8.083,8.411C7.874,8.293,7.68,8.233,7.503,8.233c-0.894,0-1.34,0.589-1.34,1.768
		c0,0.535,0.111,0.964,0.338,1.284c0.228,0.322,0.56,0.483,1.002,0.483c0.583,0,0.993-0.287,1.231-0.857l1.232,0.624
		c-0.263,0.489-0.626,0.873-1.09,1.152c-0.464,0.281-0.977,0.42-1.536,0.42c-0.893,0-1.613-0.272-2.161-0.821
		c-0.547-0.547-0.821-1.31-0.821-2.285c0-0.953,0.277-1.708,0.831-2.268c0.554-0.56,1.253-0.839,2.099-0.839
		C8.525,6.893,9.413,7.375,9.948,8.339 M10.073,1.803c-2.284,0-4.208,0.799-5.768,2.394C3.521,4.994,2.915,5.89,2.493,6.884
		C2.07,7.878,1.859,8.917,1.859,10c0,1.071,0.211,2.104,0.634,3.098c0.423,0.996,1.027,1.882,1.812,2.662
		c0.786,0.779,1.673,1.374,2.661,1.785s2.024,0.616,3.106,0.616c1.072,0,2.11-0.208,3.117-0.625
		c1.006-0.417,1.914-1.018,2.724-1.803c1.559-1.524,2.338-3.435,2.338-5.732c0-1.107-0.202-2.156-0.606-3.143
		c-0.405-0.988-0.994-1.869-1.768-2.644C14.271,2.607,12.337,1.803,10.073,1.803 M10.038,0c2.798,0,5.179,0.976,7.142,2.928
		c0.941,0.94,1.655,2.016,2.144,3.224C19.812,7.36,20.057,8.644,20.057,10c0,1.369-0.242,2.651-0.725,3.848
		c-0.481,1.196-1.193,2.253-2.133,3.169c-0.976,0.966-2.083,1.703-3.322,2.215c-1.237,0.512-2.518,0.768-3.839,0.768
		s-2.586-0.253-3.794-0.759s-2.292-1.237-3.251-2.196c-0.958-0.958-1.687-2.038-2.187-3.24c-0.5-1.203-0.75-2.47-0.75-3.804
		c0-1.321,0.253-2.592,0.759-3.813c0.506-1.22,1.241-2.312,2.204-3.276C4.926,0.971,7.264,0,10.038,0"/>
	<path clip-path="url(#SVGID_2_)" fill="#FFFFFF" d="M55.388,0c5.022,0,9.096,4.072,9.096,9.095c0,5.024-4.073,9.096-9.096,9.096
		c-5.023,0-9.096-4.071-9.096-9.096C46.292,4.072,50.364,0,55.388,0"/>
	<path clip-path="url(#SVGID_2_)" fill="#222222" d="M50.497,8.589c0.189-1.226,0.683-2.175,1.482-2.848
		c0.798-0.672,1.767-1.009,2.91-1.009c1.571,0,2.822,0.506,3.75,1.517c0.928,1.012,1.393,2.31,1.393,3.893
		c0,1.537-0.482,2.812-1.447,3.831c-0.964,1.017-2.214,1.526-3.75,1.526c-1.13,0-2.106-0.338-2.928-1.018
		c-0.821-0.679-1.315-1.643-1.482-2.893h2.518c0.061,1.215,0.793,1.821,2.196,1.821c0.704,0,1.27-0.305,1.697-0.91
		c0.429-0.607,0.644-1.417,0.644-2.429c0-1.059-0.197-1.867-0.59-2.42c-0.393-0.553-0.957-0.83-1.696-0.83
		c-1.333,0-2.083,0.588-2.25,1.767h0.732l-1.983,1.981l-1.98-1.981H50.497z M54.962,1.803c-2.274,0-4.197,0.804-5.768,2.411
		C47.562,5.87,46.747,7.798,46.747,10c0,2.227,0.809,4.143,2.428,5.75c1.619,1.619,3.548,2.428,5.785,2.428
		c2.227,0,4.167-0.814,5.821-2.445c1.573-1.524,2.357-3.435,2.357-5.732c0-2.286-0.798-4.214-2.393-5.786
		C59.164,2.607,57.234,1.803,54.962,1.803 M54.927,0c2.797,0,5.165,0.971,7.104,2.911c1.94,1.929,2.912,4.292,2.912,7.089
		c0,2.798-0.954,5.143-2.857,7.035C60.073,19.012,57.687,20,54.927,20c-2.704,0-5.05-0.982-7.037-2.947
		c-1.964-1.963-2.946-4.313-2.946-7.053c0-2.726,0.982-5.088,2.946-7.089C49.83,0.971,52.177,0,54.927,0"/>
</g>
<g>
</g>
<g>
</g>
<g>
</g>
<g>
</g>
<g>
</g>
<g>
</g>
<g>
</g>
<g>
</g>
<g>
</g>
<g>
</g>
<g>
</g>
<g>
</g>
<g>
</g>
<g>
</g>
<g>
</g>
</svg>
