<?xml version="1.0" encoding="utf-8"?>
<!-- Generator: Adobe Illustrator 16.0.4, SVG Export Plug-In . SVG Version: 6.00 Build 0)  -->
<!DOCTYPE svg PUBLIC "-//W3C//DTD SVG 1.1//EN" "http://www.w3.org/Graphics/SVG/1.1/DTD/svg11.dtd">
<svg version="1.1" xmlns="http://www.w3.org/2000/svg" xmlns:xlink="http://www.w3.org/1999/xlink" x="0px" y="0px" width="350px"
	 height="400px" viewBox="0 0 350 400" enable-background="new 0 0 350 400" xml:space="preserve">
<g id="bg" display="none">
	<rect x="1" display="inline" fill="#EFEFEF" width="350" height="400"/>
</g>
<g id="cubes">
	<path opacity="0.7" fill="#FFFFFF" d="M254.084,204.699l38.564-21.354l41.227,9.297l7.634,49.075l-36.303,22.388l-43.438-9.989
		L254.084,204.699L254.084,204.699z"/>
	<path opacity="0.7" fill="#FFFFFF" d="M184.384,171.129l36.589-13.417l34.748,13.723v43.9l-34.748,14.631l-36.589-14.631V171.129
		L184.384,171.129z"/>
	<path opacity="0.7" fill="#FFFFFF" d="M112.667,222.846l34.601-7.7l29.674,16.548l-5.271,39.576l-33.083,9.01l-31.23-17.579
		L112.667,222.846L112.667,222.846z"/>
	<path opacity="0.7" fill="#FFFFFF" d="M112.091,125.988l43.382-15.905l41.196,16.269v52.052l-41.196,17.344l-43.382-17.344V125.988
		L112.091,125.988z"/>
	<path opacity="0.7" fill="#FFFFFF" d="M45.625,140.27l22.566-6.034l20.008,10.071l-2.371,26.207l-21.537,6.855l-21.056-10.708
		L45.625,140.27L45.625,140.27z"/>
	<path opacity="0.7" fill="#FFFFFF" d="M75.773,163.449l23.903-8.764l22.706,8.962v28.688l-22.706,9.553l-23.903-9.553V163.449
		L75.773,163.449z"/>
	<path opacity="0.7" fill="#FFFFFF" d="M76.592,280.454l18.214-6.681l17.302,6.832v21.857l-17.302,7.28l-18.214-7.28V280.454
		L76.592,280.454z"/>
	<path opacity="0.7" fill="#FFFFFF" d="M169.705,99.119l18.214-6.681l17.3,6.831v21.858l-17.3,7.28l-18.214-7.28V99.119
		L169.705,99.119z"/>
	<path opacity="0.7" fill="#FFFFFF" d="M95.022,89.657l26.198-3.068l20.716,14.506l-6.912,28.896l-25.179,4.16L88.06,118.757
		L95.022,89.657L95.022,89.657z"/>
	<path opacity="0.7" fill="#FFFFFF" d="M147.006,73.104l25.887-25.351l34.702-1.649l16.777,37.211l-23.871,25.678l-36.604,1.584
		L147.006,73.104L147.006,73.104z"/>
	<path opacity="0.7" fill="#FFFFFF" d="M258.262,146.338l11.967-7.898l13.599,1.97l3.719,15.711l-11.2,8.181l-14.338-2.141
		L258.262,146.338L258.262,146.338z"/>
	<path opacity="0.7" fill="#FFFFFF" d="M268.522,7.592l17.024,2.141l10.818,12.386l-8.864,17.174L270.951,38l-11.357-13.112
		L268.522,7.592L268.522,7.592z"/>
	<path opacity="0.7" fill="#FFFFFF" d="M212.416,35.771l8.593-5.176l9.457,1.776l2.141,11.098l-8.076,5.392l-9.965-1.916
		L212.416,35.771L212.416,35.771z"/>
	<path opacity="0.7" fill="#FFFFFF" d="M93.518,137.771l9.42-3.458l8.948,3.535v11.301l-8.948,3.765l-9.42-3.765V137.771
		L93.518,137.771z"/>
	<path opacity="0.7" fill="#FFFFFF" d="M22.166,135.825l9.419-3.458l8.946,3.534v11.302l-8.946,3.768l-9.419-3.768V135.825
		L22.166,135.825z"/>
	<path opacity="0.7" fill="#FFFFFF" d="M219.978,228.324l15.947-2.734l13.144,8.22l-3.294,17.92l-15.281,3.365l-13.84-8.725
		L219.978,228.324L219.978,228.324z"/>
	<path opacity="0.7" fill="#FFFFFF" d="M241.652,192.334l19.92-7.309l18.904,7.474v23.889l-18.904,7.974l-19.92-7.974V192.334
		L241.652,192.334z"/>
	<path opacity="0.7" fill="#FFFFFF" d="M248.22,257.642l27.51-11.511l27.04,9.293l1.503,33.566l-26.062,12.373l-28.474-9.928
		L248.22,257.642L248.22,257.642z"/>
</g>
<g id="icos">
	<polygon fill="#95BC1A" points="164.236,182.87 160.805,249.97 215.464,230.867 236.765,208.062 	"/>
	<polygon fill="#007EC1" points="133.299,110.506 97.719,188.156 163.462,182.711 	"/>
	<line fill="#007EC1" x1="163.462" y1="182.711" x2="218.326" y2="122.507"/>
	<polygon opacity="0.6" fill="#00B4D5" points="133.299,110.506 163.462,182.711 219.353,123 	"/>
	<polygon fill="#00B4D5" points="111.1,132.695 96.876,188.338 133.885,109.669 	"/>
	<polygon opacity="0.5" fill="#404040" points="126.513,215.907 214.889,230.432 160.805,249.616 	"/>
	<polygon opacity="0.2" fill="#404040" points="126.513,215.907 214.889,230.432 185.501,157.396 111.416,131.757 	"/>
	<polygon fill="#404040" points="160.052,247.79 235.514,207.095 236.765,208.343 215.464,230.867 160.805,249.616 	"/>
	<path fill="none" stroke="#000000" stroke-width="1.2383" d="M111.416,131.757l21.883-21.883l54.7-19.067l32.2,30.946
		l31.266,30.322l-14.7,56.268l-21.25,22.514l-54.399,19.061L97.35,188.963L111.416,131.757z"/>
	<path fill="none" stroke="#000000" stroke-width="1.2383" d="M133.608,111.751L97.35,188.338l65.64-5.315L133.608,111.751z"/>
	<path fill="none" stroke="#000000" stroke-width="1.2383" d="M219.569,122.692l15.944,84.403l-71.269-24.383L219.569,122.692
		l-86.271-12.818"/>
	<path fill="none" stroke="#000000" stroke-width="1.2383" d="M160.805,248.668l3.44-65.957"/>
	<path fill="none" stroke="#000000" stroke-width="1.2383" d="M160.805,247.731l74.714-40.641"/>
	<path fill="none" stroke="#000000" stroke-width="1.2383" d="M187.999,90.807l-2.814,67.523l66.28-6.255"/>
	<path fill="none" stroke="#000000" stroke-width="1.2383" d="M111.1,132.695l15.63,84.401L111.1,132.695z"/>
	<path fill="none" stroke="#000000" stroke-width="1.2383" stroke-linejoin="bevel" d="M236.765,208.343l-21.301,22.524
		l-54.348,19.05l2.815-66.269l-36.264,33.449"/>
	<path fill="none" stroke="#000000" stroke-width="1.2383" d="M126.513,215.907l88.375,14.322l-29.704-71.899l29.071,71.271"/>
	<path fill="none" stroke="#000000" stroke-width="1.2383" d="M187.381,91.431l-74.405,40.953l72.525,25.011"/>
	<g>
	</g>
	<g>
	</g>
	<g>
	</g>
	<g>
	</g>
	<g>
	</g>
	<g>
	</g>
	<g>
	</g>
	<g>
	</g>
	<g>
	</g>
	<g>
	</g>
	<g>
	</g>
	<g>
	</g>
	<g>
	</g>
	<g>
	</g>
	<g>
	</g>
</g>
</svg>
