<?xml version="1.0" encoding="utf-8"?>
<!-- Generator: Adobe Illustrator 19.0.0, SVG Export Plug-In . SVG Version: 6.00 Build 0)  -->
<svg version="1.1"
	 id="svg15656" xmlns:dc="http://purl.org/dc/elements/1.1/" xmlns:rdf="http://www.w3.org/1999/02/22-rdf-syntax-ns#" xmlns:svg="http://www.w3.org/2000/svg" xmlns:cc="http://creativecommons.org/ns#"
	 xmlns="http://www.w3.org/2000/svg" xmlns:xlink="http://www.w3.org/1999/xlink" x="0px" y="0px" viewBox="100 -53.7 300 207.7"
	 style="enable-background:new 100 -53.7 300 207.7;" xml:space="preserve">
<style type="text/css">
	.st0{fill:#FFFFFF;}
	.st1{opacity:0.7;fill:#FFFFFF;}
	.st2{opacity:0.7;}
</style>
<path id="path5657" class="st0" d="M161.3,154h129.2v-7.4H161.3V154z"/>
<path id="path5661" class="st1" d="M308.9-53.7c0,0,26.9,42,31.9,49.7c4.9,7.7,10.6,13.8,30.5,18c19.9,4.1,28.6,6.1,28.6,6.1v1.5
	c0,0-12.7-2.6-29-6.2c-16.3-3.6-23-4.8-30.4-14.9c-6.2-8.4-31.6-44.3-31.6-44.3L308.9-53.7L308.9-53.7z"/>
<path id="path5665" class="st1" d="M308.9-41.8c0,0,27.8,39.9,31.5,44.8c3.7,4.9,8.7,12.8,30.7,17.4c5.7,1.2,28.8,5.8,28.8,5.8v1.3
	c0,0-17.6-3.4-28.8-5.8c-11.2-2.4-23.1-4.5-30.6-14c-6.8-8.6-31.7-40.5-31.7-40.5L308.9-41.8L308.9-41.8z"/>
<path id="path5669" class="st1" d="M308.9-29.8c0,0,26.2,33.9,31.5,40.7c5.3,6.8,12.6,12.4,30.7,15.8c10.4,2,28.8,5.4,28.8,5.4v1.3
	c0,0-16.1-3-28.8-5.3c-12.7-2.3-23.2-4.5-30.7-12.9c-6.6-7.4-31.6-36.5-31.6-36.5L308.9-29.8L308.9-29.8z"/>
<path id="path5673" class="st1" d="M308.9-18c0,0,26.6,30.8,31.7,36.2c8,8.5,11.8,11.5,30.6,15.1c7.5,1.4,28.8,5.1,28.8,5.1v1.3
	c0,0-17.6-3.2-28.8-5.1c-11.2-2-20.6-2.7-30.7-12.4c-7.7-7.4-31.5-32.3-31.5-32.3L308.9-18L308.9-18z"/>
<path id="path5677" class="st1" d="M308.9-5.8c0,0,24.5,25.2,31.6,32.4c7.5,7.7,17.2,10.5,30.5,12.9c12.8,2.2,28.8,4.8,28.8,4.8v1.4
	c0,0-15.1-2.4-28.8-4.7c-13.5-2.3-22.9-3.5-30.6-10.5c-6.9-6.2-31.5-28.9-31.5-28.9V-5.8L308.9-5.8z"/>
<path id="path5681" class="st1" d="M308.9,5.6c0,0,23.3,21.2,31.6,28.5c7.6,6.7,13.8,8.8,30.6,11.7c16.8,2.9,28.8,4.7,28.8,4.7v1.5
	c0,0-15.2-2.4-28.8-4.6c-13.7-2.1-22.4-3-30.5-9.5c-9.4-7.5-31.6-25.4-31.6-25.4L308.9,5.6L308.9,5.6z"/>
<path id="path5685" class="st1" d="M308.9,17.7c0,0,26.6,20.7,31.6,24.3c5,3.6,11.6,7.9,30.7,10.6c19,2.7,28.7,4,28.7,4v1.6
	c0,0-17.2-2.5-28.7-3.9c-11.5-1.4-20.3-2-30.6-8.8c-10-6.5-31.6-21.4-31.6-21.4L308.9,17.7L308.9,17.7z"/>
<path id="path5689" class="st1" d="M308.9,29.3c0,0,26.7,17.4,31.8,20.2c5.1,2.8,11,7.3,30.5,9.7c19.5,2.4,28.7,3.5,28.7,3.5v1.5
	c0,0-16.1-1.7-28.8-3.1c-12.6-1.3-21.2-3.2-30.6-8.2c-9.4-5-31.5-17.7-31.5-17.7L308.9,29.3L308.9,29.3z"/>
<path id="path5693" class="st1" d="M308.9,40.9c0,0,23.6,12.6,31.6,16.5c8.9,4.4,16.6,6.5,30.6,8.1c13.7,1.6,28.8,3.2,28.8,3.2v1.4
	c0,0-13.9-1.5-28.8-2.8c-14.7-1.4-20-2-30.6-6.6c-9.5-4.1-31.7-14.2-31.7-14.2L308.9,40.9L308.9,40.9z"/>
<path id="path5697" class="st1" d="M308.9,52.8c0,0,18.6,7.8,31.7,12.9c12.9,5,22.8,5.4,30.6,6.3c3.5,0.4,28.6,2.9,28.6,2.9v1.4
	c0,0-15-1.2-28.7-2.4c-13.7-1.2-19.5-1.7-30.6-5.3C329.4,65,308.9,58,308.9,58L308.9,52.8L308.9,52.8z"/>
<path id="path5701" class="st1" d="M308.9,64.7c0,0,18.9,5.7,31.7,9c12.8,3.3,24.7,4.7,30.6,5c5.9,0.4,28.6,2.2,28.6,2.2v1.3
	c0,0-12.8-0.9-28.7-2c-12.8-0.9-23.1-1.8-30.6-3.5c-8.3-1.8-31.7-7.3-31.7-7.3L308.9,64.7L308.9,64.7z"/>
<path id="path5705" class="st1" d="M308.9,76.6c0,0,15.5,2.6,31.8,5.3c12.2,2,28.8,3.2,30.5,3.3c1.8,0.1,28.8,1.9,28.8,1.9v1.4
	c0,0-17.3-0.9-28.8-1.5c-12-0.7-23.8-1.4-30.6-2c-15.1-1.6-31.7-3.6-31.7-3.6V76.6z"/>
<path id="path5709" class="st1" d="M308.9,88.8c0,0,24.3,0.9,31.7,1.1c7.4,0.2,59.3,2.2,59.3,2.2v1.4l-91-0.1V88.8L308.9,88.8z"/>
<path id="path5713" class="st0" d="M168.9,102c0-0.3,0.1-0.4,0.4-0.4h7.5c0.2,0,0.4,0.1,0.4,0.4v1.3c0,0.2-0.1,0.4-0.4,0.4h-5.6v3.5
	h4.9c0.3,0,0.4,0.1,0.4,0.4v1.3c0,0.2-0.1,0.4-0.4,0.4h-4.9v4h5.7c0.2,0,0.4,0.1,0.4,0.4v1.2c0,0.3-0.1,0.4-0.4,0.4h-7.6
	c-0.3,0-0.4-0.1-0.4-0.4L168.9,102L168.9,102z"/>
<path id="path5717" class="st0" d="M186.7,115.1h-1.4c-0.3,0-0.4-0.1-0.4-0.4v-0.6l0,0c-0.8,0.6-2.2,1.2-3.4,1.2c-2.8,0-3-1.6-3-3.8
	v-6c0-0.2,0.1-0.4,0.4-0.4h1.5c0.3,0,0.4,0.1,0.4,0.4v5.7c0,1.2,0.2,2,1.5,2c0.9,0,2.2-0.7,2.8-0.9v-6.8c0-0.2,0.1-0.4,0.4-0.4h1.4
	c0.3,0,0.4,0.1,0.4,0.4v9.2C187.1,115,187,115.1,186.7,115.1"/>
<path id="path5721" class="st0" d="M191.1,114.7c0,0.2-0.1,0.4-0.4,0.4h-1.5c-0.3,0-0.4-0.1-0.4-0.4v-9.2c0-0.3,0.1-0.4,0.4-0.4h1.4
	c0.3,0,0.4,0.2,0.4,0.4v0.9l0,0c0.6-0.6,2.1-1.3,3-1.4c0.3-0.1,0.4,0,0.5,0.3l0.1,1.4c0,0.3,0,0.4-0.4,0.5c-1.1,0.2-2.6,0.6-3.3,0.9
	L191.1,114.7L191.1,114.7z"/>
<path id="path5725" class="st0" d="M199.7,106.9c-1.7,0-2.1,1.1-2.1,3.2c0,2.2,0.4,3.2,2.1,3.2c1.9,0,2.2-1,2.2-3.2
	C201.9,107.9,201.5,106.9,199.7,106.9 M199.6,115.3c-4.1,0-4.4-3-4.4-5.3c0-1.9,0.4-5,4.4-5c4,0,4.5,2.6,4.5,5
	C204.1,112.3,203.9,115.3,199.6,115.3"/>
<path id="path5729" class="st0" d="M210.2,107c-0.8,0-2.1,0.6-2.7,0.9v5.1c0.9,0.3,1.7,0.3,2.3,0.3c1.5,0,2-0.8,2-3.3
	C211.8,107.4,211.3,107,210.2,107 M210.1,115.3c-0.7,0-1.6-0.1-2.5-0.5l0,0v3.6c0,0.2-0.1,0.4-0.4,0.4h-1.4c-0.3,0-0.4-0.1-0.4-0.4
	v-12.9c0-0.3,0.1-0.4,0.4-0.4h1.4c0.3,0,0.4,0.2,0.4,0.4v0.6l0.1,0c0.7-0.5,2-1.2,3.2-1.2c2.7,0,3.4,2,3.4,5.1
	C214.1,113.4,213.3,115.3,210.1,115.3"/>
<path id="path5733" class="st0" d="M217.7,109.2h4c0-1.2-0.3-2.4-2-2.4C218.2,106.8,217.8,107.7,217.7,109.2 M217.6,110.7
	c0.1,2.1,0.8,2.6,2.5,2.6c0.7,0,1.9-0.1,2.6-0.2c0.4,0,0.5,0,0.6,0.3l0.1,0.7c0.1,0.3,0,0.5-0.3,0.6c-0.8,0.3-2.3,0.5-3.3,0.5
	c-3.9,0-4.5-2.5-4.5-5.1c0-2,0.4-5.2,4.3-5.2c3.6,0,4.3,2.4,4.4,4.6c0,0.7-0.2,1.2-1,1.2L217.6,110.7L217.6,110.7z"/>
<path id="path5737" class="st0" d="M231.2,110.6h-2.5c-1,0-1.7,0.4-1.7,1.7c0,0.9,0.3,1.2,1.3,1.2c0.9,0,2.1-0.5,2.9-1L231.2,110.6
	L231.2,110.6z M231.4,113.9c-1,0.8-2.4,1.3-3.8,1.3c-2.2,0-2.8-1.2-2.8-2.9c0-2.4,1.3-3.4,3.8-3.4h2.6v-0.5c0-1.2-0.5-1.7-2.1-1.7
	c-0.7,0-2,0.1-2.8,0.2c-0.4,0.1-0.5,0-0.6-0.2l-0.2-0.8c0-0.3,0-0.4,0.5-0.6c0.9-0.3,2.5-0.4,3.4-0.4c3.5,0,4,1.4,4,3.7v3.9
	c0,0.8,0.1,0.9,0.7,0.9c0.3,0,0.4,0.1,0.4,0.3v0.9c0,0.2-0.1,0.4-0.5,0.4c-0.3,0.1-0.7,0.1-1,0.1
	C232.2,115.2,231.6,114.9,231.4,113.9L231.4,113.9L231.4,113.9z"/>
<path id="path5741" class="st0" d="M243.5,115.1H242c-0.3,0-0.4-0.1-0.4-0.4l0-5.7c0-1.2-0.3-2-1.5-2c-0.8,0-2.2,0.7-2.8,0.9v6.8
	c0,0.2-0.1,0.4-0.4,0.4h-1.4c-0.3,0-0.4-0.1-0.4-0.4v-9.2c0-0.3,0.1-0.4,0.4-0.4h1.4c0.3,0,0.4,0.1,0.4,0.4v0.6c0,0,0,0,0.1,0
	c0.8-0.5,2.2-1.2,3.4-1.2c2.8,0,3,1.8,3,3.9v5.9C243.9,115,243.8,115.1,243.5,115.1"/>
<path id="path5745" class="st0" d="M174.2,122.9c1,0,2.6,0.1,3.7,0.6c0.3,0.1,0.4,0.3,0.4,0.6l-0.2,0.8c-0.1,0.2-0.2,0.3-0.5,0.3
	c-1-0.1-2.2-0.3-3.3-0.3c-2.8,0-3.2,2.2-3.2,4.9c0,2.7,0.5,4.8,3.2,4.8c1.2,0,2.2-0.1,3.3-0.3c0.4,0,0.5,0.1,0.6,0.3l0.2,0.8
	c0.1,0.3,0,0.5-0.3,0.7c-1,0.4-2.8,0.6-3.8,0.6c-4.5,0-5.5-3.4-5.5-6.8C168.7,126.5,169.5,122.9,174.2,122.9"/>
<path id="path5749" class="st0" d="M182.9,128.4c-1.7,0-2.1,1.1-2.1,3.2c0,2.2,0.4,3.2,2.1,3.2c1.9,0,2.2-1,2.2-3.2
	C185.1,129.4,184.8,128.4,182.9,128.4 M182.9,136.8c-4.1,0-4.4-3-4.4-5.3c0-1.9,0.4-5,4.4-5c4,0,4.5,2.6,4.5,5
	C187.4,133.8,187.1,136.8,182.9,136.8"/>
<path id="path5753" class="st0" d="M202.8,136.6h-1.5c-0.3,0-0.4-0.1-0.4-0.4v-5.8c0-1.5-0.4-1.9-1.4-1.9c-0.8,0-2,0.6-2.6,0.9
	c0,0.2,0,0.6,0,1v5.8c0,0.2-0.1,0.4-0.4,0.4h-1.5c-0.3,0-0.3-0.1-0.3-0.4v-5.9c0-1.2-0.3-1.8-1.3-1.8c-0.7,0-1.9,0.5-2.6,0.9v6.8
	c0,0.2-0.1,0.4-0.4,0.4h-1.5c-0.3,0-0.4-0.1-0.4-0.4V127c0-0.3,0.1-0.4,0.4-0.4h1.4c0.3,0,0.4,0.2,0.4,0.4v0.6l0,0
	c0.8-0.6,1.9-1.2,3-1.2c1.2,0,2.2,0.2,2.8,1.4c1-0.8,2.3-1.4,3.6-1.4c2.7,0,3,1.8,3,3.8v6C203.2,136.5,203.1,136.6,202.8,136.6"/>
<path id="path5757" class="st0" d="M218.8,136.6h-1.5c-0.3,0-0.4-0.1-0.4-0.4v-5.8c0-1.5-0.4-1.9-1.4-1.9c-0.8,0-2,0.6-2.6,0.9
	c0,0.2,0,0.6,0,1v5.8c0,0.2-0.1,0.4-0.4,0.4h-1.5c-0.3,0-0.3-0.1-0.3-0.4v-5.9c0-1.2-0.3-1.8-1.3-1.8c-0.7,0-1.9,0.5-2.6,0.9v6.8
	c0,0.2-0.1,0.4-0.4,0.4h-1.5c-0.3,0-0.4-0.1-0.4-0.4V127c0-0.3,0.1-0.4,0.4-0.4h1.4c0.3,0,0.4,0.2,0.4,0.4v0.6l0,0
	c0.8-0.6,1.9-1.2,3-1.2c1.2,0,2.2,0.2,2.8,1.4c1-0.8,2.3-1.4,3.6-1.4c2.7,0,3,1.8,3,3.8v6C219.2,136.5,219.1,136.6,218.8,136.6"/>
<path id="path5761" class="st0" d="M223.1,136.2c0,0.2-0.1,0.4-0.4,0.4h-1.4c-0.3,0-0.4-0.1-0.4-0.4V127c0-0.3,0.1-0.4,0.4-0.4h1.4
	c0.3,0,0.4,0.2,0.4,0.4V136.2z M222,125.2c-1.1,0-1.2-0.6-1.2-1.2c0-0.7,0.2-1.2,1.2-1.2c1,0,1.2,0.5,1.2,1.2
	C223.2,124.6,223,125.2,222,125.2"/>
<path id="path5765" class="st0" d="M228.1,136.8c-1,0-2.4-0.1-3.2-0.4c-0.4-0.2-0.5-0.4-0.4-0.7l0.1-0.7c0.1-0.3,0.2-0.3,0.5-0.3
	c0.9,0.1,2.2,0.2,2.9,0.2c1.3,0,1.8-0.3,1.8-1.2c0-0.9-0.4-1.1-1.6-1.3c-2-0.3-3.7-0.7-3.7-2.9c0-2,1.5-3.1,3.8-3.1
	c0.8,0,2.2,0.1,3.1,0.4c0.3,0.1,0.5,0.3,0.4,0.6l-0.2,0.7c-0.1,0.3-0.2,0.3-0.5,0.3c-0.9-0.1-2-0.2-2.8-0.2c-1.3,0-1.6,0.4-1.6,1.1
	c0,0.8,0.5,0.9,1.7,1.1c1.9,0.3,3.7,0.7,3.7,3.1C232.2,136,230.2,136.8,228.1,136.8"/>
<path id="path5769" class="st0" d="M236.6,136.8c-1,0-2.4-0.1-3.2-0.4c-0.4-0.2-0.5-0.4-0.4-0.7l0.1-0.7c0.1-0.3,0.2-0.3,0.5-0.3
	c0.9,0.1,2.2,0.2,2.9,0.2c1.3,0,1.8-0.3,1.8-1.2c0-0.9-0.4-1.1-1.6-1.3c-2-0.3-3.7-0.7-3.7-2.9c0-2,1.5-3.1,3.8-3.1
	c0.8,0,2.2,0.1,3.1,0.4c0.3,0.1,0.5,0.3,0.4,0.6l-0.2,0.7c-0.1,0.3-0.2,0.3-0.5,0.3c-0.9-0.1-2-0.2-2.8-0.2c-1.3,0-1.6,0.4-1.6,1.1
	c0,0.8,0.5,0.9,1.7,1.1c1.9,0.3,3.7,0.7,3.7,3.1C240.8,136,238.7,136.8,236.6,136.8"/>
<path id="path5773" class="st0" d="M244.4,136.2c0,0.2-0.1,0.4-0.4,0.4h-1.4c-0.3,0-0.4-0.1-0.4-0.4V127c0-0.3,0.1-0.4,0.4-0.4h1.4
	c0.3,0,0.4,0.2,0.4,0.4V136.2z M243.3,125.2c-1.1,0-1.2-0.6-1.2-1.2c0-0.7,0.2-1.2,1.2-1.2c1,0,1.2,0.5,1.2,1.2
	C244.5,124.6,244.3,125.2,243.3,125.2"/>
<path id="path5777" class="st0" d="M250.2,128.4c-1.7,0-2.1,1.1-2.1,3.2c0,2.2,0.4,3.2,2.1,3.2c1.9,0,2.2-1,2.2-3.2
	C252.4,129.4,252.1,128.4,250.2,128.4 M250.2,136.8c-4.1,0-4.4-3-4.4-5.3c0-1.9,0.4-5,4.4-5c4,0,4.5,2.6,4.5,5
	C254.7,133.8,254.4,136.8,250.2,136.8"/>
<path id="path5781" class="st0" d="M264.1,136.6h-1.5c-0.3,0-0.4-0.1-0.4-0.4l0-5.7c0-1.2-0.3-2-1.5-2c-0.8,0-2.2,0.7-2.8,0.9v6.8
	c0,0.2-0.1,0.4-0.4,0.4h-1.4c-0.3,0-0.4-0.1-0.4-0.4V127c0-0.3,0.1-0.4,0.4-0.4h1.4c0.3,0,0.4,0.1,0.4,0.4v0.6c0,0,0,0,0.1,0
	c0.8-0.5,2.2-1.2,3.4-1.2c2.8,0,3,1.8,3,3.9v5.9C264.5,136.5,264.4,136.6,264.1,136.6"/>
<g class="st2">
	<path class="st0" d="M183.4,12.1c4.7-0.3,9.6-1.3,14.4-2c0.4-0.1,0.8-0.1,1.3-0.2h-33v3.4l11.6-0.8
		C179.5,12.3,181.4,12.2,183.4,12.1z"/>
	<path class="st0" d="M201.8-13.3c7.2-2,13.8-5,19.7-8.9c5.6-3.8,10.8-9.2,16-15.3c3.3-3.8,6.7-8.8,10-13.6v-2.3
		c-3.8,5.7-7.6,10.6-11.5,14.9c-5.1,5.7-10.5,10.4-16,13.9c-5.7,3.7-12.1,6.4-19,8.1c-3.1,0.8-6.4,1.4-10.2,1.9
		c-2.5,0.3-5,0.6-7.4,0.9c-1,0.1-83.4,8.9-83.4,8.9v5.8l0,0c0,0,88.9-11.5,91.4-11.9C195.2-11.7,198.7-12.4,201.8-13.3z"/>
	<path class="st0" d="M183.7-1.2c2.2-0.2,4.5-0.5,6.7-0.8c3.9-0.5,7.3-1.1,10.4-1.8c7.4-1.7,14.1-4.3,19.8-7.7
		c5.7-3.4,10.8-8.3,16.2-14.1c3.4-3.7,7.2-8.8,10.7-13.7v-2.1c-4.2,5.6-8.1,10.4-12,14.4c-5.3,5.5-10.8,9.9-16.3,13l0,0
		c-5.6,3.2-12,5.5-19.1,7c-3,0.6-6.3,1.1-10.1,1.5c-2.2,0.2-4.4,0.4-6.7,0.6c-1.2,0.1-2.4,0.2-3.6,0.3c-27.2,2.4-54.3,5-79.7,7.5
		v5.8c25.5-3.1,52.8-6.3,80.1-9.4C181.3-0.9,182.5-1.1,183.7-1.2z"/>
	<path class="st0" d="M189,6.8c3.8-0.4,7.2-0.9,10.2-1.5c7.6-1.4,14.1-3.6,19.9-6.5c5.9-3,11.8-8,17.3-13.3c3.7-3.5,7.2-8.1,11-12.9
		v-1.9c-4.4,5.5-8.6,10-12.8,13.8h0c-5.4,5-11.1,8.9-16.8,11.6C212.3-1.1,206,0.8,198.7,2c-3,0.5-6.3,0.9-10,1.3L100,10.5v5.8
		l78.8-8.4L189,6.8z"/>
	<path class="st0" d="M235,8.3c5.3-3.8,12.5-11.3,12.6-11.4v-2c-4.8,4.6-7.5,7.3-12.7,10.7c-2.7,1.8-6.2,3.2-9.6,4.4h7.4
		C233.4,9.4,234.2,8.8,235,8.3z"/>
	<path class="st0" d="M137.1,23.5L100,26v5.8l37.4-3.4c8.8-0.8,18.6-1.7,28.6-2.5v-4.1C156.4,22.2,146.8,22.9,137.1,23.5z"/>
	<path class="st0" d="M100,33.6v5.7c22.3-1.7,44.2-3.4,66-5v-4.1C144.7,31.3,123.3,32.4,100,33.6z"/>
	<path class="st0" d="M100,41.5v5.7c22.2-1.5,44.1-3,66-4.4v-4.1C144.3,39.6,122.4,40.5,100,41.5z"/>
	<polygon class="st0" points="100,48.9 100,54.7 166,51.2 166,47.1 	"/>
	<polygon class="st0" points="100,56.8 100,62.5 166,59.6 166,55.6 	"/>
	<path class="st0" d="M100,64.4v5.7c21.2-0.7,43.5-1.5,66-2.1v-4.1C144.1,64,122.2,64.2,100,64.4z"/>
	<path class="st0" d="M135.3,72.2l-35.3,0V78l35.4-0.9c9.8-0.2,20.1-0.5,30.6-0.7v-4C155.5,72.2,145.2,72.2,135.3,72.2z"/>
	<path class="st0" d="M100,79.9v5.7c21.3-0.1,43.7-0.3,66-0.5V81C144.1,80.7,122.3,80.3,100,79.9z"/>
	<polyline class="st0" points="166,93.4 166,89.4 100,87.7 100,93.5 	"/>
	<polygon class="st0" points="100,18.1 100,23.9 166,17.5 166,13.3 	"/>
	<path class="st0" d="M218,8.5c6-2.7,12.2-7,17.9-11.8c3.9-3.2,7.6-7.3,11.6-11.8v-2.1c-4.9,5.1-9,9.1-13.3,12.6l0,0
		c-5.6,4.5-9.9,7.7-16.8,10.4C211.8,8,205.8,9,199,9.9h15.4C215.6,9.5,216.8,9,218,8.5z"/>
</g>
<path class="st0" d="M161.3,7v86.5h129.2V7H161.3z M251,29.5l1.3,4.2h4.5l-3.6,2.7l1.4,4.3l-3.6-2.7l-3.6,2.7l1.4-4.3l-3.7-2.7h4.5
	L251,29.5z M239.1,23.1l1.4-4.2l1.3,4.2h4.5l-3.6,2.7l1.4,4.3l-3.6-2.7l-3.6,2.7l1.4-4.3l-3.7-2.7H239.1z M210.1,23.2l1.4-4.2
	l1.3,4.2h4.5l-3.6,2.7l1.4,4.3l-3.6-2.7l-3.6,2.7l1.4-4.3l-3.7-2.7H210.1z M199.8,33.8l1.4-4.2l1.3,4.2h0h4.5l-3.6,2.7l1.4,4.3
	l-3.6-2.7l-3.6,2.7l1.4-4.3l-3.7-2.7H199.8z M191.5,48h4.5l1.4-4.2l1.3,4.2h4.5l-3.6,2.7l1.4,4.3l-3.6-2.7l-3.6,2.7l1.4-4.3
	L191.5,48z M201.2,67.1l-3.6,2.7l1.4-4.3l-3.7-2.7h4.5l1.4-4.2l1.3,4.2h0h4.5l-3.6,2.7l1.4,4.3L201.2,67.1z M215.2,80.2l-3.6-2.7
	l-3.6,2.7l1.4-4.3l-3.7-2.7h4.5l1.4-4.2l1.3,4.2h4.5l-3.6,2.7L215.2,80.2z M224.6,19.3l1.4-4.4l1.3,4.4h4.5l-3.6,2.8l1.4,4.5
	l-3.6-2.8l-3.6,2.8l1.4-4.5l-3.7-2.8H224.6z M229.8,84l-3.6-2.6l-3.6,2.6l1.4-4.3l-3.7-2.7h4.5l1.4-4.2l1.3,4.2h4.5l-3.6,2.7
	L229.8,84z M244,80.2l-3.6-2.7l-3.6,2.7l1.4-4.3l-3.7-2.7h4.5l1.4-4.2l1.3,4.2h4.5l-3.6,2.7L244,80.2z M254.6,69.7l-3.6-2.7
	l-3.6,2.7l1.4-4.3l-3.7-2.7h4.5l1.4-4.2l1.3,4.2h4.5l-3.6,2.7L254.6,69.7z M258.6,55l-3.6-2.7l-3.6,2.7l1.4-4.3l-3.7-2.7h4.5
	l1.4-4.2l1.3,4.2h4.5l-3.6,2.7L258.6,55z"/>
</svg>
