<?xml version="1.0" encoding="utf-8"?>
<!-- Generator: Adobe Illustrator 19.0.0, SVG Export Plug-In . SVG Version: 6.00 Build 0)  -->
<svg version="1.1"
	 id="svg2" xmlns:dc="http://purl.org/dc/elements/1.1/" xmlns:sodipodi="http://sodipodi.sourceforge.net/DTD/sodipodi-0.dtd" xmlns:rdf="http://www.w3.org/1999/02/22-rdf-syntax-ns#" xmlns:svg="http://www.w3.org/2000/svg" xmlns:inkscape="http://www.inkscape.org/namespaces/inkscape" xmlns:cc="http://creativecommons.org/ns#" sodipodi:docname="Die-Stiftung[2].emf" inkscape:version="0.48+devel r10194"
	 xmlns="http://www.w3.org/2000/svg" xmlns:xlink="http://www.w3.org/1999/xlink" x="0px" y="0px" viewBox="67 -10.4 234 120.4"
	 style="enable-background:new 67 -10.4 234 120.4;" xml:space="preserve">
<style type="text/css">
	.st0{fill:#FFFFFF;}
</style>
<sodipodi:namedview  id="namedview14" objecttolerance="10" showgrid="false" fit-margin-left="10" fit-margin-top="10" pagecolor="#ffffff" inkscape:zoom="1.5103822" borderopacity="1" guidetolerance="10" inkscape:cy="67.439984" inkscape:cx="108.18009" bordercolor="#666666" gridtolerance="10" inkscape:window-x="404" inkscape:current-layer="svg2" inkscape:window-maximized="0" inkscape:window-width="640" fit-margin-bottom="10" inkscape:pageshadow="2" inkscape:window-height="480" fit-margin-right="10" inkscape:window-y="204" inkscape:pageopacity="0">
	</sodipodi:namedview>
<path id="path8" inkscape:connector-curvature="0" class="st0" d="M168.5,45.4c0.1-0.1,0.3-0.2,0.4-0.3l-0.9-0.5v0.5
	C168,45.1,168.5,45.4,168.5,45.4z M172.1,48.3c-0.1,0-0.2,0-0.3,0c-0.4,0-0.7,0.1-1,0.2l3.3,0.9c-0.2-0.3-0.4-0.5-0.7-0.7
	C173.3,48.7,172.1,48.3,172.1,48.3z M169,24.4l-2.2,8.1l2.2,3.7V24.4z M169,37.2l-2.4-4l-1.3,5l3.7,3.7V37.2z M166.3,32.6l-1.3-2.2
	l-2.8,4.8l2.7,2.7L166.3,32.6z M164.8,38.4l-2.8-2.8l-2.4,4.2l4.2,2.4C163.8,42.1,164.8,38.4,164.8,38.4z M163.6,42.6l-4-2.3
	l1.3,5.1l1.8,0.5C162.8,45.8,163.6,42.6,163.6,42.6z M162.6,46.3l-1.5-0.4l0.8,3L162.6,46.3z M161.9,50.7l-0.8,3l1.5-0.4L161.9,50.7
	z M160.5,45.3l-1.3-4.8l-2.2,3.9C157,44.3,160.5,45.3,160.5,45.3z M156.5,44.2l2.5-4.3l-4.3-2.4l-4.9,4.9
	C149.8,42.4,156.5,44.2,156.5,44.2z M154.3,37.2l-4.7-2.8v7.5L154.3,37.2z M149.6,33.7l6.7-3.9l-2.8-2.8l-3.9,1.1
	C149.6,28.1,149.6,33.7,149.6,33.7z M149.6,27.6l3.5-0.9l-3.5-3.5V27.6z M149.6,22.4h4.8l-1-3.8l-3.8-1V22.4z M149.6,17.1l3.6,1
	l-1.4-5.3l-2.2-1.3V17.1z M149.6,11l2.1,1.2l-2.1-7.7V11z M150,4.4l2.2,8.1l3.8,2.2C156,14.7,150,4.4,150,4.4z M150.6,4.4l6.2,10.8
	l10.8,6.2C167.5,21.4,150.6,4.4,150.6,4.4z M167.6,21.9l-10.3-6l2.2,3.8C159.4,19.8,167.6,21.9,167.6,21.9z M167.8,23.7l-4.6,2.7
	l0.7,1.2L167.8,23.7z M161.9,34.9l2.9-4.9l-0.9-1.6l-4.2,4.2C159.6,32.5,161.9,34.9,161.9,34.9z M159.4,39.2l2.3-4l-2.4-2.4
	l-1.3,1.3C158,34.2,159.4,39.2,159.4,39.2z M155,37.1l3.9,2.2l-1.3-4.8L155,37.1z M156.5,30.3l-6.7,3.8l4.9,2.8l2.8-2.9L156.5,30.3z
	 M156.8,29.6l5.8-3.4l-0.8-1.3l-5.9,1.6C155.9,26.4,156.8,29.6,156.8,29.6z M154,26.9l2.2,2.1l-0.7-2.5L154,26.9z M154.5,22.9h-4.6
	l3.7,3.7l1.7-0.5L154.5,22.9z M167.4,22.4l-7.6-2l1.2,2C160.9,22.4,167.4,22.4,167.4,22.4z M160.7,22.9H155l0.8,3.1l5.8-1.5
	L160.7,22.9z M162.1,24.3l5.4-1.5h-6.2L162.1,24.3z M163,25.9l4.6-2.6l-5.3,1.4L163,25.9z M157,30.6l0.8,3l1.1-1.1
	C159,32.5,157,30.6,157,30.6z M159.3,32.2l4.3-4.3l-0.8-1.3L157,30C157,30,159.3,32.2,159.3,32.2z M158.8,19.6l-2.4-4.1l-4.1-2.4
	l1.4,5.1L158.8,19.6z M153.8,18.8l1,3.6h5.6l-1.3-2.2L153.8,18.8z M168.1,24.1l-3.9,3.9l0.8,1.4L168.1,24.1z M165.3,29.9l1.2,2
	l2.1-7.7L165.3,29.9z M149.1,4.5l-1.4,5.4l1.4,0.8V4.5z M149.1,11.3l-1.6-0.9l-1.5,5.8l3.1,0.8V11.3z M149.1,17.5l-3.2-0.9l-0.5,1.7
	l3.7,3.7V17.5z M149.1,22.9h-4.9l-1.8,6.7l6.7-1.8V22.9z M149.1,28.3l-6.4,1.7l6.4,3.7C149.1,33.7,149.1,28.3,149.1,28.3z
	 M149.1,34.5l-3.1,1.8l3.1,5.4V34.5z M145.8,35.9l3.1-1.8l-6.2-3.6L145.8,35.9z M143.7,22.9h-5.4l3.7,6.5L143.7,22.9z M141.5,29.8
	l-5.6-3.2l-3.2,5.6L141.5,29.8z M135.5,26.4l-5.6-3.3l2.4,8.9L135.5,26.4z M132.1,33.2l-2.2,3.9l3.5,0.9L132.1,33.2z M133.5,38.5
	l-3.2-0.9l4.1,4.1C134.3,41.8,133.5,38.5,133.5,38.5z M131.6,33l-4.8,1.3l2.6,2.6C129.4,36.8,131.6,33,131.6,33z M128.7,36.7
	l-2.4-2.3l-3.2,0.8L128.7,36.7z M122.4,34.9l3.5-0.9l-3.5-3.5V34.9z M122.4,29.3l6.5-6.5h-6.5V29.3z M122.4,22.4h6.2l-6.2-3.6V22.4z
	 M122.4,18l4.8-2.8l-1-3.9l-3.8-1V18z M122.4,9.7l3.1-0.8L124,3h-1.5C122.4,3,122.4,9.7,122.4,9.7z M122.4,2.5h1.4l-1.4-5.3V2.5z
	 M122.9-2.9l1.4,5.4h1.7L122.9-2.9z M123.3-3.1l3.3,5.7h2.4L123.3-3.1z M123.6-3.5l6,6h4.4C134,2.5,123.6-3.5,123.6-3.5z M124.1-3.7
	l10.8,6.3h12.4L124.1-3.7z M147.6,3h-11.9l3.7,2.2L147.6,3z M147.7,3.4l-7.7,2l2.1,1.2C142.1,6.7,147.7,3.4,147.7,3.4z M147.9,3.9
	l-5.4,3.1l1.4,0.8L147.9,3.9z M148.3,4.2L144.4,8l1.2,0.7L148.3,4.2z M147.3,9.7l1.4-5.3L146,9L147.3,9.7z M145.6,16l1.6-5.9
	l-1.3-0.8l-3.4,5.9L145.6,16z M145.4,16.5l-2.5-0.7L145,18C145,18,145.4,16.5,145.4,16.5z M144.3,22.4h4.5l-3.5-3.5
	C145.3,18.9,144.3,22.4,144.3,22.4z M138.3,22.4h5.6l1-3.9l-2.8-2.7L138.3,22.4z M136.1,26.2l5.4,3.1l-3.5-6.2
	C137.9,23.1,136.1,26.2,136.1,26.2z M130.4,22.9l5.3,3.1l1.8-3.1H130.4z M130,22.4h7.4l-2.7-4.7C134.7,17.7,130,22.4,130,22.4z
	 M129.4,23.1l-6.9,6.8l3.9,3.9l5.4-1.5L129.4,23.1z M129.6,22.2l4.9-4.9l-2.4-4.3l-4.3,2.5C127.8,15.5,129.6,22.2,129.6,22.2z
	 M127.4,15.7l-4.7,2.7l6.4,3.7C129.1,22.1,127.4,15.7,127.4,15.7z M126.7,11.5l0.9,3.5l3.8-2.2C131.5,12.8,126.7,11.5,126.7,11.5z
	 M126.1,9.2l0.5,1.8l5.1,1.3l-2.3-4C129.4,8.3,126.1,9.2,126.1,9.2z M129.4,3h-2.5l2.8,4.8l3.6-1C133.2,6.8,129.4,3,129.4,3z
	 M138.8,5.3l-4-2.4h-4.7l3.7,3.7C133.8,6.7,138.8,5.3,138.8,5.3z M141.6,6.9l-2.2-1.3l-5.2,1.4l2.7,2.7
	C136.8,9.7,141.6,6.9,141.6,6.9z M143.6,8.1l-1.5-0.9l-4.9,2.9l2.2,2.3C139.4,12.3,143.6,8.1,143.6,8.1z M142,15l3.4-5.8l-1.3-0.8
	l-4.3,4.3C139.7,12.7,142,15,142,15z M135.1,17.4l2.8,4.8l3.9-6.7l-3.8-1C137.9,14.5,135.1,17.4,135.1,17.4z M132.6,13.1l2.2,3.9
	l2.6-2.6C137.4,14.3,132.6,13.1,132.6,13.1z M136.4,9.9l-2.8-2.7l-3.8,1l2.4,4.2C132.2,12.4,136.4,9.9,136.4,9.9z M138.3,14.1l3,0.8
	l-1.9-1.9L138.3,14.1z M139.1,12.7l-2.4-2.4l-4,2.3l5.1,1.4C137.8,14,139.1,12.7,139.1,12.7z M125.7,9.3l-2.6,0.7l3,0.8
	C126.1,10.8,125.7,9.3,125.7,9.3z M129.1,7.9l-2.9-5h-1.8l1.5,5.8L129.1,7.9z M122-2.7l-1.4,5.3h1.4C122,2.5,122-2.7,122-2.7z
	 M122,3h-1.5l-1.6,5.9l3.1,0.8C122,9.7,122,3,122,3z M122,10.3l-3.8,1l-1,3.9L122,18V10.3z M122,18.8l-6.2,3.6h6.2V18.8z M122,22.9
	h-6.5l6.5,6.5V22.9z M122,30.5l-3.5,3.5l3.5,0.9V30.5z M121.3,35.2l-3.2-0.9l-2.4,2.4C115.7,36.7,121.3,35.2,121.3,35.2z
	 M117.5,34.2l-4.8-1.3l2.2,3.9C115,36.8,117.5,34.2,117.5,34.2z M114.6,37l-2.2-3.8l-1.3,4.8C111.1,38,114.6,37,114.6,37z
	 M114.1,37.6l-3.2,0.9l-0.8,3.2L114.1,37.6z M110.4,38.6l-4.9,1.3l3.9,2.2L110.4,38.6z M109.2,42.6l-3.9-2.2l1.3,4.8L109.2,42.6z
	 M109.1,43.3l-2.4,2.4l0.8,3.2L109.1,43.3z M107.6,50.7l-0.8,3.2l2.4,2.4C109.1,56.3,107.6,50.7,107.6,50.7z M109.2,57l-2.6-2.6
	l-1.3,4.8L109.2,57z M109.4,57.4l-3.9,2.2l4.9,1.3L109.4,57.4z M110,57.8l0.9,3.3l3.2,0.8L110,57.8z M114.6,62.6l-3.5-1l1.3,4.8
	C112.3,66.4,114.6,62.6,114.6,62.6z M112.8,66.7l4.8-1.3l-2.6-2.6L112.8,66.7z M115.7,62.8l2.4,2.4l3.2-0.8
	C121.3,64.3,115.7,62.8,115.7,62.8z M122,64.6l-3.5,1l3.5,3.5V64.6z M122,70.2l-6.5,6.5h6.5V70.2z M122,77.2h-6.2l6.2,3.6V77.2z
	 M122,81.6l-4.8,2.8l1,3.9l3.8,1V81.6z M122,89.9l-3.1,0.8l1.6,5.9h1.5C122,96.6,122,89.9,122,89.9z M122,97.1h-1.4l1.4,5.3V97.1z
	 M121.5,102.5l-1.5-5.4h-1.7L121.5,102.5z M121.1,102.8l-3.3-5.7h-2.4L121.1,102.8z M120.8,103.1l-6-6h-4.4L120.8,103.1z
	 M120.4,103.4l-10.9-6.3H97C97,97.1,120.4,103.4,120.4,103.4z M96.8,96.6h11.8l-3.7-2.2C104.9,94.4,96.8,96.6,96.8,96.6z M96.7,96.1
	l7.7-2l-2-1.2C102.3,92.9,96.7,96.1,96.7,96.1z M96.4,95.8l5.4-3.1l-1.5-0.8L96.4,95.8z M96.1,95.5l3.9-3.9l-1.2-0.7
	C98.8,90.9,96.1,95.5,96.1,95.5z M95.7,95.2l2.6-4.6l-1.2-0.7L95.7,95.2z M95.3,95l1.4-5.3l-1.4-0.8V95z M95.3,88.3l1.5,0.9l1.5-5.8
	l-3.1-0.8V88.3z M95.3,82.1l3.2,0.9l0.4-1.7l-3.7-3.7C95.3,77.6,95.3,82.1,95.3,82.1z M95.3,76.7h4.9L102,70l-6.7,1.8
	C95.3,71.8,95.3,76.7,95.3,76.7z M95.3,71.3l6.4-1.7l-6.4-3.7V71.3z M95.3,65l3-1.8l-3-5.3V65z M95.3,56.5l6.4-6.5h-6.4V56.5z
	 M95.3,49.6h6.5l-6.5-6.5V49.6z M95.3,41.6l3.1-5.4l-3.1-1.8V41.6z M95.3,33.7l6.4-3.7l-6.4-1.7V33.7z M95.3,27.8l6.7,1.8l-1.8-6.7
	h-4.9V27.8z M95.3,22l3.7-3.7l-0.4-1.7l-3.2,0.9C95.3,17.5,95.3,22,95.3,22z M95.3,17l3.1-0.8l-1.5-5.8l-1.5,0.9
	C95.3,11.3,95.3,17,95.3,17z M95.3,10.8l1.4-0.8l-1.4-5.4V10.8z M95.8,4.4l1.4,5.3L98.4,9L95.8,4.4z M96.1,4.2l2.6,4.6L100,8
	C100,8,96.1,4.2,96.1,4.2z M96.4,3.8l4,4l1.4-0.8L96.4,3.8z M96.7,3.4l5.6,3.2l2.1-1.2L96.7,3.4z M96.8,3l8.1,2.2l3.8-2.2
	C108.7,3,96.8,3,96.8,3z M97.1,2.5h12.5l10.8-6.3L97.1,2.5z M120.8-3.5l-10.4,6h4.4L120.8-3.5z M121.1-3.1l-5.7,5.7h2.4L121.1-3.1z
	 M120,2.5l1.5-5.4l-3.1,5.4H120z M117.8,11l0.5-1.8L115,8.4l-2.3,4C112.7,12.3,117.8,11,117.8,11z M117.7,11.5l-4.8,1.3l3.9,2.2
	L117.7,11.5z M115.3,22.1l6.4-3.7l-4.7-2.7L115.3,22.1z M112.6,32.4l5.4,1.5l3.9-3.9l-6.8-6.8C115,23.1,112.6,32.4,112.6,32.4z
	 M112.2,32l2.4-8.9l-5.6,3.3C108.9,26.4,112.2,32,112.2,32z M105.1,39.6l5.4-1.5l1.4-5.4l-9.3-2.5C102.7,30.2,105.1,39.6,105.1,39.6
	z M95.5,42.1l8.8-2.4l-5.6-3.2C98.8,36.5,95.5,42.1,95.5,42.1z M101.7,30.5l-6.2,3.6l3.1,1.8L101.7,30.5z M102.2,30.5L99,36.1
	l5.6,3.2L102.2,30.5z M100.7,22.9l1.7,6.4l3.7-6.4C106.1,22.9,100.7,22.9,100.7,22.9z M100.6,22.4h5.6l-3.9-6.7l-2.8,2.8L100.6,22.4
	z M95.6,22.4h4.5l-0.9-3.5C99.1,18.9,95.6,22.4,95.6,22.4z M99,16.5l0.4,1.5l2.1-2.1C101.5,15.8,99,16.5,99,16.5z M98.6,9.4
	l-1.3,0.8l1.6,5.9l3.1-0.8C102,15.2,98.6,9.4,98.6,9.4z M100.3,8.4L99,9.1l3.4,5.8l2.3-2.3L100.3,8.4z M102.3,7.2l-1.6,0.9l4.2,4.2
	l2.3-2.3L102.3,7.2L102.3,7.2z M105,5.7l-2.2,1.3l4.8,2.8l2.7-2.7L105,5.7z M114.3,3h-4.7l-4.1,2.4l5.1,1.4L114.3,3z M114.8,7.8
	l2.8-4.8H115l-3.9,3.9C111.1,6.8,114.8,7.8,114.8,7.8z M114.6,8.2l-3.8-1L108,9.9l4.2,2.4L114.6,8.2z M114.8,22.2l1.8-6.7l-4.3-2.5
	l-2.5,4.3L114.8,22.2z M114.3,22.4l-4.7-4.7l-2.7,4.7H114.3z M108.7,25.9l5.3-3.1h-7.1C106.9,22.9,108.7,25.9,108.7,25.9z
	 M102.9,29.8l8.8,2.4l-3.2-5.6L102.9,29.8z M106.5,23.1l-3.5,6.1l5.3-3.1C108.3,26.1,106.5,23.1,106.5,23.1z M102.7,15.5l3.9,6.7
	l2.8-4.8l-2.9-2.9C106.4,14.5,102.7,15.5,102.7,15.5z M105,13l-1.9,1.9l3-0.8L105,13z M107,14.4l2.6,2.6l2.2-3.9
	C111.8,13.1,107,14.4,107,14.4z M111.7,12.6l-4-2.3l-2.4,2.4l1.3,1.3C106.6,14,111.7,12.6,111.7,12.6z M106.2,45.5l-1.4-5.4
	l-9.3,2.5l6.8,6.8L106.2,45.5z M107.3,49.6l-0.9-3.5l-3.5,3.5H107.3z M106.4,53.5l0.9-3.5h-4.4C102.9,50,106.4,53.5,106.4,53.5z
	 M106.2,54l-3.9-3.9l-6.8,6.8l9.3,2.5C104.8,59.4,106.2,54,106.2,54z M111.9,66.8l-1.4-5.4l-5.4-1.5l-2.5,9.3L111.9,66.8z
	 M112.1,67.6l-3.2,5.6l5.6,3.2C114.5,76.5,112.1,67.6,112.1,67.6z M121.9,69.7l-3.9-3.9l-5.4,1.4l2.5,9.3
	C115,76.5,121.9,69.7,121.9,69.7z M117,83.9l4.7-2.7l-6.4-3.7L117,83.9z M117.7,88.1l-1-3.5l-3.9,2.2L117.7,88.1z M118.3,90.4
	l-0.5-1.7l-5.1-1.3l2.3,4C115,91.2,118.3,90.4,118.3,90.4z M115,96.6h2.6l-2.8-4.8l-3.7,1C111.1,92.8,115,96.6,115,96.6z
	 M105.5,94.3l4,2.4h4.7l-3.7-3.7C110.6,92.9,105.5,94.3,105.5,94.3z M102.8,92.6l2.2,1.3l5.3-1.4l-2.7-2.7L102.8,92.6z M100.7,91.5
	l1.6,0.9l4.9-2.9l-2.3-2.3C105,87.2,100.7,91.5,100.7,91.5z M99,90.5l1.3,0.7l4.3-4.3l-2.3-2.3L99,90.5z M98.8,83.5l-1.6,5.9
	l1.3,0.8l3.4-5.9C102,84.4,98.8,83.5,98.8,83.5z M99,83.1l2.5,0.7l-2.1-2.1C99.4,81.6,99,83.1,99,83.1z M100.1,77.2h-4.5l3.5,3.5
	C99.1,80.7,100.1,77.2,100.1,77.2z M100.5,77.2l-1,4l2.7,2.7l3.9-6.7C106.1,77.2,100.5,77.2,100.5,77.2z M111.8,67.4l-8.9,2.4
	l5.6,3.3L111.8,67.4z M114,76.7l-5.3-3.1l-1.8,3.1C106.9,76.7,114,76.7,114,76.7z M114.3,77.2h-7.4l2.7,4.7L114.3,77.2z M112.3,86.6
	l4.3-2.4l-1.8-6.7l-4.9,4.9C109.9,82.3,112.3,86.6,112.3,86.6z M108,89.6l2.8,2.7l3.8-1l-2.4-4.2C112.1,87.2,108,89.6,108,89.6z
	 M105.3,86.9l2.4,2.4l4-2.3l-5-1.3C106.6,85.6,105.3,86.9,105.3,86.9z M103,84.7l1.9,1.9l1.1-1.1L103,84.7z M107,85.2l4.8,1.3
	l-2.2-3.9L107,85.2z M106.5,76.5l1.8-3.1l-5.4-3.1L106.5,76.5z M106.5,77.4l-3.9,6.7l3.8,1l2.9-2.9L106.5,77.4z M100.7,76.7h5.4
	l-3.7-6.4L100.7,76.7z M102.2,69.1l2.4-8.9L99,63.5L102.2,69.1z M98.8,63l5.6-3.2l-8.8-2.4L98.8,63z M98.6,63.7l-3.1,1.8l6.2,3.6
	C101.7,69,98.6,63.7,98.6,63.7z M118.7,90.2l2.5-0.7l-3-0.8C118.3,88.8,118.7,90.2,118.7,90.2z M115.3,91.6l2.9,5h1.8l-1.5-5.8
	L115.3,91.6z M118.3,10.8l3-0.8l-2.5-0.7C118.7,9.3,118.3,10.8,118.3,10.8z M119.9,3h-1.8l-2.9,5l3.1,0.8L119.9,3z M122.4,102.4
	l1.4-5.3h-1.4V102.4z M122.4,96.6h1.5l1.6-5.9l-3.1-0.8V96.6z M122.4,89.2l3.8-1l1-3.9l-4.8-2.8C122.4,81.6,122.4,89.2,122.4,89.2z
	 M122.4,80.7l6.2-3.5h-6.2C122.4,77.2,122.4,80.7,122.4,80.7z M122.4,76.7h6.5l-6.5-6.5C122.4,70.2,122.4,76.7,122.4,76.7z
	 M122.4,69.1l3.5-3.5l-3.5-1V69.1z M123.1,64.3l3.2,0.9l2.4-2.4C128.7,62.8,123.1,64.3,123.1,64.3z M126.8,65.4l4.8,1.3l-2.2-3.9
	L126.8,65.4z M129.8,62.5l2.3,3.9l1.3-4.8L129.8,62.5z M130.2,62l3.3-0.9l0.8-3.2C134.3,57.8,130.2,62,130.2,62z M132.2,67.6
	l-2.4,8.9l5.6-3.2C135.5,73.2,132.2,67.6,132.2,67.6z M132.6,67.4l3.2,5.6l5.6-3.2L132.6,67.4z M138.3,76.7h5.4l-1.7-6.4L138.3,76.7
	z M142.4,70l1.8,6.7h4.9v-4.9L142.4,70z M142.7,69.6l6.4,1.7v-5.4L142.7,69.6z M142.7,69l6.2-3.6l-3.1-1.8
	C145.8,63.7,142.7,69,142.7,69z M149.1,77.5l-3.7,3.7l0.5,1.7l3.2-0.8C149.1,82.1,149.1,77.5,149.1,77.5z M149.1,82.6l-3.1,0.8
	l1.5,5.8l1.6-0.9V82.6z M149.1,88.9l-1.4,0.8l1.4,5.4V88.9z M148.7,95.2l-1.4-5.3l-1.2,0.7C146,90.6,148.7,95.2,148.7,95.2z
	 M148.3,95.5l-2.6-4.6l-1.2,0.7C144.4,91.6,148.3,95.5,148.3,95.5z M147.9,95.8l-3.9-3.9l-1.4,0.8L147.9,95.8z M147.7,96.1l-5.6-3.2
	l-2,1.2C140,94.1,147.7,96.1,147.7,96.1z M147.5,96.6l-8.1-2.2l-3.7,2.2H147.5z M147.3,97.1h-12.4l-10.9,6.3L147.3,97.1z
	 M123.6,103.1l10.4-6h-4.4L123.6,103.1z M123.2,102.8l5.7-5.7h-2.4L123.2,102.8z M124.3,97.1l-1.4,5.4l3.1-5.4H124.3z M126.6,88.6
	l-0.5,1.7l3.2,0.9l2.3-4C131.7,87.3,126.6,88.6,126.6,88.6z M126.7,88.1l4.8-1.3l-3.9-2.2L126.7,88.1z M129.1,77.4l-6.4,3.7l4.7,2.7
	L129.1,77.4z M131.8,67.2l-5.4-1.5l-3.9,3.9l6.9,6.9C129.4,76.5,131.8,67.2,131.8,67.2z M129.6,77.4l-1.8,6.7l4.3,2.4l2.4-4.2
	C134.5,82.3,129.6,77.4,129.6,77.4z M130,77.2l4.7,4.7l2.7-4.7C137.5,77.2,130,77.2,130,77.2z M135.7,73.6l-5.4,3.1h7.1L135.7,73.6z
	 M141.5,70.3l-5.4,3.1l1.8,3.1L141.5,70.3z M143.9,77.2h-5.6l3.9,6.7l2.8-2.8C144.9,81.1,143.9,77.2,143.9,77.2z M145.3,80.7
	l3.5-3.5h-4.5C144.3,77.2,145.3,80.7,145.3,80.7z M145.4,83.1l-0.4-1.5l-2.1,2.2C142.9,83.8,145.4,83.1,145.4,83.1z M145.8,90.2
	l1.3-0.8l-1.6-5.9l-3.2,0.8L145.8,90.2z M144.1,91.2l1.3-0.8l-3.4-5.9l-2.3,2.3C139.7,86.9,144.1,91.2,144.1,91.2z M142.1,92.4
	l1.5-0.9l-4.2-4.2l-2.3,2.3C137.2,89.5,142.1,92.4,142.1,92.4z M139.4,93.9l2.2-1.3l-4.8-2.8l-2.7,2.7
	C134.2,92.5,139.4,93.9,139.4,93.9z M130.1,96.6h4.7l4-2.4l-5-1.3C133.8,92.9,130.1,96.6,130.1,96.6z M129.6,91.8l-2.8,4.8h2.6
	l3.9-3.9L129.6,91.8z M132.2,87.2l-2.4,4.2l3.8,1l2.7-2.7L132.2,87.2z M134.8,82.7l-2.2,3.9l4.8-1.3L134.8,82.7z M141.7,84.1
	l-3.8-6.6l-2.8,4.8l2.8,2.9L141.7,84.1z M137.8,85.6l-5.1,1.3l4,2.3l2.4-2.4C139.1,86.9,137.8,85.6,137.8,85.6z M139.4,86.6l1.9-1.9
	l-3,0.8L139.4,86.6z M126.1,88.7l-3,0.8l2.6,0.7C125.7,90.2,126.1,88.7,126.1,88.7z M124.5,96.6h1.8l2.9-5l-3.1-0.8
	C126,90.8,124.5,96.6,124.5,96.6z M149.6,95.1l2-7.7l-2,1.2V95.1z M149.6,88l2.2-1.3l1.4-5.3l-3.6,1V88z M149.6,82l3.8-1l1-3.8h-4.8
	V82z M149.6,76.4l3.5-3.5l-3.5-1C149.6,71.9,149.6,76.4,149.6,76.4z M149.6,71.4l3.9,1.1l2.8-2.8l-6.7-3.9
	C149.6,65.9,149.6,71.4,149.6,71.4z M149.8,65.5l6.7,3.8l1-3.8l-2.9-2.9L149.8,65.5z M157,69L159,67l-1.1-1.1
	C157.9,65.9,157,69,157,69z M159.3,67.3l-2.3,2.3l5.8,3.4l0.8-1.3C163.6,71.7,159.3,67.3,159.3,67.3z M159.6,67l4.2,4.2l0.9-1.6
	l-2.9-4.9C161.9,64.8,159.6,67,159.6,67z M165,70.2l-0.8,1.4l3.9,4L165,70.2z M165.3,69.7l3.2,5.6l-2.1-7.7
	C166.5,67.7,165.3,69.7,165.3,69.7z M166.8,67.1l2.2,8.1V63.3L166.8,67.1z M167.8,75.9l-3.9-3.9l-0.7,1.2
	C163.3,73.2,167.8,75.9,167.8,75.9z M167.6,77.6l-8.1,2.2l-2.2,3.8C157.2,83.6,167.6,77.6,167.6,77.6z M167.6,78.2l-10.8,6.2
	l-6.2,10.8L167.6,78.2z M152.2,87.1l-2.2,8.1l5.9-10.3C156,84.9,152.2,87.1,152.2,87.1z M153.7,81.3l-1.4,5.1l4.1-2.4l2.4-4.1
	C158.8,80,153.7,81.3,153.7,81.3z M153.8,80.8l5.3-1.4l1.3-2.2h-5.6L153.8,80.8z M153.6,73l-3.7,3.7h4.5l0.8-3.2L153.6,73z
	 M156.2,70.5l-2.2,2.1l1.5,0.4C155.5,73.1,156.2,70.5,156.2,70.5z M162.6,73.4l-5.8-3.4l-0.8,3.1l5.9,1.6
	C161.8,74.7,162.6,73.4,162.6,73.4z M167.6,76.3l-4.6-2.7l-0.7,1.2L167.6,76.3z M167.5,76.7l-5.4-1.5l-0.8,1.5
	C161.2,76.7,167.5,76.7,167.5,76.7z M161.6,75.2l-5.8-1.6l-0.8,3.1h5.7L161.6,75.2z M159.8,79.3l7.6-2.1h-6.5
	C160.9,77.2,159.8,79.3,159.8,79.3z M94.8,4.6l-2,7.7l2-1.2V4.6z M94.8,11.6l-2.2,1.3l-1.4,5.3l3.6-1V11.6z M94.8,17.6l-3.7,1
	l-1,3.8h4.8C94.8,22.4,94.8,17.6,94.8,17.6z M94.8,23.2l-3.5,3.5l3.5,0.9V23.2z M94.8,28.1l-3.9-1.1l-2.7,2.8l6.7,3.9V28.1z
	 M94.8,34.5l-4.7,2.8l4.7,4.7V34.5z M94.8,43.4l-3.5,6.2h3.5V43.4z M94.8,50h-3.5l3.5,6.2V50z M94.8,57.6l-4.7,4.7l4.7,2.7
	C94.8,65.1,94.8,57.6,94.8,57.6z M94.8,65.9l-6.7,3.9l2.7,2.7l3.9-1V65.9z M94.8,71.9l-3.5,0.9l3.5,3.6
	C94.8,76.4,94.8,71.9,94.8,71.9z M94.8,77.2H90l1,3.8l3.7,1V77.2z M94.8,82.5l-3.6-1l1.4,5.3l2.2,1.3C94.8,88,94.8,82.5,94.8,82.5z
	 M94.8,88.6l-2-1.2l2,7.6C94.8,95,94.8,88.6,94.8,88.6z M94.4,95.2l-2.2-8.1l-3.8-2.2C88.4,84.8,94.4,95.2,94.4,95.2z M93.9,95.3
	l-6.2-10.8l-10.8-6.3L93.9,95.3z M76.6,75.8l4.5-2.6L80.5,72C80.5,72,76.6,75.8,76.6,75.8z M76.3,75.5l3.9-3.9l-0.8-1.4L76.3,75.5z
	 M75.8,75.3l3.3-5.6l-1.2-2C77.9,67.7,75.8,75.3,75.8,75.3z M75.4,76.8L75.4,76.8L75.4,76.8L75.4,76.8L75.4,76.8z M75.4,75.2
	l2.2-8.1l-2.2-3.7V75.2z M75.4,62.4l2.4,4l1.3-5.1l-3.7-3.7C75.4,57.7,75.4,62.4,75.4,62.4z M75.4,57.1l3.9,3.8l1-3.7l-4.8-2.8V57.1
	z M75.4,53.9l4.9,2.9l0.8-3.1l-5.8-1.5V53.9z M75.4,51.6l5.9,1.6l0.8-3.1h-6.7C75.4,50,75.4,51.6,75.4,51.6z M75.4,49.6h6.7
	l-0.8-3.2L75.4,48C75.4,48,75.4,49.6,75.4,49.6z M75.4,47.5l5.8-1.5l-0.8-3.2l-4.9,2.9C75.4,45.7,75.4,47.5,75.4,47.5z M75.4,45.1
	l4.8-2.8l-1-3.7l-3.9,3.9C75.4,42.6,75.4,45.1,75.4,45.1z M75.4,41.9l3.7-3.7l-1.3-5.1l-2.4,4V41.9z M75.4,36.2l2.2-3.7l-2.2-8.1
	V36.2z M75.8,24.3l2.1,7.7l1.2-2L75.8,24.3z M76.3,24l3.1,5.4l0.8-1.4C80.2,28,76.3,24,76.3,24z M76.6,23.7l3.9,3.9l0.7-1.2
	L76.6,23.7z M76.8,21.4l10.8-6.2l6.3-10.8C93.9,4.4,76.8,21.4,76.8,21.4z M92.2,12.5l2.2-8.1l-6,10.3L92.2,12.5z M90.7,18.2l1.3-5.1
	l-4.1,2.4l-2.4,4C85.5,19.6,90.7,18.2,90.7,18.2z M90.5,18.8l-5.3,1.4L84,22.4h5.6L90.5,18.8z M90.7,26.6l3.7-3.7h-4.5L89,26.1
	L90.7,26.6z M88.2,29.1l2.1-2.1l-1.4-0.4L88.2,29.1z M88.5,26.4l-5.9-1.6l-0.8,1.3l5.9,3.4L88.5,26.4z M89.7,36.9l4.8-2.8l-6.6-3.8
	l-1,3.8C86.9,34,89.7,36.9,89.7,36.9z M94.6,42.4l-4.9-4.9l-4.2,2.5l2.5,4.3C87.9,44.2,94.6,42.4,94.6,42.4z M90.9,49.3l3.7-6.5
	l-6.4,1.7C88.1,44.6,90.9,49.3,90.9,49.3z M94.6,56.7l-3.7-6.4L88.1,55C88.1,55,94.6,56.7,94.6,56.7z M94.6,57.2l-6.7-1.8l-2.5,4.3
	l4.2,2.4L94.6,57.2z M87.9,69.3l6.7-3.9l-4.8-2.8l-2.9,2.9C86.9,65.5,87.9,69.3,87.9,69.3z M87.6,70l-5.9,3.4l0.8,1.3l5.9-1.6
	L87.6,70z M90.4,72.6l-2.1-2.1l0.7,2.5C88.9,73,90.4,72.6,90.4,72.6z M89.9,76.7h4.5L90.7,73L89,73.5C89,73.5,89.9,76.7,89.9,76.7z
	 M90.5,80.8l-1-3.7H84l1.3,2.2L90.5,80.8z M87.9,84.1l4.1,2.4l-1.3-5L85.5,80C85.5,80,87.9,84.1,87.9,84.1z M76.8,77.6l10.4,6
	l-2.2-3.8L76.8,77.6z M82.3,75.3l-5.4,1.5h6.2L82.3,75.3z M83.4,77.2h-6.6l7.7,2.1C84.6,79.3,83.4,77.2,83.4,77.2z M83.7,76.7h5.7
	l-0.8-3.1l-5.8,1.5L83.7,76.7z M81.4,73.6l-4.5,2.6l5.2-1.4L81.4,73.6z M80.8,71.7l0.8,1.3l5.8-3.4l-2.3-2.3L80.8,71.7z M79.6,69.7
	l0.9,1.5l4.2-4.2l-2.2-2.3C82.5,64.8,79.6,69.7,79.6,69.7z M79.5,61.8L78.1,67l1.3,2.2l2.8-4.8C82.1,64.4,79.5,61.8,79.5,61.8z
	 M80.6,57.4l-1,3.8l2.8,2.8l2.4-4.2C84.8,59.8,80.6,57.4,80.6,57.4z M81.6,53.7L80.8,57l4,2.3l-1.3-5C83.4,54.2,81.6,53.7,81.6,53.7
	z M82.5,50.7l-0.7,2.6l1.5,0.4L82.5,50.7z M81.8,46.3l0.7,2.6l0.8-3L81.8,46.3z M80.8,42.6l0.9,3.2l1.7-0.5l1.3-5.1L80.8,42.6z
	 M79.6,38.4l1,3.8l4.1-2.4l-2.4-4.2C82.4,35.6,79.6,38.4,79.6,38.4z M79.4,30.3l-1.3,2.2l1.4,5.2l2.7-2.7L79.4,30.3z M80.5,28.3
	l-0.9,1.6l2.9,5l2.3-2.3L80.5,28.3z M87.4,30.6l-1.9,1.9l1.1,1.1C86.5,33.7,87.4,30.6,87.4,30.6z M85.5,39.3l3.8-2.2l-2.5-2.6
	L85.5,39.3z M86.4,34.2l-1.3-1.3l-2.4,2.4l2.3,4L86.4,34.2z M87.4,44.3l-2.2-3.9l-1.3,4.8C83.9,45.3,87.4,44.3,87.4,44.3z
	 M90.4,49.6l-2.8-4.9l-3.9,1l-1,3.8L90.4,49.6L90.4,49.6z M87.7,54.9l2.8-4.8h-7.7l1,3.8L87.7,54.9z M85.2,59.1l2.2-3.9l-3.5-1
	L85.2,59.1z M85,60.3l-2.3,4l2.4,2.4l1.3-1.3C86.4,65.4,85,60.3,85,60.3z M86.5,65.9L85.4,67l2,1.9L86.5,65.9z M86.8,65l2.5-2.5
	l-3.8-2.2L86.8,65z M80.8,27.9l4.3,4.3l2.3-2.3l-5.9-3.4L80.8,27.9z M76.8,23.3l4.5,2.6l0.7-1.2L76.8,23.3z M84.9,19.8l2.2-3.8
	l-10.3,5.9L84.9,19.8z M84.6,20.4l-7.6,2h6.4C83.4,22.4,84.6,20.4,84.6,20.4z M83.2,22.9H77l5.4,1.4C82.3,24.3,83.2,22.9,83.2,22.9z
	 M82.8,24.4l5.8,1.5l0.8-3.1h-5.7L82.8,24.4z M74.9,24.6l-6.3,23.3L74.9,37C74.9,37,74.9,24.6,74.9,24.6z M74.9,38l-6,10.4l6-6
	C74.9,42.4,74.9,38,74.9,38z M74.9,43l-5.6,5.6l5.6-3.2V43z M74.9,46l-5.4,3.2l5.4-1.5V46z M74.9,48.2l-5.3,1.4h5.3V48.2z M74.9,50
	h-5.3l5.3,1.4V50z M74.9,52l-5.4-1.5l5.4,3.1V52z M74.9,54.2l-5.7-3.3l5.7,5.7V54.2z M74.9,57.2l-6-6l6,10.4V57.2z M74.9,62.5
	l-6.3-10.9L74.9,75V62.5z M174.7,44l-5.2-19.3v12.4l3.9,6.7c-0.1,0-0.2,0-0.3,0c-0.1,0-0.2,0-0.3,0l-3.4-5.8v4.4l1.7,1.7
	c-0.2,0-0.3,0.1-0.5,0.2l-1.2-1.2v1.7c-0.2,0.1-0.3,0.2-0.5,0.3v-2.5l-3.8-3.9l-1,3.7l3.3,1.9h-0.9l-2.5-1.5l-0.4,1.5h-0.4v2.2
	l-0.2,0l-0.8,3.2h1V50h-1l0.8,3.1l0.2,0v2.3l-0.5-1.7l-1.7,0.5l-1.3,4.7v-0.2v-1.6l0.7-2.8l-0.7,0.2V54l0.9-0.2l1-3.8h-1.9v-0.5h1.9
	l-1-3.8l-2.8-0.7c-1.3-0.9-3.2-1.4-5.4-1.5l-2.6-0.7l0.4,0.8c-0.2,0-0.3,0-0.5,0l-0.2-0.3v0.3c-0.2,0-0.3,0.1-0.5,0.1v-0.7l-1,1
	c-0.3,0.1-0.7,0.2-1,0.4l1.9-1.8l-8.7-2.3v-0.5l8.6,2.3l-3.2-5.6l-5.4,3.1v-0.5l5.1-3l-3.2-5.6l-1.9,7.2V37h-0.3l1.8-6.7l-9.3,2.5
	l1.4,5.4l1.3,0.3v0.5l-1.1-0.3l0.9,3.5l0.2-0.1v2.5l-0.5-1.7l-6.4,3.7h-0.9l7.1-4.1l-4.9-4.9l-4.8,8.2v-0.9l4.4-7.6l-6.7-1.8V37H122
	v-1.4l-6.7,1.8l4.4,7.6v0.9l-4.7-8.2l-4.9,4.9l9.6,5.6v0.5l-9.9-5.7l-1.8,6.7h11.7V50h-11.7l1.8,6.7l9.9-5.7v0.5l-9.6,5.6l4.9,4.9
	l4.7-8.2v0.9l-4.4,7.6l6.7,1.8v-1.4h0.5V64l6.7-1.8l-4.4-7.6v-0.9l4.8,8.2l4.9-4.9l-9.7-5.6v-0.3h0.3l9.6,5.5l0.5-1.7v2.5l-0.2-0.1
	l-1,3.5l1.1-0.3v0.5l-1.3,0.3l-1.4,5.4l9.3,2.5l-1.8-6.7h0.3V62l1.9,7.1l3.2-5.6l-5.1-3v-0.5l5.4,3.1l0.4-0.8
	c0.1,0.1,0.3,0.1,0.4,0.2l-0.5,0.8l3.1,1.8v-2c0.2,0,0.3,0,0.5,0v1.9l4.7-2.7l-0.3-0.3c0.1-0.1,0.3-0.2,0.4-0.3l0.3,0.3L155,62
	c0,0.1,0,0.2,0.1,0.3l0,0.1l0,0l0.1,0.1v0.1h0.1l2.4,2.4l0.6-2.4h0.5l-0.8,2.8l1.3,1.3l2.4-2.4l-1-1.7h0.2l-0.3-0.4
	c-0.5-0.8-0.7-1.2-0.8-2.1L162,64l1.4-1.3h0.7l-1.8,1.8l2.8,4.8l1.3-2.2l-1.2-4.4h0.5l1,3.8l2.4-4v-4.7l-1,1v-0.7l1-1v-2.6l-1,0.6
	v-0.5l1-0.6V52l-0.9,0.3c0-0.2,0-0.3,0.1-0.5l0.8-0.2V50h-0.2c0.2-0.3,0.4-0.6,0.7-0.8v0.4h4.7c0.1,0.1,0.2,0.3,0.2,0.5h-4.9v1.4
	l4.9-1.3c0,0.2,0.1,0.3,0.1,0.5l-5,1.3v1.7l5-2.9c0,0.2,0.1,0.3,0.1,0.5l-5.1,2.9v2.4l5.1-5.1c0,0.2,0,0.4,0,0.6l-5.1,5.2v4.4
	l5.1-8.9v0.9l-5.1,8.9v12.4l5.1-19.1v1.8l-5.2,19.4l-20,19.9l-27.3,7.4L94.9,97L75,77.1l-7.4-27.3l0,0v0L75,22.6L94.9,2.6l27.2-7.4
	l27.3,7.4l20,19.9l5.8,21.6C175,44.1,174.8,44,174.7,44L174.7,44z M159.7,59.8l3.5-2v-0.5l-3.5,2C159.7,59.4,159.7,59.6,159.7,59.8z
	 M140.2,59.8l3-0.8c0-0.2-0.1-0.3-0.1-0.5l-2.9,0.8V59.8z M155,55.3l-5.1,1.4l1-1.9l-0.6,0.1l-0.7,1.3v-1c-0.2,0-0.3,0.1-0.5,0.2
	v1.1l-0.7-0.6c-0.1,0.1-0.2,0.2-0.3,0.3l0.7,0.7l-0.8,0.2c0,0.2,0,0.3,0.1,0.5l0.7-0.2l-0.4,0.7c0.1,0.1,0.2,0.2,0.3,0.3l0.3-0.5
	v0.7c0.2,0.1,0.3,0.1,0.5,0.2v-1.2L151,59c0.2,0,0.4,0,0.6,0l-1.7-1.8l5.2-1.4L155,55.3L155,55.3z M149.1,48.4v1.2h-0.4
	c0,0,0,0.2,0,0.2l0,0.2h0.5v1.2c0.2,0,0.3-0.1,0.5-0.1v-1h3.6l-0.2,0.4c0.2,0,0.4-0.1,0.6-0.1l0,0l0,0c0.2,0,0.3,0,0.5-0.1l-0.1-0.1
	h0.6c0.2-0.1,0.3-0.1,0.5-0.2c0-0.1,0-0.2,0-0.3h-1l0.7-1.2c0,0,0,0,0-0.1c-0.1-0.1-0.2-0.2-0.3-0.3l-0.8,1.3l-1.2-2
	c-0.1,0-0.2,0-0.4,0h-0.2l1.3,2.3h-3.5v-1.7C149.4,48,149.2,48.2,149.1,48.4z M148.3,50h-5.7l2.7,2.7c-0.1,0.1-0.2,0.2-0.3,0.3
	l-2.9-2.9l-1.8,1.9v-0.7l1.3-1.3h-1.3v-0.5h1.3l-1.3-1.3v-0.7l1.8,1.8l2.4-2.4c-0.2,0.3-0.3,0.7-0.4,1.1l-1.4,1.4h1.2l0,0.2
	L148.3,50L148.3,50z"/>
<path id="path10" inkscape:connector-curvature="0" class="st0" d="M288.7,89.5c0,3.7,1.6,5.7,4.4,5.7c2.9,0,4.6-2.2,4.6-5.6
	c0-3.4-1.8-5.6-4.7-5.6C290.4,84,288.7,86,288.7,89.5L288.7,89.5z M300.3,82v14.8c0,3-0.2,4-1.3,5.3c-1.1,1.3-2.9,2.1-5.3,2.1
	c-4,0-6.7-2.1-7.1-5.7h3c0.2,1.1,0.3,1.5,0.7,2.1c0.6,0.9,1.8,1.5,3.3,1.5c2.8,0,4-1.4,4-4.4v-2.6c-1.7,1.7-2.9,2.4-4.9,2.4
	c-1.7,0-3.1-0.5-4.2-1.4c-1.8-1.4-2.6-3.5-2.6-6.5c0-4.9,2.6-8.1,6.7-8.1c2.1,0,3.4,0.6,5,2.4V82H300.3L300.3,82z M272.3,82v1.7
	c1.5-1.6,2.7-2.2,4.6-2.2c3.4,0,5.3,2,5.3,5.7v9.8h-2.7v-9.2c0-1.5-0.2-2.2-0.6-2.9c-0.5-0.7-1.5-1.1-2.7-1.1
	c-1.4,0-2.5,0.5-3.2,1.6c-0.5,0.7-0.7,1.4-0.7,2.8v8.8h-2.7V82H272.3L272.3,82z M255,82v9.2c0,2.9,0.8,4,3,4c1.4,0,2.7-0.6,3.5-1.6
	c0.5-0.7,0.7-1.5,0.7-2.8V82h2.7v15.1h-2.7v-2c-1.7,1.8-3.1,2.5-5.1,2.5c-3.1,0-4.8-2-4.8-5.8V82C252.3,82,255,82,255,82z
	 M248.2,84.3h-2.7v9.4c0,1.2,0.2,1.4,1,1.4c0.4,0,0.8,0,1.8-0.3v2.2c-1.1,0.3-1.8,0.3-2.7,0.3c-2.1,0-2.8-0.7-2.8-2.9V84.3h-2.4V82
	h2.4v-4.7h2.7V82h2.7L248.2,84.3L248.2,84.3z M238.3,84.3h-2.8v12.8h-2.7V84.3h-2.7V82h2.7v-3.1c0-2.8,1.4-4.3,4-4.3
	c0.5,0,1,0.1,2,0.2V77c-1.1-0.1-1.2-0.1-1.5-0.1c-1.3,0-1.8,0.6-1.8,2.4V82h2.8V84.3z M226.9,97.1h-2.7V82h2.7V97.1z M226.9,77.5
	h-2.7v-2.9h2.7V77.5z M220,84.3h-2.7v9.4c0,1.2,0.2,1.4,1,1.4c0.5,0,0.8,0,1.8-0.3v2.2c-1.1,0.3-1.9,0.3-2.7,0.3
	c-2.1,0-2.8-0.7-2.8-2.9V84.3h-2.4V82h2.4v-4.7h2.7V82h2.7C220,82,220,84.3,220,84.3z M206.2,81.2c-0.2-3.1-2-4.7-5.6-4.7
	c-3.2,0-5.2,1.3-5.2,3.5c0,1.7,1.3,2.8,3.9,3.4l5.1,1.1c3.6,0.8,5.6,3,5.6,6.1c0,4.1-3.8,7.1-9.1,7.1c-3.5,0-6.7-1.3-8.2-3.3
	c-0.9-1.2-1.3-2.4-1.5-4.4l3.4-0.4c0.1,1.5,0.3,2.4,1,3.4c1,1.5,3,2.4,5.4,2.4c3.4,0,5.6-1.7,5.6-4.5c0-1.9-1.1-3-3.7-3.5l-4-0.8
	c-2.3-0.5-3.7-1-4.7-1.9c-1.2-1-1.9-2.5-1.9-4c0-3.8,3.5-6.4,8.5-6.4c3.2,0,5.5,1,7.1,2.8c0.8,1,1.2,2,1.6,4
	C209.4,80.9,206.2,81.2,206.2,81.2z"/>
<path id="path12" inkscape:connector-curvature="0" class="st0" d="M290.9,62.1h3.8v-7.3c0-3.1,0.7-4.7,2.5-5.6
	c1-0.5,1.8-0.7,3.2-0.7v-4.1H300c-2.2,0-3.6,0.8-4.9,2.8l-0.5,0.7v-3.1h-3.8L290.9,62.1L290.9,62.1z M282.5,51.5H274l0.1-0.3
	c0.6-3,1.9-4.2,4.2-4.2c2.4,0,3.8,1.4,4.2,4.2L282.5,51.5L282.5,51.5z M278.4,44c-5.2,0-8.5,3.7-8.5,9.6c0,5.6,3.5,9.3,8.9,9.3
	c3.2,0,5.8-1.3,7.9-4l-3.2-2c-1.4,1.8-2.5,2.5-4.3,2.5c-1.8,0-3.4-0.8-4.4-2.2c-0.5-0.7-0.7-1.4-0.8-2.9l0-0.2h12.7
	c-0.1-2.7-0.4-4.4-1.2-6C284,45.4,281.6,44,278.4,44L278.4,44z M251.4,44.8v11.1c0,2.3,0.3,3.6,1,4.6c0.9,1.3,2.8,2.2,4.8,2.2
	c2,0,3.3-0.5,5.2-2l0.4-0.3v1.7h3.8V44.8h-3.8v8.6c0,3.5-1.7,5.7-4.3,5.7c-2.2,0-3.3-1.3-3.3-4.2V44.8L251.4,44.8L251.4,44.8z
	 M239.1,59.5c-2,0-3.3-1-3.3-2.5c0-1.3,0.9-2.2,2.6-2.5l2.8-0.6c1.1-0.2,1.5-0.4,2.1-0.7l0.3-0.2v2.9
	C243.7,58,241.9,59.5,239.1,59.5L239.1,59.5z M240.3,46.8c1.4,0,2.5,0.4,3,1.2c0.3,0.5,0.4,1,0.5,1.9l0,0.2l-0.2,0.1
	c-0.8,0.3-1.5,0.5-2.9,0.8l-2.4,0.5c-2.2,0.4-3.3,0.8-4.3,1.5c-1.5,0.9-2.2,2.4-2.2,4.2c0,3.3,2.5,5.5,6.3,5.5
	c1.9,0,3.4-0.5,5.1-1.8l0.3-0.2l0,0.4c0.1,0.5,0.1,0.7,0.2,1.1h4.4c-0.6-0.9-0.7-1.4-0.7-3.4v-9.2c0-2.1-0.4-3.2-1.5-4
	c-1.3-1-3.4-1.5-5.9-1.5c-4.6,0-7,1.7-7.6,5.3l3.9,0.2C236.7,47.7,238,46.8,240.3,46.8L240.3,46.8z M207.8,57.8
	c1.2,1.6,2.1,2.5,3.4,3.3c2,1.2,4.5,1.9,7.4,1.9c6,0,10-3.2,10-7.9c0-2.1-0.8-3.9-2.2-5.1c-1.1-0.9-2.7-1.6-5.4-2.2l-3.7-0.9
	c-2.4-0.6-3.8-1.2-3.8-3c0-2,1.9-3.4,4.7-3.4c2.7,0,4.5,1,6.6,3.6l3.4-2.5c-3.1-3.5-5.8-4.9-9.9-4.9c-5.6,0-9.3,3-9.3,7.6
	c0,3.8,2.2,5.9,7.3,6.9l3.2,0.7c3.2,0.7,4.4,1.7,4.4,3.5c0,2.2-2,3.7-5,3.7c-3.3,0-5.8-1.3-7.7-3.9
	C211.4,55.3,207.8,57.8,207.8,57.8z M182.3,59.8c1.9,2,4.8,3.1,8.1,3.1c4.5,0,7.9-2.5,7.9-5.9c0-2.7-1.5-4.2-5-5l-2.9-0.6
	c-2.4-0.5-3.4-0.9-3.4-2.3c0-1.4,1.3-2.2,3.4-2.2c2.2,0,3.8,0.8,4.7,2.6l2.6-2.5c-2.2-2.2-4.4-3.1-7.4-3.1c-4.2,0-7.3,2.4-7.3,5.6
	c0,1.4,0.7,2.8,1.7,3.6c1,0.8,2.3,1.3,4.3,1.7l2.5,0.5c1.7,0.3,2.5,0.7,2.5,1.8c0,1.5-1.5,2.5-3.5,2.5c-2.2,0-3.8-0.7-5.2-2.1
	C185.1,57.6,182.3,59.8,182.3,59.8z M175.1,62.1h3.8V51.1c0-2.3-0.3-3.6-1-4.6c-0.9-1.3-2.8-2.2-4.8-2.2c-2,0-3.4,0.6-5.2,2.2
	l-0.4,0.3v-2h-3.8v17.3h3.8v-8.7c0-3.5,1.7-5.6,4.3-5.6c2.2,0,3.3,1.3,3.3,4.2V62.1z M150.8,59.5c-2,0-3.3-1-3.3-2.5
	c0-1.3,0.9-2.2,2.7-2.5l2.8-0.6c1.1-0.2,1.5-0.4,2.1-0.7l0.4-0.2v2.9C155.5,58,153.6,59.5,150.8,59.5z M152,46.8
	c1.4,0,2.5,0.4,3,1.2c0.3,0.5,0.4,1,0.5,1.9v0.2l-0.2,0.1c-0.8,0.3-1.5,0.5-3,0.8l-2.3,0.5c-2.2,0.4-3.3,0.8-4.3,1.5
	c-1.5,0.9-2.3,2.4-2.3,4.2c0,3.3,2.5,5.5,6.3,5.5c1.9,0,3.4-0.5,5.1-1.8l0.3-0.2l0.1,0.4c0,0.5,0.1,0.7,0.2,1.1h4.4
	c-0.6-0.9-0.7-1.4-0.7-3.4v-9.2c0-2.1-0.4-3.2-1.5-4c-1.3-1-3.4-1.5-5.9-1.5c-4.6,0-7,1.7-7.5,5.3l3.9,0.2
	C148.4,47.7,149.7,46.8,152,46.8L152,46.8z M135.6,62.1h4.2V37.4h-4.2V47h-11.3v-9.6h-4.2v24.7h4.2V50.7h11.3V62.1z"/>
</svg>
